999
dxflib 3.17.0.0
  0
SECTION
  2
HEADER
  9
$ACADVER
  1
AC1015
  9
$HANDSEED
  5
FFFF
  9
$DIMADEC
 70
0
  9
$DIMASZ
 40
0.18
  9
$DIMAUNIT
 70
0
  9
$DIMAZIN
 70
0
  9
$DIMDEC
 70
4
  9
$DIMDLI
 40
0.36
  9
$DIMDSEP
 70
46
  9
$DIMEXE
 40
0.18
  9
$DIMEXO
 40
0.0625
  9
$DIMGAP
 40
0.09
  9
$DIMLUNIT
 70
2
  9
$DIMSCALE
 40
1.0
  9
$DIMTSZ
 40
0.0
  9
$DIMTXT
 40
0.18
  9
$DIMZIN
 70
0
  9
$DWGCODEPAGE
  3
ANSI_1252
  9
$EXTMAX
 10
1058.3299999999999272
 20
1058.3299999999999272
 30
0.0
  9
$EXTMIN
 10
0.0
 20
0.0
 30
0.0
  9
$FILLMODE
 70
0
  9
$INSUNITS
 70
0
  9
$LTSCALE
 40
1.0
  9
$MAXACTVP
 70
64
  9
$MEASUREMENT
 70
1
  9
$PDMODE
 70
0
  9
$PDSIZE
 40
0.0
  9
$SPLFRAME
 70
1
  0
ENDSEC
  0
SECTION
  2
TABLES
  0
TABLE
  2
VPORT
  5
8
100
AcDbSymbolTable
 70
1
  0
VPORT
  5
30
100
AcDbSymbolTableRecord
100
AcDbViewportTableRecord
  2
*Active
 70
0
 10
0.0
 20
0.0
 11
1.0
 21
1.0
 12
286.3055555555554861
 22
148.5
 13
0.0
 23
0.0
 14
10.0
 24
10.0
 15
10.0
 25
10.0
 16
0.0
 26
0.0
 36
1.0
 17
0.0
 27
0.0
 37
0.0
 40
297.0
 41
1.92798353909465
 42
50.0
 43
0.0
 44
0.0
 50
0.0
 51
0.0
 71
0
 72
100
 73
1
 74
3
 75
1
 76
1
 77
0
 78
0
281
0
 65
1
110
0.0
120
0.0
130
0.0
111
1.0
121
0.0
131
0.0
112
0.0
122
1.0
132
0.0
 79
0
146
0.0
  0
ENDTAB
  0
TABLE
  2
LTYPE
  5
5
100
AcDbSymbolTable
 70
41
  0
LTYPE
  5
16
100
AcDbSymbolTableRecord
100
AcDbLinetypeTableRecord
  2
Continuous
 70
0
  3
Solid line
 72
65
 73
0
 40
0.0
  0
LTYPE
  5
31
100
AcDbSymbolTableRecord
100
AcDbLinetypeTableRecord
  2
BORDER2
 70
0
  3
Border (.5x) __.__.__.__.__.__.__.__.__.__.__.
 72
65
 73
6
 40
22.2249999999999979
 49
6.3499999999999996
 74
0
 49
-3.1749999999999998
 74
0
 49
6.3499999999999996
 74
0
 49
-3.1749999999999998
 74
0
 49
0.0
 74
0
 49
-3.1749999999999998
 74
0
  0
LTYPE
  5
32
100
AcDbSymbolTableRecord
100
AcDbLinetypeTableRecord
  2
ACAD_ISO02W100
 70
0
  3
ISO dash __ __ __ __ __ __ __ __ __ __ __ __ __
 72
65
 73
2
 40
15.0
 49
12.0
 74
0
 49
-3.0
 74
0
  0
LTYPE
  5
33
100
AcDbSymbolTableRecord
100
AcDbLinetypeTableRecord
  2
ACAD_ISO14W100
 70
0
  3
ISO dash triple-dot __ . . . __ . . . __ . . . _
 72
65
 73
8
 40
24.0
 49
12.0
 74
0
 49
-3.0
 74
0
 49
0.0
 74
0
 49
-3.0
 74
0
 49
0.0
 74
0
 49
-3.0
 74
0
 49
0.0
 74
0
 49
-3.0
 74
0
  0
LTYPE
  5
34
100
AcDbSymbolTableRecord
100
AcDbLinetypeTableRecord
  2
DOT2
 70
0
  3
Dot (.5x) ........................................
 72
65
 73
2
 40
3.1749999999999998
 49
0.0
 74
0
 49
-3.1749999999999998
 74
0
  0
LTYPE
  5
35
100
AcDbSymbolTableRecord
100
AcDbLinetypeTableRecord
  2
DASHDOTX2
 70
0
  3
Dash dot (2x) ____  .  ____  .  ____  .  ___
 72
65
 73
4
 40
50.7999999999999972
 49
25.3999999999999986
 74
0
 49
-12.6999999999999993
 74
0
 49
0.0
 74
0
 49
-12.6999999999999993
 74
0
  0
LTYPE
  5
36
100
AcDbSymbolTableRecord
100
AcDbLinetypeTableRecord
  2
DASHED
 70
0
  3
Dashed __ __ __ __ __ __ __ __ __ __ __ __ __ _
 72
65
 73
2
 40
19.0499999999999972
 49
12.6999999999999993
 74
0
 49
-6.3499999999999996
 74
0
  0
LTYPE
  5
37
100
AcDbSymbolTableRecord
100
AcDbLinetypeTableRecord
  2
ACAD_ISO06W100
 70
0
  3
ISO long-dash triple-dot ____ ... ____ ... ____
 72
65
 73
8
 40
36.0
 49
24.0
 74
0
 49
-3.0
 74
0
 49
0.0
 74
0
 49
-3.0
 74
0
 49
0.0
 74
0
 49
-3.0
 74
0
 49
0.0
 74
0
 49
-3.0
 74
0
  0
LTYPE
  5
38
100
AcDbSymbolTableRecord
100
AcDbLinetypeTableRecord
  2
PHANTOM2
 70
0
  3
Phantom (.5x) ___ _ _ ___ _ _ ___ _ _ ___ _ _
 72
65
 73
6
 40
31.7500000000000036
 49
15.875
 74
0
 49
-3.1749999999999998
 74
0
 49
3.1749999999999998
 74
0
 49
-3.1749999999999998
 74
0
 49
3.1749999999999998
 74
0
 49
-3.1749999999999998
 74
0
  0
LTYPE
  5
39
100
AcDbSymbolTableRecord
100
AcDbLinetypeTableRecord
  2
PHANTOMX2
 70
0
  3
Phantom (2x) ____________    ____    ____   _
 72
65
 73
6
 40
127.0000000000000142
 49
63.5
 74
0
 49
-12.6999999999999993
 74
0
 49
12.6999999999999993
 74
0
 49
-12.6999999999999993
 74
0
 49
12.6999999999999993
 74
0
 49
-12.6999999999999993
 74
0
  0
LTYPE
  5
3A
100
AcDbSymbolTableRecord
100
AcDbLinetypeTableRecord
  2
ACAD_ISO15W100
 70
0
  3
ISO double-dash triple-dot __ __ . . . __ __ . .
 72
65
 73
10
 40
39.0
 49
12.0
 74
0
 49
-3.0
 74
0
 49
12.0
 74
0
 49
-3.0
 74
0
 49
0.0
 74
0
 49
-3.0
 74
0
 49
0.0
 74
0
 49
-3.0
 74
0
 49
0.0
 74
0
 49
-3.0
 74
0
  0
LTYPE
  5
14
100
AcDbSymbolTableRecord
100
AcDbLinetypeTableRecord
  2
BYBLOCK
 70
0
  3

 72
65
 73
0
 40
0.0
  0
LTYPE
  5
3B
100
AcDbSymbolTableRecord
100
AcDbLinetypeTableRecord
  2
CENTER
 70
0
  3
Center ____ _ ____ _ ____ _ ____ _ ____ _ ____
 72
65
 73
4
 40
50.8000000000000043
 49
31.75
 74
0
 49
-6.3499999999999996
 74
0
 49
6.3499999999999996
 74
0
 49
-6.3499999999999996
 74
0
  0
LTYPE
  5
3C
100
AcDbSymbolTableRecord
100
AcDbLinetypeTableRecord
  2
ACAD_ISO08W100
 70
0
  3
ISO long-dash short-dash ____ __ ____ __ ____ _
 72
65
 73
4
 40
36.0
 49
24.0
 74
0
 49
-3.0
 74
0
 49
6.0
 74
0
 49
-3.0
 74
0
  0
LTYPE
  5
3D
100
AcDbSymbolTableRecord
100
AcDbLinetypeTableRecord
  2
DASHDOT
 70
0
  3
Dash dot __ . __ . __ . __ . __ . __ . __ . __
 72
65
 73
4
 40
25.3999999999999986
 49
12.6999999999999993
 74
0
 49
-6.3499999999999996
 74
0
 49
0.0
 74
0
 49
-6.3499999999999996
 74
0
  0
LTYPE
  5
3E
100
AcDbSymbolTableRecord
100
AcDbLinetypeTableRecord
  2
BORDERX2
 70
0
  3
Border (2x) ____  ____  .  ____  ____  .  ___
 72
65
 73
6
 40
88.8999999999999915
 49
25.3999999999999986
 74
0
 49
-12.6999999999999993
 74
0
 49
25.3999999999999986
 74
0
 49
-12.6999999999999993
 74
0
 49
0.0
 74
0
 49
-12.6999999999999993
 74
0
  0
LTYPE
  5
3F
100
AcDbSymbolTableRecord
100
AcDbLinetypeTableRecord
  2
ACAD_ISO11W100
 70
0
  3
ISO double-dash dot __ __ . __ __ . __ __ . __ _
 72
65
 73
6
 40
33.0
 49
12.0
 74
0
 49
-3.0
 74
0
 49
12.0
 74
0
 49
-3.0
 74
0
 49
0.0
 74
0
 49
-3.0
 74
0
  0
LTYPE
  5
40
100
AcDbSymbolTableRecord
100
AcDbLinetypeTableRecord
  2
DASHDOT2
 70
0
  3
Dash dot (.5x) _._._._._._._._._._._._._._._.
 72
65
 73
4
 40
12.6999999999999993
 49
6.3499999999999996
 74
0
 49
-3.1749999999999998
 74
0
 49
0.0
 74
0
 49
-3.1749999999999998
 74
0
  0
LTYPE
  5
41
100
AcDbSymbolTableRecord
100
AcDbLinetypeTableRecord
  2
ACAD_ISO12W100
 70
0
  3
ISO dash double-dot __ . . __ . . __ . . __ . . 
 72
65
 73
6
 40
21.0
 49
12.0
 74
0
 49
-3.0
 74
0
 49
0.0
 74
0
 49
-3.0
 74
0
 49
0.0
 74
0
 49
-3.0
 74
0
  0
LTYPE
  5
15
100
AcDbSymbolTableRecord
100
AcDbLinetypeTableRecord
  2
BYLAYER
 70
0
  3

 72
65
 73
0
 40
0.0
  0
LTYPE
  5
42
100
AcDbSymbolTableRecord
100
AcDbLinetypeTableRecord
  2
CENTER2
 70
0
  3
Center (.5x) ___ _ ___ _ ___ _ ___ _ ___ _ ___
 72
65
 73
4
 40
28.5750000000000028
 49
19.0500000000000007
 74
0
 49
-3.1749999999999998
 74
0
 49
3.1749999999999998
 74
0
 49
-3.1749999999999998
 74
0
  0
LTYPE
  5
43
100
AcDbSymbolTableRecord
100
AcDbLinetypeTableRecord
  2
DOT
 70
0
  3
Dot . . . . . . . . . . . . . . . . . . . . . . . .
 72
65
 73
2
 40
6.3499999999999996
 49
0.0
 74
0
 49
-6.3499999999999996
 74
0
  0
LTYPE
  5
44
100
AcDbSymbolTableRecord
100
AcDbLinetypeTableRecord
  2
ACAD_ISO09W100
 70
0
  3
ISO long-dash double-short-dash ____ __ __ ____
 72
65
 73
6
 40
45.0
 49
24.0
 74
0
 49
-3.0
 74
0
 49
6.0
 74
0
 49
-3.0
 74
0
 49
6.0
 74
0
 49
-3.0
 74
0
  0
LTYPE
  5
45
100
AcDbSymbolTableRecord
100
AcDbLinetypeTableRecord
  2
ACAD_ISO04W100
 70
0
  3
ISO long-dash dot ____ . ____ . ____ . ____ . _
 72
65
 73
4
 40
30.0
 49
24.0
 74
0
 49
-3.0
 74
0
 49
0.0
 74
0
 49
-3.0
 74
0
  0
LTYPE
  5
46
100
AcDbSymbolTableRecord
100
AcDbLinetypeTableRecord
  2
DIVIDE2
 70
0
  3
Divide (.5x) __..__..__..__..__..__..__..__.._
 72
65
 73
6
 40
15.875
 49
6.3499999999999996
 74
0
 49
-3.1749999999999998
 74
0
 49
0.0
 74
0
 49
-3.1749999999999998
 74
0
 49
0.0
 74
0
 49
-3.1749999999999998
 74
0
  0
LTYPE
  5
47
100
AcDbSymbolTableRecord
100
AcDbLinetypeTableRecord
  2
DASHED2
 70
0
  3
Dashed (.5x) _ _ _ _ _ _ _ _ _ _ _ _ _ _ _ _ _ 
 72
65
 73
2
 40
9.5249999999999986
 49
6.3499999999999996
 74
0
 49
-3.1749999999999998
 74
0
  0
LTYPE
  5
48
100
AcDbSymbolTableRecord
100
AcDbLinetypeTableRecord
  2
DASHEDX2
 70
0
  3
Dashed (2x) ____  ____  ____  ____  ____  ___
 72
65
 73
2
 40
38.0999999999999943
 49
25.3999999999999986
 74
0
 49
-12.6999999999999993
 74
0
  0
LTYPE
  5
49
100
AcDbSymbolTableRecord
100
AcDbLinetypeTableRecord
  2
ACAD_ISO10W100
 70
0
  3
ISO dash dot __ . __ . __ . __ . __ . __ . __ . 
 72
65
 73
4
 40
18.0
 49
12.0
 74
0
 49
-3.0
 74
0
 49
0.0
 74
0
 49
-3.0
 74
0
  0
LTYPE
  5
4A
100
AcDbSymbolTableRecord
100
AcDbLinetypeTableRecord
  2
DIVIDEX2
 70
0
  3
Divide (2x) ________  .  .  ________  .  .  _
 72
65
 73
6
 40
63.5
 49
25.3999999999999986
 74
0
 49
-12.6999999999999993
 74
0
 49
0.0
 74
0
 49
-12.6999999999999993
 74
0
 49
0.0
 74
0
 49
-12.6999999999999993
 74
0
  0
LTYPE
  5
4B
100
AcDbSymbolTableRecord
100
AcDbLinetypeTableRecord
  2
PHANTOM
 70
0
  3
Phantom ______  __  __  ______  __  __  ______ 
 72
65
 73
6
 40
63.5000000000000071
 49
31.75
 74
0
 49
-6.3499999999999996
 74
0
 49
6.3499999999999996
 74
0
 49
-6.3499999999999996
 74
0
 49
6.3499999999999996
 74
0
 49
-6.3499999999999996
 74
0
  0
LTYPE
  5
4C
100
AcDbSymbolTableRecord
100
AcDbLinetypeTableRecord
  2
ACAD_ISO13W100
 70
0
  3
ISO double-dash double-dot __ __ . . __ __ . . _
 72
65
 73
8
 40
36.0
 49
12.0
 74
0
 49
-3.0
 74
0
 49
12.0
 74
0
 49
-3.0
 74
0
 49
0.0
 74
0
 49
-3.0
 74
0
 49
0.0
 74
0
 49
-3.0
 74
0
  0
LTYPE
  5
4D
100
AcDbSymbolTableRecord
100
AcDbLinetypeTableRecord
  2
HIDDEN2
 70
0
  3
Hidden (.5x) _ _ _ _ _ _ _ _ _ _ _ _ _ _ _ _ _ 
 72
65
 73
2
 40
4.7624999999999993
 49
3.1749999999999998
 74
0
 49
-1.5874999999999999
 74
0
  0
LTYPE
  5
4E
100
AcDbSymbolTableRecord
100
AcDbLinetypeTableRecord
  2
BORDER
 70
0
  3
Border __ __ . __ __ . __ __ . __ __ . __ __ .
 72
65
 73
6
 40
44.4499999999999957
 49
12.6999999999999993
 74
0
 49
-6.3499999999999996
 74
0
 49
12.6999999999999993
 74
0
 49
-6.3499999999999996
 74
0
 49
0.0
 74
0
 49
-6.3499999999999996
 74
0
  0
LTYPE
  5
4F
100
AcDbSymbolTableRecord
100
AcDbLinetypeTableRecord
  2
ACAD_ISO07W100
 70
0
  3
ISO dot . . . . . . . . . . . . . . . . . . . . 
 72
65
 73
2
 40
3.0
 49
0.0
 74
0
 49
-3.0
 74
0
  0
LTYPE
  5
50
100
AcDbSymbolTableRecord
100
AcDbLinetypeTableRecord
  2
HIDDEN
 70
0
  3
Hidden __ __ __ __ __ __ __ __ __ __ __ __ __ __
 72
65
 73
2
 40
9.5249999999999986
 49
6.3499999999999996
 74
0
 49
-3.1749999999999998
 74
0
  0
LTYPE
  5
51
100
AcDbSymbolTableRecord
100
AcDbLinetypeTableRecord
  2
DOTX2
 70
0
  3
Dot (2x) .  .  .  .  .  .  .  .  .  .  .  .  .  .
 72
65
 73
2
 40
12.6999999999999993
 49
0.0
 74
0
 49
-12.6999999999999993
 74
0
  0
LTYPE
  5
52
100
AcDbSymbolTableRecord
100
AcDbLinetypeTableRecord
  2
HIDDENX2
 70
0
  3
Hidden (2x) ____ ____ ____ ____ ____ ____ ____ 
 72
65
 73
2
 40
19.0499999999999972
 49
12.6999999999999993
 74
0
 49
-6.3499999999999996
 74
0
  0
LTYPE
  5
53
100
AcDbSymbolTableRecord
100
AcDbLinetypeTableRecord
  2
ACAD_ISO03W100
 70
0
  3
ISO dash space __    __    __    __    __    __
 72
65
 73
2
 40
30.0
 49
12.0
 74
0
 49
-18.0
 74
0
  0
LTYPE
  5
54
100
AcDbSymbolTableRecord
100
AcDbLinetypeTableRecord
  2
DIVIDE
 70
0
  3
Divide ____ . . ____ . . ____ . . ____ . . ____
 72
65
 73
6
 40
31.75
 49
12.6999999999999993
 74
0
 49
-6.3499999999999996
 74
0
 49
0.0
 74
0
 49
-6.3499999999999996
 74
0
 49
0.0
 74
0
 49
-6.3499999999999996
 74
0
  0
LTYPE
  5
55
100
AcDbSymbolTableRecord
100
AcDbLinetypeTableRecord
  2
ACAD_ISO05W100
 70
0
  3
ISO long-dash double-dot ____ .. ____ .. ____ . 
 72
65
 73
6
 40
33.0
 49
24.0
 74
0
 49
-3.0
 74
0
 49
0.0
 74
0
 49
-3.0
 74
0
 49
0.0
 74
0
 49
-3.0
 74
0
  0
LTYPE
  5
56
100
AcDbSymbolTableRecord
100
AcDbLinetypeTableRecord
  2
CENTERX2
 70
0
  3
Center (2x) ________  __  ________  __  _____
 72
65
 73
4
 40
101.6000000000000085
 49
63.5
 74
0
 49
-12.6999999999999993
 74
0
 49
12.6999999999999993
 74
0
 49
-12.6999999999999993
 74
0
  0
ENDTAB
  0
TABLE
  2
LAYER
  5
2
100
AcDbSymbolTable
 70
1
  0
LAYER
  5
10
100
AcDbSymbolTableRecord
100
AcDbLayerTableRecord
  2
0
 70
0
 62
7
420
16777215
  6
Continuous
370
5
390
F
  0
ENDTAB
  0
TABLE
  2
STYLE
  5
3
100
AcDbSymbolTable
 70
1
  0
STYLE
  5
57
100
AcDbSymbolTableRecord
100
AcDbTextStyleTableRecord
  2
Standard
 70
0
 40
0.0
 41
1.0
 50
0.0
 71
0
 42
2.5
  3

  4

1001
ACAD
1000
txt
1071
0
  0
ENDTAB
  0
TABLE
  2
VIEW
  5
6
100
AcDbSymbolTable
 70
0
  0
ENDTAB
  0
TABLE
  2
UCS
  5
7
100
AcDbSymbolTable
 70
0
  0
ENDTAB
  0
TABLE
  2
APPID
  5
9
100
AcDbSymbolTable
 70
1
  0
APPID
  5
12
100
AcDbSymbolTableRecord
100
AcDbRegAppTableRecord
  2
ACAD
 70
0
  0
APPID
  5
58
100
AcDbSymbolTableRecord
100
AcDbRegAppTableRecord
  2
QCAD
 70
0
  0
ENDTAB
  0
TABLE
  2
DIMSTYLE
  5
A
100
AcDbSymbolTable
 70
1
100
AcDbDimStyleTable
 71
0
  0
DIMSTYLE
105
27
100
AcDbSymbolTableRecord
100
AcDbDimStyleTableRecord
  2
Standard
 41
0.18
 42
0.0625
 43
3.75
 44
0.18
 70
0
 73
0
 74
0
 77
1
 78
8
140
0.18
141
2.5
143
0.03937007874016
147
0.09
171
3
172
1
271
2
272
2
274
3
278
44
283
0
284
8
340
57
  0
ENDTAB
  0
TABLE
  2
BLOCK_RECORD
  5
1
100
AcDbSymbolTable
 70
1
  0
BLOCK_RECORD
  5
1F
100
AcDbSymbolTableRecord
100
AcDbBlockTableRecord
  2
*Model_Space
340
22
  0
BLOCK_RECORD
  5
1B
100
AcDbSymbolTableRecord
100
AcDbBlockTableRecord
  2
*Paper_Space
340
1E
  0
BLOCK_RECORD
  5
23
100
AcDbSymbolTableRecord
100
AcDbBlockTableRecord
  2
*Paper_Space0
340
26
  0
ENDTAB
  0
ENDSEC
  0
SECTION
  2
BLOCKS
  0
BLOCK
  5
20
100
AcDbEntity
  8
0
100
AcDbBlockBegin
  2
*Model_Space
 70
0
 10
0.0
 20
0.0
 30
0.0
  3
*Model_Space
  1

  0
ENDBLK
  5
21
100
AcDbEntity
  8
0
100
AcDbBlockEnd
  0
BLOCK
  5
1C
100
AcDbEntity
 67
1
  8
0
100
AcDbBlockBegin
  2
*Paper_Space
 70
0
 10
0.0
 20
0.0
 30
0.0
  3
*Paper_Space
  1

  0
ENDBLK
  5
1D
100
AcDbEntity
 67
1
  8
0
100
AcDbBlockEnd
  0
BLOCK
  5
24
100
AcDbEntity
  8
0
100
AcDbBlockBegin
  2
*Paper_Space0
 70
0
 10
0.0
 20
0.0
 30
0.0
  3
*Paper_Space0
  1

  0
ENDBLK
  5
25
100
AcDbEntity
  8
0
100
AcDbBlockEnd
  0
ENDSEC
  0
SECTION
  2
ENTITIES
  0
LWPOLYLINE
  5
59
100
AcDbEntity
  8
0
 62
256
370
-1
 48
1.0
  6
BYLAYER
100
AcDbPolyline
 90
532
 70
1
 10
13.4001000000000001
 20
24.6998999999999995
 10
19.3007999999999988
 20
24.6998999999999995
 10
19.3105000000000011
 20
24.6998999999999995
 10
19.3420999999999985
 20
24.7150999999999996
 10
19.338000000000001
 20
24.7384999999999984
 10
19.3145999999999987
 20
24.7426999999999992
 10
19.3007999999999988
 20
24.7109999999999985
 10
19.3007999999999988
 20
24.6998999999999995
 10
19.3007999999999988
 20
21.8005999999999993
 10
19.3007999999999988
 20
21.7839999999999989
 10
19.3297999999999988
 20
21.7302999999999997
 10
19.3821000000000012
 20
21.6999999999999993
 10
19.3999999999999986
 20
21.6999999999999993
 10
25.3999999999999986
 20
21.6999999999999993
 10
25.4164999999999992
 20
21.6999999999999993
 10
25.4703000000000017
 20
21.7302999999999997
 10
25.4991999999999983
 20
21.7839999999999989
 10
25.4991999999999983
 20
21.8005999999999993
 10
25.4991999999999983
 20
24.6998999999999995
 10
25.4991999999999983
 20
24.7109999999999985
 10
25.4841000000000015
 20
24.7426999999999992
 10
25.4619999999999997
 20
24.7384999999999984
 10
25.4564999999999984
 20
24.7150999999999996
 10
25.4881999999999991
 20
24.6998999999999995
 10
25.4991999999999983
 20
24.6998999999999995
 10
31.2993999999999986
 20
24.6998999999999995
 10
31.3090000000000011
 20
24.6998999999999995
 10
31.3406999999999982
 20
24.7150999999999996
 10
31.3366000000000007
 20
24.7384999999999984
 10
31.3131999999999984
 20
24.7426999999999992
 10
31.2993999999999986
 20
24.7109999999999985
 10
31.2993999999999986
 20
24.6998999999999995
 10
31.2993999999999986
 20
21.8005999999999993
 10
31.2993999999999986
 20
21.7839999999999989
 10
31.3282999999999987
 20
21.7302999999999997
 10
31.3821000000000012
 20
21.6999999999999993
 10
31.3999999999999986
 20
21.6999999999999993
 10
37.4001000000000019
 20
21.6999999999999993
 10
37.4166999999999987
 20
21.6999999999999993
 10
37.4703000000000017
 20
21.7302999999999997
 10
37.5005999999999986
 20
21.7839999999999989
 10
37.5005999999999986
 20
21.8005999999999993
 10
37.5005999999999986
 20
24.6998999999999995
 10
37.5005999999999986
 20
24.7109999999999985
 10
37.4855000000000018
 20
24.7426999999999992
 10
37.4617999999999967
 20
24.7384999999999984
 10
37.4579000000000022
 20
24.7150999999999996
 10
37.4896999999999991
 20
24.6998999999999995
 10
37.5005999999999986
 20
24.6998999999999995
 10
43.299199999999999
 20
24.6998999999999995
 10
43.3091000000000008
 20
24.6998999999999995
 10
43.3404999999999987
 20
24.7150999999999996
 10
43.3365999999999971
 20
24.7384999999999984
 10
43.3130000000000024
 20
24.7426999999999992
 10
43.299199999999999
 20
24.7109999999999985
 10
43.299199999999999
 20
24.6998999999999995
 10
43.299199999999999
 20
21.8005999999999993
 10
43.299199999999999
 20
21.7839999999999989
 10
43.3282000000000025
 20
21.7302999999999997
 10
43.3821000000000012
 20
21.6999999999999993
 10
43.399799999999999
 20
21.6999999999999993
 10
49.399799999999999
 20
21.6999999999999993
 10
49.416400000000003
 20
21.6999999999999993
 10
49.4699999999999989
 20
21.7302999999999997
 10
49.5003999999999991
 20
21.7839999999999989
 10
49.5003999999999991
 20
21.8005999999999993
 10
49.5003999999999991
 20
24.6998999999999995
 10
49.5003999999999991
 20
24.7109999999999985
 10
49.485199999999999
 20
24.7426999999999992
 10
49.4619
 20
24.7384999999999984
 10
49.4577000000000027
 20
24.7150999999999996
 10
49.4894000000000034
 20
24.6998999999999995
 10
49.5003999999999991
 20
24.6998999999999995
 10
55.3006999999999991
 20
24.6998999999999995
 10
55.310299999999998
 20
24.6998999999999995
 10
55.3419999999999987
 20
24.7150999999999996
 10
55.3378000000000014
 20
24.7384999999999984
 10
55.3145000000000024
 20
24.7426999999999992
 10
55.3006999999999991
 20
24.7109999999999985
 10
55.3006999999999991
 20
24.6998999999999995
 10
55.3006999999999991
 20
21.8005999999999993
 10
55.3006999999999991
 20
21.7839999999999989
 10
55.3297000000000025
 20
21.7302999999999997
 10
55.3819000000000017
 20
21.6999999999999993
 10
55.3999000000000024
 20
21.6999999999999993
 10
61.3999000000000024
 20
21.6999999999999993
 10
61.4164999999999992
 20
21.6999999999999993
 10
61.4701000000000022
 20
21.7302999999999997
 10
61.5005000000000024
 20
21.7839999999999989
 10
61.5005000000000024
 20
21.8005999999999993
 10
61.5005000000000024
 20
24.6998999999999995
 10
61.5005000000000024
 20
24.7109999999999985
 10
61.4853000000000023
 20
24.7426999999999992
 10
61.4620000000000033
 20
24.7384999999999984
 10
61.4577999999999989
 20
24.7150999999999996
 10
61.4894999999999996
 20
24.6998999999999995
 10
61.5005000000000024
 20
24.6998999999999995
 10
67.3004999999999995
 20
24.6998999999999995
 10
67.3104000000000013
 20
24.6998999999999995
 10
67.3421000000000021
 20
24.7150999999999996
 10
67.3379000000000048
 20
24.7384999999999984
 10
67.3145999999999987
 20
24.7426999999999992
 10
67.3004999999999995
 20
24.7109999999999985
 10
67.3004999999999995
 20
24.6998999999999995
 10
67.3004999999999995
 20
21.8005999999999993
 10
67.3004999999999995
 20
21.7839999999999989
 10
67.3294000000000068
 20
21.7302999999999997
 10
67.382000000000005
 20
21.6999999999999993
 10
67.4000000000000057
 20
21.6999999999999993
 10
73.4000000000000057
 20
21.6999999999999993
 10
73.4162000000000035
 20
21.6999999999999993
 10
73.4702000000000055
 20
21.7302999999999997
 10
73.5005000000000024
 20
21.7839999999999989
 10
73.5005000000000024
 20
21.8005999999999993
 10
73.5005000000000024
 20
24.6998999999999995
 10
73.5005000000000024
 20
24.7109999999999985
 10
73.4853999999999985
 20
24.7426999999999992
 10
73.4616999999999933
 20
24.7384999999999984
 10
73.4578999999999951
 20
24.7150999999999996
 10
73.4893000000000001
 20
24.6998999999999995
 10
73.5005000000000024
 20
24.6998999999999995
 10
79.299199999999999
 20
24.6998999999999995
 10
79.3089999999999975
 20
24.6998999999999995
 10
79.3404000000000025
 20
24.7150999999999996
 10
79.3365000000000009
 20
24.7384999999999984
 10
79.3128999999999991
 20
24.7426999999999992
 10
79.299199999999999
 20
24.7109999999999985
 10
79.299199999999999
 20
24.6998999999999995
 10
79.299199999999999
 20
21.8005999999999993
 10
79.299199999999999
 20
21.7839999999999989
 10
79.3281000000000063
 20
21.7302999999999997
 10
79.3820999999999941
 20
21.6999999999999993
 10
79.3996999999999957
 20
21.6999999999999993
 10
85.3996999999999957
 20
21.6999999999999993
 10
85.4163000000000068
 20
21.6999999999999993
 10
85.4698999999999955
 20
21.7302999999999997
 10
85.5002999999999957
 20
21.7839999999999989
 10
85.5002999999999957
 20
21.8005999999999993
 10
85.5002999999999957
 20
24.6998999999999995
 10
85.5002999999999957
 20
24.7109999999999985
 10
85.4851000000000028
 20
24.7426999999999992
 10
85.4617999999999967
 20
24.7384999999999984
 10
85.4575999999999993
 20
24.7150999999999996
 10
85.4893000000000001
 20
24.6998999999999995
 10
85.5002999999999957
 20
24.6998999999999995
 10
91.3007000000000062
 20
24.6998999999999995
 10
91.3101999999999947
 20
24.6998999999999995
 10
91.3418999999999954
 20
24.7150999999999996
 10
91.3376999999999981
 20
24.7384999999999984
 10
91.3144000000000062
 20
24.7426999999999992
 10
91.3007000000000062
 20
24.7109999999999985
 10
91.3007000000000062
 20
24.6998999999999995
 10
91.3007000000000062
 20
21.8005999999999993
 10
91.3007000000000062
 20
21.7839999999999989
 10
91.3295999999999992
 20
21.7302999999999997
 10
91.3817999999999984
 20
21.6999999999999993
 10
91.399799999999999
 20
21.6999999999999993
 10
97.399799999999999
 20
21.6999999999999993
 10
97.4163999999999959
 20
21.6999999999999993
 10
97.4699999999999989
 20
21.7302999999999997
 10
97.5003999999999991
 20
21.7839999999999989
 10
97.5003999999999991
 20
21.8005999999999993
 10
97.5003999999999991
 20
24.6998999999999995
 10
97.5003999999999991
 20
24.7109999999999985
 10
97.4852000000000061
 20
24.7426999999999992
 10
97.4619
 20
24.7384999999999984
 10
97.4577000000000027
 20
24.7150999999999996
 10
97.4894000000000034
 20
24.6998999999999995
 10
97.5003999999999991
 20
24.6998999999999995
 10
103.4000000000000057
 20
24.6998999999999995
 10
103.4159999999999968
 20
24.6998999999999995
 10
103.4699999999999989
 20
24.7302999999999997
 10
103.5
 20
24.7839999999999989
 10
103.5
 20
24.8005999999999993
 10
103.5
 20
31.7003999999999984
 10
103.5
 20
31.7114000000000011
 10
103.4849999999999994
 20
31.7430999999999983
 10
103.4620000000000033
 20
31.7376000000000005
 10
103.4579999999999984
 20
31.7154999999999987
 10
103.4890000000000043
 20
31.7003999999999984
 10
103.5
 20
31.7003999999999984
 10
106.4000000000000057
 20
31.7003999999999984
 10
106.4159999999999968
 20
31.7003999999999984
 10
106.4699999999999989
 20
31.7292999999999985
 10
106.5
 20
31.783100000000001
 10
106.5
 20
31.7996000000000016
 10
106.5
 20
37.7993999999999986
 10
106.5
 20
37.8173999999999992
 10
106.4699999999999989
 20
37.8714000000000013
 10
106.4159999999999968
 20
37.9003000000000014
 10
106.4000000000000057
 20
37.9003000000000014
 10
103.5
 20
37.9003000000000014
 10
103.4890000000000043
 20
37.9003000000000014
 10
103.4579999999999984
 20
37.8866000000000014
 10
103.4620000000000033
 20
37.8629000000000033
 10
103.4849999999999994
 20
37.8586999999999989
 10
103.5
 20
37.8903999999999996
 10
103.5
 20
37.9003000000000014
 10
103.5
 20
44.7999999999999972
 10
103.5
 20
44.8222000000000023
 10
103.4560000000000031
 20
44.8828999999999994
 10
103.4489999999999981
 20
44.8866999999999976
 10
97.5070999999999941
 20
48.3181999999999974
 10
97.4975000000000023
 20
48.3235000000000028
 10
97.4629999999999939
 20
48.3277000000000001
 10
97.454899999999995
 20
48.3044000000000011
 10
97.4728999999999957
 20
48.2892999999999972
 10
97.5018000000000029
 20
48.3096999999999994
 10
97.5070999999999941
 20
48.3181999999999974
 10
98.9583999999999975
 20
50.8288999999999973
 10
98.9651000000000067
 20
50.8412999999999968
 10
98.9679000000000002
 20
50.9061999999999983
 10
98.9322999999999979
 20
50.9583999999999975
 10
98.9210000000000065
 20
50.9654999999999987
 10
93.7245999999999952
 20
53.9654999999999987
 10
93.7121999999999957
 20
53.9722000000000008
 10
93.6487000000000052
 20
53.9763999999999982
 10
93.5951000000000022
 20
53.9403999999999968
 10
93.5880999999999972
 20
53.9281000000000006
 10
92.1384999999999934
 20
51.4174000000000007
 10
92.1329000000000065
 20
51.4091999999999985
 10
92.1286000000000058
 20
51.3746999999999971
 10
92.1522999999999968
 20
51.3661999999999992
 10
92.1674000000000007
 20
51.3841999999999999
 10
92.1466000000000065
 20
51.4131
 10
92.1384999999999934
 20
51.4174000000000007
 10
87.1153000000000048
 20
54.3168000000000006
 10
87.1058000000000021
 20
54.3220999999999989
 10
87.0712000000000046
 20
54.3263999999999996
 10
87.0631000000000057
 20
54.3044999999999973
 10
87.0811000000000064
 20
54.2892999999999972
 10
87.1099999999999994
 20
54.3083999999999989
 10
87.1153000000000048
 20
54.3168000000000006
 10
88.5652000000000044
 20
56.8290000000000006
 10
88.5718999999999994
 20
56.8412999999999968
 10
88.5747000000000071
 20
56.9061999999999983
 10
88.5401999999999987
 20
56.9583999999999975
 10
88.529200000000003
 20
56.9654999999999987
 10
83.332800000000006
 20
59.9652000000000029
 10
83.3204999999999956
 20
59.9722000000000008
 10
83.2556000000000012
 20
59.9765000000000015
 10
83.2032999999999987
 20
59.9418999999999969
 10
83.1962999999999937
 20
59.9294999999999973
 10
81.7467000000000041
 20
57.4174000000000007
 10
81.741100000000003
 20
57.4089000000000027
 10
81.7369000000000057
 20
57.3746999999999971
 10
81.7591000000000037
 20
57.3663000000000025
 10
81.7757000000000005
 20
57.3841999999999999
 10
81.754800000000003
 20
57.4132000000000033
 10
81.7467000000000041
 20
57.4174000000000007
 10
76.7235000000000014
 20
60.3168999999999969
 10
76.7139999999999986
 20
60.3222000000000023
 10
76.6794000000000011
 20
60.3263999999999996
 10
76.6713000000000022
 20
60.3042000000000016
 10
76.6893000000000029
 20
60.2890000000000015
 10
76.718199999999996
 20
60.3083999999999989
 10
76.7235000000000014
 20
60.3168999999999969
 10
78.1734000000000009
 20
62.8290000000000006
 10
78.1800999999999959
 20
62.8414000000000001
 10
78.1830000000000069
 20
62.9059000000000026
 10
78.1473000000000013
 20
62.9585000000000008
 10
78.1359999999999957
 20
62.9652000000000029
 10
72.9410000000000025
 20
65.9651999999999958
 10
72.9287000000000063
 20
65.9723000000000042
 10
72.8637999999999977
 20
65.9765000000000015
 10
72.8101999999999947
 20
65.941900000000004
 10
72.8031000000000006
 20
65.9295999999999935
 10
71.3534999999999968
 20
63.4174999999999969
 10
71.3478999999999957
 20
63.4089999999999989
 10
71.3436999999999983
 20
63.3748000000000005
 10
71.3673000000000002
 20
63.3663000000000025
 10
71.3824999999999932
 20
63.3843000000000032
 10
71.361699999999999
 20
63.4132000000000033
 10
71.3534999999999968
 20
63.4174999999999969
 10
66.330299999999994
 20
66.316599999999994
 10
66.3208000000000055
 20
66.3221999999999952
 10
66.2861999999999938
 20
66.3264999999999958
 10
66.2780999999999949
 20
66.3041999999999945
 10
66.2960999999999956
 20
66.2891000000000048
 10
66.3250000000000028
 20
66.3084999999999951
 10
66.330299999999994
 20
66.316599999999994
 10
67.7817000000000007
 20
68.8286999999999978
 10
67.7883999999999958
 20
68.841399999999993
 10
67.7897999999999996
 20
68.9060000000000059
 10
67.7556000000000012
 20
68.9585000000000008
 10
67.7442999999999955
 20
68.9651999999999958
 10
62.5478999999999985
 20
71.9652999999999992
 10
62.535499999999999
 20
71.9723000000000042
 10
62.4705999999999975
 20
71.9762000000000057
 10
62.4183999999999983
 20
71.9419999999999931
 10
62.4112999999999971
 20
71.9295999999999935
 10
60.9617999999999967
 20
69.4171000000000049
 10
60.9560999999999993
 20
69.409000000000006
 10
60.951900000000002
 20
69.3744999999999976
 10
60.9741
 20
69.3662999999999954
 10
60.9906999999999968
 20
69.3842999999999961
 10
60.9699000000000026
 20
69.4133000000000067
 10
60.9617999999999967
 20
69.4171000000000049
 10
55.938600000000001
 20
72.316599999999994
 10
55.929000000000002
 20
72.3222999999999985
 10
55.8945000000000007
 20
72.3264999999999958
 10
55.8862999999999985
 20
72.3042999999999978
 10
55.9042999999999992
 20
72.2891000000000048
 10
55.9333000000000027
 20
72.3084999999999951
 10
55.938600000000001
 20
72.316599999999994
 10
57.3885000000000005
 20
74.8288000000000011
 10
57.3952000000000027
 20
74.8410999999999973
 10
57.3980000000000032
 20
74.9060000000000059
 10
57.3624000000000009
 20
74.958200000000005
 10
57.3511000000000024
 20
74.9652999999999992
 10
52.1561000000000021
 20
77.9652999999999992
 10
52.1437000000000026
 20
77.9719999999999942
 10
52.0788000000000011
 20
77.9762000000000057
 10
52.026600000000002
 20
77.9419999999999931
 10
52.019599999999997
 20
77.9292999999999978
 10
50.5700000000000003
 20
75.417199999999994
 10
50.5643000000000029
 20
75.4090999999999951
 10
50.5600999999999985
 20
75.3744999999999976
 10
50.5822999999999965
 20
75.3663999999999987
 10
50.5974999999999966
 20
75.3843999999999994
 10
50.5780999999999992
 20
75.4133000000000067
 10
50.5700000000000003
 20
75.417199999999994
 10
45.5454000000000008
 20
78.3181000000000012
 10
45.535899999999998
 20
78.3237000000000023
 10
45.5013000000000005
 20
78.3276000000000039
 10
45.4945999999999984
 20
78.3042999999999978
 10
45.5125999999999991
 20
78.2891000000000048
 10
45.5401000000000025
 20
78.3096000000000032
 10
45.5454000000000008
 20
78.3181000000000012
 10
46.996699999999997
 20
80.8288000000000011
 10
47.0033999999999992
 20
80.8410999999999973
 10
47.0061999999999998
 20
80.906099999999995
 10
46.9705999999999975
 20
80.9582999999999942
 10
46.9592999999999989
 20
80.9652999999999992
 10
41.7642999999999986
 20
83.9652999999999992
 10
41.7520000000000024
 20
83.9719999999999942
 10
41.6869999999999976
 20
83.9762999999999948
 10
41.6334000000000017
 20
83.9416999999999973
 10
41.6263999999999967
 20
83.9294000000000011
 10
40.1768000000000001
 20
81.417199999999994
 10
40.1711999999999989
 20
81.4090999999999951
 10
40.1668999999999983
 20
81.3744999999999976
 10
40.1906000000000034
 20
81.3663999999999987
 10
40.2057000000000002
 20
81.3841000000000037
 10
40.184899999999999
 20
81.4129999999999967
 10
40.1768000000000001
 20
81.417199999999994
 10
35.1537000000000006
 20
84.3181000000000012
 10
35.1441000000000017
 20
84.3234000000000066
 10
35.1096000000000004
 20
84.3276000000000039
 10
35.1013999999999982
 20
84.3044000000000011
 10
35.1193000000000026
 20
84.2891999999999939
 10
35.1482000000000028
 20
84.3097000000000065
 10
35.1537000000000006
 20
84.3181000000000012
 10
36.6034999999999968
 20
86.8288000000000011
 10
36.610199999999999
 20
86.8412000000000006
 10
36.6129999999999995
 20
86.906099999999995
 10
36.5788000000000011
 20
86.9582999999999942
 10
36.5675000000000026
 20
86.9654000000000025
 10
31.3709999999999987
 20
89.9654000000000025
 10
31.3585999999999991
 20
89.9720999999999975
 10
31.2939000000000007
 20
89.9762999999999948
 10
31.2414999999999985
 20
89.9402999999999935
 10
31.2346000000000004
 20
89.9279999999999973
 10
29.7849000000000004
 20
87.4172999999999973
 10
29.779399999999999
 20
87.4087999999999994
 10
29.7753000000000014
 20
87.3746000000000009
 10
29.7972999999999999
 20
87.366100000000003
 10
29.8139000000000003
 20
87.3841000000000037
 10
29.7931999999999988
 20
87.4129999999999967
 10
29.7849000000000004
 20
87.4172999999999973
 10
24.7620000000000005
 20
90.3182000000000045
 10
24.7523000000000017
 20
90.3234999999999957
 10
24.7179000000000002
 20
90.327699999999993
 10
24.7095999999999982
 20
90.3041000000000054
 10
24.7274999999999991
 20
90.2891999999999939
 10
24.7564999999999991
 20
90.3097000000000065
 10
24.7620000000000005
 20
90.3182000000000045
 10
26.2117000000000004
 20
92.8289000000000044
 10
26.2184999999999988
 20
92.8412000000000006
 10
26.2212999999999994
 20
92.9057999999999993
 10
26.1855000000000011
 20
92.9583999999999975
 10
26.1744999999999983
 20
92.9651000000000067
 10
20.9792999999999985
 20
95.9651000000000067
 10
20.966899999999999
 20
95.9720999999999975
 10
20.9021000000000008
 20
95.9763999999999982
 10
20.8484000000000016
 20
95.9418000000000006
 10
20.8414000000000001
 20
95.9294000000000011
 10
19.3917999999999999
 20
93.4172999999999973
 10
19.3861999999999988
 20
93.4089000000000027
 10
19.3821000000000012
 20
93.3746000000000009
 10
19.4055
 20
93.3662000000000063
 10
19.4207000000000001
 20
93.384200000000007
 10
19.3999999999999986
 20
93.4131
 10
19.3917999999999999
 20
93.4172999999999973
 10
13.4497
 20
96.848399999999998
 10
13.4454999999999991
 20
96.8512999999999948
 10
13.4110999999999994
 20
96.8607999999999976
 10
13.4001000000000001
 20
96.8607999999999976
 10
13.3876000000000008
 20
96.8607999999999976
 10
13.3531999999999993
 20
96.8512999999999948
 10
13.3505000000000003
 20
96.848399999999998
 10
13.3462999999999994
 20
96.8469999999999942
 10
13.3146000000000004
 20
96.8156000000000034
 10
13.3132000000000001
 20
96.8114000000000061
 10
13.3104999999999993
 20
96.8085999999999984
 10
13.2994000000000003
 20
96.7740000000000009
 10
13.2994000000000003
 20
96.7617000000000047
 10
13.2994000000000003
 20
87.8800999999999988
 10
13.2994000000000003
 20
87.870599999999996
 10
13.3132000000000001
 20
87.8388000000000062
 10
13.3367000000000004
 20
87.8431000000000068
 10
13.3407999999999998
 20
87.8663999999999987
 10
13.3091000000000008
 20
87.8800999999999988
 10
13.2994000000000003
 20
87.8800999999999988
 10
10.4001000000000001
 20
87.8800999999999988
 10
10.3820999999999994
 20
87.8800999999999988
 10
10.3284000000000002
 20
87.8512000000000057
 10
10.2995000000000001
 20
87.7990000000000066
 10
10.2995000000000001
 20
87.7810000000000059
 10
10.2995000000000001
 20
81.7809000000000026
 10
10.2995000000000001
 20
81.7643999999999949
 10
10.3284000000000002
 20
81.7107000000000028
 10
10.3820999999999994
 20
81.6804000000000059
 10
10.4001000000000001
 20
81.6804000000000059
 10
13.2994000000000003
 20
81.6804000000000059
 10
13.3091000000000008
 20
81.6804000000000059
 10
13.3407999999999998
 20
81.6955999999999989
 10
13.3367000000000004
 20
81.7192000000000007
 10
13.3132000000000001
 20
81.7231000000000023
 10
13.2994000000000003
 20
81.6912999999999982
 10
13.2994000000000003
 20
81.6804000000000059
 10
13.2994000000000003
 20
75.8803999999999945
 10
13.2994000000000003
 20
75.8705000000000069
 10
13.3132000000000001
 20
75.839100000000002
 10
13.3367000000000004
 20
75.8430000000000035
 10
13.3407999999999998
 20
75.8666000000000054
 10
13.3091000000000008
 20
75.8803999999999945
 10
13.2994000000000003
 20
75.8803999999999945
 10
10.4001000000000001
 20
75.8803999999999945
 10
10.3820999999999994
 20
75.8803999999999945
 10
10.3284000000000002
 20
75.8515000000000015
 10
10.2995000000000001
 20
75.7989000000000033
 10
10.2995000000000001
 20
75.7813000000000017
 10
10.2995000000000001
 20
69.7811999999999983
 10
10.2995000000000001
 20
69.7646000000000015
 10
10.3284000000000002
 20
69.7107000000000028
 10
10.3820999999999994
 20
69.6807000000000016
 10
10.4001000000000001
 20
69.6807000000000016
 10
13.2994000000000003
 20
69.6807000000000016
 10
13.3091000000000008
 20
69.6807000000000016
 10
13.3407999999999998
 20
69.6958000000000055
 10
13.3367000000000004
 20
69.7190999999999974
 10
13.3132000000000001
 20
69.723399999999998
 10
13.2994000000000003
 20
69.691599999999994
 10
13.2994000000000003
 20
69.6807000000000016
 10
13.2994000000000003
 20
63.8802999999999983
 10
13.2994000000000003
 20
63.8708000000000027
 10
13.3132000000000001
 20
63.8389999999999986
 10
13.3367000000000004
 20
63.8432999999999993
 10
13.3407999999999998
 20
63.866500000000002
 10
13.3091000000000008
 20
63.8802999999999983
 10
13.2994000000000003
 20
63.8802999999999983
 10
10.4001000000000001
 20
63.8802999999999983
 10
10.3820999999999994
 20
63.8802999999999983
 10
10.3284000000000002
 20
63.8513999999999982
 10
10.2995000000000001
 20
63.799199999999999
 10
10.2995000000000001
 20
63.7811999999999983
 10
10.2995000000000001
 20
57.7811000000000021
 10
10.2995000000000001
 20
57.7644999999999982
 10
10.3284000000000002
 20
57.7109000000000023
 10
10.3820999999999994
 20
57.6805999999999983
 10
10.4001000000000001
 20
57.6805999999999983
 10
13.2994000000000003
 20
57.6805999999999983
 10
13.3091000000000008
 20
57.6805999999999983
 10
13.3407999999999998
 20
57.6957000000000022
 10
13.3367000000000004
 20
57.7190000000000012
 10
13.3132000000000001
 20
57.7233000000000018
 10
13.2994000000000003
 20
57.6914999999999978
 10
13.2994000000000003
 20
57.6805999999999983
 10
13.2994000000000003
 20
51.8806000000000012
 10
13.2994000000000003
 20
51.8706999999999994
 10
13.3132000000000001
 20
51.8389000000000024
 10
13.3367000000000004
 20
51.8432000000000031
 10
13.3407999999999998
 20
51.8663999999999987
 10
13.3091000000000008
 20
51.8806000000000012
 10
13.2994000000000003
 20
51.8806000000000012
 10
10.4001000000000001
 20
51.8806000000000012
 10
10.3820999999999994
 20
51.8806000000000012
 10
10.3284000000000002
 20
51.8513000000000019
 10
10.2995000000000001
 20
51.7991000000000028
 10
10.2995000000000001
 20
51.7811000000000021
 10
10.2995000000000001
 20
45.7809999999999988
 10
10.2995000000000001
 20
45.764800000000001
 10
10.3284000000000002
 20
45.710799999999999
 10
10.3820999999999994
 20
45.6805000000000021
 10
10.4001000000000001
 20
45.6805000000000021
 10
13.2994000000000003
 20
45.6805000000000021
 10
13.3091000000000008
 20
45.6805000000000021
 10
13.3407999999999998
 20
45.6957000000000022
 10
13.3367000000000004
 20
45.7192999999999969
 10
13.3132000000000001
 20
45.7231999999999985
 10
13.2994000000000003
 20
45.6918000000000006
 10
13.2994000000000003
 20
45.6805000000000021
 10
13.2994000000000003
 20
39.8804999999999978
 10
13.2994000000000003
 20
39.8708999999999989
 10
13.3132000000000001
 20
39.8391999999999982
 10
13.3367000000000004
 20
39.8430999999999997
 10
13.3407999999999998
 20
39.8667000000000016
 10
13.3091000000000008
 20
39.8804999999999978
 10
13.2994000000000003
 20
39.8804999999999978
 10
10.4001000000000001
 20
39.8804999999999978
 10
10.3820999999999994
 20
39.8804999999999978
 10
10.3284000000000002
 20
39.8515000000000015
 10
10.2995000000000001
 20
39.7989999999999995
 10
10.2995000000000001
 20
39.7813000000000017
 10
10.2995000000000001
 20
33.7811999999999983
 10
10.2995000000000001
 20
33.7646999999999977
 10
10.3284000000000002
 20
33.7109999999999985
 10
10.3820999999999994
 20
33.6805999999999983
 10
10.4001000000000001
 20
33.6805999999999983
 10
13.2994000000000003
 20
33.6805999999999983
 10
13.3091000000000008
 20
33.6805999999999983
 10
13.3407999999999998
 20
33.6957999999999984
 10
13.3367000000000004
 20
33.7192000000000007
 10
13.3132000000000001
 20
33.723399999999998
 10
13.2994000000000003
 20
33.6916999999999973
 10
13.2994000000000003
 20
33.6805999999999983
 10
13.2994000000000003
 20
24.8005999999999993
 10
13.2994000000000003
 20
24.7839999999999989
 10
13.3284000000000002
 20
24.7302999999999997
 10
13.3820999999999994
 20
24.6998999999999995
 10
13.4001000000000001
 20
24.6998999999999995
  0
LWPOLYLINE
  5
5A
100
AcDbEntity
  8
0
 62
256
370
-1
 48
1.0
  6
BYLAYER
100
AcDbPolyline
 90
532
 70
1
 10
111.0999999999999943
 20
24.6998999999999995
 10
116.9989999999999952
 20
24.6998999999999995
 10
117.0090000000000003
 20
24.6998999999999995
 10
117.0409999999999968
 20
24.7150999999999996
 10
117.0370000000000061
 20
24.7384999999999984
 10
117.0130000000000052
 20
24.7426999999999992
 10
116.9989999999999952
 20
24.7109999999999985
 10
116.9989999999999952
 20
24.6998999999999995
 10
116.9989999999999952
 20
21.8005999999999993
 10
116.9989999999999952
 20
21.7839999999999989
 10
117.0280000000000058
 20
21.7302999999999997
 10
117.0819999999999936
 20
21.6999999999999993
 10
117.0999999999999943
 20
21.6999999999999993
 10
123.0999999999999943
 20
21.6999999999999993
 10
123.1170000000000044
 20
21.6999999999999993
 10
123.1710000000000065
 20
21.7302999999999997
 10
123.2000000000000028
 20
21.7839999999999989
 10
123.2000000000000028
 20
21.8005999999999993
 10
123.2000000000000028
 20
24.6998999999999995
 10
123.2000000000000028
 20
24.7109999999999985
 10
123.1839999999999975
 20
24.7426999999999992
 10
123.1620000000000061
 20
24.7384999999999984
 10
123.1560000000000059
 20
24.7150999999999996
 10
123.1880000000000024
 20
24.6998999999999995
 10
123.2000000000000028
 20
24.6998999999999995
 10
129.0
 20
24.6998999999999995
 10
129.0089999999999861
 20
24.6998999999999995
 10
129.0409999999999968
 20
24.7150999999999996
 10
129.0370000000000061
 20
24.7384999999999984
 10
129.0130000000000052
 20
24.7426999999999992
 10
129.0
 20
24.7109999999999985
 10
129.0
 20
24.6998999999999995
 10
129.0
 20
21.8005999999999993
 10
129.0
 20
21.7839999999999989
 10
129.0279999999999916
 20
21.7302999999999997
 10
129.0819999999999936
 20
21.6999999999999993
 10
129.0999999999999943
 20
21.6999999999999993
 10
135.0999999999999943
 20
21.6999999999999993
 10
135.1169999999999902
 20
21.6999999999999993
 10
135.1699999999999875
 20
21.7302999999999997
 10
135.1990000000000123
 20
21.7839999999999989
 10
135.1990000000000123
 20
21.8005999999999993
 10
135.1990000000000123
 20
24.6998999999999995
 10
135.1990000000000123
 20
24.7109999999999985
 10
135.1839999999999975
 20
24.7426999999999992
 10
135.1620000000000061
 20
24.7384999999999984
 10
135.1570000000000107
 20
24.7150999999999996
 10
135.1879999999999882
 20
24.6998999999999995
 10
135.1990000000000123
 20
24.6998999999999995
 10
141.0
 20
24.6998999999999995
 10
141.0089999999999861
 20
24.6998999999999995
 10
141.0409999999999968
 20
24.7150999999999996
 10
141.0370000000000061
 20
24.7384999999999984
 10
141.0130000000000052
 20
24.7426999999999992
 10
141.0
 20
24.7109999999999985
 10
141.0
 20
24.6998999999999995
 10
141.0
 20
21.8005999999999993
 10
141.0
 20
21.7839999999999989
 10
141.0289999999999964
 20
21.7302999999999997
 10
141.0819999999999936
 20
21.6999999999999993
 10
141.0999999999999943
 20
21.6999999999999993
 10
147.0999999999999943
 20
21.6999999999999993
 10
147.1160000000000139
 20
21.6999999999999993
 10
147.1699999999999875
 20
21.7302999999999997
 10
147.2009999999999934
 20
21.7839999999999989
 10
147.2009999999999934
 20
21.8005999999999993
 10
147.2009999999999934
 20
24.6998999999999995
 10
147.2009999999999934
 20
24.7109999999999985
 10
147.186000000000007
 20
24.7426999999999992
 10
147.1620000000000061
 20
24.7384999999999984
 10
147.157999999999987
 20
24.7150999999999996
 10
147.188999999999993
 20
24.6998999999999995
 10
147.2009999999999934
 20
24.6998999999999995
 10
152.9989999999999952
 20
24.6998999999999995
 10
153.0089999999999861
 20
24.6998999999999995
 10
153.0409999999999968
 20
24.7150999999999996
 10
153.0370000000000061
 20
24.7384999999999984
 10
153.0130000000000052
 20
24.7426999999999992
 10
152.9989999999999952
 20
24.7109999999999985
 10
152.9989999999999952
 20
24.6998999999999995
 10
152.9989999999999952
 20
21.8005999999999993
 10
152.9989999999999952
 20
21.7839999999999989
 10
153.0279999999999916
 20
21.7302999999999997
 10
153.0819999999999936
 20
21.6999999999999993
 10
153.0999999999999943
 20
21.6999999999999993
 10
159.0999999999999943
 20
21.6999999999999993
 10
159.1169999999999902
 20
21.6999999999999993
 10
159.1699999999999875
 20
21.7302999999999997
 10
159.2009999999999934
 20
21.7839999999999989
 10
159.2009999999999934
 20
21.8005999999999993
 10
159.2009999999999934
 20
24.6998999999999995
 10
159.2009999999999934
 20
24.7109999999999985
 10
159.1850000000000023
 20
24.7426999999999992
 10
159.1620000000000061
 20
24.7384999999999984
 10
159.157999999999987
 20
24.7150999999999996
 10
159.1899999999999977
 20
24.6998999999999995
 10
159.2009999999999934
 20
24.6998999999999995
 10
165.0010000000000048
 20
24.6998999999999995
 10
165.0099999999999909
 20
24.6998999999999995
 10
165.0420000000000016
 20
24.7150999999999996
 10
165.0380000000000109
 20
24.7384999999999984
 10
165.0149999999999864
 20
24.7426999999999992
 10
165.0010000000000048
 20
24.7109999999999985
 10
165.0010000000000048
 20
24.6998999999999995
 10
165.0010000000000048
 20
21.8005999999999993
 10
165.0010000000000048
 20
21.7839999999999989
 10
165.0300000000000011
 20
21.7302999999999997
 10
165.0819999999999936
 20
21.6999999999999993
 10
165.0999999999999943
 20
21.6999999999999993
 10
171.0999999999999943
 20
21.6999999999999993
 10
171.1169999999999902
 20
21.6999999999999993
 10
171.1699999999999875
 20
21.7302999999999997
 10
171.1990000000000123
 20
21.7839999999999989
 10
171.1990000000000123
 20
21.8005999999999993
 10
171.1990000000000123
 20
24.6998999999999995
 10
171.1990000000000123
 20
24.7109999999999985
 10
171.1839999999999975
 20
24.7426999999999992
 10
171.1620000000000061
 20
24.7384999999999984
 10
171.1560000000000059
 20
24.7150999999999996
 10
171.1879999999999882
 20
24.6998999999999995
 10
171.1990000000000123
 20
24.6998999999999995
 10
176.9989999999999952
 20
24.6998999999999995
 10
177.0089999999999861
 20
24.6998999999999995
 10
177.0409999999999968
 20
24.7150999999999996
 10
177.0370000000000061
 20
24.7384999999999984
 10
177.0130000000000052
 20
24.7426999999999992
 10
176.9989999999999952
 20
24.7109999999999985
 10
176.9989999999999952
 20
24.6998999999999995
 10
176.9989999999999952
 20
21.8005999999999993
 10
176.9989999999999952
 20
21.7839999999999989
 10
177.0279999999999916
 20
21.7302999999999997
 10
177.0819999999999936
 20
21.6999999999999993
 10
177.0999999999999943
 20
21.6999999999999993
 10
183.0999999999999943
 20
21.6999999999999993
 10
183.1160000000000139
 20
21.6999999999999993
 10
183.1699999999999875
 20
21.7302999999999997
 10
183.2009999999999934
 20
21.7839999999999989
 10
183.2009999999999934
 20
21.8005999999999993
 10
183.2009999999999934
 20
24.6998999999999995
 10
183.2009999999999934
 20
24.7109999999999985
 10
183.186000000000007
 20
24.7426999999999992
 10
183.1620000000000061
 20
24.7384999999999984
 10
183.157999999999987
 20
24.7150999999999996
 10
183.188999999999993
 20
24.6998999999999995
 10
183.2009999999999934
 20
24.6998999999999995
 10
188.9989999999999952
 20
24.6998999999999995
 10
189.0089999999999861
 20
24.6998999999999995
 10
189.0409999999999968
 20
24.7150999999999996
 10
189.0370000000000061
 20
24.7384999999999984
 10
189.0130000000000052
 20
24.7426999999999992
 10
188.9989999999999952
 20
24.7109999999999985
 10
188.9989999999999952
 20
24.6998999999999995
 10
188.9989999999999952
 20
21.8005999999999993
 10
188.9989999999999952
 20
21.7839999999999989
 10
189.0279999999999916
 20
21.7302999999999997
 10
189.0819999999999936
 20
21.6999999999999993
 10
189.0999999999999943
 20
21.6999999999999993
 10
195.0999999999999943
 20
21.6999999999999993
 10
195.1160000000000139
 20
21.6999999999999993
 10
195.1699999999999875
 20
21.7302999999999997
 10
195.1999999999999886
 20
21.7839999999999989
 10
195.1999999999999886
 20
21.8005999999999993
 10
195.1999999999999886
 20
24.6998999999999995
 10
195.1999999999999886
 20
24.7109999999999985
 10
195.1850000000000023
 20
24.7426999999999992
 10
195.1620000000000061
 20
24.7384999999999984
 10
195.157999999999987
 20
24.7150999999999996
 10
195.188999999999993
 20
24.6998999999999995
 10
195.1999999999999886
 20
24.6998999999999995
 10
201.0999999999999943
 20
24.6998999999999995
 10
201.1160000000000139
 20
24.6998999999999995
 10
201.1699999999999875
 20
24.7302999999999997
 10
201.1999999999999886
 20
24.7839999999999989
 10
201.1999999999999886
 20
24.8005999999999993
 10
201.1999999999999886
 20
31.7003999999999984
 10
201.1999999999999886
 20
31.7114000000000011
 10
201.1850000000000023
 20
31.7430999999999983
 10
201.1620000000000061
 20
31.7376000000000005
 10
201.157999999999987
 20
31.7154999999999987
 10
201.1899999999999977
 20
31.7003999999999984
 10
201.1999999999999886
 20
31.7003999999999984
 10
204.0999999999999943
 20
31.7003999999999984
 10
204.1169999999999902
 20
31.7003999999999984
 10
204.1699999999999875
 20
31.7292999999999985
 10
204.1999999999999886
 20
31.783100000000001
 10
204.1999999999999886
 20
31.7996000000000016
 10
204.1999999999999886
 20
37.7993999999999986
 10
204.1999999999999886
 20
37.8173999999999992
 10
204.1699999999999875
 20
37.8714000000000013
 10
204.1169999999999902
 20
37.9003000000000014
 10
204.0999999999999943
 20
37.9003000000000014
 10
201.1999999999999886
 20
37.9003000000000014
 10
201.1899999999999977
 20
37.9003000000000014
 10
201.157999999999987
 20
37.8866000000000014
 10
201.1620000000000061
 20
37.8629000000000033
 10
201.1850000000000023
 20
37.8586999999999989
 10
201.1999999999999886
 20
37.8903999999999996
 10
201.1999999999999886
 20
37.9003000000000014
 10
201.1999999999999886
 20
44.7999999999999972
 10
201.1999999999999886
 20
44.8222000000000023
 10
201.1560000000000059
 20
44.8828999999999994
 10
201.1500000000000057
 20
44.8866999999999976
 10
195.2069999999999936
 20
48.3181999999999974
 10
195.1980000000000075
 20
48.3235000000000028
 10
195.1630000000000109
 20
48.3277000000000001
 10
195.1550000000000011
 20
48.3044000000000011
 10
195.1730000000000018
 20
48.2892999999999972
 10
195.2019999999999982
 20
48.3096999999999994
 10
195.2069999999999936
 20
48.3181999999999974
 10
196.6570000000000107
 20
50.8288999999999973
 10
196.6639999999999873
 20
50.8412999999999968
 10
196.6670000000000016
 20
50.9061999999999983
 10
196.632000000000005
 20
50.9583999999999975
 10
196.6210000000000093
 20
50.9654999999999987
 10
191.4250000000000114
 20
53.9654999999999987
 10
191.4120000000000061
 20
53.9722000000000008
 10
191.3470000000000084
 20
53.9763999999999982
 10
191.2949999999999875
 20
53.9403999999999968
 10
191.2880000000000109
 20
53.9281000000000006
 10
189.8389999999999986
 20
51.4174000000000007
 10
189.8329999999999984
 20
51.4091999999999985
 10
189.8290000000000077
 20
51.3746999999999971
 10
189.8520000000000039
 20
51.3661999999999992
 10
189.8669999999999902
 20
51.3841999999999999
 10
189.8470000000000084
 20
51.4131
 10
189.8389999999999986
 20
51.4174000000000007
 10
184.8160000000000025
 20
54.3168000000000006
 10
184.8060000000000116
 20
54.3220999999999989
 10
184.7719999999999914
 20
54.3263999999999996
 10
184.7630000000000052
 20
54.3044999999999973
 10
184.7810000000000059
 20
54.2892999999999972
 10
184.8100000000000023
 20
54.3083999999999989
 10
184.8160000000000025
 20
54.3168000000000006
 10
186.2649999999999864
 20
56.8290000000000006
 10
186.2719999999999914
 20
56.8412999999999968
 10
186.2750000000000057
 20
56.9061999999999983
 10
186.2410000000000139
 20
56.9583999999999975
 10
186.2299999999999898
 20
56.9654999999999987
 10
181.032999999999987
 20
59.9652000000000029
 10
181.0209999999999866
 20
59.9722000000000008
 10
180.9559999999999889
 20
59.9765000000000015
 10
180.9029999999999916
 20
59.9418999999999969
 10
180.8959999999999866
 20
59.9294999999999973
 10
179.4449999999999932
 20
57.4174000000000007
 10
179.4399999999999977
 20
57.4089000000000027
 10
179.436000000000007
 20
57.3746999999999971
 10
179.4590000000000032
 20
57.3663000000000025
 10
179.4739999999999895
 20
57.3841999999999999
 10
179.4540000000000077
 20
57.4132000000000033
 10
179.4449999999999932
 20
57.4174000000000007
 10
174.4240000000000066
 20
60.3168999999999969
 10
174.4139999999999873
 20
60.3222000000000023
 10
174.3799999999999955
 20
60.3263999999999996
 10
174.3710000000000093
 20
60.3042000000000016
 10
174.38900000000001
 20
60.2890000000000015
 10
174.4180000000000064
 20
60.3083999999999989
 10
174.4240000000000066
 20
60.3168999999999969
 10
175.8729999999999905
 20
62.8290000000000006
 10
175.8810000000000002
 20
62.8414000000000001
 10
175.8830000000000098
 20
62.9059000000000026
 10
175.8470000000000084
 20
62.9585000000000008
 10
175.8360000000000127
 20
62.9652000000000029
 10
170.6399999999999864
 20
65.9651999999999958
 10
170.6270000000000095
 20
65.9723000000000042
 10
170.563999999999993
 20
65.9765000000000015
 10
170.5099999999999909
 20
65.941900000000004
 10
170.5029999999999859
 20
65.9295999999999935
 10
169.054000000000002
 20
63.4174999999999969
 10
169.0480000000000018
 20
63.4089999999999989
 10
169.0440000000000111
 20
63.3748000000000005
 10
169.0670000000000073
 20
63.3663000000000025
 10
169.0829999999999984
 20
63.3843000000000032
 10
169.0620000000000118
 20
63.4132000000000033
 10
169.054000000000002
 20
63.4174999999999969
 10
164.0310000000000059
 20
66.316599999999994
 10
164.0209999999999866
 20
66.3221999999999952
 10
163.9869999999999948
 20
66.3264999999999958
 10
163.9780000000000086
 20
66.3041999999999945
 10
163.9960000000000093
 20
66.2891000000000048
 10
164.0250000000000057
 20
66.3084999999999951
 10
164.0310000000000059
 20
66.316599999999994
 10
165.4799999999999898
 20
68.8286999999999978
 10
165.4869999999999948
 20
68.841399999999993
 10
165.4900000000000091
 20
68.9060000000000059
 10
165.4559999999999889
 20
68.9585000000000008
 10
165.4449999999999932
 20
68.9651999999999958
 10
160.2479999999999905
 20
71.9652999999999992
 10
160.23599999999999
 20
71.9723000000000042
 10
160.1709999999999923
 20
71.9762000000000057
 10
160.117999999999995
 20
71.9419999999999931
 10
160.11099999999999
 20
71.9295999999999935
 10
158.6620000000000061
 20
69.4171000000000049
 10
158.6560000000000059
 20
69.409000000000006
 10
158.6519999999999868
 20
69.3744999999999976
 10
158.6740000000000066
 20
69.3662999999999954
 10
158.6910000000000025
 20
69.3842999999999961
 10
158.6699999999999875
 20
69.4133000000000067
 10
158.6620000000000061
 20
69.4171000000000049
 10
153.63900000000001
 20
72.316599999999994
 10
153.6289999999999907
 20
72.3222999999999985
 10
153.5949999999999989
 20
72.3264999999999958
 10
153.5860000000000127
 20
72.3042999999999978
 10
153.6040000000000134
 20
72.2891000000000048
 10
153.6330000000000098
 20
72.3084999999999951
 10
153.63900000000001
 20
72.316599999999994
 10
155.0889999999999986
 20
74.8288000000000011
 10
155.0960000000000036
 20
74.8410999999999973
 10
155.0980000000000132
 20
74.9060000000000059
 10
155.0620000000000118
 20
74.958200000000005
 10
155.0509999999999877
 20
74.9652999999999992
 10
149.8559999999999945
 20
77.9652999999999992
 10
149.8439999999999941
 20
77.9719999999999942
 10
149.7789999999999964
 20
77.9762000000000057
 10
149.7270000000000039
 20
77.9419999999999931
 10
149.7199999999999989
 20
77.9292999999999978
 10
148.2690000000000055
 20
75.417199999999994
 10
148.2630000000000052
 20
75.4090999999999951
 10
148.2589999999999861
 20
75.3744999999999976
 10
148.2820000000000107
 20
75.3663999999999987
 10
148.2980000000000018
 20
75.3843999999999994
 10
148.2769999999999868
 20
75.4133000000000067
 10
148.2690000000000055
 20
75.417199999999994
 10
143.2460000000000093
 20
78.3181000000000012
 10
143.23599999999999
 20
78.3237000000000023
 10
143.2019999999999982
 20
78.3276000000000039
 10
143.1949999999999932
 20
78.3042999999999978
 10
143.2129999999999939
 20
78.2891000000000048
 10
143.2400000000000091
 20
78.3096000000000032
 10
143.2460000000000093
 20
78.3181000000000012
 10
144.6970000000000027
 20
80.8288000000000011
 10
144.7040000000000077
 20
80.8410999999999973
 10
144.7059999999999889
 20
80.906099999999995
 10
144.6709999999999923
 20
80.9582999999999942
 10
144.6599999999999966
 20
80.9652999999999992
 10
139.4629999999999939
 20
83.9652999999999992
 10
139.4509999999999934
 20
83.9719999999999942
 10
139.3870000000000005
 20
83.9762999999999948
 10
139.3329999999999984
 20
83.9416999999999973
 10
139.3259999999999934
 20
83.9294000000000011
 10
137.8770000000000095
 20
81.417199999999994
 10
137.8710000000000093
 20
81.4090999999999951
 10
137.8669999999999902
 20
81.3744999999999976
 10
137.8909999999999911
 20
81.3663999999999987
 10
137.9060000000000059
 20
81.3841000000000037
 10
137.8849999999999909
 20
81.4129999999999967
 10
137.8770000000000095
 20
81.417199999999994
 10
132.8540000000000134
 20
84.3181000000000012
 10
132.8439999999999941
 20
84.3234000000000066
 10
132.8100000000000023
 20
84.3276000000000039
 10
132.8009999999999877
 20
84.3044000000000011
 10
132.8189999999999884
 20
84.2891999999999939
 10
132.8480000000000132
 20
84.3097000000000065
 10
132.8540000000000134
 20
84.3181000000000012
 10
134.304000000000002
 20
86.8288000000000011
 10
134.311000000000007
 20
86.8412000000000006
 10
134.3129999999999882
 20
86.906099999999995
 10
134.2789999999999964
 20
86.9582999999999942
 10
134.2680000000000007
 20
86.9654000000000025
 10
129.070999999999998
 20
89.9654000000000025
 10
129.0589999999999975
 20
89.9720999999999975
 10
128.9939999999999998
 20
89.9762999999999948
 10
128.9420000000000073
 20
89.9402999999999935
 10
128.9350000000000023
 20
89.9279999999999973
 10
127.4849999999999994
 20
87.4172999999999973
 10
127.4789999999999992
 20
87.4087999999999994
 10
127.4759999999999991
 20
87.3746000000000009
 10
127.4969999999999999
 20
87.366100000000003
 10
127.5130000000000052
 20
87.3841000000000037
 10
127.492999999999995
 20
87.4129999999999967
 10
127.4849999999999994
 20
87.4172999999999973
 10
122.4620000000000033
 20
90.3182000000000045
 10
122.4519999999999982
 20
90.3234999999999957
 10
122.4180000000000064
 20
90.327699999999993
 10
122.4099999999999966
 20
90.3041000000000054
 10
122.4279999999999973
 20
90.2891999999999939
 10
122.4569999999999936
 20
90.3097000000000065
 10
122.4620000000000033
 20
90.3182000000000045
 10
123.9120000000000061
 20
92.8289000000000044
 10
123.9189999999999969
 20
92.8412000000000006
 10
123.9210000000000065
 20
92.9057999999999993
 10
123.8859999999999957
 20
92.9583999999999975
 10
123.875
 20
92.9651000000000067
 10
118.679000000000002
 20
95.9651000000000067
 10
118.6670000000000016
 20
95.9720999999999975
 10
118.6020000000000039
 20
95.9763999999999982
 10
118.5490000000000066
 20
95.9418000000000006
 10
118.5409999999999968
 20
95.9294000000000011
 10
117.0919999999999987
 20
93.4172999999999973
 10
117.0859999999999985
 20
93.4089000000000027
 10
117.0819999999999936
 20
93.3746000000000009
 10
117.1059999999999945
 20
93.3662000000000063
 10
117.1209999999999951
 20
93.384200000000007
 10
117.0999999999999943
 20
93.4131
 10
117.0919999999999987
 20
93.4172999999999973
 10
111.1500000000000057
 20
96.848399999999998
 10
111.1460000000000008
 20
96.8512999999999948
 10
111.1110000000000042
 20
96.8607999999999976
 10
111.0999999999999943
 20
96.8607999999999976
 10
111.0870000000000033
 20
96.8607999999999976
 10
111.0520000000000067
 20
96.8512999999999948
 10
111.0490000000000066
 20
96.848399999999998
 10
111.0450000000000017
 20
96.8469999999999942
 10
111.0150000000000006
 20
96.8156000000000034
 10
111.0139999999999958
 20
96.8114000000000061
 10
111.0109999999999957
 20
96.8085999999999984
 10
111.0
 20
96.7740000000000009
 10
111.0
 20
96.7617000000000047
 10
111.0
 20
87.8800999999999988
 10
111.0
 20
87.870599999999996
 10
111.0139999999999958
 20
87.8388000000000062
 10
111.0370000000000061
 20
87.8431000000000068
 10
111.0409999999999968
 20
87.8663999999999987
 10
111.0090000000000003
 20
87.8800999999999988
 10
111.0
 20
87.8800999999999988
 10
108.0999999999999943
 20
87.8800999999999988
 10
108.0819999999999936
 20
87.8800999999999988
 10
108.0289999999999964
 20
87.8512000000000057
 10
108.0
 20
87.7990000000000066
 10
108.0
 20
87.7810000000000059
 10
108.0
 20
81.7809000000000026
 10
108.0
 20
81.7643999999999949
 10
108.0289999999999964
 20
81.7107000000000028
 10
108.0819999999999936
 20
81.6804000000000059
 10
108.0999999999999943
 20
81.6804000000000059
 10
111.0
 20
81.6804000000000059
 10
111.0090000000000003
 20
81.6804000000000059
 10
111.0409999999999968
 20
81.6955999999999989
 10
111.0370000000000061
 20
81.7192000000000007
 10
111.0139999999999958
 20
81.7231000000000023
 10
111.0
 20
81.6912999999999982
 10
111.0
 20
81.6804000000000059
 10
111.0
 20
75.8803999999999945
 10
111.0
 20
75.8705000000000069
 10
111.0139999999999958
 20
75.839100000000002
 10
111.0370000000000061
 20
75.8430000000000035
 10
111.0409999999999968
 20
75.8666000000000054
 10
111.0090000000000003
 20
75.8803999999999945
 10
111.0
 20
75.8803999999999945
 10
108.0999999999999943
 20
75.8803999999999945
 10
108.0819999999999936
 20
75.8803999999999945
 10
108.0289999999999964
 20
75.8515000000000015
 10
108.0
 20
75.7989000000000033
 10
108.0
 20
75.7813000000000017
 10
108.0
 20
69.7811999999999983
 10
108.0
 20
69.7646000000000015
 10
108.0289999999999964
 20
69.7107000000000028
 10
108.0819999999999936
 20
69.6807000000000016
 10
108.0999999999999943
 20
69.6807000000000016
 10
111.0
 20
69.6807000000000016
 10
111.0090000000000003
 20
69.6807000000000016
 10
111.0409999999999968
 20
69.6958000000000055
 10
111.0370000000000061
 20
69.7190999999999974
 10
111.0139999999999958
 20
69.723399999999998
 10
111.0
 20
69.691599999999994
 10
111.0
 20
69.6807000000000016
 10
111.0
 20
63.8802999999999983
 10
111.0
 20
63.8708000000000027
 10
111.0139999999999958
 20
63.8389999999999986
 10
111.0370000000000061
 20
63.8432999999999993
 10
111.0409999999999968
 20
63.866500000000002
 10
111.0090000000000003
 20
63.8802999999999983
 10
111.0
 20
63.8802999999999983
 10
108.0999999999999943
 20
63.8802999999999983
 10
108.0819999999999936
 20
63.8802999999999983
 10
108.0289999999999964
 20
63.8513999999999982
 10
108.0
 20
63.799199999999999
 10
108.0
 20
63.7811999999999983
 10
108.0
 20
57.7811000000000021
 10
108.0
 20
57.7644999999999982
 10
108.0289999999999964
 20
57.7109000000000023
 10
108.0819999999999936
 20
57.6805999999999983
 10
108.0999999999999943
 20
57.6805999999999983
 10
111.0
 20
57.6805999999999983
 10
111.0090000000000003
 20
57.6805999999999983
 10
111.0409999999999968
 20
57.6957000000000022
 10
111.0370000000000061
 20
57.7190000000000012
 10
111.0139999999999958
 20
57.7233000000000018
 10
111.0
 20
57.6914999999999978
 10
111.0
 20
57.6805999999999983
 10
111.0
 20
51.8806000000000012
 10
111.0
 20
51.8706999999999994
 10
111.0139999999999958
 20
51.8389000000000024
 10
111.0370000000000061
 20
51.8432000000000031
 10
111.0409999999999968
 20
51.8663999999999987
 10
111.0090000000000003
 20
51.8806000000000012
 10
111.0
 20
51.8806000000000012
 10
108.0999999999999943
 20
51.8806000000000012
 10
108.0819999999999936
 20
51.8806000000000012
 10
108.0289999999999964
 20
51.8513000000000019
 10
108.0
 20
51.7991000000000028
 10
108.0
 20
51.7811000000000021
 10
108.0
 20
45.7809999999999988
 10
108.0
 20
45.764800000000001
 10
108.0289999999999964
 20
45.710799999999999
 10
108.0819999999999936
 20
45.6805000000000021
 10
108.0999999999999943
 20
45.6805000000000021
 10
111.0
 20
45.6805000000000021
 10
111.0090000000000003
 20
45.6805000000000021
 10
111.0409999999999968
 20
45.6957000000000022
 10
111.0370000000000061
 20
45.7192999999999969
 10
111.0139999999999958
 20
45.7231999999999985
 10
111.0
 20
45.6918000000000006
 10
111.0
 20
45.6805000000000021
 10
111.0
 20
39.8804999999999978
 10
111.0
 20
39.8708999999999989
 10
111.0139999999999958
 20
39.8391999999999982
 10
111.0370000000000061
 20
39.8430999999999997
 10
111.0409999999999968
 20
39.8667000000000016
 10
111.0090000000000003
 20
39.8804999999999978
 10
111.0
 20
39.8804999999999978
 10
108.0999999999999943
 20
39.8804999999999978
 10
108.0819999999999936
 20
39.8804999999999978
 10
108.0289999999999964
 20
39.8515000000000015
 10
108.0
 20
39.7989999999999995
 10
108.0
 20
39.7813000000000017
 10
108.0
 20
33.7811999999999983
 10
108.0
 20
33.7646999999999977
 10
108.0289999999999964
 20
33.7109999999999985
 10
108.0819999999999936
 20
33.6805999999999983
 10
108.0999999999999943
 20
33.6805999999999983
 10
111.0
 20
33.6805999999999983
 10
111.0090000000000003
 20
33.6805999999999983
 10
111.0409999999999968
 20
33.6957999999999984
 10
111.0370000000000061
 20
33.7192000000000007
 10
111.0139999999999958
 20
33.723399999999998
 10
111.0
 20
33.6916999999999973
 10
111.0
 20
33.6805999999999983
 10
111.0
 20
24.8005999999999993
 10
111.0
 20
24.7839999999999989
 10
111.0289999999999964
 20
24.7302999999999997
 10
111.0819999999999936
 20
24.6998999999999995
 10
111.0999999999999943
 20
24.6998999999999995
  0
LWPOLYLINE
  5
5B
100
AcDbEntity
  8
0
 62
256
370
-1
 48
1.0
  6
BYLAYER
100
AcDbPolyline
 90
701
 70
1
 10
209.6490000000000009
 20
20.8496999999999986
 10
215.6510000000000105
 20
20.8496999999999986
 10
215.6670000000000016
 20
20.8496999999999986
 10
215.7210000000000036
 20
20.879999999999999
 10
215.75
 20
20.9338000000000015
 10
215.75
 20
20.9502999999999986
 10
215.75
 20
23.8496999999999986
 10
215.75
 20
23.8607000000000014
 10
215.7350000000000136
 20
23.8923999999999985
 10
215.7129999999999939
 20
23.888300000000001
 10
215.7069999999999936
 20
23.8648999999999987
 10
215.7390000000000043
 20
23.8496999999999986
 10
215.75
 20
23.8496999999999986
 10
221.5500000000000114
 20
23.8496999999999986
 10
221.5600000000000023
 20
23.8496999999999986
 10
221.5910000000000082
 20
23.8648999999999987
 10
221.5869999999999891
 20
23.888300000000001
 10
221.563999999999993
 20
23.8923999999999985
 10
221.5500000000000114
 20
23.8607000000000014
 10
221.5500000000000114
 20
23.8496999999999986
 10
221.5500000000000114
 20
20.9502999999999986
 10
221.5500000000000114
 20
20.9338000000000015
 10
221.5790000000000077
 20
20.879999999999999
 10
221.6330000000000098
 20
20.8496999999999986
 10
221.6510000000000105
 20
20.8496999999999986
 10
227.6510000000000105
 20
20.8496999999999986
 10
227.6670000000000016
 20
20.8496999999999986
 10
227.7210000000000036
 20
20.879999999999999
 10
227.75
 20
20.9338000000000015
 10
227.75
 20
20.9502999999999986
 10
227.75
 20
23.8496999999999986
 10
227.75
 20
23.8607000000000014
 10
227.7350000000000136
 20
23.8923999999999985
 10
227.7119999999999891
 20
23.888300000000001
 10
227.7069999999999936
 20
23.8648999999999987
 10
227.7390000000000043
 20
23.8496999999999986
 10
227.75
 20
23.8496999999999986
 10
233.5500000000000114
 20
23.8496999999999986
 10
233.5600000000000023
 20
23.8496999999999986
 10
233.5910000000000082
 20
23.8648999999999987
 10
233.5869999999999891
 20
23.888300000000001
 10
233.563999999999993
 20
23.8923999999999985
 10
233.5500000000000114
 20
23.8607000000000014
 10
233.5500000000000114
 20
23.8496999999999986
 10
233.5500000000000114
 20
20.9502999999999986
 10
233.5500000000000114
 20
20.9338000000000015
 10
233.5790000000000077
 20
20.879999999999999
 10
233.6330000000000098
 20
20.8496999999999986
 10
233.6500000000000057
 20
20.8496999999999986
 10
239.6500000000000057
 20
20.8496999999999986
 10
239.6670000000000016
 20
20.8496999999999986
 10
239.7210000000000036
 20
20.879999999999999
 10
239.75
 20
20.9338000000000015
 10
239.75
 20
20.9502999999999986
 10
239.75
 20
23.8496999999999986
 10
239.75
 20
23.8607000000000014
 10
239.7350000000000136
 20
23.8923999999999985
 10
239.7129999999999939
 20
23.888300000000001
 10
239.7069999999999936
 20
23.8648999999999987
 10
239.7390000000000043
 20
23.8496999999999986
 10
239.75
 20
23.8496999999999986
 10
245.5500000000000114
 20
23.8496999999999986
 10
245.5589999999999975
 20
23.8496999999999986
 10
245.5910000000000082
 20
23.8648999999999987
 10
245.5869999999999891
 20
23.888300000000001
 10
245.563999999999993
 20
23.8923999999999985
 10
245.5500000000000114
 20
23.8607000000000014
 10
245.5500000000000114
 20
23.8496999999999986
 10
245.5500000000000114
 20
20.9502999999999986
 10
245.5500000000000114
 20
20.9338000000000015
 10
245.5790000000000077
 20
20.879999999999999
 10
245.632000000000005
 20
20.8496999999999986
 10
245.6500000000000057
 20
20.8496999999999986
 10
251.6510000000000105
 20
20.8496999999999986
 10
251.6670000000000016
 20
20.8496999999999986
 10
251.7210000000000036
 20
20.879999999999999
 10
251.75
 20
20.9338000000000015
 10
251.75
 20
20.9502999999999986
 10
251.75
 20
23.8496999999999986
 10
251.75
 20
23.8607000000000014
 10
251.7340000000000089
 20
23.8923999999999985
 10
251.7129999999999939
 20
23.888300000000001
 10
251.7069999999999936
 20
23.8648999999999987
 10
251.7390000000000043
 20
23.8496999999999986
 10
251.75
 20
23.8496999999999986
 10
257.5500000000000114
 20
23.8496999999999986
 10
257.5600000000000023
 20
23.8496999999999986
 10
257.5910000000000082
 20
23.8648999999999987
 10
257.5869999999999891
 20
23.888300000000001
 10
257.5640000000000214
 20
23.8923999999999985
 10
257.5500000000000114
 20
23.8607000000000014
 10
257.5500000000000114
 20
23.8496999999999986
 10
257.5500000000000114
 20
20.9502999999999986
 10
257.5500000000000114
 20
20.9338000000000015
 10
257.5790000000000077
 20
20.879999999999999
 10
257.6329999999999814
 20
20.8496999999999986
 10
257.6510000000000105
 20
20.8496999999999986
 10
263.6499999999999773
 20
20.8496999999999986
 10
263.6669999999999732
 20
20.8496999999999986
 10
263.7210000000000036
 20
20.879999999999999
 10
263.75
 20
20.9338000000000015
 10
263.75
 20
20.9502999999999986
 10
263.75
 20
23.8496999999999986
 10
263.75
 20
23.8607000000000014
 10
263.7350000000000136
 20
23.8923999999999985
 10
263.7119999999999891
 20
23.888300000000001
 10
263.7069999999999936
 20
23.8648999999999987
 10
263.7379999999999995
 20
23.8496999999999986
 10
263.75
 20
23.8496999999999986
 10
269.5500000000000114
 20
23.8496999999999986
 10
269.5590000000000259
 20
23.8496999999999986
 10
269.5910000000000082
 20
23.8648999999999987
 10
269.5869999999999891
 20
23.888300000000001
 10
269.5629999999999882
 20
23.8923999999999985
 10
269.5500000000000114
 20
23.8607000000000014
 10
269.5500000000000114
 20
23.8496999999999986
 10
269.5500000000000114
 20
20.9502999999999986
 10
269.5500000000000114
 20
20.9338000000000015
 10
269.5790000000000077
 20
20.879999999999999
 10
269.6329999999999814
 20
20.8496999999999986
 10
269.6499999999999773
 20
20.8496999999999986
 10
275.6499999999999773
 20
20.8496999999999986
 10
275.6669999999999732
 20
20.8496999999999986
 10
275.7210000000000036
 20
20.879999999999999
 10
275.7490000000000236
 20
20.9338000000000015
 10
275.7490000000000236
 20
20.9502999999999986
 10
275.7490000000000236
 20
23.8496999999999986
 10
275.7490000000000236
 20
23.8607000000000014
 10
275.7339999999999804
 20
23.8923999999999985
 10
275.7119999999999891
 20
23.888300000000001
 10
275.7069999999999936
 20
23.8648999999999987
 10
275.7389999999999759
 20
23.8496999999999986
 10
275.7490000000000236
 20
23.8496999999999986
 10
281.5500000000000114
 20
23.8496999999999986
 10
281.5590000000000259
 20
23.8496999999999986
 10
281.5910000000000082
 20
23.8648999999999987
 10
281.5869999999999891
 20
23.888300000000001
 10
281.5640000000000214
 20
23.8923999999999985
 10
281.5500000000000114
 20
23.8607000000000014
 10
281.5500000000000114
 20
23.8496999999999986
 10
281.5500000000000114
 20
20.9502999999999986
 10
281.5500000000000114
 20
20.9338000000000015
 10
281.5790000000000077
 20
20.879999999999999
 10
281.632000000000005
 20
20.8496999999999986
 10
281.6499999999999773
 20
20.8496999999999986
 10
287.6499999999999773
 20
20.8496999999999986
 10
287.6669999999999732
 20
20.8496999999999986
 10
287.7210000000000036
 20
20.879999999999999
 10
287.75
 20
20.9338000000000015
 10
287.75
 20
20.9502999999999986
 10
287.75
 20
23.8496999999999986
 10
287.75
 20
23.8607000000000014
 10
287.7339999999999804
 20
23.8923999999999985
 10
287.7119999999999891
 20
23.888300000000001
 10
287.7069999999999936
 20
23.8648999999999987
 10
287.7389999999999759
 20
23.8496999999999986
 10
287.75
 20
23.8496999999999986
 10
293.5500000000000114
 20
23.8496999999999986
 10
293.5590000000000259
 20
23.8496999999999986
 10
293.5910000000000082
 20
23.8648999999999987
 10
293.5869999999999891
 20
23.888300000000001
 10
293.5629999999999882
 20
23.8923999999999985
 10
293.5500000000000114
 20
23.8607000000000014
 10
293.5500000000000114
 20
23.8496999999999986
 10
293.5500000000000114
 20
20.9502999999999986
 10
293.5500000000000114
 20
20.9338000000000015
 10
293.5779999999999745
 20
20.879999999999999
 10
293.632000000000005
 20
20.8496999999999986
 10
293.6499999999999773
 20
20.8496999999999986
 10
299.6499999999999773
 20
20.8496999999999986
 10
302.6499999999999773
 20
20.8496999999999986
 10
302.6669999999999732
 20
20.8496999999999986
 10
302.7200000000000273
 20
20.879999999999999
 10
302.75
 20
20.9338000000000015
 10
302.75
 20
20.9502999999999986
 10
302.75
 20
23.9502999999999986
 10
302.75
 20
29.9502999999999986
 10
302.75
 20
29.9681999999999995
 10
302.7200000000000273
 20
30.0206000000000017
 10
302.6669999999999732
 20
30.0494999999999983
 10
302.6499999999999773
 20
30.0494999999999983
 10
299.75
 20
30.0494999999999983
 10
299.7379999999999995
 20
30.0494999999999983
 10
299.7069999999999936
 20
30.0356999999999985
 10
299.7119999999999891
 20
30.0122999999999998
 10
299.7339999999999804
 20
30.0081999999999987
 10
299.75
 20
30.0397999999999996
 10
299.75
 20
30.0494999999999983
 10
299.75
 20
35.8496000000000024
 10
299.75
 20
35.860599999999998
 10
299.7339999999999804
 20
35.8922999999999988
 10
299.7119999999999891
 20
35.8881000000000014
 10
299.7069999999999936
 20
35.8648000000000025
 10
299.7379999999999995
 20
35.8496000000000024
 10
299.75
 20
35.8496000000000024
 10
302.6499999999999773
 20
35.8496000000000024
 10
302.6669999999999732
 20
35.8496000000000024
 10
302.7200000000000273
 20
35.8800000000000026
 10
302.75
 20
35.9335999999999984
 10
302.75
 20
35.9502000000000024
 10
302.75
 20
41.9502000000000024
 10
302.75
 20
41.9682000000000031
 10
302.7200000000000273
 20
42.0204000000000022
 10
302.6669999999999732
 20
42.0493000000000023
 10
302.6499999999999773
 20
42.0493000000000023
 10
299.75
 20
42.0493000000000023
 10
299.7379999999999995
 20
42.0493000000000023
 10
299.7069999999999936
 20
42.0356000000000023
 10
299.7119999999999891
 20
42.0123000000000033
 10
299.7339999999999804
 20
42.0080999999999989
 10
299.75
 20
42.0397999999999996
 10
299.75
 20
42.0493000000000023
 10
299.75
 20
47.8496999999999986
 10
299.75
 20
47.8607000000000014
 10
299.7339999999999804
 20
47.8924000000000021
 10
299.7119999999999891
 20
47.8881999999999977
 10
299.7069999999999936
 20
47.8648999999999987
 10
299.7379999999999995
 20
47.8496999999999986
 10
299.75
 20
47.8496999999999986
 10
302.6499999999999773
 20
47.8496999999999986
 10
302.6669999999999732
 20
47.8496999999999986
 10
302.7200000000000273
 20
47.8800999999999988
 10
302.75
 20
47.9337000000000018
 10
302.75
 20
47.9502999999999986
 10
302.75
 20
53.9502999999999986
 10
302.75
 20
53.9679000000000002
 10
302.7200000000000273
 20
54.0219000000000023
 10
302.6669999999999732
 20
54.0508000000000024
 10
302.6499999999999773
 20
54.0508000000000024
 10
299.75
 20
54.0508000000000024
 10
299.7379999999999995
 20
54.0508000000000024
 10
299.7069999999999936
 20
54.0371000000000024
 10
299.7119999999999891
 20
54.0135000000000005
 10
299.7339999999999804
 20
54.0095999999999989
 10
299.75
 20
54.0412999999999997
 10
299.75
 20
54.0508000000000024
 10
299.75
 20
59.849499999999999
 10
299.75
 20
59.8607000000000014
 10
299.7339999999999804
 20
59.8920999999999992
 10
299.7119999999999891
 20
59.888300000000001
 10
299.7069999999999936
 20
59.8646000000000029
 10
299.7379999999999995
 20
59.849499999999999
 10
299.75
 20
59.849499999999999
 10
302.6499999999999773
 20
59.849499999999999
 10
302.6669999999999732
 20
59.849499999999999
 10
302.7200000000000273
 20
59.879800000000003
 10
302.75
 20
59.933799999999998
 10
302.75
 20
59.9504000000000019
 10
302.75
 20
65.9500000000000028
 10
302.75
 20
65.9680000000000035
 10
302.7200000000000273
 20
66.0206000000000017
 10
302.6669999999999732
 20
66.0494999999999948
 10
302.6499999999999773
 20
66.0494999999999948
 10
299.75
 20
66.0494999999999948
 10
299.7379999999999995
 20
66.0494999999999948
 10
299.7069999999999936
 20
66.0357999999999947
 10
299.7119999999999891
 20
66.0121000000000038
 10
299.7339999999999804
 20
66.0079000000000065
 10
299.75
 20
66.039599999999993
 10
299.75
 20
66.0494999999999948
 10
299.75
 20
71.8495000000000061
 10
299.75
 20
71.8605000000000018
 10
299.7339999999999804
 20
71.8922000000000025
 10
299.7119999999999891
 20
71.8880000000000052
 10
299.7069999999999936
 20
71.8646999999999991
 10
299.7379999999999995
 20
71.8495000000000061
 10
299.75
 20
71.8495000000000061
 10
302.6499999999999773
 20
71.8495000000000061
 10
302.6669999999999732
 20
71.8495000000000061
 10
302.7200000000000273
 20
71.8799000000000063
 10
302.75
 20
71.9334999999999951
 10
302.75
 20
71.9501000000000062
 10
302.75
 20
77.9501000000000062
 10
302.75
 20
77.9681000000000068
 10
302.7200000000000273
 20
78.020300000000006
 10
302.6669999999999732
 20
78.0493000000000023
 10
302.6499999999999773
 20
78.0493000000000023
 10
299.75
 20
78.0493000000000023
 10
299.7379999999999995
 20
78.0493000000000023
 10
299.7069999999999936
 20
78.035499999999999
 10
299.7119999999999891
 20
78.0122000000000071
 10
299.7339999999999804
 20
78.0079999999999956
 10
299.75
 20
78.0396999999999963
 10
299.75
 20
78.0493000000000023
 10
299.75
 20
83.8495999999999952
 10
299.75
 20
83.8606000000000051
 10
299.7339999999999804
 20
83.8923000000000059
 10
299.7119999999999891
 20
83.8880999999999943
 10
299.7069999999999936
 20
83.8648000000000025
 10
299.7379999999999995
 20
83.8495999999999952
 10
299.75
 20
83.8495999999999952
 10
302.6499999999999773
 20
83.8495999999999952
 10
302.6669999999999732
 20
83.8495999999999952
 10
302.7200000000000273
 20
83.8799999999999955
 10
302.75
 20
83.9335999999999984
 10
302.75
 20
83.9501999999999953
 10
302.75
 20
89.9501999999999953
 10
302.75
 20
89.9679000000000002
 10
302.7200000000000273
 20
90.0217999999999989
 10
302.6669999999999732
 20
90.0507999999999953
 10
302.6499999999999773
 20
90.0507999999999953
 10
299.75
 20
90.0507999999999953
 10
299.7379999999999995
 20
90.0507999999999953
 10
299.7069999999999936
 20
90.0370000000000061
 10
299.7119999999999891
 20
90.0134000000000043
 10
299.7339999999999804
 20
90.0095000000000027
 10
299.75
 20
90.0408999999999935
 10
299.75
 20
90.0507999999999953
 10
299.75
 20
95.8494000000000028
 10
299.75
 20
95.8602999999999952
 10
299.7339999999999804
 20
95.8920999999999992
 10
299.7119999999999891
 20
95.8881999999999977
 10
299.7069999999999936
 20
95.8645000000000067
 10
299.7379999999999995
 20
95.8494000000000028
 10
299.75
 20
95.8494000000000028
 10
302.6499999999999773
 20
95.8494000000000028
 10
302.6669999999999732
 20
95.8494000000000028
 10
302.7200000000000273
 20
95.8796999999999997
 10
302.75
 20
95.9337000000000018
 10
302.75
 20
95.9498999999999995
 10
302.75
 20
101.9500000000000028
 10
302.75
 20
101.9680000000000035
 10
302.7200000000000273
 20
102.0220000000000056
 10
302.6669999999999732
 20
102.0510000000000019
 10
302.6499999999999773
 20
102.0510000000000019
 10
299.75
 20
102.0510000000000019
 10
299.7379999999999995
 20
102.0510000000000019
 10
299.7069999999999936
 20
102.0370000000000061
 10
299.7119999999999891
 20
102.0130000000000052
 10
299.7339999999999804
 20
102.0090000000000003
 10
299.75
 20
102.0409999999999968
 10
299.75
 20
102.0510000000000019
 10
299.75
 20
107.8509999999999991
 10
299.75
 20
107.8619999999999948
 10
299.7339999999999804
 20
107.8940000000000055
 10
299.7119999999999891
 20
107.8880000000000052
 10
299.7069999999999936
 20
107.8659999999999997
 10
299.7379999999999995
 20
107.8509999999999991
 10
299.75
 20
107.8509999999999991
 10
302.6499999999999773
 20
107.8509999999999991
 10
302.6669999999999732
 20
107.8509999999999991
 10
302.7200000000000273
 20
107.8799999999999955
 10
302.75
 20
107.9330000000000069
 10
302.75
 20
107.9500000000000028
 10
302.75
 20
113.9500000000000028
 10
302.75
 20
116.9500000000000028
 10
302.75
 20
116.9680000000000035
 10
302.7200000000000273
 20
117.0220000000000056
 10
302.6669999999999732
 20
117.0510000000000019
 10
302.6499999999999773
 20
117.0510000000000019
 10
299.6499999999999773
 20
117.0510000000000019
 10
293.6499999999999773
 20
117.0510000000000019
 10
293.632000000000005
 20
117.0510000000000019
 10
293.5779999999999745
 20
117.0220000000000056
 10
293.5500000000000114
 20
116.9680000000000035
 10
293.5500000000000114
 20
116.9500000000000028
 10
293.5500000000000114
 20
114.0490000000000066
 10
293.5500000000000114
 20
114.0400000000000063
 10
293.5629999999999882
 20
114.0079999999999956
 10
293.5869999999999891
 20
114.0120000000000005
 10
293.5910000000000082
 20
114.0349999999999966
 10
293.5590000000000259
 20
114.0490000000000066
 10
293.5500000000000114
 20
114.0490000000000066
 10
287.75
 20
114.0490000000000066
 10
287.7389999999999759
 20
114.0490000000000066
 10
287.7069999999999936
 20
114.0349999999999966
 10
287.7119999999999891
 20
114.0120000000000005
 10
287.7339999999999804
 20
114.0079999999999956
 10
287.75
 20
114.0400000000000063
 10
287.75
 20
114.0490000000000066
 10
287.75
 20
116.9500000000000028
 10
287.75
 20
116.9680000000000035
 10
287.7210000000000036
 20
117.0220000000000056
 10
287.6669999999999732
 20
117.0510000000000019
 10
287.6499999999999773
 20
117.0510000000000019
 10
281.6499999999999773
 20
117.0510000000000019
 10
281.632000000000005
 20
117.0510000000000019
 10
281.5790000000000077
 20
117.0220000000000056
 10
281.5500000000000114
 20
116.9680000000000035
 10
281.5500000000000114
 20
116.9500000000000028
 10
281.5500000000000114
 20
114.0490000000000066
 10
281.5500000000000114
 20
114.0400000000000063
 10
281.5640000000000214
 20
114.0079999999999956
 10
281.5869999999999891
 20
114.0120000000000005
 10
281.5910000000000082
 20
114.0349999999999966
 10
281.5590000000000259
 20
114.0490000000000066
 10
281.5500000000000114
 20
114.0490000000000066
 10
275.7490000000000236
 20
114.0490000000000066
 10
275.7389999999999759
 20
114.0490000000000066
 10
275.7069999999999936
 20
114.0349999999999966
 10
275.7119999999999891
 20
114.0120000000000005
 10
275.7339999999999804
 20
114.0079999999999956
 10
275.7490000000000236
 20
114.0400000000000063
 10
275.7490000000000236
 20
114.0490000000000066
 10
275.7490000000000236
 20
116.9500000000000028
 10
275.7490000000000236
 20
116.9680000000000035
 10
275.7210000000000036
 20
117.0220000000000056
 10
275.6669999999999732
 20
117.0510000000000019
 10
275.6499999999999773
 20
117.0510000000000019
 10
269.6499999999999773
 20
117.0510000000000019
 10
269.6329999999999814
 20
117.0510000000000019
 10
269.5790000000000077
 20
117.0220000000000056
 10
269.5500000000000114
 20
116.9680000000000035
 10
269.5500000000000114
 20
116.9500000000000028
 10
269.5500000000000114
 20
114.0490000000000066
 10
269.5500000000000114
 20
114.0400000000000063
 10
269.5629999999999882
 20
114.0079999999999956
 10
269.5869999999999891
 20
114.0120000000000005
 10
269.5910000000000082
 20
114.0349999999999966
 10
269.5590000000000259
 20
114.0490000000000066
 10
269.5500000000000114
 20
114.0490000000000066
 10
263.75
 20
114.0490000000000066
 10
263.7379999999999995
 20
114.0490000000000066
 10
263.7069999999999936
 20
114.0349999999999966
 10
263.7119999999999891
 20
114.0120000000000005
 10
263.7350000000000136
 20
114.0079999999999956
 10
263.75
 20
114.0400000000000063
 10
263.75
 20
114.0490000000000066
 10
263.75
 20
116.9500000000000028
 10
263.75
 20
116.9680000000000035
 10
263.7210000000000036
 20
117.0220000000000056
 10
263.6669999999999732
 20
117.0510000000000019
 10
263.6499999999999773
 20
117.0510000000000019
 10
257.6510000000000105
 20
117.0510000000000019
 10
257.6329999999999814
 20
117.0510000000000019
 10
257.5790000000000077
 20
117.0220000000000056
 10
257.5500000000000114
 20
116.9680000000000035
 10
257.5500000000000114
 20
116.9500000000000028
 10
257.5500000000000114
 20
114.0490000000000066
 10
257.5500000000000114
 20
114.0400000000000063
 10
257.5640000000000214
 20
114.0079999999999956
 10
257.5869999999999891
 20
114.0120000000000005
 10
257.5910000000000082
 20
114.0349999999999966
 10
257.5600000000000023
 20
114.0490000000000066
 10
257.5500000000000114
 20
114.0490000000000066
 10
251.75
 20
114.0490000000000066
 10
251.7390000000000043
 20
114.0490000000000066
 10
251.7069999999999936
 20
114.0349999999999966
 10
251.7129999999999939
 20
114.0120000000000005
 10
251.7340000000000089
 20
114.0079999999999956
 10
251.75
 20
114.0400000000000063
 10
251.75
 20
114.0490000000000066
 10
251.75
 20
116.9500000000000028
 10
251.75
 20
116.9680000000000035
 10
251.7210000000000036
 20
117.0220000000000056
 10
251.6670000000000016
 20
117.0510000000000019
 10
251.6510000000000105
 20
117.0510000000000019
 10
245.6500000000000057
 20
117.0510000000000019
 10
245.632000000000005
 20
117.0510000000000019
 10
245.5790000000000077
 20
117.0220000000000056
 10
245.5500000000000114
 20
116.9680000000000035
 10
245.5500000000000114
 20
116.9500000000000028
 10
245.5500000000000114
 20
114.0490000000000066
 10
245.5500000000000114
 20
114.0400000000000063
 10
245.563999999999993
 20
114.0079999999999956
 10
245.5869999999999891
 20
114.0120000000000005
 10
245.5910000000000082
 20
114.0349999999999966
 10
245.5589999999999975
 20
114.0490000000000066
 10
245.5500000000000114
 20
114.0490000000000066
 10
239.75
 20
114.0490000000000066
 10
239.7390000000000043
 20
114.0490000000000066
 10
239.7069999999999936
 20
114.0349999999999966
 10
239.7129999999999939
 20
114.0120000000000005
 10
239.7350000000000136
 20
114.0079999999999956
 10
239.75
 20
114.0400000000000063
 10
239.75
 20
114.0490000000000066
 10
239.75
 20
116.9500000000000028
 10
239.75
 20
116.9680000000000035
 10
239.7210000000000036
 20
117.0220000000000056
 10
239.6670000000000016
 20
117.0510000000000019
 10
239.6500000000000057
 20
117.0510000000000019
 10
233.6500000000000057
 20
117.0510000000000019
 10
233.6330000000000098
 20
117.0510000000000019
 10
233.5790000000000077
 20
117.0220000000000056
 10
233.5500000000000114
 20
116.9680000000000035
 10
233.5500000000000114
 20
116.9500000000000028
 10
233.5500000000000114
 20
114.0490000000000066
 10
233.5500000000000114
 20
114.0400000000000063
 10
233.563999999999993
 20
114.0079999999999956
 10
233.5869999999999891
 20
114.0120000000000005
 10
233.5910000000000082
 20
114.0349999999999966
 10
233.5600000000000023
 20
114.0490000000000066
 10
233.5500000000000114
 20
114.0490000000000066
 10
227.75
 20
114.0490000000000066
 10
227.7390000000000043
 20
114.0490000000000066
 10
227.7069999999999936
 20
114.0349999999999966
 10
227.7119999999999891
 20
114.0120000000000005
 10
227.7350000000000136
 20
114.0079999999999956
 10
227.75
 20
114.0400000000000063
 10
227.75
 20
114.0490000000000066
 10
227.75
 20
116.9500000000000028
 10
227.75
 20
116.9680000000000035
 10
227.7210000000000036
 20
117.0220000000000056
 10
227.6670000000000016
 20
117.0510000000000019
 10
227.6510000000000105
 20
117.0510000000000019
 10
221.6510000000000105
 20
117.0510000000000019
 10
221.6330000000000098
 20
117.0510000000000019
 10
221.5790000000000077
 20
117.0220000000000056
 10
221.5500000000000114
 20
116.9680000000000035
 10
221.5500000000000114
 20
116.9500000000000028
 10
221.5500000000000114
 20
114.0490000000000066
 10
221.5500000000000114
 20
114.0400000000000063
 10
221.563999999999993
 20
114.0079999999999956
 10
221.5869999999999891
 20
114.0120000000000005
 10
221.5910000000000082
 20
114.0349999999999966
 10
221.5600000000000023
 20
114.0490000000000066
 10
221.5500000000000114
 20
114.0490000000000066
 10
215.75
 20
114.0490000000000066
 10
215.7390000000000043
 20
114.0490000000000066
 10
215.7069999999999936
 20
114.0349999999999966
 10
215.7129999999999939
 20
114.0120000000000005
 10
215.7350000000000136
 20
114.0079999999999956
 10
215.75
 20
114.0400000000000063
 10
215.75
 20
114.0490000000000066
 10
215.75
 20
116.9500000000000028
 10
215.75
 20
116.9680000000000035
 10
215.7210000000000036
 20
117.0220000000000056
 10
215.6670000000000016
 20
117.0510000000000019
 10
215.6510000000000105
 20
117.0510000000000019
 10
209.6490000000000009
 20
117.0510000000000019
 10
206.6510000000000105
 20
117.0510000000000019
 10
206.6330000000000098
 20
117.0510000000000019
 10
206.5790000000000077
 20
117.0220000000000056
 10
206.5500000000000114
 20
116.9680000000000035
 10
206.5500000000000114
 20
116.9500000000000028
 10
206.5500000000000114
 20
113.9500000000000028
 10
206.5500000000000114
 20
107.9500000000000028
 10
206.5500000000000114
 20
107.9330000000000069
 10
206.5790000000000077
 20
107.8799999999999955
 10
206.6330000000000098
 20
107.8509999999999991
 10
206.6510000000000105
 20
107.8509999999999991
 10
209.5500000000000114
 20
107.8509999999999991
 10
209.5600000000000023
 20
107.8509999999999991
 10
209.5910000000000082
 20
107.8659999999999997
 10
209.5869999999999891
 20
107.8880000000000052
 10
209.563999999999993
 20
107.8940000000000055
 10
209.5500000000000114
 20
107.8619999999999948
 10
209.5500000000000114
 20
107.8509999999999991
 10
209.5500000000000114
 20
102.0510000000000019
 10
209.5500000000000114
 20
102.0409999999999968
 10
209.563999999999993
 20
102.0090000000000003
 10
209.5869999999999891
 20
102.0130000000000052
 10
209.5910000000000082
 20
102.0370000000000061
 10
209.5600000000000023
 20
102.0510000000000019
 10
209.5500000000000114
 20
102.0510000000000019
 10
206.6510000000000105
 20
102.0510000000000019
 10
206.6330000000000098
 20
102.0510000000000019
 10
206.5790000000000077
 20
102.0220000000000056
 10
206.5500000000000114
 20
101.9680000000000035
 10
206.5500000000000114
 20
101.9500000000000028
 10
206.5500000000000114
 20
95.9498999999999995
 10
206.5500000000000114
 20
95.9337000000000018
 10
206.5790000000000077
 20
95.8796999999999997
 10
206.6330000000000098
 20
95.8494000000000028
 10
206.6510000000000105
 20
95.8494000000000028
 10
209.5500000000000114
 20
95.8494000000000028
 10
209.5600000000000023
 20
95.8494000000000028
 10
209.5910000000000082
 20
95.8645000000000067
 10
209.5869999999999891
 20
95.8881999999999977
 10
209.563999999999993
 20
95.8920999999999992
 10
209.5500000000000114
 20
95.8602999999999952
 10
209.5500000000000114
 20
95.8494000000000028
 10
209.5500000000000114
 20
90.0507999999999953
 10
209.5500000000000114
 20
90.0408999999999935
 10
209.563999999999993
 20
90.0095000000000027
 10
209.5869999999999891
 20
90.0134000000000043
 10
209.5910000000000082
 20
90.0370000000000061
 10
209.5600000000000023
 20
90.0507999999999953
 10
209.5500000000000114
 20
90.0507999999999953
 10
206.6510000000000105
 20
90.0507999999999953
 10
206.6330000000000098
 20
90.0507999999999953
 10
206.5790000000000077
 20
90.0217999999999989
 10
206.5500000000000114
 20
89.9679000000000002
 10
206.5500000000000114
 20
89.9501999999999953
 10
206.5500000000000114
 20
83.9501999999999953
 10
206.5500000000000114
 20
83.9335999999999984
 10
206.5790000000000077
 20
83.8799999999999955
 10
206.6330000000000098
 20
83.8495999999999952
 10
206.6510000000000105
 20
83.8495999999999952
 10
209.5500000000000114
 20
83.8495999999999952
 10
209.5600000000000023
 20
83.8495999999999952
 10
209.5910000000000082
 20
83.8648000000000025
 10
209.5869999999999891
 20
83.8880999999999943
 10
209.563999999999993
 20
83.8923000000000059
 10
209.5500000000000114
 20
83.8606000000000051
 10
209.5500000000000114
 20
83.8495999999999952
 10
209.5500000000000114
 20
78.0493000000000023
 10
209.5500000000000114
 20
78.0396999999999963
 10
209.563999999999993
 20
78.0079999999999956
 10
209.5869999999999891
 20
78.0122000000000071
 10
209.5910000000000082
 20
78.035499999999999
 10
209.5600000000000023
 20
78.0493000000000023
 10
209.5500000000000114
 20
78.0493000000000023
 10
206.6510000000000105
 20
78.0493000000000023
 10
206.6330000000000098
 20
78.0493000000000023
 10
206.5790000000000077
 20
78.020300000000006
 10
206.5500000000000114
 20
77.9681000000000068
 10
206.5500000000000114
 20
77.9501000000000062
 10
206.5500000000000114
 20
71.9501000000000062
 10
206.5500000000000114
 20
71.9334999999999951
 10
206.5790000000000077
 20
71.8799000000000063
 10
206.6330000000000098
 20
71.8495000000000061
 10
206.6510000000000105
 20
71.8495000000000061
 10
209.5500000000000114
 20
71.8495000000000061
 10
209.5600000000000023
 20
71.8495000000000061
 10
209.5910000000000082
 20
71.8646999999999991
 10
209.5869999999999891
 20
71.8880000000000052
 10
209.563999999999993
 20
71.8922000000000025
 10
209.5500000000000114
 20
71.8605000000000018
 10
209.5500000000000114
 20
71.8495000000000061
 10
209.5500000000000114
 20
66.0494999999999948
 10
209.5500000000000114
 20
66.039599999999993
 10
209.563999999999993
 20
66.0079000000000065
 10
209.5869999999999891
 20
66.0121000000000038
 10
209.5910000000000082
 20
66.0357999999999947
 10
209.5600000000000023
 20
66.0494999999999948
 10
209.5500000000000114
 20
66.0494999999999948
 10
206.6510000000000105
 20
66.0494999999999948
 10
206.6330000000000098
 20
66.0494999999999948
 10
206.5790000000000077
 20
66.0206000000000017
 10
206.5500000000000114
 20
65.9680000000000035
 10
206.5500000000000114
 20
65.9500000000000028
 10
206.5500000000000114
 20
59.9504000000000019
 10
206.5500000000000114
 20
59.933799999999998
 10
206.5790000000000077
 20
59.879800000000003
 10
206.6330000000000098
 20
59.849499999999999
 10
206.6510000000000105
 20
59.849499999999999
 10
209.5500000000000114
 20
59.849499999999999
 10
209.5600000000000023
 20
59.849499999999999
 10
209.5910000000000082
 20
59.8646000000000029
 10
209.5869999999999891
 20
59.888300000000001
 10
209.563999999999993
 20
59.8920999999999992
 10
209.5500000000000114
 20
59.8607000000000014
 10
209.5500000000000114
 20
59.849499999999999
 10
209.5500000000000114
 20
54.0508000000000024
 10
209.5500000000000114
 20
54.0412999999999997
 10
209.563999999999993
 20
54.0095999999999989
 10
209.5869999999999891
 20
54.0135000000000005
 10
209.5910000000000082
 20
54.0371000000000024
 10
209.5600000000000023
 20
54.0508000000000024
 10
209.5500000000000114
 20
54.0508000000000024
 10
206.6510000000000105
 20
54.0508000000000024
 10
206.6330000000000098
 20
54.0508000000000024
 10
206.5790000000000077
 20
54.0219000000000023
 10
206.5500000000000114
 20
53.9679000000000002
 10
206.5500000000000114
 20
53.9502999999999986
 10
206.5500000000000114
 20
47.9502999999999986
 10
206.5500000000000114
 20
47.9337000000000018
 10
206.5790000000000077
 20
47.8800999999999988
 10
206.6330000000000098
 20
47.8496999999999986
 10
206.6510000000000105
 20
47.8496999999999986
 10
209.5500000000000114
 20
47.8496999999999986
 10
209.5600000000000023
 20
47.8496999999999986
 10
209.5910000000000082
 20
47.8648999999999987
 10
209.5869999999999891
 20
47.8881999999999977
 10
209.563999999999993
 20
47.8924000000000021
 10
209.5500000000000114
 20
47.8607000000000014
 10
209.5500000000000114
 20
47.8496999999999986
 10
209.5500000000000114
 20
42.0493000000000023
 10
209.5500000000000114
 20
42.0397999999999996
 10
209.563999999999993
 20
42.0080999999999989
 10
209.5869999999999891
 20
42.0123000000000033
 10
209.5910000000000082
 20
42.0356000000000023
 10
209.5600000000000023
 20
42.0493000000000023
 10
209.5500000000000114
 20
42.0493000000000023
 10
206.6510000000000105
 20
42.0493000000000023
 10
206.6330000000000098
 20
42.0493000000000023
 10
206.5790000000000077
 20
42.0204000000000022
 10
206.5500000000000114
 20
41.9682000000000031
 10
206.5500000000000114
 20
41.9502000000000024
 10
206.5500000000000114
 20
35.9502000000000024
 10
206.5500000000000114
 20
35.9335999999999984
 10
206.5790000000000077
 20
35.8800000000000026
 10
206.6330000000000098
 20
35.8496000000000024
 10
206.6510000000000105
 20
35.8496000000000024
 10
209.5500000000000114
 20
35.8496000000000024
 10
209.5600000000000023
 20
35.8496000000000024
 10
209.5910000000000082
 20
35.8648000000000025
 10
209.5869999999999891
 20
35.8881000000000014
 10
209.563999999999993
 20
35.8922999999999988
 10
209.5500000000000114
 20
35.860599999999998
 10
209.5500000000000114
 20
35.8496000000000024
 10
209.5500000000000114
 20
30.0494999999999983
 10
209.5500000000000114
 20
30.0397999999999996
 10
209.563999999999993
 20
30.0081999999999987
 10
209.5869999999999891
 20
30.0122999999999998
 10
209.5910000000000082
 20
30.0356999999999985
 10
209.5600000000000023
 20
30.0494999999999983
 10
209.5500000000000114
 20
30.0494999999999983
 10
206.6510000000000105
 20
30.0494999999999983
 10
206.6330000000000098
 20
30.0494999999999983
 10
206.5790000000000077
 20
30.0206000000000017
 10
206.5500000000000114
 20
29.9681999999999995
 10
206.5500000000000114
 20
29.9502999999999986
 10
206.5500000000000114
 20
23.9502999999999986
 10
206.5500000000000114
 20
20.9502999999999986
 10
206.5500000000000114
 20
20.9338000000000015
 10
206.5790000000000077
 20
20.879999999999999
 10
206.6330000000000098
 20
20.8496999999999986
 10
206.6510000000000105
 20
20.8496999999999986
 10
209.6490000000000009
 20
20.8496999999999986
  0
LWPOLYLINE
  5
5C
100
AcDbEntity
  8
0
 62
256
370
-1
 48
1.0
  6
BYLAYER
100
AcDbPolyline
 90
411
 70
1
 10
309.0500000000000114
 20
20.8496999999999986
 10
316.0500000000000114
 20
20.8496999999999986
 10
316.0670000000000073
 20
20.8496999999999986
 10
316.1209999999999809
 20
20.879999999999999
 10
316.1499999999999773
 20
20.9338000000000015
 10
316.1499999999999773
 20
20.9502999999999986
 10
316.1499999999999773
 20
23.8496999999999986
 10
316.1499999999999773
 20
23.8607000000000014
 10
316.1340000000000146
 20
23.8923999999999985
 10
316.1120000000000232
 20
23.888300000000001
 10
316.1070000000000277
 20
23.8648999999999987
 10
316.13900000000001
 20
23.8496999999999986
 10
316.1499999999999773
 20
23.8496999999999986
 10
321.9499999999999886
 20
23.8496999999999986
 10
321.9590000000000032
 20
23.8496999999999986
 10
321.9909999999999854
 20
23.8648999999999987
 10
321.9870000000000232
 20
23.888300000000001
 10
321.9630000000000223
 20
23.8923999999999985
 10
321.9499999999999886
 20
23.8607000000000014
 10
321.9499999999999886
 20
23.8496999999999986
 10
321.9499999999999886
 20
20.9502999999999986
 10
321.9499999999999886
 20
20.9338000000000015
 10
321.978999999999985
 20
20.879999999999999
 10
322.0319999999999823
 20
20.8496999999999986
 10
322.0500000000000114
 20
20.8496999999999986
 10
329.0489999999999782
 20
20.8496999999999986
 10
328.1840000000000259
 20
20.8496999999999986
 10
328.1999999999999886
 20
20.8496999999999986
 10
328.2540000000000191
 20
20.879999999999999
 10
328.2839999999999918
 20
20.9338000000000015
 10
328.2839999999999918
 20
20.9502999999999986
 10
328.2839999999999918
 20
23.9502999999999986
 10
328.2839999999999918
 20
29.8496999999999986
 10
328.2839999999999918
 20
29.8607000000000014
 10
328.2690000000000055
 20
29.8923999999999985
 10
328.2459999999999809
 20
29.888300000000001
 10
328.2420000000000186
 20
29.8648999999999987
 10
328.2730000000000246
 20
29.8496999999999986
 10
328.2839999999999918
 20
29.8496999999999986
 10
330.7810000000000059
 20
29.8496999999999986
 10
330.7980000000000018
 20
29.8496999999999986
 10
330.8519999999999754
 20
29.879999999999999
 10
330.882000000000005
 20
29.9338000000000015
 10
330.882000000000005
 20
29.9502999999999986
 10
330.882000000000005
 20
35.9502000000000024
 10
330.882000000000005
 20
35.9682000000000031
 10
330.8519999999999754
 20
36.0204000000000022
 10
330.7980000000000018
 20
36.0497000000000014
 10
330.7810000000000059
 20
36.0497000000000014
 10
328.2839999999999918
 20
36.0497000000000014
 10
328.2730000000000246
 20
36.0497000000000014
 10
328.2420000000000186
 20
36.035499999999999
 10
328.2459999999999809
 20
36.0123000000000033
 10
328.2690000000000055
 20
36.0080000000000027
 10
328.2839999999999918
 20
36.0397999999999996
 10
328.2839999999999918
 20
36.0497000000000014
 10
328.2839999999999918
 20
41.8496999999999986
 10
328.2839999999999918
 20
41.860599999999998
 10
328.2690000000000055
 20
41.8924000000000021
 10
328.2459999999999809
 20
41.8881000000000014
 10
328.2420000000000186
 20
41.8648000000000025
 10
328.2730000000000246
 20
41.8496999999999986
 10
328.2839999999999918
 20
41.8496999999999986
 10
330.7810000000000059
 20
41.8496999999999986
 10
330.7980000000000018
 20
41.8496999999999986
 10
330.8519999999999754
 20
41.8800000000000026
 10
330.882000000000005
 20
41.9335999999999984
 10
330.882000000000005
 20
41.9502000000000024
 10
330.882000000000005
 20
47.9502999999999986
 10
330.882000000000005
 20
47.9682999999999993
 10
330.8519999999999754
 20
48.0204999999999984
 10
330.7980000000000018
 20
48.0493999999999986
 10
330.7810000000000059
 20
48.0493999999999986
 10
328.2839999999999918
 20
48.0493999999999986
 10
328.2730000000000246
 20
48.0493999999999986
 10
328.2420000000000186
 20
48.0356000000000023
 10
328.2459999999999809
 20
48.0123999999999995
 10
328.2690000000000055
 20
48.0080999999999989
 10
328.2839999999999918
 20
48.0399000000000029
 10
328.2839999999999918
 20
48.0493999999999986
 10
328.2839999999999918
 20
53.8498000000000019
 10
328.2839999999999918
 20
53.8607000000000014
 10
328.2690000000000055
 20
53.8924999999999983
 10
328.2459999999999809
 20
53.8881999999999977
 10
328.2420000000000186
 20
53.8648999999999987
 10
328.2730000000000246
 20
53.8498000000000019
 10
328.2839999999999918
 20
53.8498000000000019
 10
330.7810000000000059
 20
53.8498000000000019
 10
330.7980000000000018
 20
53.8498000000000019
 10
330.8519999999999754
 20
53.8796999999999997
 10
330.882000000000005
 20
53.9337000000000018
 10
330.882000000000005
 20
53.9502999999999986
 10
330.882000000000005
 20
59.9504000000000019
 10
330.882000000000005
 20
59.9680000000000035
 10
330.8519999999999754
 20
60.0206000000000017
 10
330.7980000000000018
 20
60.0495000000000019
 10
330.7810000000000059
 20
60.0495000000000019
 10
328.2839999999999918
 20
60.0495000000000019
 10
328.2730000000000246
 20
60.0495000000000019
 10
328.2420000000000186
 20
60.0356999999999985
 10
328.2459999999999809
 20
60.0120999999999967
 10
328.2690000000000055
 20
60.0082000000000022
 10
328.2839999999999918
 20
60.0396000000000001
 10
328.2839999999999918
 20
60.0495000000000019
 10
328.2839999999999918
 20
65.8495000000000061
 10
328.2839999999999918
 20
65.8603999999999985
 10
328.2690000000000055
 20
65.8922000000000025
 10
328.2459999999999809
 20
65.888300000000001
 10
328.2420000000000186
 20
65.8646999999999991
 10
328.2730000000000246
 20
65.8495000000000061
 10
328.2839999999999918
 20
65.8495000000000061
 10
330.7810000000000059
 20
65.8495000000000061
 10
330.7980000000000018
 20
65.8495000000000061
 10
330.8519999999999754
 20
65.879800000000003
 10
330.882000000000005
 20
65.9334999999999951
 10
330.882000000000005
 20
65.9500000000000028
 10
330.882000000000005
 20
71.9501000000000062
 10
330.882000000000005
 20
71.9681000000000068
 10
330.8519999999999754
 20
72.020300000000006
 10
330.7980000000000018
 20
72.049199999999999
 10
330.7810000000000059
 20
72.049199999999999
 10
328.2839999999999918
 20
72.049199999999999
 10
328.2730000000000246
 20
72.049199999999999
 10
328.2420000000000186
 20
72.035499999999999
 10
328.2459999999999809
 20
72.0122000000000071
 10
328.2690000000000055
 20
72.0079000000000065
 10
328.2839999999999918
 20
72.0396999999999963
 10
328.2839999999999918
 20
72.049199999999999
 10
328.2839999999999918
 20
77.8495999999999952
 10
328.2839999999999918
 20
77.8605000000000018
 10
328.2690000000000055
 20
77.8923000000000059
 10
328.2459999999999809
 20
77.8880000000000052
 10
328.2420000000000186
 20
77.8648000000000025
 10
328.2730000000000246
 20
77.8495999999999952
 10
328.2839999999999918
 20
77.8495999999999952
 10
330.7810000000000059
 20
77.8495999999999952
 10
330.7980000000000018
 20
77.8495999999999952
 10
330.8519999999999754
 20
77.8799000000000063
 10
330.882000000000005
 20
77.9335999999999984
 10
330.882000000000005
 20
77.9501000000000062
 10
330.882000000000005
 20
83.9501999999999953
 10
330.882000000000005
 20
83.968199999999996
 10
330.8519999999999754
 20
84.0217999999999989
 10
330.7980000000000018
 20
84.0507000000000062
 10
330.7810000000000059
 20
84.0507000000000062
 10
328.2839999999999918
 20
84.0507000000000062
 10
328.2730000000000246
 20
84.0507000000000062
 10
328.2420000000000186
 20
84.0370000000000061
 10
328.2459999999999809
 20
84.013300000000001
 10
328.2690000000000055
 20
84.0093999999999994
 10
328.2839999999999918
 20
84.0412000000000035
 10
328.2839999999999918
 20
84.0507000000000062
 10
328.2839999999999918
 20
89.8492999999999995
 10
328.2839999999999918
 20
89.8606000000000051
 10
328.2690000000000055
 20
89.892399999999995
 10
328.2459999999999809
 20
89.8880999999999943
 10
328.2420000000000186
 20
89.8645000000000067
 10
328.2730000000000246
 20
89.8492999999999995
 10
328.2839999999999918
 20
89.8492999999999995
 10
330.7810000000000059
 20
89.8492999999999995
 10
330.7980000000000018
 20
89.8492999999999995
 10
330.8519999999999754
 20
89.8796999999999997
 10
330.882000000000005
 20
89.9335999999999984
 10
330.882000000000005
 20
89.9501999999999953
 10
330.882000000000005
 20
95.9498999999999995
 10
330.882000000000005
 20
95.9679000000000002
 10
330.8519999999999754
 20
96.0219000000000023
 10
330.7980000000000018
 20
96.0507999999999953
 10
330.7810000000000059
 20
96.0507999999999953
 10
328.2839999999999918
 20
96.0507999999999953
 10
328.2730000000000246
 20
96.0507999999999953
 10
328.2420000000000186
 20
96.0366999999999962
 10
328.2459999999999809
 20
96.0134000000000043
 10
328.2690000000000055
 20
96.009200000000007
 10
328.2839999999999918
 20
96.0408999999999935
 10
328.2839999999999918
 20
96.0507999999999953
 10
328.2839999999999918
 20
101.8509999999999991
 10
328.2839999999999918
 20
101.8619999999999948
 10
328.2690000000000055
 20
101.8940000000000055
 10
328.2459999999999809
 20
101.8880000000000052
 10
328.2420000000000186
 20
101.8659999999999997
 10
328.2730000000000246
 20
101.8509999999999991
 10
328.2839999999999918
 20
101.8509999999999991
 10
330.7810000000000059
 20
101.8509999999999991
 10
330.7980000000000018
 20
101.8509999999999991
 10
330.8519999999999754
 20
101.8799999999999955
 10
330.882000000000005
 20
101.9330000000000069
 10
330.882000000000005
 20
101.9500000000000028
 10
330.882000000000005
 20
107.9500000000000028
 10
330.882000000000005
 20
107.9680000000000035
 10
330.8519999999999754
 20
108.019999999999996
 10
330.7980000000000018
 20
108.0490000000000066
 10
330.7810000000000059
 20
108.0490000000000066
 10
328.2839999999999918
 20
108.0490000000000066
 10
328.2730000000000246
 20
108.0490000000000066
 10
328.2420000000000186
 20
108.0349999999999966
 10
328.2459999999999809
 20
108.0120000000000005
 10
328.2690000000000055
 20
108.0079999999999956
 10
328.2839999999999918
 20
108.0400000000000063
 10
328.2839999999999918
 20
108.0490000000000066
 10
328.2839999999999918
 20
113.9500000000000028
 10
328.2839999999999918
 20
116.9500000000000028
 10
328.2839999999999918
 20
116.9680000000000035
 10
328.2540000000000191
 20
117.0220000000000056
 10
328.1999999999999886
 20
117.0510000000000019
 10
328.1840000000000259
 20
117.0510000000000019
 10
329.0489999999999782
 20
117.0510000000000019
 10
322.0500000000000114
 20
117.0510000000000019
 10
322.0319999999999823
 20
117.0510000000000019
 10
321.978999999999985
 20
117.0220000000000056
 10
321.9499999999999886
 20
116.9680000000000035
 10
321.9499999999999886
 20
116.9500000000000028
 10
321.9499999999999886
 20
114.0490000000000066
 10
321.9499999999999886
 20
114.0400000000000063
 10
321.9630000000000223
 20
114.0079999999999956
 10
321.9870000000000232
 20
114.0120000000000005
 10
321.9909999999999854
 20
114.0349999999999966
 10
321.9590000000000032
 20
114.0490000000000066
 10
321.9499999999999886
 20
114.0490000000000066
 10
316.1499999999999773
 20
114.0490000000000066
 10
316.13900000000001
 20
114.0490000000000066
 10
316.1070000000000277
 20
114.0349999999999966
 10
316.1120000000000232
 20
114.0120000000000005
 10
316.1340000000000146
 20
114.0079999999999956
 10
316.1499999999999773
 20
114.0400000000000063
 10
316.1499999999999773
 20
114.0490000000000066
 10
316.1499999999999773
 20
116.9500000000000028
 10
316.1499999999999773
 20
116.9680000000000035
 10
316.1209999999999809
 20
117.0220000000000056
 10
316.0670000000000073
 20
117.0510000000000019
 10
316.0500000000000114
 20
117.0510000000000019
 10
309.0500000000000114
 20
117.0510000000000019
 10
309.0319999999999823
 20
117.0510000000000019
 10
308.9800000000000182
 20
117.0220000000000056
 10
308.9510000000000218
 20
116.9680000000000035
 10
308.9510000000000218
 20
116.9500000000000028
 10
308.9510000000000218
 20
113.9500000000000028
 10
308.9510000000000218
 20
108.0490000000000066
 10
308.9510000000000218
 20
108.0400000000000063
 10
308.964999999999975
 20
108.0079999999999956
 10
308.9879999999999995
 20
108.0120000000000005
 10
308.9920000000000186
 20
108.0349999999999966
 10
308.9599999999999795
 20
108.0490000000000066
 10
308.9510000000000218
 20
108.0490000000000066
 10
306.0500000000000114
 20
108.0490000000000066
 10
306.0319999999999823
 20
108.0490000000000066
 10
305.9800000000000182
 20
108.019999999999996
 10
305.9510000000000218
 20
107.9680000000000035
 10
305.9510000000000218
 20
107.9500000000000028
 10
305.9510000000000218
 20
101.9500000000000028
 10
305.9510000000000218
 20
101.9330000000000069
 10
305.9800000000000182
 20
101.8799999999999955
 10
306.0319999999999823
 20
101.8509999999999991
 10
306.0500000000000114
 20
101.8509999999999991
 10
308.9510000000000218
 20
101.8509999999999991
 10
308.9599999999999795
 20
101.8509999999999991
 10
308.9920000000000186
 20
101.8659999999999997
 10
308.9879999999999995
 20
101.8880000000000052
 10
308.964999999999975
 20
101.8940000000000055
 10
308.9510000000000218
 20
101.8619999999999948
 10
308.9510000000000218
 20
101.8509999999999991
 10
308.9510000000000218
 20
96.0507999999999953
 10
308.9510000000000218
 20
96.0408999999999935
 10
308.964999999999975
 20
96.009200000000007
 10
308.9879999999999995
 20
96.0134000000000043
 10
308.9920000000000186
 20
96.0366999999999962
 10
308.9599999999999795
 20
96.0507999999999953
 10
308.9510000000000218
 20
96.0507999999999953
 10
306.0500000000000114
 20
96.0507999999999953
 10
306.0319999999999823
 20
96.0507999999999953
 10
305.9800000000000182
 20
96.0219000000000023
 10
305.9510000000000218
 20
95.9679000000000002
 10
305.9510000000000218
 20
95.9498999999999995
 10
305.9510000000000218
 20
89.9501999999999953
 10
305.9510000000000218
 20
89.9335999999999984
 10
305.9800000000000182
 20
89.8796999999999997
 10
306.0319999999999823
 20
89.8492999999999995
 10
306.0500000000000114
 20
89.8492999999999995
 10
308.9510000000000218
 20
89.8492999999999995
 10
308.9599999999999795
 20
89.8492999999999995
 10
308.9920000000000186
 20
89.8645000000000067
 10
308.9879999999999995
 20
89.8880999999999943
 10
308.964999999999975
 20
89.892399999999995
 10
308.9510000000000218
 20
89.8606000000000051
 10
308.9510000000000218
 20
89.8492999999999995
 10
308.9510000000000218
 20
84.0507000000000062
 10
308.9510000000000218
 20
84.0412000000000035
 10
308.964999999999975
 20
84.0093999999999994
 10
308.9879999999999995
 20
84.013300000000001
 10
308.9920000000000186
 20
84.0370000000000061
 10
308.9599999999999795
 20
84.0507000000000062
 10
308.9510000000000218
 20
84.0507000000000062
 10
306.0500000000000114
 20
84.0507000000000062
 10
306.0319999999999823
 20
84.0507000000000062
 10
305.9800000000000182
 20
84.0217999999999989
 10
305.9510000000000218
 20
83.968199999999996
 10
305.9510000000000218
 20
83.9501999999999953
 10
305.9510000000000218
 20
77.9501000000000062
 10
305.9510000000000218
 20
77.9335999999999984
 10
305.9800000000000182
 20
77.8799000000000063
 10
306.0319999999999823
 20
77.8495999999999952
 10
306.0500000000000114
 20
77.8495999999999952
 10
308.9510000000000218
 20
77.8495999999999952
 10
308.9599999999999795
 20
77.8495999999999952
 10
308.9920000000000186
 20
77.8648000000000025
 10
308.9879999999999995
 20
77.8880000000000052
 10
308.964999999999975
 20
77.8923000000000059
 10
308.9510000000000218
 20
77.8605000000000018
 10
308.9510000000000218
 20
77.8495999999999952
 10
308.9510000000000218
 20
72.049199999999999
 10
308.9510000000000218
 20
72.0396999999999963
 10
308.964999999999975
 20
72.0079000000000065
 10
308.9879999999999995
 20
72.0122000000000071
 10
308.9920000000000186
 20
72.035499999999999
 10
308.9599999999999795
 20
72.049199999999999
 10
308.9510000000000218
 20
72.049199999999999
 10
306.0500000000000114
 20
72.049199999999999
 10
306.0319999999999823
 20
72.049199999999999
 10
305.9800000000000182
 20
72.020300000000006
 10
305.9510000000000218
 20
71.9681000000000068
 10
305.9510000000000218
 20
71.9501000000000062
 10
305.9510000000000218
 20
65.9500000000000028
 10
305.9510000000000218
 20
65.9334999999999951
 10
305.9800000000000182
 20
65.879800000000003
 10
306.0319999999999823
 20
65.8495000000000061
 10
306.0500000000000114
 20
65.8495000000000061
 10
308.9510000000000218
 20
65.8495000000000061
 10
308.9599999999999795
 20
65.8495000000000061
 10
308.9920000000000186
 20
65.8646999999999991
 10
308.9879999999999995
 20
65.888300000000001
 10
308.964999999999975
 20
65.8922000000000025
 10
308.9510000000000218
 20
65.8603999999999985
 10
308.9510000000000218
 20
65.8495000000000061
 10
308.9510000000000218
 20
60.0495000000000019
 10
308.9510000000000218
 20
60.0396000000000001
 10
308.964999999999975
 20
60.0082000000000022
 10
308.9879999999999995
 20
60.0120999999999967
 10
308.9920000000000186
 20
60.0356999999999985
 10
308.9599999999999795
 20
60.0495000000000019
 10
308.9510000000000218
 20
60.0495000000000019
 10
306.0500000000000114
 20
60.0495000000000019
 10
306.0319999999999823
 20
60.0495000000000019
 10
305.9800000000000182
 20
60.0206000000000017
 10
305.9510000000000218
 20
59.9680000000000035
 10
305.9510000000000218
 20
59.9504000000000019
 10
305.9510000000000218
 20
53.9502999999999986
 10
305.9510000000000218
 20
53.9337000000000018
 10
305.9800000000000182
 20
53.8796999999999997
 10
306.0319999999999823
 20
53.8498000000000019
 10
306.0500000000000114
 20
53.8498000000000019
 10
308.9510000000000218
 20
53.8498000000000019
 10
308.9599999999999795
 20
53.8498000000000019
 10
308.9920000000000186
 20
53.8648999999999987
 10
308.9879999999999995
 20
53.8881999999999977
 10
308.964999999999975
 20
53.8924999999999983
 10
308.9510000000000218
 20
53.8607000000000014
 10
308.9510000000000218
 20
53.8498000000000019
 10
308.9510000000000218
 20
48.0493999999999986
 10
308.9510000000000218
 20
48.0399000000000029
 10
308.964999999999975
 20
48.0080999999999989
 10
308.9879999999999995
 20
48.0123999999999995
 10
308.9920000000000186
 20
48.0356000000000023
 10
308.9599999999999795
 20
48.0493999999999986
 10
308.9510000000000218
 20
48.0493999999999986
 10
306.0500000000000114
 20
48.0493999999999986
 10
306.0319999999999823
 20
48.0493999999999986
 10
305.9800000000000182
 20
48.0204999999999984
 10
305.9510000000000218
 20
47.9682999999999993
 10
305.9510000000000218
 20
47.9502999999999986
 10
305.9510000000000218
 20
41.9502000000000024
 10
305.9510000000000218
 20
41.9335999999999984
 10
305.9800000000000182
 20
41.8800000000000026
 10
306.0319999999999823
 20
41.8496999999999986
 10
306.0500000000000114
 20
41.8496999999999986
 10
308.9510000000000218
 20
41.8496999999999986
 10
308.9599999999999795
 20
41.8496999999999986
 10
308.9920000000000186
 20
41.8648000000000025
 10
308.9879999999999995
 20
41.8881000000000014
 10
308.964999999999975
 20
41.8924000000000021
 10
308.9510000000000218
 20
41.860599999999998
 10
308.9510000000000218
 20
41.8496999999999986
 10
308.9510000000000218
 20
36.0497000000000014
 10
308.9510000000000218
 20
36.0397999999999996
 10
308.964999999999975
 20
36.0080000000000027
 10
308.9879999999999995
 20
36.0123000000000033
 10
308.9920000000000186
 20
36.035499999999999
 10
308.9599999999999795
 20
36.0497000000000014
 10
308.9510000000000218
 20
36.0497000000000014
 10
306.0500000000000114
 20
36.0497000000000014
 10
306.0319999999999823
 20
36.0497000000000014
 10
305.9800000000000182
 20
36.0204000000000022
 10
305.9510000000000218
 20
35.9682000000000031
 10
305.9510000000000218
 20
35.9502000000000024
 10
305.9510000000000218
 20
29.9502999999999986
 10
305.9510000000000218
 20
29.9338000000000015
 10
305.9800000000000182
 20
29.879999999999999
 10
306.0319999999999823
 20
29.8496999999999986
 10
306.0500000000000114
 20
29.8496999999999986
 10
308.9510000000000218
 20
29.8496999999999986
 10
308.9599999999999795
 20
29.8496999999999986
 10
308.9920000000000186
 20
29.8648999999999987
 10
308.9879999999999995
 20
29.888300000000001
 10
308.964999999999975
 20
29.8923999999999985
 10
308.9510000000000218
 20
29.8607000000000014
 10
308.9510000000000218
 20
29.8496999999999986
 10
308.9510000000000218
 20
23.9502999999999986
 10
308.9510000000000218
 20
20.9502999999999986
 10
308.9510000000000218
 20
20.9338000000000015
 10
308.9800000000000182
 20
20.879999999999999
 10
309.0319999999999823
 20
20.8496999999999986
 10
309.0500000000000114
 20
20.8496999999999986
  0
LWPOLYLINE
  5
5D
100
AcDbEntity
  8
0
 62
256
370
-1
 48
1.0
  6
BYLAYER
100
AcDbPolyline
 90
749
 70
1
 10
337.1829999999999927
 20
20.8496999999999986
 10
344.1429999999999723
 20
20.8496999999999986
 10
344.1589999999999918
 20
20.8496999999999986
 10
344.2130000000000223
 20
20.879999999999999
 10
344.2440000000000282
 20
20.9338000000000015
 10
344.2440000000000282
 20
20.9502999999999986
 10
344.2440000000000282
 20
23.8496999999999986
 10
344.2440000000000282
 20
23.8607000000000014
 10
344.228999999999985
 20
23.8923999999999985
 10
344.2049999999999841
 20
23.888300000000001
 10
344.2010000000000218
 20
23.8648999999999987
 10
344.2320000000000277
 20
23.8496999999999986
 10
344.2440000000000282
 20
23.8496999999999986
 10
350.0439999999999827
 20
23.8496999999999986
 10
350.0529999999999973
 20
23.8496999999999986
 10
350.0849999999999795
 20
23.8648999999999987
 10
350.0810000000000173
 20
23.888300000000001
 10
350.0579999999999927
 20
23.8923999999999985
 10
350.0439999999999827
 20
23.8607000000000014
 10
350.0439999999999827
 20
23.8496999999999986
 10
350.0439999999999827
 20
20.9502999999999986
 10
350.0439999999999827
 20
20.9338000000000015
 10
350.0729999999999791
 20
20.879999999999999
 10
350.125
 20
20.8496999999999986
 10
350.1429999999999723
 20
20.8496999999999986
 10
356.1429999999999723
 20
20.8496999999999986
 10
356.1610000000000014
 20
20.8496999999999986
 10
356.2139999999999986
 20
20.879999999999999
 10
356.2420000000000186
 20
20.9338000000000015
 10
356.2420000000000186
 20
20.9502999999999986
 10
356.2420000000000186
 20
23.8496999999999986
 10
356.2420000000000186
 20
23.8607000000000014
 10
356.2280000000000086
 20
23.8923999999999985
 10
356.2069999999999936
 20
23.888300000000001
 10
356.1999999999999886
 20
23.8648999999999987
 10
356.2309999999999945
 20
23.8496999999999986
 10
356.2420000000000186
 20
23.8496999999999986
 10
362.0450000000000159
 20
23.8496999999999986
 10
362.0520000000000209
 20
23.8496999999999986
 10
362.0840000000000032
 20
23.8648999999999987
 10
362.0810000000000173
 20
23.888300000000001
 10
362.0559999999999832
 20
23.8923999999999985
 10
362.0450000000000159
 20
23.8607000000000014
 10
362.0450000000000159
 20
23.8496999999999986
 10
362.0450000000000159
 20
20.9502999999999986
 10
362.0450000000000159
 20
20.9338000000000015
 10
362.0729999999999791
 20
20.879999999999999
 10
362.1259999999999764
 20
20.8496999999999986
 10
362.1440000000000055
 20
20.8496999999999986
 10
368.1449999999999818
 20
20.8496999999999986
 10
368.1619999999999777
 20
20.8496999999999986
 10
368.214999999999975
 20
20.879999999999999
 10
368.2440000000000282
 20
20.9338000000000015
 10
368.2440000000000282
 20
20.9502999999999986
 10
368.2440000000000282
 20
23.8496999999999986
 10
368.2440000000000282
 20
23.8607000000000014
 10
368.228999999999985
 20
23.8923999999999985
 10
368.2049999999999841
 20
23.888300000000001
 10
368.2010000000000218
 20
23.8648999999999987
 10
368.2330000000000041
 20
23.8496999999999986
 10
368.2440000000000282
 20
23.8496999999999986
 10
374.0430000000000064
 20
23.8496999999999986
 10
374.0539999999999736
 20
23.8496999999999986
 10
374.0860000000000127
 20
23.8648999999999987
 10
374.0819999999999936
 20
23.888300000000001
 10
374.0570000000000164
 20
23.8923999999999985
 10
374.0430000000000064
 20
23.8607000000000014
 10
374.0430000000000064
 20
23.8496999999999986
 10
374.0430000000000064
 20
20.9502999999999986
 10
374.0430000000000064
 20
20.9338000000000015
 10
374.0710000000000264
 20
20.879999999999999
 10
374.1240000000000236
 20
20.8496999999999986
 10
374.1419999999999959
 20
20.8496999999999986
 10
380.1429999999999723
 20
20.8496999999999986
 10
380.160000000000025
 20
20.8496999999999986
 10
380.2130000000000223
 20
20.879999999999999
 10
380.2450000000000045
 20
20.9338000000000015
 10
380.2450000000000045
 20
20.9502999999999986
 10
380.2450000000000045
 20
23.8496999999999986
 10
380.2450000000000045
 20
23.8607000000000014
 10
380.2269999999999754
 20
23.8923999999999985
 10
380.2060000000000173
 20
23.888300000000001
 10
380.1990000000000123
 20
23.8648999999999987
 10
380.2309999999999945
 20
23.8496999999999986
 10
380.2450000000000045
 20
23.8496999999999986
 10
386.0450000000000159
 20
23.8496999999999986
 10
386.0520000000000209
 20
23.8496999999999986
 10
386.0840000000000032
 20
23.8648999999999987
 10
386.0799999999999841
 20
23.888300000000001
 10
386.0590000000000259
 20
23.8923999999999985
 10
386.0450000000000159
 20
23.8607000000000014
 10
386.0450000000000159
 20
23.8496999999999986
 10
386.0450000000000159
 20
20.9502999999999986
 10
386.0450000000000159
 20
20.9338000000000015
 10
386.0729999999999791
 20
20.879999999999999
 10
386.1259999999999764
 20
20.8496999999999986
 10
386.1429999999999723
 20
20.8496999999999986
 10
392.1440000000000055
 20
20.8496999999999986
 10
392.1619999999999777
 20
20.8496999999999986
 10
392.214999999999975
 20
20.879999999999999
 10
392.242999999999995
 20
20.9338000000000015
 10
392.242999999999995
 20
20.9502999999999986
 10
392.242999999999995
 20
23.8496999999999986
 10
392.242999999999995
 20
23.8607000000000014
 10
392.228999999999985
 20
23.8923999999999985
 10
392.2080000000000268
 20
23.888300000000001
 10
392.2010000000000218
 20
23.8648999999999987
 10
392.2320000000000277
 20
23.8496999999999986
 10
392.242999999999995
 20
23.8496999999999986
 10
398.0430000000000064
 20
23.8496999999999986
 10
398.0529999999999973
 20
23.8496999999999986
 10
398.0849999999999795
 20
23.8648999999999987
 10
398.0819999999999936
 20
23.888300000000001
 10
398.0570000000000164
 20
23.8923999999999985
 10
398.0430000000000064
 20
23.8607000000000014
 10
398.0430000000000064
 20
23.8496999999999986
 10
398.0430000000000064
 20
20.9502999999999986
 10
398.0430000000000064
 20
20.9338000000000015
 10
398.0710000000000264
 20
20.879999999999999
 10
398.1270000000000095
 20
20.8496999999999986
 10
398.1449999999999818
 20
20.8496999999999986
 10
404.146000000000015
 20
20.8496999999999986
 10
404.160000000000025
 20
20.8496999999999986
 10
404.2130000000000223
 20
20.879999999999999
 10
404.2450000000000045
 20
20.9338000000000015
 10
404.2450000000000045
 20
20.9502999999999986
 10
404.2450000000000045
 20
23.8496999999999986
 10
404.2450000000000045
 20
23.8607000000000014
 10
404.2269999999999754
 20
23.8923999999999985
 10
404.2060000000000173
 20
23.888300000000001
 10
404.2019999999999982
 20
23.8648999999999987
 10
404.2339999999999804
 20
23.8496999999999986
 10
404.2450000000000045
 20
23.8496999999999986
 10
410.0439999999999827
 20
23.8496999999999986
 10
410.0550000000000068
 20
23.8496999999999986
 10
410.0869999999999891
 20
23.8648999999999987
 10
410.0790000000000077
 20
23.888300000000001
 10
410.0579999999999927
 20
23.8923999999999985
 10
410.0439999999999827
 20
23.8607000000000014
 10
410.0439999999999827
 20
23.8496999999999986
 10
410.0439999999999827
 20
20.9502999999999986
 10
410.0439999999999827
 20
20.9338000000000015
 10
410.0720000000000027
 20
20.879999999999999
 10
410.125
 20
20.8496999999999986
 10
410.1429999999999723
 20
20.8496999999999986
 10
416.1440000000000055
 20
20.8496999999999986
 10
416.1610000000000014
 20
20.8496999999999986
 10
416.2139999999999986
 20
20.879999999999999
 10
416.242999999999995
 20
20.9338000000000015
 10
416.242999999999995
 20
20.9502999999999986
 10
416.242999999999995
 20
23.8496999999999986
 10
416.242999999999995
 20
23.8607000000000014
 10
416.2280000000000086
 20
23.8923999999999985
 10
416.2069999999999936
 20
23.888300000000001
 10
416.1999999999999886
 20
23.8648999999999987
 10
416.2320000000000277
 20
23.8496999999999986
 10
416.242999999999995
 20
23.8496999999999986
 10
422.0419999999999732
 20
23.8496999999999986
 10
422.0529999999999973
 20
23.8496999999999986
 10
422.0840000000000032
 20
23.8648999999999987
 10
422.0810000000000173
 20
23.888300000000001
 10
422.0559999999999832
 20
23.8923999999999985
 10
422.0419999999999732
 20
23.8607000000000014
 10
422.0419999999999732
 20
23.8496999999999986
 10
422.0419999999999732
 20
20.9502999999999986
 10
422.0419999999999732
 20
20.9338000000000015
 10
422.0740000000000123
 20
20.879999999999999
 10
422.1270000000000095
 20
20.8496999999999986
 10
422.1440000000000055
 20
20.8496999999999986
 10
428.1449999999999818
 20
20.8496999999999986
 10
428.1589999999999918
 20
20.8496999999999986
 10
428.2160000000000082
 20
20.879999999999999
 10
428.2440000000000282
 20
20.9338000000000015
 10
428.2440000000000282
 20
20.9502999999999986
 10
428.2440000000000282
 20
23.8496999999999986
 10
428.2440000000000282
 20
23.8607000000000014
 10
428.2300000000000182
 20
23.8923999999999985
 10
428.2049999999999841
 20
23.888300000000001
 10
428.2019999999999982
 20
23.8648999999999987
 10
428.2330000000000041
 20
23.8496999999999986
 10
428.2440000000000282
 20
23.8496999999999986
 10
434.0439999999999827
 20
23.8496999999999986
 10
434.0539999999999736
 20
23.8496999999999986
 10
434.0860000000000127
 20
23.8648999999999987
 10
434.0790000000000077
 20
23.888300000000001
 10
434.0579999999999927
 20
23.8923999999999985
 10
434.0439999999999827
 20
23.8607000000000014
 10
434.0439999999999827
 20
23.8496999999999986
 10
434.0439999999999827
 20
20.9502999999999986
 10
434.0439999999999827
 20
20.9338000000000015
 10
434.0720000000000027
 20
20.879999999999999
 10
434.125
 20
20.8496999999999986
 10
434.1419999999999959
 20
20.8496999999999986
 10
441.1059999999999945
 20
20.8496999999999986
 10
444.1050000000000182
 20
20.8496999999999986
 10
444.1229999999999905
 20
20.8496999999999986
 10
444.1750000000000114
 20
20.879999999999999
 10
444.2040000000000077
 20
20.9338000000000015
 10
444.2040000000000077
 20
20.9502999999999986
 10
444.2040000000000077
 20
23.9502999999999986
 10
444.2040000000000077
 20
29.9502999999999986
 10
444.2040000000000077
 20
29.9681999999999995
 10
444.1750000000000114
 20
30.0206000000000017
 10
444.1229999999999905
 20
30.0494999999999983
 10
444.1050000000000182
 20
30.0494999999999983
 10
441.2049999999999841
 20
30.0494999999999983
 10
441.1940000000000168
 20
30.0494999999999983
 10
441.1630000000000109
 20
30.0356999999999985
 10
441.1659999999999968
 20
30.0122999999999998
 10
441.1909999999999741
 20
30.0081999999999987
 10
441.2049999999999841
 20
30.0397999999999996
 10
441.2049999999999841
 20
30.0494999999999983
 10
441.2049999999999841
 20
35.8496000000000024
 10
441.2049999999999841
 20
35.860599999999998
 10
441.1909999999999741
 20
35.8922999999999988
 10
441.1659999999999968
 20
35.8881000000000014
 10
441.1630000000000109
 20
35.8648000000000025
 10
441.1940000000000168
 20
35.8496000000000024
 10
441.2049999999999841
 20
35.8496000000000024
 10
444.1050000000000182
 20
35.8496000000000024
 10
444.1229999999999905
 20
35.8496000000000024
 10
444.1750000000000114
 20
35.8800000000000026
 10
444.2040000000000077
 20
35.9335999999999984
 10
444.2040000000000077
 20
35.9502000000000024
 10
444.2040000000000077
 20
41.9502000000000024
 10
444.2040000000000077
 20
41.9682000000000031
 10
444.1750000000000114
 20
42.0204000000000022
 10
444.1229999999999905
 20
42.0493000000000023
 10
444.1050000000000182
 20
42.0493000000000023
 10
441.2049999999999841
 20
42.0493000000000023
 10
441.1940000000000168
 20
42.0493000000000023
 10
441.1630000000000109
 20
42.0356000000000023
 10
441.1659999999999968
 20
42.0123000000000033
 10
441.1909999999999741
 20
42.0080999999999989
 10
441.2049999999999841
 20
42.0397999999999996
 10
441.2049999999999841
 20
42.0493000000000023
 10
441.2049999999999841
 20
47.8496999999999986
 10
441.2049999999999841
 20
47.8607000000000014
 10
441.1909999999999741
 20
47.8924000000000021
 10
441.1659999999999968
 20
47.8881999999999977
 10
441.1630000000000109
 20
47.8648999999999987
 10
441.1940000000000168
 20
47.8496999999999986
 10
441.2049999999999841
 20
47.8496999999999986
 10
444.1050000000000182
 20
47.8496999999999986
 10
444.1229999999999905
 20
47.8496999999999986
 10
444.1750000000000114
 20
47.8800999999999988
 10
444.2040000000000077
 20
47.9337000000000018
 10
444.2040000000000077
 20
47.9502999999999986
 10
444.2040000000000077
 20
53.9502999999999986
 10
444.2040000000000077
 20
53.9679000000000002
 10
444.1750000000000114
 20
54.0219000000000023
 10
444.1229999999999905
 20
54.0508000000000024
 10
444.1050000000000182
 20
54.0508000000000024
 10
441.2049999999999841
 20
54.0508000000000024
 10
441.1940000000000168
 20
54.0508000000000024
 10
441.1630000000000109
 20
54.0371000000000024
 10
441.1659999999999968
 20
54.0135000000000005
 10
441.1909999999999741
 20
54.0095999999999989
 10
441.2049999999999841
 20
54.0412999999999997
 10
441.2049999999999841
 20
54.0508000000000024
 10
441.2049999999999841
 20
59.849499999999999
 10
441.2049999999999841
 20
59.8607000000000014
 10
441.1909999999999741
 20
59.8920999999999992
 10
441.1659999999999968
 20
59.888300000000001
 10
441.1630000000000109
 20
59.8646000000000029
 10
441.1940000000000168
 20
59.849499999999999
 10
441.2049999999999841
 20
59.849499999999999
 10
444.1050000000000182
 20
59.849499999999999
 10
444.1229999999999905
 20
59.849499999999999
 10
444.1750000000000114
 20
59.879800000000003
 10
444.2040000000000077
 20
59.933799999999998
 10
444.2040000000000077
 20
59.9504000000000019
 10
444.2040000000000077
 20
65.9500000000000028
 10
444.2040000000000077
 20
65.9680000000000035
 10
444.1750000000000114
 20
66.0206000000000017
 10
444.1229999999999905
 20
66.0494999999999948
 10
444.1050000000000182
 20
66.0494999999999948
 10
441.2049999999999841
 20
66.0494999999999948
 10
441.1940000000000168
 20
66.0494999999999948
 10
441.1630000000000109
 20
66.0357999999999947
 10
441.1659999999999968
 20
66.0121000000000038
 10
441.1909999999999741
 20
66.0079000000000065
 10
441.2049999999999841
 20
66.039599999999993
 10
441.2049999999999841
 20
66.0494999999999948
 10
441.2049999999999841
 20
71.8495000000000061
 10
441.2049999999999841
 20
71.8605000000000018
 10
441.1909999999999741
 20
71.8922000000000025
 10
441.1659999999999968
 20
71.8880000000000052
 10
441.1630000000000109
 20
71.8646999999999991
 10
441.1940000000000168
 20
71.8495000000000061
 10
441.2049999999999841
 20
71.8495000000000061
 10
444.1050000000000182
 20
71.8495000000000061
 10
444.1229999999999905
 20
71.8495000000000061
 10
444.1750000000000114
 20
71.8799000000000063
 10
444.2040000000000077
 20
71.9334999999999951
 10
444.2040000000000077
 20
71.9501000000000062
 10
444.2040000000000077
 20
77.9501000000000062
 10
444.2040000000000077
 20
77.9681000000000068
 10
444.1750000000000114
 20
78.020300000000006
 10
444.1229999999999905
 20
78.0493000000000023
 10
444.1050000000000182
 20
78.0493000000000023
 10
441.2049999999999841
 20
78.0493000000000023
 10
441.1940000000000168
 20
78.0493000000000023
 10
441.1630000000000109
 20
78.035499999999999
 10
441.1659999999999968
 20
78.0122000000000071
 10
441.1909999999999741
 20
78.0079999999999956
 10
441.2049999999999841
 20
78.0396999999999963
 10
441.2049999999999841
 20
78.0493000000000023
 10
441.2049999999999841
 20
83.8495999999999952
 10
441.2049999999999841
 20
83.8606000000000051
 10
441.1909999999999741
 20
83.8923000000000059
 10
441.1659999999999968
 20
83.8880999999999943
 10
441.1630000000000109
 20
83.8648000000000025
 10
441.1940000000000168
 20
83.8495999999999952
 10
441.2049999999999841
 20
83.8495999999999952
 10
444.1050000000000182
 20
83.8495999999999952
 10
444.1229999999999905
 20
83.8495999999999952
 10
444.1750000000000114
 20
83.8799999999999955
 10
444.2040000000000077
 20
83.9335999999999984
 10
444.2040000000000077
 20
83.9501999999999953
 10
444.2040000000000077
 20
89.9501999999999953
 10
444.2040000000000077
 20
89.9679000000000002
 10
444.1750000000000114
 20
90.0217999999999989
 10
444.1229999999999905
 20
90.0507999999999953
 10
444.1050000000000182
 20
90.0507999999999953
 10
441.2049999999999841
 20
90.0507999999999953
 10
441.1940000000000168
 20
90.0507999999999953
 10
441.1630000000000109
 20
90.0370000000000061
 10
441.1659999999999968
 20
90.0134000000000043
 10
441.1909999999999741
 20
90.0095000000000027
 10
441.2049999999999841
 20
90.0408999999999935
 10
441.2049999999999841
 20
90.0507999999999953
 10
441.2049999999999841
 20
95.8494000000000028
 10
441.2049999999999841
 20
95.8602999999999952
 10
441.1909999999999741
 20
95.8920999999999992
 10
441.1659999999999968
 20
95.8881999999999977
 10
441.1630000000000109
 20
95.8645000000000067
 10
441.1940000000000168
 20
95.8494000000000028
 10
441.2049999999999841
 20
95.8494000000000028
 10
444.1050000000000182
 20
95.8494000000000028
 10
444.1229999999999905
 20
95.8494000000000028
 10
444.1750000000000114
 20
95.8796999999999997
 10
444.2040000000000077
 20
95.9337000000000018
 10
444.2040000000000077
 20
95.9498999999999995
 10
444.2040000000000077
 20
101.9500000000000028
 10
444.2040000000000077
 20
101.9680000000000035
 10
444.1750000000000114
 20
102.0220000000000056
 10
444.1229999999999905
 20
102.0510000000000019
 10
444.1050000000000182
 20
102.0510000000000019
 10
441.2049999999999841
 20
102.0510000000000019
 10
441.1940000000000168
 20
102.0510000000000019
 10
441.1630000000000109
 20
102.0370000000000061
 10
441.1659999999999968
 20
102.0130000000000052
 10
441.1909999999999741
 20
102.0090000000000003
 10
441.2049999999999841
 20
102.0409999999999968
 10
441.2049999999999841
 20
102.0510000000000019
 10
441.2049999999999841
 20
107.8509999999999991
 10
441.2049999999999841
 20
107.8619999999999948
 10
441.1909999999999741
 20
107.8940000000000055
 10
441.1659999999999968
 20
107.8880000000000052
 10
441.1630000000000109
 20
107.8659999999999997
 10
441.1940000000000168
 20
107.8509999999999991
 10
441.2049999999999841
 20
107.8509999999999991
 10
444.1050000000000182
 20
107.8509999999999991
 10
444.1229999999999905
 20
107.8509999999999991
 10
444.1750000000000114
 20
107.8799999999999955
 10
444.2040000000000077
 20
107.9330000000000069
 10
444.2040000000000077
 20
107.9500000000000028
 10
444.2040000000000077
 20
113.9500000000000028
 10
444.2040000000000077
 20
116.9500000000000028
 10
444.2040000000000077
 20
116.9680000000000035
 10
444.1750000000000114
 20
117.0220000000000056
 10
444.1229999999999905
 20
117.0510000000000019
 10
444.1050000000000182
 20
117.0510000000000019
 10
441.1059999999999945
 20
117.0510000000000019
 10
434.1419999999999959
 20
117.0510000000000019
 10
434.125
 20
117.0510000000000019
 10
434.0720000000000027
 20
117.0220000000000056
 10
434.0439999999999827
 20
116.9680000000000035
 10
434.0439999999999827
 20
116.9500000000000028
 10
434.0439999999999827
 20
114.0490000000000066
 10
434.0439999999999827
 20
114.0400000000000063
 10
434.0579999999999927
 20
114.0079999999999956
 10
434.0790000000000077
 20
114.0120000000000005
 10
434.0860000000000127
 20
114.0349999999999966
 10
434.0539999999999736
 20
114.0490000000000066
 10
434.0439999999999827
 20
114.0490000000000066
 10
428.2440000000000282
 20
114.0490000000000066
 10
428.2330000000000041
 20
114.0490000000000066
 10
428.2019999999999982
 20
114.0349999999999966
 10
428.2049999999999841
 20
114.0120000000000005
 10
428.2300000000000182
 20
114.0079999999999956
 10
428.2440000000000282
 20
114.0400000000000063
 10
428.2440000000000282
 20
114.0490000000000066
 10
428.2440000000000282
 20
116.9500000000000028
 10
428.2440000000000282
 20
116.9680000000000035
 10
428.2160000000000082
 20
117.0220000000000056
 10
428.1589999999999918
 20
117.0510000000000019
 10
428.1449999999999818
 20
117.0510000000000019
 10
422.1440000000000055
 20
117.0510000000000019
 10
422.1270000000000095
 20
117.0510000000000019
 10
422.0740000000000123
 20
117.0220000000000056
 10
422.0419999999999732
 20
116.9680000000000035
 10
422.0419999999999732
 20
116.9500000000000028
 10
422.0419999999999732
 20
114.0490000000000066
 10
422.0419999999999732
 20
114.0400000000000063
 10
422.0559999999999832
 20
114.0079999999999956
 10
422.0810000000000173
 20
114.0120000000000005
 10
422.0840000000000032
 20
114.0349999999999966
 10
422.0529999999999973
 20
114.0490000000000066
 10
422.0419999999999732
 20
114.0490000000000066
 10
416.242999999999995
 20
114.0490000000000066
 10
416.2320000000000277
 20
114.0490000000000066
 10
416.1999999999999886
 20
114.0349999999999966
 10
416.2069999999999936
 20
114.0120000000000005
 10
416.2280000000000086
 20
114.0079999999999956
 10
416.242999999999995
 20
114.0400000000000063
 10
416.242999999999995
 20
114.0490000000000066
 10
416.242999999999995
 20
116.9500000000000028
 10
416.242999999999995
 20
116.9680000000000035
 10
416.2139999999999986
 20
117.0220000000000056
 10
416.1610000000000014
 20
117.0510000000000019
 10
416.1440000000000055
 20
117.0510000000000019
 10
410.1429999999999723
 20
117.0510000000000019
 10
410.125
 20
117.0510000000000019
 10
410.0720000000000027
 20
117.0220000000000056
 10
410.0439999999999827
 20
116.9680000000000035
 10
410.0439999999999827
 20
116.9500000000000028
 10
410.0439999999999827
 20
114.0490000000000066
 10
410.0439999999999827
 20
114.0400000000000063
 10
410.0579999999999927
 20
114.0079999999999956
 10
410.0790000000000077
 20
114.0120000000000005
 10
410.0869999999999891
 20
114.0349999999999966
 10
410.0550000000000068
 20
114.0490000000000066
 10
410.0439999999999827
 20
114.0490000000000066
 10
404.2450000000000045
 20
114.0490000000000066
 10
404.2339999999999804
 20
114.0490000000000066
 10
404.2019999999999982
 20
114.0349999999999966
 10
404.2060000000000173
 20
114.0120000000000005
 10
404.2269999999999754
 20
114.0079999999999956
 10
404.2450000000000045
 20
114.0400000000000063
 10
404.2450000000000045
 20
114.0490000000000066
 10
404.2450000000000045
 20
116.9500000000000028
 10
404.2450000000000045
 20
116.9680000000000035
 10
404.2130000000000223
 20
117.0220000000000056
 10
404.160000000000025
 20
117.0510000000000019
 10
404.146000000000015
 20
117.0510000000000019
 10
398.1449999999999818
 20
117.0510000000000019
 10
398.1270000000000095
 20
117.0510000000000019
 10
398.0710000000000264
 20
117.0220000000000056
 10
398.0430000000000064
 20
116.9680000000000035
 10
398.0430000000000064
 20
116.9500000000000028
 10
398.0430000000000064
 20
114.0490000000000066
 10
398.0430000000000064
 20
114.0400000000000063
 10
398.0570000000000164
 20
114.0079999999999956
 10
398.0819999999999936
 20
114.0120000000000005
 10
398.0849999999999795
 20
114.0349999999999966
 10
398.0529999999999973
 20
114.0490000000000066
 10
398.0430000000000064
 20
114.0490000000000066
 10
392.242999999999995
 20
114.0490000000000066
 10
392.2320000000000277
 20
114.0490000000000066
 10
392.2010000000000218
 20
114.0349999999999966
 10
392.2080000000000268
 20
114.0120000000000005
 10
392.228999999999985
 20
114.0079999999999956
 10
392.242999999999995
 20
114.0400000000000063
 10
392.242999999999995
 20
114.0490000000000066
 10
392.242999999999995
 20
116.9500000000000028
 10
392.242999999999995
 20
116.9680000000000035
 10
392.214999999999975
 20
117.0220000000000056
 10
392.1619999999999777
 20
117.0510000000000019
 10
392.1440000000000055
 20
117.0510000000000019
 10
386.1429999999999723
 20
117.0510000000000019
 10
386.1259999999999764
 20
117.0510000000000019
 10
386.0729999999999791
 20
117.0220000000000056
 10
386.0450000000000159
 20
116.9680000000000035
 10
386.0450000000000159
 20
116.9500000000000028
 10
386.0450000000000159
 20
114.0490000000000066
 10
386.0450000000000159
 20
114.0400000000000063
 10
386.0590000000000259
 20
114.0079999999999956
 10
386.0799999999999841
 20
114.0120000000000005
 10
386.0840000000000032
 20
114.0349999999999966
 10
386.0520000000000209
 20
114.0490000000000066
 10
386.0450000000000159
 20
114.0490000000000066
 10
380.2450000000000045
 20
114.0490000000000066
 10
380.2309999999999945
 20
114.0490000000000066
 10
380.1990000000000123
 20
114.0349999999999966
 10
380.2060000000000173
 20
114.0120000000000005
 10
380.2269999999999754
 20
114.0079999999999956
 10
380.2450000000000045
 20
114.0400000000000063
 10
380.2450000000000045
 20
114.0490000000000066
 10
380.2450000000000045
 20
116.9500000000000028
 10
380.2450000000000045
 20
116.9680000000000035
 10
380.2130000000000223
 20
117.0220000000000056
 10
380.160000000000025
 20
117.0510000000000019
 10
380.1429999999999723
 20
117.0510000000000019
 10
374.1419999999999959
 20
117.0510000000000019
 10
374.1240000000000236
 20
117.0510000000000019
 10
374.0710000000000264
 20
117.0220000000000056
 10
374.0430000000000064
 20
116.9680000000000035
 10
374.0430000000000064
 20
116.9500000000000028
 10
374.0430000000000064
 20
114.0490000000000066
 10
374.0430000000000064
 20
114.0400000000000063
 10
374.0570000000000164
 20
114.0079999999999956
 10
374.0819999999999936
 20
114.0120000000000005
 10
374.0860000000000127
 20
114.0349999999999966
 10
374.0539999999999736
 20
114.0490000000000066
 10
374.0430000000000064
 20
114.0490000000000066
 10
368.2440000000000282
 20
114.0490000000000066
 10
368.2330000000000041
 20
114.0490000000000066
 10
368.2010000000000218
 20
114.0349999999999966
 10
368.2049999999999841
 20
114.0120000000000005
 10
368.228999999999985
 20
114.0079999999999956
 10
368.2440000000000282
 20
114.0400000000000063
 10
368.2440000000000282
 20
114.0490000000000066
 10
368.2440000000000282
 20
116.9500000000000028
 10
368.2440000000000282
 20
116.9680000000000035
 10
368.214999999999975
 20
117.0220000000000056
 10
368.1619999999999777
 20
117.0510000000000019
 10
368.1449999999999818
 20
117.0510000000000019
 10
362.1440000000000055
 20
117.0510000000000019
 10
362.1259999999999764
 20
117.0510000000000019
 10
362.0729999999999791
 20
117.0220000000000056
 10
362.0450000000000159
 20
116.9680000000000035
 10
362.0450000000000159
 20
116.9500000000000028
 10
362.0450000000000159
 20
114.0490000000000066
 10
362.0450000000000159
 20
114.0400000000000063
 10
362.0559999999999832
 20
114.0079999999999956
 10
362.0810000000000173
 20
114.0120000000000005
 10
362.0840000000000032
 20
114.0349999999999966
 10
362.0520000000000209
 20
114.0490000000000066
 10
362.0450000000000159
 20
114.0490000000000066
 10
356.2420000000000186
 20
114.0490000000000066
 10
356.2309999999999945
 20
114.0490000000000066
 10
356.1999999999999886
 20
114.0349999999999966
 10
356.2069999999999936
 20
114.0120000000000005
 10
356.2280000000000086
 20
114.0079999999999956
 10
356.2420000000000186
 20
114.0400000000000063
 10
356.2420000000000186
 20
114.0490000000000066
 10
356.2420000000000186
 20
116.9500000000000028
 10
356.2420000000000186
 20
116.9680000000000035
 10
356.2139999999999986
 20
117.0220000000000056
 10
356.1610000000000014
 20
117.0510000000000019
 10
356.1429999999999723
 20
117.0510000000000019
 10
350.1429999999999723
 20
117.0510000000000019
 10
350.125
 20
117.0510000000000019
 10
350.0729999999999791
 20
117.0220000000000056
 10
350.0439999999999827
 20
116.9680000000000035
 10
350.0439999999999827
 20
116.9500000000000028
 10
350.0439999999999827
 20
114.0490000000000066
 10
350.0439999999999827
 20
114.0400000000000063
 10
350.0579999999999927
 20
114.0079999999999956
 10
350.0810000000000173
 20
114.0120000000000005
 10
350.0849999999999795
 20
114.0349999999999966
 10
350.0529999999999973
 20
114.0490000000000066
 10
350.0439999999999827
 20
114.0490000000000066
 10
344.2440000000000282
 20
114.0490000000000066
 10
344.2320000000000277
 20
114.0490000000000066
 10
344.2010000000000218
 20
114.0349999999999966
 10
344.2049999999999841
 20
114.0120000000000005
 10
344.228999999999985
 20
114.0079999999999956
 10
344.2440000000000282
 20
114.0400000000000063
 10
344.2440000000000282
 20
114.0490000000000066
 10
344.2440000000000282
 20
116.9500000000000028
 10
344.2440000000000282
 20
116.9680000000000035
 10
344.2130000000000223
 20
117.0220000000000056
 10
344.1589999999999918
 20
117.0510000000000019
 10
344.1429999999999723
 20
117.0510000000000019
 10
337.1829999999999927
 20
117.0510000000000019
 10
335.4499999999999886
 20
117.0510000000000019
 10
335.4320000000000164
 20
117.0510000000000019
 10
335.3790000000000191
 20
117.0220000000000056
 10
335.3500000000000227
 20
116.9680000000000035
 10
335.3500000000000227
 20
116.9500000000000028
 10
335.3500000000000227
 20
113.9500000000000028
 10
335.3500000000000227
 20
107.9500000000000028
 10
335.3500000000000227
 20
107.9330000000000069
 10
335.3790000000000191
 20
107.8799999999999955
 10
335.4320000000000164
 20
107.8509999999999991
 10
335.4499999999999886
 20
107.8509999999999991
 10
337.9490000000000123
 20
107.8509999999999991
 10
337.9580000000000268
 20
107.8509999999999991
 10
337.9900000000000091
 20
107.8659999999999997
 10
337.98599999999999
 20
107.8880000000000052
 10
337.9630000000000223
 20
107.8940000000000055
 10
337.9490000000000123
 20
107.8619999999999948
 10
337.9490000000000123
 20
107.8509999999999991
 10
337.9490000000000123
 20
102.0510000000000019
 10
337.9490000000000123
 20
102.0409999999999968
 10
337.9630000000000223
 20
102.0090000000000003
 10
337.98599999999999
 20
102.0130000000000052
 10
337.9900000000000091
 20
102.0370000000000061
 10
337.9580000000000268
 20
102.0510000000000019
 10
337.9490000000000123
 20
102.0510000000000019
 10
335.4499999999999886
 20
102.0510000000000019
 10
335.4320000000000164
 20
102.0510000000000019
 10
335.3790000000000191
 20
102.0220000000000056
 10
335.3500000000000227
 20
101.9680000000000035
 10
335.3500000000000227
 20
101.9500000000000028
 10
335.3500000000000227
 20
95.9498999999999995
 10
335.3500000000000227
 20
95.9337000000000018
 10
335.3790000000000191
 20
95.8796999999999997
 10
335.4320000000000164
 20
95.8494000000000028
 10
335.4499999999999886
 20
95.8494000000000028
 10
337.9490000000000123
 20
95.8494000000000028
 10
337.9580000000000268
 20
95.8494000000000028
 10
337.9900000000000091
 20
95.8645000000000067
 10
337.98599999999999
 20
95.8881999999999977
 10
337.9630000000000223
 20
95.8920999999999992
 10
337.9490000000000123
 20
95.8602999999999952
 10
337.9490000000000123
 20
95.8494000000000028
 10
337.9490000000000123
 20
90.0507999999999953
 10
337.9490000000000123
 20
90.0408999999999935
 10
337.9630000000000223
 20
90.0095000000000027
 10
337.98599999999999
 20
90.0134000000000043
 10
337.9900000000000091
 20
90.0370000000000061
 10
337.9580000000000268
 20
90.0507999999999953
 10
337.9490000000000123
 20
90.0507999999999953
 10
335.4499999999999886
 20
90.0507999999999953
 10
335.4320000000000164
 20
90.0507999999999953
 10
335.3790000000000191
 20
90.0217999999999989
 10
335.3500000000000227
 20
89.9679000000000002
 10
335.3500000000000227
 20
89.9501999999999953
 10
335.3500000000000227
 20
83.9501999999999953
 10
335.3500000000000227
 20
83.9335999999999984
 10
335.3790000000000191
 20
83.8799999999999955
 10
335.4320000000000164
 20
83.8495999999999952
 10
335.4499999999999886
 20
83.8495999999999952
 10
337.9490000000000123
 20
83.8495999999999952
 10
337.9580000000000268
 20
83.8495999999999952
 10
337.9900000000000091
 20
83.8648000000000025
 10
337.98599999999999
 20
83.8880999999999943
 10
337.9630000000000223
 20
83.8923000000000059
 10
337.9490000000000123
 20
83.8606000000000051
 10
337.9490000000000123
 20
83.8495999999999952
 10
337.9490000000000123
 20
78.0493000000000023
 10
337.9490000000000123
 20
78.0396999999999963
 10
337.9630000000000223
 20
78.0079999999999956
 10
337.98599999999999
 20
78.0122000000000071
 10
337.9900000000000091
 20
78.035499999999999
 10
337.9580000000000268
 20
78.0493000000000023
 10
337.9490000000000123
 20
78.0493000000000023
 10
335.4499999999999886
 20
78.0493000000000023
 10
335.4320000000000164
 20
78.0493000000000023
 10
335.3790000000000191
 20
78.020300000000006
 10
335.3500000000000227
 20
77.9681000000000068
 10
335.3500000000000227
 20
77.9501000000000062
 10
335.3500000000000227
 20
71.9501000000000062
 10
335.3500000000000227
 20
71.9334999999999951
 10
335.3790000000000191
 20
71.8799000000000063
 10
335.4320000000000164
 20
71.8495000000000061
 10
335.4499999999999886
 20
71.8495000000000061
 10
337.9490000000000123
 20
71.8495000000000061
 10
337.9580000000000268
 20
71.8495000000000061
 10
337.9900000000000091
 20
71.8646999999999991
 10
337.98599999999999
 20
71.8880000000000052
 10
337.9630000000000223
 20
71.8922000000000025
 10
337.9490000000000123
 20
71.8605000000000018
 10
337.9490000000000123
 20
71.8495000000000061
 10
337.9490000000000123
 20
66.0494999999999948
 10
337.9490000000000123
 20
66.039599999999993
 10
337.9630000000000223
 20
66.0079000000000065
 10
337.98599999999999
 20
66.0121000000000038
 10
337.9900000000000091
 20
66.0357999999999947
 10
337.9580000000000268
 20
66.0494999999999948
 10
337.9490000000000123
 20
66.0494999999999948
 10
335.4499999999999886
 20
66.0494999999999948
 10
335.4320000000000164
 20
66.0494999999999948
 10
335.3790000000000191
 20
66.0206000000000017
 10
335.3500000000000227
 20
65.9680000000000035
 10
335.3500000000000227
 20
65.9500000000000028
 10
335.3500000000000227
 20
59.9504000000000019
 10
335.3500000000000227
 20
59.933799999999998
 10
335.3790000000000191
 20
59.879800000000003
 10
335.4320000000000164
 20
59.849499999999999
 10
335.4499999999999886
 20
59.849499999999999
 10
337.9490000000000123
 20
59.849499999999999
 10
337.9580000000000268
 20
59.849499999999999
 10
337.9900000000000091
 20
59.8646000000000029
 10
337.98599999999999
 20
59.888300000000001
 10
337.9630000000000223
 20
59.8920999999999992
 10
337.9490000000000123
 20
59.8607000000000014
 10
337.9490000000000123
 20
59.849499999999999
 10
337.9490000000000123
 20
54.0508000000000024
 10
337.9490000000000123
 20
54.0412999999999997
 10
337.9630000000000223
 20
54.0095999999999989
 10
337.98599999999999
 20
54.0135000000000005
 10
337.9900000000000091
 20
54.0371000000000024
 10
337.9580000000000268
 20
54.0508000000000024
 10
337.9490000000000123
 20
54.0508000000000024
 10
335.4499999999999886
 20
54.0508000000000024
 10
335.4320000000000164
 20
54.0508000000000024
 10
335.3790000000000191
 20
54.0219000000000023
 10
335.3500000000000227
 20
53.9679000000000002
 10
335.3500000000000227
 20
53.9502999999999986
 10
335.3500000000000227
 20
47.9502999999999986
 10
335.3500000000000227
 20
47.9337000000000018
 10
335.3790000000000191
 20
47.8800999999999988
 10
335.4320000000000164
 20
47.8496999999999986
 10
335.4499999999999886
 20
47.8496999999999986
 10
337.9490000000000123
 20
47.8496999999999986
 10
337.9580000000000268
 20
47.8496999999999986
 10
337.9900000000000091
 20
47.8648999999999987
 10
337.98599999999999
 20
47.8881999999999977
 10
337.9630000000000223
 20
47.8924000000000021
 10
337.9490000000000123
 20
47.8607000000000014
 10
337.9490000000000123
 20
47.8496999999999986
 10
337.9490000000000123
 20
42.0493000000000023
 10
337.9490000000000123
 20
42.0397999999999996
 10
337.9630000000000223
 20
42.0080999999999989
 10
337.98599999999999
 20
42.0123000000000033
 10
337.9900000000000091
 20
42.0356000000000023
 10
337.9580000000000268
 20
42.0493000000000023
 10
337.9490000000000123
 20
42.0493000000000023
 10
335.4499999999999886
 20
42.0493000000000023
 10
335.4320000000000164
 20
42.0493000000000023
 10
335.3790000000000191
 20
42.0204000000000022
 10
335.3500000000000227
 20
41.9682000000000031
 10
335.3500000000000227
 20
41.9502000000000024
 10
335.3500000000000227
 20
35.9502000000000024
 10
335.3500000000000227
 20
35.9335999999999984
 10
335.3790000000000191
 20
35.8800000000000026
 10
335.4320000000000164
 20
35.8496000000000024
 10
335.4499999999999886
 20
35.8496000000000024
 10
337.9490000000000123
 20
35.8496000000000024
 10
337.9580000000000268
 20
35.8496000000000024
 10
337.9900000000000091
 20
35.8648000000000025
 10
337.98599999999999
 20
35.8881000000000014
 10
337.9630000000000223
 20
35.8922999999999988
 10
337.9490000000000123
 20
35.860599999999998
 10
337.9490000000000123
 20
35.8496000000000024
 10
337.9490000000000123
 20
30.0494999999999983
 10
337.9490000000000123
 20
30.0397999999999996
 10
337.9630000000000223
 20
30.0081999999999987
 10
337.98599999999999
 20
30.0122999999999998
 10
337.9900000000000091
 20
30.0356999999999985
 10
337.9580000000000268
 20
30.0494999999999983
 10
337.9490000000000123
 20
30.0494999999999983
 10
335.4499999999999886
 20
30.0494999999999983
 10
335.4320000000000164
 20
30.0494999999999983
 10
335.3790000000000191
 20
30.0206000000000017
 10
335.3500000000000227
 20
29.9681999999999995
 10
335.3500000000000227
 20
29.9502999999999986
 10
335.3500000000000227
 20
23.9502999999999986
 10
335.3500000000000227
 20
20.9502999999999986
 10
335.3500000000000227
 20
20.9338000000000015
 10
335.3790000000000191
 20
20.879999999999999
 10
335.4320000000000164
 20
20.8496999999999986
 10
335.4499999999999886
 20
20.8496999999999986
 10
337.1829999999999927
 20
20.8496999999999986
  0
LWPOLYLINE
  5
5E
100
AcDbEntity
  8
0
 62
256
370
-1
 48
1.0
  6
BYLAYER
100
AcDbPolyline
 90
601
 70
1
 10
449.2379999999999995
 20
20.8496999999999986
 10
458.2200000000000273
 20
20.8496999999999986
 10
458.2339999999999804
 20
20.8496999999999986
 10
458.2900000000000205
 20
20.879999999999999
 10
458.3179999999999836
 20
20.9338000000000015
 10
458.3179999999999836
 20
20.9502999999999986
 10
458.3179999999999836
 20
23.8496999999999986
 10
458.3179999999999836
 20
23.8607000000000014
 10
458.3039999999999736
 20
23.8923999999999985
 10
458.2799999999999727
 20
23.888300000000001
 10
458.2760000000000105
 20
23.8648999999999987
 10
458.3079999999999927
 20
23.8496999999999986
 10
458.3179999999999836
 20
23.8496999999999986
 10
464.117999999999995
 20
23.8496999999999986
 10
464.1290000000000191
 20
23.8496999999999986
 10
464.160000000000025
 20
23.8648999999999987
 10
464.15300000000002
 20
23.888300000000001
 10
464.132000000000005
 20
23.8923999999999985
 10
464.117999999999995
 20
23.8607000000000014
 10
464.117999999999995
 20
23.8496999999999986
 10
464.117999999999995
 20
20.9502999999999986
 10
464.117999999999995
 20
20.9338000000000015
 10
464.146000000000015
 20
20.879999999999999
 10
464.1990000000000123
 20
20.8496999999999986
 10
464.2169999999999845
 20
20.8496999999999986
 10
470.2180000000000177
 20
20.8496999999999986
 10
470.2350000000000136
 20
20.8496999999999986
 10
470.2880000000000109
 20
20.879999999999999
 10
470.3159999999999741
 20
20.9338000000000015
 10
470.3159999999999741
 20
20.9502999999999986
 10
470.3159999999999741
 20
23.8496999999999986
 10
470.3159999999999741
 20
23.8607000000000014
 10
470.3020000000000209
 20
23.8923999999999985
 10
470.2810000000000059
 20
23.888300000000001
 10
470.2740000000000009
 20
23.8648999999999987
 10
470.3059999999999832
 20
23.8496999999999986
 10
470.3159999999999741
 20
23.8496999999999986
 10
476.1190000000000282
 20
23.8496999999999986
 10
476.1270000000000095
 20
23.8496999999999986
 10
476.1580000000000155
 20
23.8648999999999987
 10
476.1549999999999727
 20
23.888300000000001
 10
476.1299999999999955
 20
23.8923999999999985
 10
476.1190000000000282
 20
23.8607000000000014
 10
476.1190000000000282
 20
23.8496999999999986
 10
476.1190000000000282
 20
20.9502999999999986
 10
476.1190000000000282
 20
20.9338000000000015
 10
476.1480000000000246
 20
20.879999999999999
 10
476.2010000000000218
 20
20.8496999999999986
 10
476.2180000000000177
 20
20.8496999999999986
 10
482.2189999999999941
 20
20.8496999999999986
 10
482.2330000000000041
 20
20.8496999999999986
 10
482.2900000000000205
 20
20.879999999999999
 10
482.3179999999999836
 20
20.9338000000000015
 10
482.3179999999999836
 20
20.9502999999999986
 10
482.3179999999999836
 20
23.8496999999999986
 10
482.3179999999999836
 20
23.8607000000000014
 10
482.3039999999999736
 20
23.8923999999999985
 10
482.2789999999999964
 20
23.888300000000001
 10
482.2749999999999773
 20
23.8648999999999987
 10
482.3070000000000164
 20
23.8496999999999986
 10
482.3179999999999836
 20
23.8496999999999986
 10
488.1170000000000186
 20
23.8496999999999986
 10
488.1279999999999859
 20
23.8496999999999986
 10
488.160000000000025
 20
23.8648999999999987
 10
488.1560000000000059
 20
23.888300000000001
 10
488.132000000000005
 20
23.8923999999999985
 10
488.1170000000000186
 20
23.8607000000000014
 10
488.1170000000000186
 20
23.8496999999999986
 10
488.1170000000000186
 20
20.9502999999999986
 10
488.1170000000000186
 20
20.9338000000000015
 10
488.146000000000015
 20
20.879999999999999
 10
488.2019999999999982
 20
20.8496999999999986
 10
488.2200000000000273
 20
20.8496999999999986
 10
494.2169999999999845
 20
20.8496999999999986
 10
494.2350000000000136
 20
20.8496999999999986
 10
494.2880000000000109
 20
20.879999999999999
 10
494.3159999999999741
 20
20.9338000000000015
 10
494.3159999999999741
 20
20.9502999999999986
 10
494.3159999999999741
 20
23.8496999999999986
 10
494.3159999999999741
 20
23.8607000000000014
 10
494.3020000000000209
 20
23.8923999999999985
 10
494.2799999999999727
 20
23.888300000000001
 10
494.2730000000000246
 20
23.8648999999999987
 10
494.3050000000000068
 20
23.8496999999999986
 10
494.3159999999999741
 20
23.8496999999999986
 10
500.1190000000000282
 20
23.8496999999999986
 10
500.1259999999999764
 20
23.8496999999999986
 10
500.1580000000000155
 20
23.8648999999999987
 10
500.1539999999999964
 20
23.888300000000001
 10
500.1329999999999814
 20
23.8923999999999985
 10
500.1190000000000282
 20
23.8607000000000014
 10
500.1190000000000282
 20
23.8496999999999986
 10
500.1190000000000282
 20
20.9502999999999986
 10
500.1190000000000282
 20
20.9338000000000015
 10
500.1469999999999914
 20
20.879999999999999
 10
500.1999999999999886
 20
20.8496999999999986
 10
500.2180000000000177
 20
20.8496999999999986
 10
506.2180000000000177
 20
20.8496999999999986
 10
506.23599999999999
 20
20.8496999999999986
 10
506.2889999999999873
 20
20.879999999999999
 10
506.3170000000000073
 20
20.9338000000000015
 10
506.3170000000000073
 20
20.9502999999999986
 10
506.3170000000000073
 20
23.8496999999999986
 10
506.3170000000000073
 20
23.8607000000000014
 10
506.3029999999999973
 20
23.8923999999999985
 10
506.2819999999999823
 20
23.888300000000001
 10
506.2749999999999773
 20
23.8648999999999987
 10
506.3070000000000164
 20
23.8496999999999986
 10
506.3170000000000073
 20
23.8496999999999986
 10
512.1169999999999618
 20
23.8496999999999986
 10
512.1269999999999527
 20
23.8496999999999986
 10
512.1589999999999918
 20
23.8648999999999987
 10
512.1559999999999491
 20
23.888300000000001
 10
512.1309999999999718
 20
23.8923999999999985
 10
512.1169999999999618
 20
23.8607000000000014
 10
512.1169999999999618
 20
23.8496999999999986
 10
512.1169999999999618
 20
20.9502999999999986
 10
512.1169999999999618
 20
20.9338000000000015
 10
512.1449999999999818
 20
20.879999999999999
 10
512.2019999999999982
 20
20.8496999999999986
 10
512.2190000000000509
 20
20.8496999999999986
 10
521.1970000000000027
 20
20.8496999999999986
 10
521.2150000000000318
 20
20.8496999999999986
 10
521.2680000000000291
 20
20.879999999999999
 10
521.2999999999999545
 20
20.9338000000000015
 10
521.2999999999999545
 20
20.9502999999999986
 10
521.2999999999999545
 20
23.9502999999999986
 10
521.2999999999999545
 20
29.8496999999999986
 10
521.2999999999999545
 20
29.8607000000000014
 10
521.2820000000000391
 20
29.8923999999999985
 10
521.2609999999999673
 20
29.888300000000001
 10
521.2540000000000191
 20
29.8648999999999987
 10
521.2859999999999445
 20
29.8496999999999986
 10
521.2999999999999545
 20
29.8496999999999986
 10
524.2000000000000455
 20
29.8496999999999986
 10
524.2140000000000555
 20
29.8496999999999986
 10
524.2699999999999818
 20
29.879999999999999
 10
524.2980000000000018
 20
29.9338000000000015
 10
524.2980000000000018
 20
29.9502999999999986
 10
524.2980000000000018
 20
35.9502000000000024
 10
524.2980000000000018
 20
35.9682000000000031
 10
524.2699999999999818
 20
36.0204000000000022
 10
524.2140000000000555
 20
36.0497000000000014
 10
524.2000000000000455
 20
36.0497000000000014
 10
521.2999999999999545
 20
36.0497000000000014
 10
521.2859999999999445
 20
36.0497000000000014
 10
521.2540000000000191
 20
36.035499999999999
 10
521.2609999999999673
 20
36.0123000000000033
 10
521.2820000000000391
 20
36.0080000000000027
 10
521.2999999999999545
 20
36.0397999999999996
 10
521.2999999999999545
 20
36.0497000000000014
 10
521.2999999999999545
 20
41.8496999999999986
 10
521.2999999999999545
 20
41.860599999999998
 10
521.2820000000000391
 20
41.8924000000000021
 10
521.2609999999999673
 20
41.8881000000000014
 10
521.2540000000000191
 20
41.8648000000000025
 10
521.2859999999999445
 20
41.8496999999999986
 10
521.2999999999999545
 20
41.8496999999999986
 10
524.2000000000000455
 20
41.8496999999999986
 10
524.2140000000000555
 20
41.8496999999999986
 10
524.2699999999999818
 20
41.8800000000000026
 10
524.2980000000000018
 20
41.9335999999999984
 10
524.2980000000000018
 20
41.9502000000000024
 10
524.2980000000000018
 20
47.9502999999999986
 10
524.2980000000000018
 20
47.9682999999999993
 10
524.2699999999999818
 20
48.0204999999999984
 10
524.2140000000000555
 20
48.0493999999999986
 10
524.2000000000000455
 20
48.0493999999999986
 10
521.2999999999999545
 20
48.0493999999999986
 10
521.2859999999999445
 20
48.0493999999999986
 10
521.2540000000000191
 20
48.0356000000000023
 10
521.2609999999999673
 20
48.0123999999999995
 10
521.2820000000000391
 20
48.0080999999999989
 10
521.2999999999999545
 20
48.0399000000000029
 10
521.2999999999999545
 20
48.0493999999999986
 10
521.2999999999999545
 20
53.8498000000000019
 10
521.2999999999999545
 20
53.8607000000000014
 10
521.2820000000000391
 20
53.8924999999999983
 10
521.2609999999999673
 20
53.8881999999999977
 10
521.2540000000000191
 20
53.8648999999999987
 10
521.2859999999999445
 20
53.8498000000000019
 10
521.2999999999999545
 20
53.8498000000000019
 10
524.2000000000000455
 20
53.8498000000000019
 10
524.2140000000000555
 20
53.8498000000000019
 10
524.2699999999999818
 20
53.8796999999999997
 10
524.2980000000000018
 20
53.9337000000000018
 10
524.2980000000000018
 20
53.9502999999999986
 10
524.2980000000000018
 20
59.9504000000000019
 10
524.2980000000000018
 20
59.9680000000000035
 10
524.2699999999999818
 20
60.0206000000000017
 10
524.2140000000000555
 20
60.0495000000000019
 10
524.2000000000000455
 20
60.0495000000000019
 10
521.2999999999999545
 20
60.0495000000000019
 10
521.2859999999999445
 20
60.0495000000000019
 10
521.2540000000000191
 20
60.0356999999999985
 10
521.2609999999999673
 20
60.0120999999999967
 10
521.2820000000000391
 20
60.0082000000000022
 10
521.2999999999999545
 20
60.0396000000000001
 10
521.2999999999999545
 20
60.0495000000000019
 10
521.2999999999999545
 20
65.8495000000000061
 10
521.2999999999999545
 20
65.8603999999999985
 10
521.2820000000000391
 20
65.8922000000000025
 10
521.2609999999999673
 20
65.888300000000001
 10
521.2540000000000191
 20
65.8646999999999991
 10
521.2859999999999445
 20
65.8495000000000061
 10
521.2999999999999545
 20
65.8495000000000061
 10
524.2000000000000455
 20
65.8495000000000061
 10
524.2140000000000555
 20
65.8495000000000061
 10
524.2699999999999818
 20
65.879800000000003
 10
524.2980000000000018
 20
65.9334999999999951
 10
524.2980000000000018
 20
65.9500000000000028
 10
524.2980000000000018
 20
71.9501000000000062
 10
524.2980000000000018
 20
71.9681000000000068
 10
524.2699999999999818
 20
72.020300000000006
 10
524.2140000000000555
 20
72.049199999999999
 10
524.2000000000000455
 20
72.049199999999999
 10
521.2999999999999545
 20
72.049199999999999
 10
521.2859999999999445
 20
72.049199999999999
 10
521.2540000000000191
 20
72.035499999999999
 10
521.2609999999999673
 20
72.0122000000000071
 10
521.2820000000000391
 20
72.0079000000000065
 10
521.2999999999999545
 20
72.0396999999999963
 10
521.2999999999999545
 20
72.049199999999999
 10
521.2999999999999545
 20
77.8495999999999952
 10
521.2999999999999545
 20
77.8605000000000018
 10
521.2820000000000391
 20
77.8923000000000059
 10
521.2609999999999673
 20
77.8880000000000052
 10
521.2540000000000191
 20
77.8648000000000025
 10
521.2859999999999445
 20
77.8495999999999952
 10
521.2999999999999545
 20
77.8495999999999952
 10
524.2000000000000455
 20
77.8495999999999952
 10
524.2140000000000555
 20
77.8495999999999952
 10
524.2699999999999818
 20
77.8799000000000063
 10
524.2980000000000018
 20
77.9335999999999984
 10
524.2980000000000018
 20
77.9501000000000062
 10
524.2980000000000018
 20
83.9501999999999953
 10
524.2980000000000018
 20
83.968199999999996
 10
524.2699999999999818
 20
84.0217999999999989
 10
524.2140000000000555
 20
84.0507000000000062
 10
524.2000000000000455
 20
84.0507000000000062
 10
521.2999999999999545
 20
84.0507000000000062
 10
521.2859999999999445
 20
84.0507000000000062
 10
521.2540000000000191
 20
84.0370000000000061
 10
521.2609999999999673
 20
84.013300000000001
 10
521.2820000000000391
 20
84.0093999999999994
 10
521.2999999999999545
 20
84.0412000000000035
 10
521.2999999999999545
 20
84.0507000000000062
 10
521.2999999999999545
 20
89.8492999999999995
 10
521.2999999999999545
 20
89.8606000000000051
 10
521.2820000000000391
 20
89.892399999999995
 10
521.2609999999999673
 20
89.8880999999999943
 10
521.2540000000000191
 20
89.8645000000000067
 10
521.2859999999999445
 20
89.8492999999999995
 10
521.2999999999999545
 20
89.8492999999999995
 10
524.2000000000000455
 20
89.8492999999999995
 10
524.2140000000000555
 20
89.8492999999999995
 10
524.2699999999999818
 20
89.8796999999999997
 10
524.2980000000000018
 20
89.9335999999999984
 10
524.2980000000000018
 20
89.9501999999999953
 10
524.2980000000000018
 20
95.9498999999999995
 10
524.2980000000000018
 20
95.9679000000000002
 10
524.2699999999999818
 20
96.0219000000000023
 10
524.2140000000000555
 20
96.0507999999999953
 10
524.2000000000000455
 20
96.0507999999999953
 10
521.2999999999999545
 20
96.0507999999999953
 10
521.2859999999999445
 20
96.0507999999999953
 10
521.2540000000000191
 20
96.0366999999999962
 10
521.2609999999999673
 20
96.0134000000000043
 10
521.2820000000000391
 20
96.009200000000007
 10
521.2999999999999545
 20
96.0408999999999935
 10
521.2999999999999545
 20
96.0507999999999953
 10
521.2999999999999545
 20
101.8509999999999991
 10
521.2999999999999545
 20
101.8619999999999948
 10
521.2820000000000391
 20
101.8940000000000055
 10
521.2609999999999673
 20
101.8880000000000052
 10
521.2540000000000191
 20
101.8659999999999997
 10
521.2859999999999445
 20
101.8509999999999991
 10
521.2999999999999545
 20
101.8509999999999991
 10
524.2000000000000455
 20
101.8509999999999991
 10
524.2140000000000555
 20
101.8509999999999991
 10
524.2699999999999818
 20
101.8799999999999955
 10
524.2980000000000018
 20
101.9330000000000069
 10
524.2980000000000018
 20
101.9500000000000028
 10
524.2980000000000018
 20
107.9500000000000028
 10
524.2980000000000018
 20
107.9680000000000035
 10
524.2699999999999818
 20
108.019999999999996
 10
524.2140000000000555
 20
108.0490000000000066
 10
524.2000000000000455
 20
108.0490000000000066
 10
521.2999999999999545
 20
108.0490000000000066
 10
521.2859999999999445
 20
108.0490000000000066
 10
521.2540000000000191
 20
108.0349999999999966
 10
521.2609999999999673
 20
108.0120000000000005
 10
521.2820000000000391
 20
108.0079999999999956
 10
521.2999999999999545
 20
108.0400000000000063
 10
521.2999999999999545
 20
108.0490000000000066
 10
521.2999999999999545
 20
113.9500000000000028
 10
521.2999999999999545
 20
116.9500000000000028
 10
521.2999999999999545
 20
116.9680000000000035
 10
521.2680000000000291
 20
117.0220000000000056
 10
521.2150000000000318
 20
117.0510000000000019
 10
521.1970000000000027
 20
117.0510000000000019
 10
512.2190000000000509
 20
117.0510000000000019
 10
512.2019999999999982
 20
117.0510000000000019
 10
512.1449999999999818
 20
117.0220000000000056
 10
512.1169999999999618
 20
116.9680000000000035
 10
512.1169999999999618
 20
116.9500000000000028
 10
512.1169999999999618
 20
114.0490000000000066
 10
512.1169999999999618
 20
114.0400000000000063
 10
512.1309999999999718
 20
114.0079999999999956
 10
512.1559999999999491
 20
114.0120000000000005
 10
512.1589999999999918
 20
114.0349999999999966
 10
512.1269999999999527
 20
114.0490000000000066
 10
512.1169999999999618
 20
114.0490000000000066
 10
506.3170000000000073
 20
114.0490000000000066
 10
506.3070000000000164
 20
114.0490000000000066
 10
506.2749999999999773
 20
114.0349999999999966
 10
506.2819999999999823
 20
114.0120000000000005
 10
506.3029999999999973
 20
114.0079999999999956
 10
506.3170000000000073
 20
114.0400000000000063
 10
506.3170000000000073
 20
114.0490000000000066
 10
506.3170000000000073
 20
116.9500000000000028
 10
506.3170000000000073
 20
116.9680000000000035
 10
506.2889999999999873
 20
117.0220000000000056
 10
506.23599999999999
 20
117.0510000000000019
 10
506.2180000000000177
 20
117.0510000000000019
 10
500.2180000000000177
 20
117.0510000000000019
 10
500.1999999999999886
 20
117.0510000000000019
 10
500.1469999999999914
 20
117.0220000000000056
 10
500.1190000000000282
 20
116.9680000000000035
 10
500.1190000000000282
 20
116.9500000000000028
 10
500.1190000000000282
 20
114.0490000000000066
 10
500.1190000000000282
 20
114.0400000000000063
 10
500.1329999999999814
 20
114.0079999999999956
 10
500.1539999999999964
 20
114.0120000000000005
 10
500.1580000000000155
 20
114.0349999999999966
 10
500.1259999999999764
 20
114.0490000000000066
 10
500.1190000000000282
 20
114.0490000000000066
 10
494.3159999999999741
 20
114.0490000000000066
 10
494.3050000000000068
 20
114.0490000000000066
 10
494.2730000000000246
 20
114.0349999999999966
 10
494.2799999999999727
 20
114.0120000000000005
 10
494.3020000000000209
 20
114.0079999999999956
 10
494.3159999999999741
 20
114.0400000000000063
 10
494.3159999999999741
 20
114.0490000000000066
 10
494.3159999999999741
 20
116.9500000000000028
 10
494.3159999999999741
 20
116.9680000000000035
 10
494.2880000000000109
 20
117.0220000000000056
 10
494.2350000000000136
 20
117.0510000000000019
 10
494.2169999999999845
 20
117.0510000000000019
 10
488.2200000000000273
 20
117.0510000000000019
 10
488.2019999999999982
 20
117.0510000000000019
 10
488.146000000000015
 20
117.0220000000000056
 10
488.1170000000000186
 20
116.9680000000000035
 10
488.1170000000000186
 20
116.9500000000000028
 10
488.1170000000000186
 20
114.0490000000000066
 10
488.1170000000000186
 20
114.0400000000000063
 10
488.132000000000005
 20
114.0079999999999956
 10
488.1560000000000059
 20
114.0120000000000005
 10
488.160000000000025
 20
114.0349999999999966
 10
488.1279999999999859
 20
114.0490000000000066
 10
488.1170000000000186
 20
114.0490000000000066
 10
482.3179999999999836
 20
114.0490000000000066
 10
482.3070000000000164
 20
114.0490000000000066
 10
482.2749999999999773
 20
114.0349999999999966
 10
482.2789999999999964
 20
114.0120000000000005
 10
482.3039999999999736
 20
114.0079999999999956
 10
482.3179999999999836
 20
114.0400000000000063
 10
482.3179999999999836
 20
114.0490000000000066
 10
482.3179999999999836
 20
116.9500000000000028
 10
482.3179999999999836
 20
116.9680000000000035
 10
482.2900000000000205
 20
117.0220000000000056
 10
482.2330000000000041
 20
117.0510000000000019
 10
482.2189999999999941
 20
117.0510000000000019
 10
476.2180000000000177
 20
117.0510000000000019
 10
476.2010000000000218
 20
117.0510000000000019
 10
476.1480000000000246
 20
117.0220000000000056
 10
476.1190000000000282
 20
116.9680000000000035
 10
476.1190000000000282
 20
116.9500000000000028
 10
476.1190000000000282
 20
114.0490000000000066
 10
476.1190000000000282
 20
114.0400000000000063
 10
476.1299999999999955
 20
114.0079999999999956
 10
476.1549999999999727
 20
114.0120000000000005
 10
476.1580000000000155
 20
114.0349999999999966
 10
476.1270000000000095
 20
114.0490000000000066
 10
476.1190000000000282
 20
114.0490000000000066
 10
470.3159999999999741
 20
114.0490000000000066
 10
470.3059999999999832
 20
114.0490000000000066
 10
470.2740000000000009
 20
114.0349999999999966
 10
470.2810000000000059
 20
114.0120000000000005
 10
470.3020000000000209
 20
114.0079999999999956
 10
470.3159999999999741
 20
114.0400000000000063
 10
470.3159999999999741
 20
114.0490000000000066
 10
470.3159999999999741
 20
116.9500000000000028
 10
470.3159999999999741
 20
116.9680000000000035
 10
470.2880000000000109
 20
117.0220000000000056
 10
470.2350000000000136
 20
117.0510000000000019
 10
470.2180000000000177
 20
117.0510000000000019
 10
464.2169999999999845
 20
117.0510000000000019
 10
464.1990000000000123
 20
117.0510000000000019
 10
464.146000000000015
 20
117.0220000000000056
 10
464.117999999999995
 20
116.9680000000000035
 10
464.117999999999995
 20
116.9500000000000028
 10
464.117999999999995
 20
114.0490000000000066
 10
464.117999999999995
 20
114.0400000000000063
 10
464.132000000000005
 20
114.0079999999999956
 10
464.15300000000002
 20
114.0120000000000005
 10
464.160000000000025
 20
114.0349999999999966
 10
464.1290000000000191
 20
114.0490000000000066
 10
464.117999999999995
 20
114.0490000000000066
 10
458.3179999999999836
 20
114.0490000000000066
 10
458.3079999999999927
 20
114.0490000000000066
 10
458.2760000000000105
 20
114.0349999999999966
 10
458.2799999999999727
 20
114.0120000000000005
 10
458.3039999999999736
 20
114.0079999999999956
 10
458.3179999999999836
 20
114.0400000000000063
 10
458.3179999999999836
 20
114.0490000000000066
 10
458.3179999999999836
 20
116.9500000000000028
 10
458.3179999999999836
 20
116.9680000000000035
 10
458.2900000000000205
 20
117.0220000000000056
 10
458.2339999999999804
 20
117.0510000000000019
 10
458.2200000000000273
 20
117.0510000000000019
 10
449.2379999999999995
 20
117.0510000000000019
 10
449.2200000000000273
 20
117.0510000000000019
 10
449.1669999999999732
 20
117.0220000000000056
 10
449.1360000000000241
 20
116.9680000000000035
 10
449.1360000000000241
 20
116.9500000000000028
 10
449.1360000000000241
 20
113.9500000000000028
 10
449.1360000000000241
 20
108.0490000000000066
 10
449.1360000000000241
 20
108.0400000000000063
 10
449.1499999999999773
 20
108.0079999999999956
 10
449.1739999999999782
 20
108.0120000000000005
 10
449.1779999999999973
 20
108.0349999999999966
 10
449.146000000000015
 20
108.0490000000000066
 10
449.1360000000000241
 20
108.0490000000000066
 10
446.2389999999999759
 20
108.0490000000000066
 10
446.22199999999998
 20
108.0490000000000066
 10
446.1650000000000205
 20
108.019999999999996
 10
446.1370000000000005
 20
107.9680000000000035
 10
446.1370000000000005
 20
107.9500000000000028
 10
446.1370000000000005
 20
101.9500000000000028
 10
446.1370000000000005
 20
101.9330000000000069
 10
446.1650000000000205
 20
101.8799999999999955
 10
446.22199999999998
 20
101.8509999999999991
 10
446.2389999999999759
 20
101.8509999999999991
 10
449.1360000000000241
 20
101.8509999999999991
 10
449.146000000000015
 20
101.8509999999999991
 10
449.1779999999999973
 20
101.8659999999999997
 10
449.1739999999999782
 20
101.8880000000000052
 10
449.1499999999999773
 20
101.8940000000000055
 10
449.1360000000000241
 20
101.8619999999999948
 10
449.1360000000000241
 20
101.8509999999999991
 10
449.1360000000000241
 20
96.0507999999999953
 10
449.1360000000000241
 20
96.0408999999999935
 10
449.1499999999999773
 20
96.009200000000007
 10
449.1739999999999782
 20
96.0134000000000043
 10
449.1779999999999973
 20
96.0366999999999962
 10
449.146000000000015
 20
96.0507999999999953
 10
449.1360000000000241
 20
96.0507999999999953
 10
446.2389999999999759
 20
96.0507999999999953
 10
446.22199999999998
 20
96.0507999999999953
 10
446.1650000000000205
 20
96.0219000000000023
 10
446.1370000000000005
 20
95.9679000000000002
 10
446.1370000000000005
 20
95.9498999999999995
 10
446.1370000000000005
 20
89.9501999999999953
 10
446.1370000000000005
 20
89.9335999999999984
 10
446.1650000000000205
 20
89.8796999999999997
 10
446.22199999999998
 20
89.8492999999999995
 10
446.2389999999999759
 20
89.8492999999999995
 10
449.1360000000000241
 20
89.8492999999999995
 10
449.146000000000015
 20
89.8492999999999995
 10
449.1779999999999973
 20
89.8645000000000067
 10
449.1739999999999782
 20
89.8880999999999943
 10
449.1499999999999773
 20
89.892399999999995
 10
449.1360000000000241
 20
89.8606000000000051
 10
449.1360000000000241
 20
89.8492999999999995
 10
449.1360000000000241
 20
84.0507000000000062
 10
449.1360000000000241
 20
84.0412000000000035
 10
449.1499999999999773
 20
84.0093999999999994
 10
449.1739999999999782
 20
84.013300000000001
 10
449.1779999999999973
 20
84.0370000000000061
 10
449.146000000000015
 20
84.0507000000000062
 10
449.1360000000000241
 20
84.0507000000000062
 10
446.2389999999999759
 20
84.0507000000000062
 10
446.22199999999998
 20
84.0507000000000062
 10
446.1650000000000205
 20
84.0217999999999989
 10
446.1370000000000005
 20
83.968199999999996
 10
446.1370000000000005
 20
83.9501999999999953
 10
446.1370000000000005
 20
77.9501000000000062
 10
446.1370000000000005
 20
77.9335999999999984
 10
446.1650000000000205
 20
77.8799000000000063
 10
446.22199999999998
 20
77.8495999999999952
 10
446.2389999999999759
 20
77.8495999999999952
 10
449.1360000000000241
 20
77.8495999999999952
 10
449.146000000000015
 20
77.8495999999999952
 10
449.1779999999999973
 20
77.8648000000000025
 10
449.1739999999999782
 20
77.8880000000000052
 10
449.1499999999999773
 20
77.8923000000000059
 10
449.1360000000000241
 20
77.8605000000000018
 10
449.1360000000000241
 20
77.8495999999999952
 10
449.1360000000000241
 20
72.049199999999999
 10
449.1360000000000241
 20
72.0396999999999963
 10
449.1499999999999773
 20
72.0079000000000065
 10
449.1739999999999782
 20
72.0122000000000071
 10
449.1779999999999973
 20
72.035499999999999
 10
449.146000000000015
 20
72.049199999999999
 10
449.1360000000000241
 20
72.049199999999999
 10
446.2389999999999759
 20
72.049199999999999
 10
446.22199999999998
 20
72.049199999999999
 10
446.1650000000000205
 20
72.020300000000006
 10
446.1370000000000005
 20
71.9681000000000068
 10
446.1370000000000005
 20
71.9501000000000062
 10
446.1370000000000005
 20
65.9500000000000028
 10
446.1370000000000005
 20
65.9334999999999951
 10
446.1650000000000205
 20
65.879800000000003
 10
446.22199999999998
 20
65.8495000000000061
 10
446.2389999999999759
 20
65.8495000000000061
 10
449.1360000000000241
 20
65.8495000000000061
 10
449.146000000000015
 20
65.8495000000000061
 10
449.1779999999999973
 20
65.8646999999999991
 10
449.1739999999999782
 20
65.888300000000001
 10
449.1499999999999773
 20
65.8922000000000025
 10
449.1360000000000241
 20
65.8603999999999985
 10
449.1360000000000241
 20
65.8495000000000061
 10
449.1360000000000241
 20
60.0495000000000019
 10
449.1360000000000241
 20
60.0396000000000001
 10
449.1499999999999773
 20
60.0082000000000022
 10
449.1739999999999782
 20
60.0120999999999967
 10
449.1779999999999973
 20
60.0356999999999985
 10
449.146000000000015
 20
60.0495000000000019
 10
449.1360000000000241
 20
60.0495000000000019
 10
446.2389999999999759
 20
60.0495000000000019
 10
446.22199999999998
 20
60.0495000000000019
 10
446.1650000000000205
 20
60.0206000000000017
 10
446.1370000000000005
 20
59.9680000000000035
 10
446.1370000000000005
 20
59.9504000000000019
 10
446.1370000000000005
 20
53.9502999999999986
 10
446.1370000000000005
 20
53.9337000000000018
 10
446.1650000000000205
 20
53.8796999999999997
 10
446.22199999999998
 20
53.8498000000000019
 10
446.2389999999999759
 20
53.8498000000000019
 10
449.1360000000000241
 20
53.8498000000000019
 10
449.146000000000015
 20
53.8498000000000019
 10
449.1779999999999973
 20
53.8648999999999987
 10
449.1739999999999782
 20
53.8881999999999977
 10
449.1499999999999773
 20
53.8924999999999983
 10
449.1360000000000241
 20
53.8607000000000014
 10
449.1360000000000241
 20
53.8498000000000019
 10
449.1360000000000241
 20
48.0493999999999986
 10
449.1360000000000241
 20
48.0399000000000029
 10
449.1499999999999773
 20
48.0080999999999989
 10
449.1739999999999782
 20
48.0123999999999995
 10
449.1779999999999973
 20
48.0356000000000023
 10
449.146000000000015
 20
48.0493999999999986
 10
449.1360000000000241
 20
48.0493999999999986
 10
446.2389999999999759
 20
48.0493999999999986
 10
446.22199999999998
 20
48.0493999999999986
 10
446.1650000000000205
 20
48.0204999999999984
 10
446.1370000000000005
 20
47.9682999999999993
 10
446.1370000000000005
 20
47.9502999999999986
 10
446.1370000000000005
 20
41.9502000000000024
 10
446.1370000000000005
 20
41.9335999999999984
 10
446.1650000000000205
 20
41.8800000000000026
 10
446.22199999999998
 20
41.8496999999999986
 10
446.2389999999999759
 20
41.8496999999999986
 10
449.1360000000000241
 20
41.8496999999999986
 10
449.146000000000015
 20
41.8496999999999986
 10
449.1779999999999973
 20
41.8648000000000025
 10
449.1739999999999782
 20
41.8881000000000014
 10
449.1499999999999773
 20
41.8924000000000021
 10
449.1360000000000241
 20
41.860599999999998
 10
449.1360000000000241
 20
41.8496999999999986
 10
449.1360000000000241
 20
36.0497000000000014
 10
449.1360000000000241
 20
36.0397999999999996
 10
449.1499999999999773
 20
36.0080000000000027
 10
449.1739999999999782
 20
36.0123000000000033
 10
449.1779999999999973
 20
36.035499999999999
 10
449.146000000000015
 20
36.0497000000000014
 10
449.1360000000000241
 20
36.0497000000000014
 10
446.2389999999999759
 20
36.0497000000000014
 10
446.22199999999998
 20
36.0497000000000014
 10
446.1650000000000205
 20
36.0204000000000022
 10
446.1370000000000005
 20
35.9682000000000031
 10
446.1370000000000005
 20
35.9502000000000024
 10
446.1370000000000005
 20
29.9502999999999986
 10
446.1370000000000005
 20
29.9338000000000015
 10
446.1650000000000205
 20
29.879999999999999
 10
446.22199999999998
 20
29.8496999999999986
 10
446.2389999999999759
 20
29.8496999999999986
 10
449.1360000000000241
 20
29.8496999999999986
 10
449.146000000000015
 20
29.8496999999999986
 10
449.1779999999999973
 20
29.8648999999999987
 10
449.1739999999999782
 20
29.888300000000001
 10
449.1499999999999773
 20
29.8923999999999985
 10
449.1360000000000241
 20
29.8607000000000014
 10
449.1360000000000241
 20
29.8496999999999986
 10
449.1360000000000241
 20
23.9502999999999986
 10
449.1360000000000241
 20
20.9502999999999986
 10
449.1360000000000241
 20
20.9338000000000015
 10
449.1669999999999732
 20
20.879999999999999
 10
449.2200000000000273
 20
20.8496999999999986
 10
449.2379999999999995
 20
20.8496999999999986
  0
CIRCLE
  5
5F
100
AcDbEntity
  8
0
 62
256
370
-1
 48
1.0
  6
BYLAYER
100
AcDbCircle
 10
389.7770000000000437
 20
68.9503500000000145
 30
0.0
 40
21.5
  0
CIRCLE
  5
60
100
AcDbEntity
  8
0
 62
256
370
-1
 48
1.0
  6
BYLAYER
100
AcDbCircle
 10
377.0769999999999982
 20
46.9533047438753144
 30
0.0
 40
1.75
  0
CIRCLE
  5
61
100
AcDbEntity
  8
0
 62
256
370
-1
 48
1.0
  6
BYLAYER
100
AcDbCircle
 10
415.1770000000000209
 20
68.9503500000000145
 30
0.0
 40
1.75
  0
CIRCLE
  5
62
100
AcDbEntity
  8
0
 62
256
370
-1
 48
1.0
  6
BYLAYER
100
AcDbCircle
 10
377.077000000000055
 20
90.9473952561247359
 30
0.0
 40
1.75
  0
ENDSEC
  0
SECTION
  2
OBJECTS
  0
DICTIONARY
  5
C
100
AcDbDictionary
280
0
281
1
  3
ACAD_GROUP
350
D
  3
ACAD_LAYOUT
350
1A
  3
ACAD_MLINESTYLE
350
17
  3
ACAD_PLOTSETTINGS
350
19
  3
ACAD_PLOTSTYLENAME
350
E
  3
AcDbVariableDictionary
350
63
  3
QCAD_OBJECTS
350
64
  0
DICTIONARY
  5
D
100
AcDbDictionary
280
0
281
1
  0
ACDBDICTIONARYWDFLT
  5
E
100
AcDbDictionary
281
1
  3
Normal
350
F
100
AcDbDictionaryWithDefault
340
F
  0
ACDBPLACEHOLDER
  5
F
  0
DICTIONARY
  5
17
100
AcDbDictionary
280
0
281
1
  3
Standard
350
18
  0
MLINESTYLE
  5
18
100
AcDbMlineStyle
  2
STANDARD
 70
0
  3

 62
256
 51
90.0
 52
90.0
 71
2
 49
0.5
 62
256
  6
BYLAYER
 49
-0.5
 62
256
  6
BYLAYER
  0
DICTIONARY
  5
19
100
AcDbDictionary
280
0
281
1
  0
DICTIONARY
  5
1A
100
AcDbDictionary
281
1
  3
Layout1
350
1E
  3
Layout2
350
26
  3
Model
350
22
  0
LAYOUT
  5
1E
100
AcDbPlotSettings
  1

  2
none_device
  4

  6

 40
0.0
 41
0.0
 42
0.0
 43
0.0
 44
0.0
 45
0.0
 46
0.0
 47
0.0
 48
0.0
 49
0.0
140
0.0
141
0.0
142
1.0
143
1.0
 70
688
 72
0
 73
0
 74
5
  7

 75
16
147
1.0
148
0.0
149
0.0
100
AcDbLayout
  1
Layout1
 70
1
 71
1
 10
0.0
 20
0.0
 11
420.0
 21
297.0
 12
0.0
 22
0.0
 32
0.0
 14
100000000000000000000.0
 24
100000000000000000000.0
 34
100000000000000000000.0
 15
-100000000000000000000.0
 25
-100000000000000000000.0
 35
-100000000000000000000.0
146
0.0
 13
0.0
 23
0.0
 33
0.0
 16
1.0
 26
0.0
 36
0.0
 17
0.0
 27
1.0
 37
0.0
 76
0
330
1B
  0
LAYOUT
  5
22
100
AcDbPlotSettings
  1

  2
none_device
  4

  6

 40
0.0
 41
0.0
 42
0.0
 43
0.0
 44
0.0
 45
0.0
 46
0.0
 47
0.0
 48
0.0
 49
0.0
140
0.0
141
0.0
142
1.0
143
1.0
 70
1712
 72
0
 73
0
 74
0
  7

 75
0
147
1.0
148
0.0
149
0.0
100
AcDbLayout
  1
Model
 70
1
 71
0
 10
0.0
 20
0.0
 11
12.0
 21
9.0
 12
0.0
 22
0.0
 32
0.0
 14
0.0
 24
0.0
 34
0.0
 15
0.0
 25
0.0
 35
0.0
146
0.0
 13
0.0
 23
0.0
 33
0.0
 16
1.0
 26
0.0
 36
0.0
 17
0.0
 27
1.0
 37
0.0
 76
0
330
1F
  0
LAYOUT
  5
26
100
AcDbPlotSettings
  1

  2
none_device
  4

  6

 40
0.0
 41
0.0
 42
0.0
 43
0.0
 44
0.0
 45
0.0
 46
0.0
 47
0.0
 48
0.0
 49
0.0
140
0.0
141
0.0
142
1.0
143
1.0
 70
688
 72
0
 73
0
 74
5
  7

 75
16
147
1.0
148
0.0
149
0.0
100
AcDbLayout
  1
Layout2
 70
1
 71
2
 10
0.0
 20
0.0
 11
12.0
 21
9.0
 12
0.0
 22
0.0
 32
0.0
 14
0.0
 24
0.0
 34
0.0
 15
0.0
 25
0.0
 35
0.0
146
0.0
 13
0.0
 23
0.0
 33
0.0
 16
1.0
 26
0.0
 36
0.0
 17
0.0
 27
1.0
 37
0.0
 76
0
330
23
  0
DICTIONARY
  5
63
100
AcDbDictionary
281
1
  3
DIMASSOC
350
66
  3
HIDETEXT
350
65
  0
DICTIONARYVAR
  5
65
100
DictionaryVariables
280
0
  1
2
  0
DICTIONARYVAR
  5
66
100
DictionaryVariables
280
0
  1
1
  0
DICTIONARY
  5
64
100
AcDbDictionary
281
1
  3
ColorSettings/BackgroundColor
350
67
  3
ColorSettings/ColorMode
350
68
  3
Grid/DisplayGrid00
350
69
  3
Grid/DisplayGrid01
350
6A
  3
Grid/DisplayGrid02
350
6B
  3
Grid/DisplayGrid03
350
6C
  3
Grid/GridSpacingX00
350
6D
  3
Grid/GridSpacingX01
350
6E
  3
Grid/GridSpacingX02
350
6F
  3
Grid/GridSpacingX03
350
70
  3
Grid/GridSpacingY00
350
71
  3
Grid/GridSpacingY01
350
72
  3
Grid/GridSpacingY02
350
73
  3
Grid/GridSpacingY03
350
74
  3
Grid/IsometricGrid00
350
75
  3
Grid/IsometricGrid01
350
76
  3
Grid/IsometricGrid02
350
77
  3
Grid/IsometricGrid03
350
78
  3
Grid/IsometricProjection00
350
79
  3
Grid/IsometricProjection01
350
7A
  3
Grid/IsometricProjection02
350
7B
  3
Grid/IsometricProjection03
350
7C
  3
Grid/MetaGridSpacingX00
350
7D
  3
Grid/MetaGridSpacingX01
350
7E
  3
Grid/MetaGridSpacingX02
350
7F
  3
Grid/MetaGridSpacingX03
350
80
  3
Grid/MetaGridSpacingY00
350
81
  3
Grid/MetaGridSpacingY01
350
82
  3
Grid/MetaGridSpacingY02
350
83
  3
Grid/MetaGridSpacingY03
350
84
  3
MultiPageSettings/Columns
350
85
  3
MultiPageSettings/GlueMarginsBottom
350
86
  3
MultiPageSettings/GlueMarginsLeft
350
87
  3
MultiPageSettings/GlueMarginsRight
350
88
  3
MultiPageSettings/GlueMarginsTop
350
89
  3
MultiPageSettings/PrintCropMarks
350
8A
  3
MultiPageSettings/Rows
350
8B
  3
PageSettings/OffsetX
350
8C
  3
PageSettings/OffsetY
350
8D
  3
PageSettings/PageOrientation
350
8E
  3
PageSettings/PaperHeight
350
8F
  3
PageSettings/PaperWidth
350
90
  3
PageSettings/Scale
350
91
  3
PageSettings/ShowPaperBorders
350
92
  3
PageTagSettings/EnablePageTags
350
93
  3
PageTagSettings/TagAlignment
350
94
  3
PageTagSettings/TagFont
350
95
  3
PageTagSettings/TagPosition
350
96
  3
QCADVersion
350
97
  3
UnitSettings/PaperUnit
350
98
  3
ViewportCenter
350
99
  3
ViewportHeight
350
9A
  3
ViewportWidth
350
9B
  0
XRECORD
  5
67
330
64
100
AcDbXrecord
280
1
1000
Blanc
  0
XRECORD
  5
68
330
64
100
AcDbXrecord
280
1
1000
FullColor
  0
XRECORD
  5
69
330
64
100
AcDbXrecord
280
1
290
1
  0
XRECORD
  5
6A
330
64
100
AcDbXrecord
280
1
290
1
  0
XRECORD
  5
6B
330
64
100
AcDbXrecord
280
1
290
1
  0
XRECORD
  5
6C
330
64
100
AcDbXrecord
280
1
290
1
  0
XRECORD
  5
6D
330
64
100
AcDbXrecord
280
1
1000
auto
  0
XRECORD
  5
6E
330
64
100
AcDbXrecord
280
1
1000
auto
  0
XRECORD
  5
6F
330
64
100
AcDbXrecord
280
1
1000
auto
  0
XRECORD
  5
70
330
64
100
AcDbXrecord
280
1
1000
auto
  0
XRECORD
  5
71
330
64
100
AcDbXrecord
280
1
1000
auto
  0
XRECORD
  5
72
330
64
100
AcDbXrecord
280
1
1000
auto
  0
XRECORD
  5
73
330
64
100
AcDbXrecord
280
1
1000
auto
  0
XRECORD
  5
74
330
64
100
AcDbXrecord
280
1
1000
auto
  0
XRECORD
  5
75
330
64
100
AcDbXrecord
280
1
290
0
  0
XRECORD
  5
76
330
64
100
AcDbXrecord
280
1
290
0
  0
XRECORD
  5
77
330
64
100
AcDbXrecord
280
1
290
0
  0
XRECORD
  5
78
330
64
100
AcDbXrecord
280
1
290
0
  0
XRECORD
  5
79
330
64
100
AcDbXrecord
280
1
 90
65537
  0
XRECORD
  5
7A
330
64
100
AcDbXrecord
280
1
 90
65537
  0
XRECORD
  5
7B
330
64
100
AcDbXrecord
280
1
 90
65537
  0
XRECORD
  5
7C
330
64
100
AcDbXrecord
280
1
 90
65537
  0
XRECORD
  5
7D
330
64
100
AcDbXrecord
280
1
1000
auto
  0
XRECORD
  5
7E
330
64
100
AcDbXrecord
280
1
1000
auto
  0
XRECORD
  5
7F
330
64
100
AcDbXrecord
280
1
1000
auto
  0
XRECORD
  5
80
330
64
100
AcDbXrecord
280
1
1000
auto
  0
XRECORD
  5
81
330
64
100
AcDbXrecord
280
1
1000
auto
  0
XRECORD
  5
82
330
64
100
AcDbXrecord
280
1
1000
auto
  0
XRECORD
  5
83
330
64
100
AcDbXrecord
280
1
1000
auto
  0
XRECORD
  5
84
330
64
100
AcDbXrecord
280
1
1000
auto
  0
XRECORD
  5
85
330
64
100
AcDbXrecord
280
1
 90
1
  0
XRECORD
  5
86
330
64
100
AcDbXrecord
280
1
 40
10.0
  0
XRECORD
  5
87
330
64
100
AcDbXrecord
280
1
 40
10.0
  0
XRECORD
  5
88
330
64
100
AcDbXrecord
280
1
 40
10.0
  0
XRECORD
  5
89
330
64
100
AcDbXrecord
280
1
 40
10.0
  0
XRECORD
  5
8A
330
64
100
AcDbXrecord
280
1
290
0
  0
XRECORD
  5
8B
330
64
100
AcDbXrecord
280
1
 90
1
  0
XRECORD
  5
8C
330
64
100
AcDbXrecord
280
1
 40
0.0
  0
XRECORD
  5
8D
330
64
100
AcDbXrecord
280
1
 40
0.0
  0
XRECORD
  5
8E
330
64
100
AcDbXrecord
280
1
1000
Landscape
  0
XRECORD
  5
8F
330
64
100
AcDbXrecord
280
1
 40
297.0
  0
XRECORD
  5
90
330
64
100
AcDbXrecord
280
1
 40
210.0
  0
XRECORD
  5
91
330
64
100
AcDbXrecord
280
1
1000
1:1
  0
XRECORD
  5
92
330
64
100
AcDbXrecord
280
1
290
1
  0
XRECORD
  5
93
330
64
100
AcDbXrecord
280
1
290
0
  0
XRECORD
  5
94
330
64
100
AcDbXrecord
280
1
1000
Inside
  0
XRECORD
  5
95
330
64
100
AcDbXrecord
280
1
1000
Arial,10,-1,5,50,0,0,0,0,0
  0
XRECORD
  5
96
330
64
100
AcDbXrecord
280
1
1000
TopLeft
  0
XRECORD
  5
97
330
64
100
AcDbXrecord
280
1
1000
3.24.3.8
  0
XRECORD
  5
98
330
64
100
AcDbXrecord
280
1
 90
4
  0
XRECORD
  5
9A
330
64
100
AcDbXrecord
280
1
 40
275.9121992074927334
  0
XRECORD
  5
9B
330
64
100
AcDbXrecord
280
1
 40
532.5660972622476947
  0
ENDSEC
  0
EOF
