999
dxflib 3.17.0.0
  0
SECTION
  2
HEADER
  9
$ACADVER
  1
AC1015
  9
$HANDSEED
  5
FFFF
  9
$DIMADEC
 70
0
  9
$DIMASZ
 40
0.18
  9
$DIMAUNIT
 70
0
  9
$DIMAZIN
 70
0
  9
$DIMDEC
 70
4
  9
$DIMDLI
 40
0.36
  9
$DIMDSEP
 70
46
  9
$DIMEXE
 40
0.18
  9
$DIMEXO
 40
0.0625
  9
$DIMGAP
 40
0.09
  9
$DIMLUNIT
 70
2
  9
$DIMSCALE
 40
1.0
  9
$DIMTSZ
 40
0.0
  9
$DIMTXT
 40
0.18
  9
$DIMZIN
 70
0
  9
$DWGCODEPAGE
  3
ANSI_1252
  9
$EXTMAX
 10
1000.0
 20
1000.0
 30
0.0
  9
$EXTMIN
 10
0.0
 20
0.0
 30
0.0
  9
$FILLMODE
 70
0
  9
$INSUNITS
 70
0
  9
$LTSCALE
 40
1.0
  9
$MAXACTVP
 70
64
  9
$MEASUREMENT
 70
1
  9
$PDMODE
 70
0
  9
$PDSIZE
 40
0.0
  9
$SPLFRAME
 70
1
  0
ENDSEC
  0
SECTION
  2
TABLES
  0
TABLE
  2
VPORT
  5
8
100
AcDbSymbolTable
 70
1
  0
VPORT
  5
30
100
AcDbSymbolTableRecord
100
AcDbViewportTableRecord
  2
*Active
 70
0
 10
0.0
 20
0.0
 11
1.0
 21
1.0
 12
286.3055555555554861
 22
148.5
 13
0.0
 23
0.0
 14
10.0
 24
10.0
 15
10.0
 25
10.0
 16
0.0
 26
0.0
 36
1.0
 17
0.0
 27
0.0
 37
0.0
 40
297.0
 41
1.92798353909465
 42
50.0
 43
0.0
 44
0.0
 50
0.0
 51
0.0
 71
0
 72
100
 73
1
 74
3
 75
1
 76
1
 77
0
 78
0
281
0
 65
1
110
0.0
120
0.0
130
0.0
111
1.0
121
0.0
131
0.0
112
0.0
122
1.0
132
0.0
 79
0
146
0.0
  0
ENDTAB
  0
TABLE
  2
LTYPE
  5
5
100
AcDbSymbolTable
 70
41
  0
LTYPE
  5
16
100
AcDbSymbolTableRecord
100
AcDbLinetypeTableRecord
  2
Continuous
 70
0
  3
Solid line
 72
65
 73
0
 40
0.0
  0
LTYPE
  5
31
100
AcDbSymbolTableRecord
100
AcDbLinetypeTableRecord
  2
BORDER2
 70
0
  3
Border (.5x) __.__.__.__.__.__.__.__.__.__.__.
 72
65
 73
6
 40
22.2249999999999979
 49
6.3499999999999996
 74
0
 49
-3.1749999999999998
 74
0
 49
6.3499999999999996
 74
0
 49
-3.1749999999999998
 74
0
 49
0.0
 74
0
 49
-3.1749999999999998
 74
0
  0
LTYPE
  5
32
100
AcDbSymbolTableRecord
100
AcDbLinetypeTableRecord
  2
ACAD_ISO02W100
 70
0
  3
ISO dash __ __ __ __ __ __ __ __ __ __ __ __ __
 72
65
 73
2
 40
15.0
 49
12.0
 74
0
 49
-3.0
 74
0
  0
LTYPE
  5
33
100
AcDbSymbolTableRecord
100
AcDbLinetypeTableRecord
  2
ACAD_ISO14W100
 70
0
  3
ISO dash triple-dot __ . . . __ . . . __ . . . _
 72
65
 73
8
 40
24.0
 49
12.0
 74
0
 49
-3.0
 74
0
 49
0.0
 74
0
 49
-3.0
 74
0
 49
0.0
 74
0
 49
-3.0
 74
0
 49
0.0
 74
0
 49
-3.0
 74
0
  0
LTYPE
  5
34
100
AcDbSymbolTableRecord
100
AcDbLinetypeTableRecord
  2
DOT2
 70
0
  3
Dot (.5x) ........................................
 72
65
 73
2
 40
3.1749999999999998
 49
0.0
 74
0
 49
-3.1749999999999998
 74
0
  0
LTYPE
  5
35
100
AcDbSymbolTableRecord
100
AcDbLinetypeTableRecord
  2
DASHDOTX2
 70
0
  3
Dash dot (2x) ____  .  ____  .  ____  .  ___
 72
65
 73
4
 40
50.7999999999999972
 49
25.3999999999999986
 74
0
 49
-12.6999999999999993
 74
0
 49
0.0
 74
0
 49
-12.6999999999999993
 74
0
  0
LTYPE
  5
36
100
AcDbSymbolTableRecord
100
AcDbLinetypeTableRecord
  2
DASHED
 70
0
  3
Dashed __ __ __ __ __ __ __ __ __ __ __ __ __ _
 72
65
 73
2
 40
19.0499999999999972
 49
12.6999999999999993
 74
0
 49
-6.3499999999999996
 74
0
  0
LTYPE
  5
37
100
AcDbSymbolTableRecord
100
AcDbLinetypeTableRecord
  2
ACAD_ISO06W100
 70
0
  3
ISO long-dash triple-dot ____ ... ____ ... ____
 72
65
 73
8
 40
36.0
 49
24.0
 74
0
 49
-3.0
 74
0
 49
0.0
 74
0
 49
-3.0
 74
0
 49
0.0
 74
0
 49
-3.0
 74
0
 49
0.0
 74
0
 49
-3.0
 74
0
  0
LTYPE
  5
38
100
AcDbSymbolTableRecord
100
AcDbLinetypeTableRecord
  2
PHANTOM2
 70
0
  3
Phantom (.5x) ___ _ _ ___ _ _ ___ _ _ ___ _ _
 72
65
 73
6
 40
31.7500000000000036
 49
15.875
 74
0
 49
-3.1749999999999998
 74
0
 49
3.1749999999999998
 74
0
 49
-3.1749999999999998
 74
0
 49
3.1749999999999998
 74
0
 49
-3.1749999999999998
 74
0
  0
LTYPE
  5
39
100
AcDbSymbolTableRecord
100
AcDbLinetypeTableRecord
  2
PHANTOMX2
 70
0
  3
Phantom (2x) ____________    ____    ____   _
 72
65
 73
6
 40
127.0000000000000142
 49
63.5
 74
0
 49
-12.6999999999999993
 74
0
 49
12.6999999999999993
 74
0
 49
-12.6999999999999993
 74
0
 49
12.6999999999999993
 74
0
 49
-12.6999999999999993
 74
0
  0
LTYPE
  5
3A
100
AcDbSymbolTableRecord
100
AcDbLinetypeTableRecord
  2
ACAD_ISO15W100
 70
0
  3
ISO double-dash triple-dot __ __ . . . __ __ . .
 72
65
 73
10
 40
39.0
 49
12.0
 74
0
 49
-3.0
 74
0
 49
12.0
 74
0
 49
-3.0
 74
0
 49
0.0
 74
0
 49
-3.0
 74
0
 49
0.0
 74
0
 49
-3.0
 74
0
 49
0.0
 74
0
 49
-3.0
 74
0
  0
LTYPE
  5
14
100
AcDbSymbolTableRecord
100
AcDbLinetypeTableRecord
  2
BYBLOCK
 70
0
  3

 72
65
 73
0
 40
0.0
  0
LTYPE
  5
3B
100
AcDbSymbolTableRecord
100
AcDbLinetypeTableRecord
  2
CENTER
 70
0
  3
Center ____ _ ____ _ ____ _ ____ _ ____ _ ____
 72
65
 73
4
 40
50.8000000000000043
 49
31.75
 74
0
 49
-6.3499999999999996
 74
0
 49
6.3499999999999996
 74
0
 49
-6.3499999999999996
 74
0
  0
LTYPE
  5
3C
100
AcDbSymbolTableRecord
100
AcDbLinetypeTableRecord
  2
ACAD_ISO08W100
 70
0
  3
ISO long-dash short-dash ____ __ ____ __ ____ _
 72
65
 73
4
 40
36.0
 49
24.0
 74
0
 49
-3.0
 74
0
 49
6.0
 74
0
 49
-3.0
 74
0
  0
LTYPE
  5
3D
100
AcDbSymbolTableRecord
100
AcDbLinetypeTableRecord
  2
DASHDOT
 70
0
  3
Dash dot __ . __ . __ . __ . __ . __ . __ . __
 72
65
 73
4
 40
25.3999999999999986
 49
12.6999999999999993
 74
0
 49
-6.3499999999999996
 74
0
 49
0.0
 74
0
 49
-6.3499999999999996
 74
0
  0
LTYPE
  5
3E
100
AcDbSymbolTableRecord
100
AcDbLinetypeTableRecord
  2
BORDERX2
 70
0
  3
Border (2x) ____  ____  .  ____  ____  .  ___
 72
65
 73
6
 40
88.8999999999999915
 49
25.3999999999999986
 74
0
 49
-12.6999999999999993
 74
0
 49
25.3999999999999986
 74
0
 49
-12.6999999999999993
 74
0
 49
0.0
 74
0
 49
-12.6999999999999993
 74
0
  0
LTYPE
  5
3F
100
AcDbSymbolTableRecord
100
AcDbLinetypeTableRecord
  2
ACAD_ISO11W100
 70
0
  3
ISO double-dash dot __ __ . __ __ . __ __ . __ _
 72
65
 73
6
 40
33.0
 49
12.0
 74
0
 49
-3.0
 74
0
 49
12.0
 74
0
 49
-3.0
 74
0
 49
0.0
 74
0
 49
-3.0
 74
0
  0
LTYPE
  5
40
100
AcDbSymbolTableRecord
100
AcDbLinetypeTableRecord
  2
DASHDOT2
 70
0
  3
Dash dot (.5x) _._._._._._._._._._._._._._._.
 72
65
 73
4
 40
12.6999999999999993
 49
6.3499999999999996
 74
0
 49
-3.1749999999999998
 74
0
 49
0.0
 74
0
 49
-3.1749999999999998
 74
0
  0
LTYPE
  5
41
100
AcDbSymbolTableRecord
100
AcDbLinetypeTableRecord
  2
ACAD_ISO12W100
 70
0
  3
ISO dash double-dot __ . . __ . . __ . . __ . . 
 72
65
 73
6
 40
21.0
 49
12.0
 74
0
 49
-3.0
 74
0
 49
0.0
 74
0
 49
-3.0
 74
0
 49
0.0
 74
0
 49
-3.0
 74
0
  0
LTYPE
  5
15
100
AcDbSymbolTableRecord
100
AcDbLinetypeTableRecord
  2
BYLAYER
 70
0
  3

 72
65
 73
0
 40
0.0
  0
LTYPE
  5
42
100
AcDbSymbolTableRecord
100
AcDbLinetypeTableRecord
  2
CENTER2
 70
0
  3
Center (.5x) ___ _ ___ _ ___ _ ___ _ ___ _ ___
 72
65
 73
4
 40
28.5750000000000028
 49
19.0500000000000007
 74
0
 49
-3.1749999999999998
 74
0
 49
3.1749999999999998
 74
0
 49
-3.1749999999999998
 74
0
  0
LTYPE
  5
43
100
AcDbSymbolTableRecord
100
AcDbLinetypeTableRecord
  2
DOT
 70
0
  3
Dot . . . . . . . . . . . . . . . . . . . . . . . .
 72
65
 73
2
 40
6.3499999999999996
 49
0.0
 74
0
 49
-6.3499999999999996
 74
0
  0
LTYPE
  5
44
100
AcDbSymbolTableRecord
100
AcDbLinetypeTableRecord
  2
ACAD_ISO09W100
 70
0
  3
ISO long-dash double-short-dash ____ __ __ ____
 72
65
 73
6
 40
45.0
 49
24.0
 74
0
 49
-3.0
 74
0
 49
6.0
 74
0
 49
-3.0
 74
0
 49
6.0
 74
0
 49
-3.0
 74
0
  0
LTYPE
  5
45
100
AcDbSymbolTableRecord
100
AcDbLinetypeTableRecord
  2
ACAD_ISO04W100
 70
0
  3
ISO long-dash dot ____ . ____ . ____ . ____ . _
 72
65
 73
4
 40
30.0
 49
24.0
 74
0
 49
-3.0
 74
0
 49
0.0
 74
0
 49
-3.0
 74
0
  0
LTYPE
  5
46
100
AcDbSymbolTableRecord
100
AcDbLinetypeTableRecord
  2
DIVIDE2
 70
0
  3
Divide (.5x) __..__..__..__..__..__..__..__.._
 72
65
 73
6
 40
15.875
 49
6.3499999999999996
 74
0
 49
-3.1749999999999998
 74
0
 49
0.0
 74
0
 49
-3.1749999999999998
 74
0
 49
0.0
 74
0
 49
-3.1749999999999998
 74
0
  0
LTYPE
  5
47
100
AcDbSymbolTableRecord
100
AcDbLinetypeTableRecord
  2
DASHED2
 70
0
  3
Dashed (.5x) _ _ _ _ _ _ _ _ _ _ _ _ _ _ _ _ _ 
 72
65
 73
2
 40
9.5249999999999986
 49
6.3499999999999996
 74
0
 49
-3.1749999999999998
 74
0
  0
LTYPE
  5
48
100
AcDbSymbolTableRecord
100
AcDbLinetypeTableRecord
  2
DASHEDX2
 70
0
  3
Dashed (2x) ____  ____  ____  ____  ____  ___
 72
65
 73
2
 40
38.0999999999999943
 49
25.3999999999999986
 74
0
 49
-12.6999999999999993
 74
0
  0
LTYPE
  5
49
100
AcDbSymbolTableRecord
100
AcDbLinetypeTableRecord
  2
ACAD_ISO10W100
 70
0
  3
ISO dash dot __ . __ . __ . __ . __ . __ . __ . 
 72
65
 73
4
 40
18.0
 49
12.0
 74
0
 49
-3.0
 74
0
 49
0.0
 74
0
 49
-3.0
 74
0
  0
LTYPE
  5
4A
100
AcDbSymbolTableRecord
100
AcDbLinetypeTableRecord
  2
DIVIDEX2
 70
0
  3
Divide (2x) ________  .  .  ________  .  .  _
 72
65
 73
6
 40
63.5
 49
25.3999999999999986
 74
0
 49
-12.6999999999999993
 74
0
 49
0.0
 74
0
 49
-12.6999999999999993
 74
0
 49
0.0
 74
0
 49
-12.6999999999999993
 74
0
  0
LTYPE
  5
4B
100
AcDbSymbolTableRecord
100
AcDbLinetypeTableRecord
  2
PHANTOM
 70
0
  3
Phantom ______  __  __  ______  __  __  ______ 
 72
65
 73
6
 40
63.5000000000000071
 49
31.75
 74
0
 49
-6.3499999999999996
 74
0
 49
6.3499999999999996
 74
0
 49
-6.3499999999999996
 74
0
 49
6.3499999999999996
 74
0
 49
-6.3499999999999996
 74
0
  0
LTYPE
  5
4C
100
AcDbSymbolTableRecord
100
AcDbLinetypeTableRecord
  2
ACAD_ISO13W100
 70
0
  3
ISO double-dash double-dot __ __ . . __ __ . . _
 72
65
 73
8
 40
36.0
 49
12.0
 74
0
 49
-3.0
 74
0
 49
12.0
 74
0
 49
-3.0
 74
0
 49
0.0
 74
0
 49
-3.0
 74
0
 49
0.0
 74
0
 49
-3.0
 74
0
  0
LTYPE
  5
4D
100
AcDbSymbolTableRecord
100
AcDbLinetypeTableRecord
  2
HIDDEN2
 70
0
  3
Hidden (.5x) _ _ _ _ _ _ _ _ _ _ _ _ _ _ _ _ _ 
 72
65
 73
2
 40
4.7624999999999993
 49
3.1749999999999998
 74
0
 49
-1.5874999999999999
 74
0
  0
LTYPE
  5
4E
100
AcDbSymbolTableRecord
100
AcDbLinetypeTableRecord
  2
BORDER
 70
0
  3
Border __ __ . __ __ . __ __ . __ __ . __ __ .
 72
65
 73
6
 40
44.4499999999999957
 49
12.6999999999999993
 74
0
 49
-6.3499999999999996
 74
0
 49
12.6999999999999993
 74
0
 49
-6.3499999999999996
 74
0
 49
0.0
 74
0
 49
-6.3499999999999996
 74
0
  0
LTYPE
  5
4F
100
AcDbSymbolTableRecord
100
AcDbLinetypeTableRecord
  2
ACAD_ISO07W100
 70
0
  3
ISO dot . . . . . . . . . . . . . . . . . . . . 
 72
65
 73
2
 40
3.0
 49
0.0
 74
0
 49
-3.0
 74
0
  0
LTYPE
  5
50
100
AcDbSymbolTableRecord
100
AcDbLinetypeTableRecord
  2
HIDDEN
 70
0
  3
Hidden __ __ __ __ __ __ __ __ __ __ __ __ __ __
 72
65
 73
2
 40
9.5249999999999986
 49
6.3499999999999996
 74
0
 49
-3.1749999999999998
 74
0
  0
LTYPE
  5
51
100
AcDbSymbolTableRecord
100
AcDbLinetypeTableRecord
  2
DOTX2
 70
0
  3
Dot (2x) .  .  .  .  .  .  .  .  .  .  .  .  .  .
 72
65
 73
2
 40
12.6999999999999993
 49
0.0
 74
0
 49
-12.6999999999999993
 74
0
  0
LTYPE
  5
52
100
AcDbSymbolTableRecord
100
AcDbLinetypeTableRecord
  2
HIDDENX2
 70
0
  3
Hidden (2x) ____ ____ ____ ____ ____ ____ ____ 
 72
65
 73
2
 40
19.0499999999999972
 49
12.6999999999999993
 74
0
 49
-6.3499999999999996
 74
0
  0
LTYPE
  5
53
100
AcDbSymbolTableRecord
100
AcDbLinetypeTableRecord
  2
ACAD_ISO03W100
 70
0
  3
ISO dash space __    __    __    __    __    __
 72
65
 73
2
 40
30.0
 49
12.0
 74
0
 49
-18.0
 74
0
  0
LTYPE
  5
54
100
AcDbSymbolTableRecord
100
AcDbLinetypeTableRecord
  2
DIVIDE
 70
0
  3
Divide ____ . . ____ . . ____ . . ____ . . ____
 72
65
 73
6
 40
31.75
 49
12.6999999999999993
 74
0
 49
-6.3499999999999996
 74
0
 49
0.0
 74
0
 49
-6.3499999999999996
 74
0
 49
0.0
 74
0
 49
-6.3499999999999996
 74
0
  0
LTYPE
  5
55
100
AcDbSymbolTableRecord
100
AcDbLinetypeTableRecord
  2
ACAD_ISO05W100
 70
0
  3
ISO long-dash double-dot ____ .. ____ .. ____ . 
 72
65
 73
6
 40
33.0
 49
24.0
 74
0
 49
-3.0
 74
0
 49
0.0
 74
0
 49
-3.0
 74
0
 49
0.0
 74
0
 49
-3.0
 74
0
  0
LTYPE
  5
56
100
AcDbSymbolTableRecord
100
AcDbLinetypeTableRecord
  2
CENTERX2
 70
0
  3
Center (2x) ________  __  ________  __  _____
 72
65
 73
4
 40
101.6000000000000085
 49
63.5
 74
0
 49
-12.6999999999999993
 74
0
 49
12.6999999999999993
 74
0
 49
-12.6999999999999993
 74
0
  0
ENDTAB
  0
TABLE
  2
LAYER
  5
2
100
AcDbSymbolTable
 70
1
  0
LAYER
  5
10
100
AcDbSymbolTableRecord
100
AcDbLayerTableRecord
  2
0
 70
0
 62
7
420
16777215
  6
Continuous
370
5
390
F
  0
ENDTAB
  0
TABLE
  2
STYLE
  5
3
100
AcDbSymbolTable
 70
1
  0
STYLE
  5
57
100
AcDbSymbolTableRecord
100
AcDbTextStyleTableRecord
  2
Standard
 70
0
 40
0.0
 41
1.0
 50
0.0
 71
0
 42
2.5
  3

  4

1001
ACAD
1000
txt
1071
0
  0
ENDTAB
  0
TABLE
  2
VIEW
  5
6
100
AcDbSymbolTable
 70
0
  0
ENDTAB
  0
TABLE
  2
UCS
  5
7
100
AcDbSymbolTable
 70
0
  0
ENDTAB
  0
TABLE
  2
APPID
  5
9
100
AcDbSymbolTable
 70
1
  0
APPID
  5
12
100
AcDbSymbolTableRecord
100
AcDbRegAppTableRecord
  2
ACAD
 70
0
  0
APPID
  5
58
100
AcDbSymbolTableRecord
100
AcDbRegAppTableRecord
  2
QCAD
 70
0
  0
ENDTAB
  0
TABLE
  2
DIMSTYLE
  5
A
100
AcDbSymbolTable
 70
1
100
AcDbDimStyleTable
 71
0
  0
DIMSTYLE
105
27
100
AcDbSymbolTableRecord
100
AcDbDimStyleTableRecord
  2
Standard
 41
0.18
 42
0.0625
 43
3.75
 44
0.18
 70
0
 73
0
 74
0
 77
1
 78
8
140
0.18
141
2.5
143
0.03937007874016
147
0.09
171
3
172
1
271
2
272
2
274
3
278
44
283
0
284
8
340
57
  0
ENDTAB
  0
TABLE
  2
BLOCK_RECORD
  5
1
100
AcDbSymbolTable
 70
1
  0
BLOCK_RECORD
  5
1F
100
AcDbSymbolTableRecord
100
AcDbBlockTableRecord
  2
*Model_Space
340
22
  0
BLOCK_RECORD
  5
1B
100
AcDbSymbolTableRecord
100
AcDbBlockTableRecord
  2
*Paper_Space
340
1E
  0
BLOCK_RECORD
  5
23
100
AcDbSymbolTableRecord
100
AcDbBlockTableRecord
  2
*Paper_Space0
340
26
  0
ENDTAB
  0
ENDSEC
  0
SECTION
  2
BLOCKS
  0
BLOCK
  5
20
100
AcDbEntity
  8
0
100
AcDbBlockBegin
  2
*Model_Space
 70
0
 10
0.0
 20
0.0
 30
0.0
  3
*Model_Space
  1

  0
ENDBLK
  5
21
100
AcDbEntity
  8
0
100
AcDbBlockEnd
  0
BLOCK
  5
1C
100
AcDbEntity
 67
1
  8
0
100
AcDbBlockBegin
  2
*Paper_Space
 70
0
 10
0.0
 20
0.0
 30
0.0
  3
*Paper_Space
  1

  0
ENDBLK
  5
1D
100
AcDbEntity
 67
1
  8
0
100
AcDbBlockEnd
  0
BLOCK
  5
24
100
AcDbEntity
  8
0
100
AcDbBlockBegin
  2
*Paper_Space0
 70
0
 10
0.0
 20
0.0
 30
0.0
  3
*Paper_Space0
  1

  0
ENDBLK
  5
25
100
AcDbEntity
  8
0
100
AcDbBlockEnd
  0
ENDSEC
  0
SECTION
  2
ENTITIES
  0
LWPOLYLINE
  5
59
100
AcDbEntity
  8
0
 62
256
370
-1
 48
1.0
  6
BYLAYER
100
AcDbPolyline
 90
274
 70
1
 10
3.0990099999999998
 20
10.8643999999999998
 10
10.1159999999999997
 20
10.8643999999999998
 10
10.1699999999999999
 20
10.8947000000000003
 10
10.1989999999999998
 20
10.9484999999999992
 10
10.1989999999999998
 20
13.8754000000000008
 10
10.1829999999999998
 20
13.9070999999999998
 10
10.1609999999999996
 20
13.9031000000000002
 10
10.1560000000000006
 20
13.8795999999999999
 10
10.1880000000000006
 20
13.8643999999999998
 10
16.0080999999999989
 20
13.8643999999999998
 10
16.0399999999999991
 20
13.8795999999999999
 10
16.0360000000000014
 20
13.9031000000000002
 10
16.0121000000000002
 20
13.9070999999999998
 10
15.9990000000000006
 20
13.8754000000000008
 10
15.9990000000000006
 20
10.9484999999999992
 10
16.0280999999999985
 20
10.8947000000000003
 10
16.0809999999999995
 20
10.8643999999999998
 10
23.0980999999999987
 20
10.8643999999999998
 10
22.2331000000000003
 20
10.8643999999999998
 10
22.2489999999999988
 20
10.8643999999999998
 10
22.3031000000000006
 20
10.8947000000000003
 10
22.3331000000000017
 20
10.9484999999999992
 10
22.3331000000000017
 20
19.8753999999999991
 10
22.3181000000000012
 20
19.9070999999999998
 10
22.2950000000000017
 20
19.9030999999999985
 10
22.2910000000000004
 20
19.8795999999999999
 10
22.3220999999999989
 20
19.8643999999999998
 10
24.8471000000000011
 20
19.8643999999999998
 10
24.9010999999999996
 20
19.8947000000000003
 10
24.9311000000000007
 20
19.9484999999999992
 10
24.9311000000000007
 20
25.9829000000000008
 10
24.9010999999999996
 20
26.0350999999999999
 10
24.8471000000000011
 20
26.0643999999999991
 10
22.3220999999999989
 20
26.0643999999999991
 10
22.2910000000000004
 20
26.0501000000000005
 10
22.2950000000000017
 20
26.0271000000000008
 10
22.3181000000000012
 20
26.0228000000000002
 10
22.3331000000000017
 20
26.0546000000000006
 10
22.3331000000000017
 20
31.8752999999999993
 10
22.3181000000000012
 20
31.9070999999999998
 10
22.2950000000000017
 20
31.9027999999999992
 10
22.2910000000000004
 20
31.8794000000000004
 10
22.3220999999999989
 20
31.8643999999999998
 10
24.8471000000000011
 20
31.8643999999999998
 10
24.9010999999999996
 20
31.8947000000000003
 10
24.9311000000000007
 20
31.9482999999999997
 10
24.9311000000000007
 20
37.9831000000000003
 10
24.9010999999999996
 20
38.0352999999999994
 10
24.8471000000000011
 20
38.0641999999999996
 10
22.3220999999999989
 20
38.0641999999999996
 10
22.2910000000000004
 20
38.0504000000000033
 10
22.2950000000000017
 20
38.0270999999999972
 10
22.3181000000000012
 20
38.0227999999999966
 10
22.3331000000000017
 20
38.0546000000000006
 10
22.3331000000000017
 20
43.8753999999999991
 10
22.3181000000000012
 20
43.9072000000000031
 10
22.2950000000000017
 20
43.9029000000000025
 10
22.2910000000000004
 20
43.8796000000000035
 10
22.3220999999999989
 20
43.8646000000000029
 10
24.8471000000000011
 20
43.8646000000000029
 10
24.9010999999999996
 20
43.8943999999999974
 10
24.9311000000000007
 20
43.9485000000000028
 10
24.9311000000000007
 20
49.9827999999999975
 10
24.9010999999999996
 20
50.0354000000000028
 10
24.8471000000000011
 20
50.0643000000000029
 10
22.3220999999999989
 20
50.0643000000000029
 10
22.2910000000000004
 20
50.0504000000000033
 10
22.2950000000000017
 20
50.0268000000000015
 10
22.3181000000000012
 20
50.0228999999999999
 10
22.3331000000000017
 20
50.0542999999999978
 10
22.3331000000000017
 20
55.8751000000000033
 10
22.3181000000000012
 20
55.9069000000000003
 10
22.2950000000000017
 20
55.903100000000002
 10
22.2910000000000004
 20
55.8793999999999969
 10
22.3220999999999989
 20
55.8643000000000001
 10
24.8471000000000011
 20
55.8643000000000001
 10
24.9010999999999996
 20
55.894599999999997
 10
24.9311000000000007
 20
55.9481999999999999
 10
24.9311000000000007
 20
61.9829000000000008
 10
24.9010999999999996
 20
62.0349999999999966
 10
24.8471000000000011
 20
62.0640000000000001
 10
22.3220999999999989
 20
62.0640000000000001
 10
22.2910000000000004
 20
62.0503
 10
22.2950000000000017
 20
62.0268999999999977
 10
22.3181000000000012
 20
62.0225999999999971
 10
22.3331000000000017
 20
62.0544000000000011
 10
22.3331000000000017
 20
67.8752999999999957
 10
22.3181000000000012
 20
67.9070999999999998
 10
22.2950000000000017
 20
67.9027999999999992
 10
22.2910000000000004
 20
67.8795999999999964
 10
22.3220999999999989
 20
67.8643000000000001
 10
24.8471000000000011
 20
67.8643000000000001
 10
24.9010999999999996
 20
67.8947000000000003
 10
24.9311000000000007
 20
67.9483000000000033
 10
24.9311000000000007
 20
73.9829000000000008
 10
24.9010999999999996
 20
74.0365000000000038
 10
24.8471000000000011
 20
74.0653999999999968
 10
22.3220999999999989
 20
74.0653999999999968
 10
22.2910000000000004
 20
74.0518000000000001
 10
22.2950000000000017
 20
74.0280999999999949
 10
22.3181000000000012
 20
74.0241999999999933
 10
22.3331000000000017
 20
74.0559999999999974
 10
22.3331000000000017
 20
79.8753999999999991
 10
22.3181000000000012
 20
79.9072000000000031
 10
22.2950000000000017
 20
79.9029000000000025
 10
22.2910000000000004
 20
79.8793000000000006
 10
22.3220999999999989
 20
79.8640000000000043
 10
24.8471000000000011
 20
79.8640000000000043
 10
24.9010999999999996
 20
79.8944000000000045
 10
24.9311000000000007
 20
79.9484999999999957
 10
24.9311000000000007
 20
85.982600000000005
 10
24.9010999999999996
 20
86.0366999999999962
 10
24.8471000000000011
 20
86.0656000000000034
 10
22.3220999999999989
 20
86.0656000000000034
 10
22.2910000000000004
 20
86.0515000000000043
 10
22.2950000000000017
 20
86.0281999999999982
 10
22.3181000000000012
 20
86.0240000000000009
 10
22.3331000000000017
 20
86.0557000000000016
 10
22.3331000000000017
 20
91.8768000000000029
 10
22.3181000000000012
 20
91.9087999999999994
 10
22.2950000000000017
 20
91.9027999999999992
 10
22.2910000000000004
 20
91.8807999999999936
 10
22.3220999999999989
 20
91.865799999999993
 10
24.8471000000000011
 20
91.865799999999993
 10
24.9010999999999996
 20
91.8949000000000069
 10
24.9311000000000007
 20
91.9478000000000009
 10
24.9311000000000007
 20
97.9827999999999975
 10
24.9010999999999996
 20
98.0348999999999933
 10
24.8471000000000011
 20
98.0636999999999972
 10
22.3220999999999989
 20
98.0636999999999972
 10
22.2910000000000004
 20
98.0498999999999938
 10
22.2950000000000017
 20
98.0267999999999944
 10
22.3181000000000012
 20
98.0228000000000037
 10
22.3331000000000017
 20
98.0549000000000035
 10
22.3331000000000017
 20
106.9830000000000041
 10
22.3031000000000006
 20
107.0370000000000061
 10
22.2489999999999988
 20
107.0660000000000025
 10
22.2331000000000003
 20
107.0660000000000025
 10
23.0980999999999987
 20
107.0660000000000025
 10
16.0809999999999995
 20
107.0660000000000025
 10
16.0280999999999985
 20
107.0370000000000061
 10
15.9990000000000006
 20
106.9830000000000041
 10
15.9990000000000006
 20
104.0550000000000068
 10
16.0121000000000002
 20
104.0229999999999961
 10
16.0360000000000014
 20
104.027000000000001
 10
16.0399999999999991
 20
104.0499999999999972
 10
16.0080999999999989
 20
104.063999999999993
 10
10.1880000000000006
 20
104.063999999999993
 10
10.1560000000000006
 20
104.0499999999999972
 10
10.1609999999999996
 20
104.027000000000001
 10
10.1829999999999998
 20
104.0229999999999961
 10
10.1989999999999998
 20
104.0550000000000068
 10
10.1989999999999998
 20
106.9830000000000041
 10
10.1699999999999999
 20
107.0370000000000061
 10
10.1159999999999997
 20
107.0660000000000025
 10
3.081
 20
107.0660000000000025
 10
3.0290300000000001
 20
107.0370000000000061
 10
3.0
 20
106.9830000000000041
 10
3.0
 20
98.0549000000000035
 10
3.0139999999999998
 20
98.0228000000000037
 10
3.0369999999999999
 20
98.0267999999999944
 10
3.04101
 20
98.0498999999999938
 10
3.0089999999999999
 20
98.0636999999999972
 10
0.0810004
 20
98.0636999999999972
 10
0.0290256
 20
98.0348999999999933
 10
0.0
 20
97.9827999999999975
 10
0.0
 20
91.9478000000000009
 10
0.0290256
 20
91.8949000000000069
 10
0.0810004
 20
91.865799999999993
 10
3.0089999999999999
 20
91.865799999999993
 10
3.04101
 20
91.8807999999999936
 10
3.0369999999999999
 20
91.9027999999999992
 10
3.0139999999999998
 20
91.9087999999999994
 10
3.0
 20
91.8768000000000029
 10
3.0
 20
86.0557000000000016
 10
3.0139999999999998
 20
86.0240000000000009
 10
3.0369999999999999
 20
86.0281999999999982
 10
3.04101
 20
86.0515000000000043
 10
3.0089999999999999
 20
86.0656000000000034
 10
0.0810004
 20
86.0656000000000034
 10
0.0290256
 20
86.0366999999999962
 10
0.0
 20
85.982600000000005
 10
0.0
 20
79.9484999999999957
 10
0.0290256
 20
79.8944000000000045
 10
0.0810004
 20
79.8640000000000043
 10
3.0089999999999999
 20
79.8640000000000043
 10
3.04101
 20
79.8793000000000006
 10
3.0369999999999999
 20
79.9029000000000025
 10
3.0139999999999998
 20
79.9072000000000031
 10
3.0
 20
79.8753999999999991
 10
3.0
 20
74.0559999999999974
 10
3.0139999999999998
 20
74.0241999999999933
 10
3.0369999999999999
 20
74.0280999999999949
 10
3.04101
 20
74.0518000000000001
 10
3.0089999999999999
 20
74.0653999999999968
 10
0.0810004
 20
74.0653999999999968
 10
0.0290256
 20
74.0365000000000038
 10
0.0
 20
73.9829000000000008
 10
0.0
 20
67.9483000000000033
 10
0.0290256
 20
67.8947000000000003
 10
0.0810004
 20
67.8643000000000001
 10
3.0089999999999999
 20
67.8643000000000001
 10
3.04101
 20
67.8795999999999964
 10
3.0369999999999999
 20
67.9027999999999992
 10
3.0139999999999998
 20
67.9070999999999998
 10
3.0
 20
67.8752999999999957
 10
3.0
 20
62.0544000000000011
 10
3.0139999999999998
 20
62.0225999999999971
 10
3.0369999999999999
 20
62.0268999999999977
 10
3.04101
 20
62.0503
 10
3.0089999999999999
 20
62.0640000000000001
 10
0.0810004
 20
62.0640000000000001
 10
0.0290256
 20
62.0349999999999966
 10
0.0
 20
61.9829000000000008
 10
0.0
 20
55.9481999999999999
 10
0.0290256
 20
55.894599999999997
 10
0.0810004
 20
55.8643000000000001
 10
3.0089999999999999
 20
55.8643000000000001
 10
3.04101
 20
55.8793999999999969
 10
3.0369999999999999
 20
55.903100000000002
 10
3.0139999999999998
 20
55.9069000000000003
 10
3.0
 20
55.8751000000000033
 10
3.0
 20
50.0542999999999978
 10
3.0139999999999998
 20
50.0228999999999999
 10
3.0369999999999999
 20
50.0268000000000015
 10
3.04101
 20
50.0504000000000033
 10
3.0089999999999999
 20
50.0643000000000029
 10
0.0810004
 20
50.0643000000000029
 10
0.0290256
 20
50.0354000000000028
 10
0.0
 20
49.9827999999999975
 10
0.0
 20
43.9485000000000028
 10
0.0290256
 20
43.8943999999999974
 10
0.0810004
 20
43.8646000000000029
 10
3.0089999999999999
 20
43.8646000000000029
 10
3.04101
 20
43.8796000000000035
 10
3.0369999999999999
 20
43.9029000000000025
 10
3.0139999999999998
 20
43.9072000000000031
 10
3.0
 20
43.8753999999999991
 10
3.0
 20
38.0546000000000006
 10
3.0139999999999998
 20
38.0227999999999966
 10
3.0369999999999999
 20
38.0270999999999972
 10
3.04101
 20
38.0504000000000033
 10
3.0089999999999999
 20
38.0641999999999996
 10
0.0810004
 20
38.0641999999999996
 10
0.0290256
 20
38.0352999999999994
 10
0.0
 20
37.9831000000000003
 10
0.0
 20
31.9482999999999997
 10
0.0290256
 20
31.8947000000000003
 10
0.0810004
 20
31.8643999999999998
 10
3.0089999999999999
 20
31.8643999999999998
 10
3.04101
 20
31.8794000000000004
 10
3.0369999999999999
 20
31.9027999999999992
 10
3.0139999999999998
 20
31.9070999999999998
 10
3.0
 20
31.8752999999999993
 10
3.0
 20
26.0546000000000006
 10
3.0139999999999998
 20
26.0228000000000002
 10
3.0369999999999999
 20
26.0271000000000008
 10
3.04101
 20
26.0501000000000005
 10
3.0089999999999999
 20
26.0643999999999991
 10
0.0810004
 20
26.0643999999999991
 10
0.0290256
 20
26.0350999999999999
 10
0.0
 20
25.9829000000000008
 10
0.0
 20
19.9484999999999992
 10
0.0290256
 20
19.8947000000000003
 10
0.0810004
 20
19.8643999999999998
 10
3.0089999999999999
 20
19.8643999999999998
 10
3.04101
 20
19.8795999999999999
 10
3.0369999999999999
 20
19.9030999999999985
 10
3.0139999999999998
 20
19.9070999999999998
 10
3.0
 20
19.8753999999999991
 10
3.0
 20
10.9484999999999992
 10
3.0290300000000001
 20
10.8947000000000003
 10
3.081
 20
10.8643999999999998
 10
3.0990099999999998
 20
10.8643999999999998
  0
LWPOLYLINE
  5
5A
100
AcDbEntity
  8
0
 62
256
370
-1
 48
1.0
  6
BYLAYER
100
AcDbPolyline
 90
494
 70
1
 10
133.4819999999999993
 20
107.0669999999999931
 10
126.5060000000000002
 20
107.0669999999999931
 10
126.4519999999999982
 20
107.0370000000000061
 10
126.4210000000000065
 20
106.9830000000000041
 10
126.4210000000000065
 20
104.0559999999999974
 10
126.436000000000007
 20
104.0240000000000009
 10
126.4599999999999937
 20
104.0280000000000058
 10
126.4639999999999986
 20
104.0520000000000067
 10
126.4330000000000069
 20
104.0669999999999931
 10
120.6119999999999948
 20
104.0669999999999931
 10
120.5799999999999983
 20
104.0520000000000067
 10
120.5840000000000032
 20
104.0280000000000058
 10
120.6069999999999993
 20
104.0240000000000009
 10
120.6209999999999951
 20
104.0559999999999974
 10
120.6209999999999951
 20
106.9830000000000041
 10
120.5919999999999987
 20
107.0370000000000061
 10
120.5400000000000063
 20
107.0669999999999931
 10
114.5040000000000049
 20
107.0669999999999931
 10
114.4509999999999934
 20
107.0370000000000061
 10
114.4230000000000018
 20
106.9830000000000041
 10
114.4230000000000018
 20
104.0559999999999974
 10
114.4369999999999976
 20
104.0240000000000009
 10
114.4579999999999984
 20
104.0280000000000058
 10
114.4650000000000034
 20
104.0520000000000067
 10
114.4339999999999975
 20
104.0669999999999931
 10
108.6129999999999995
 20
104.0669999999999931
 10
108.5810000000000031
 20
104.0520000000000067
 10
108.5840000000000032
 20
104.0280000000000058
 10
108.6089999999999947
 20
104.0240000000000009
 10
108.6200000000000045
 20
104.0559999999999974
 10
108.6200000000000045
 20
106.9830000000000041
 10
108.5919999999999987
 20
107.0370000000000061
 10
108.5390000000000015
 20
107.0669999999999931
 10
102.5030000000000001
 20
107.0669999999999931
 10
102.4500000000000028
 20
107.0370000000000061
 10
102.4210000000000065
 20
106.9830000000000041
 10
102.4210000000000065
 20
104.0559999999999974
 10
102.436000000000007
 20
104.0240000000000009
 10
102.4599999999999937
 20
104.0280000000000058
 10
102.4639999999999986
 20
104.0520000000000067
 10
102.4320000000000022
 20
104.0669999999999931
 10
96.6110000000000042
 20
104.0669999999999931
 10
96.5789999999999935
 20
104.0520000000000067
 10
96.5831000000000017
 20
104.0280000000000058
 10
96.6080999999999932
 20
104.0240000000000009
 10
96.6221000000000032
 20
104.0559999999999974
 10
96.6221000000000032
 20
106.9830000000000041
 10
96.5939999999999941
 20
107.0370000000000061
 10
96.5409999999999968
 20
107.0669999999999931
 10
90.5049999999999955
 20
107.0669999999999931
 10
90.4518999999999949
 20
107.0370000000000061
 10
90.4200000000000017
 20
106.9830000000000041
 10
90.4200000000000017
 20
104.0559999999999974
 10
90.4381000000000057
 20
104.0240000000000009
 10
90.4590000000000032
 20
104.0280000000000058
 10
90.465999999999994
 20
104.0520000000000067
 10
90.4339999999999975
 20
104.0669999999999931
 10
84.6131000000000029
 20
104.0669999999999931
 10
84.5810000000000031
 20
104.0520000000000067
 10
84.5849999999999937
 20
104.0280000000000058
 10
84.6059999999999945
 20
104.0240000000000009
 10
84.6200000000000045
 20
104.0559999999999974
 10
84.6200000000000045
 20
106.9830000000000041
 10
84.5921000000000021
 20
107.0370000000000061
 10
84.5390000000000015
 20
107.0669999999999931
 10
78.5028999999999968
 20
107.0669999999999931
 10
78.4500000000000028
 20
107.0370000000000061
 10
78.4218999999999937
 20
106.9830000000000041
 10
78.4218999999999937
 20
104.0559999999999974
 10
78.436000000000007
 20
104.0240000000000009
 10
78.4569000000000045
 20
104.0280000000000058
 10
78.4639999999999986
 20
104.0520000000000067
 10
78.433099999999996
 20
104.0669999999999931
 10
72.6119000000000057
 20
104.0669999999999931
 10
72.5799999999999983
 20
104.0520000000000067
 10
72.5831000000000017
 20
104.0280000000000058
 10
72.6079000000000008
 20
104.0240000000000009
 10
72.6218999999999966
 20
104.0559999999999974
 10
72.6218999999999966
 20
106.9830000000000041
 10
72.5939999999999941
 20
107.0370000000000061
 10
72.5378999999999934
 20
107.0669999999999931
 10
66.5049999999999955
 20
107.0669999999999931
 10
66.4518999999999949
 20
107.0370000000000061
 10
66.4200000000000017
 20
106.9830000000000041
 10
66.4200000000000017
 20
104.0559999999999974
 10
66.4381000000000057
 20
104.0240000000000009
 10
66.4590000000000032
 20
104.0280000000000058
 10
66.4630999999999972
 20
104.0520000000000067
 10
66.4309999999999974
 20
104.0669999999999931
 10
60.6099999999999994
 20
104.0669999999999931
 10
60.5778999999999996
 20
104.0520000000000067
 10
60.5859999999999985
 20
104.0280000000000058
 10
60.6069000000000031
 20
104.0240000000000009
 10
60.6210000000000022
 20
104.0559999999999974
 10
60.6210000000000022
 20
106.9830000000000041
 10
60.5930999999999997
 20
107.0370000000000061
 10
60.5399999999999991
 20
107.0669999999999931
 10
54.5039999999999978
 20
107.0669999999999931
 10
54.4510000000000005
 20
107.0370000000000061
 10
54.4219000000000008
 20
106.9830000000000041
 10
54.4219000000000008
 20
104.0559999999999974
 10
54.4369000000000014
 20
104.0240000000000009
 10
54.4579000000000022
 20
104.0280000000000058
 10
54.4650000000000034
 20
104.0520000000000067
 10
54.4328999999999965
 20
104.0669999999999931
 10
48.6118999999999986
 20
104.0669999999999931
 10
48.5810000000000031
 20
104.0520000000000067
 10
48.5838999999999999
 20
104.0280000000000058
 10
48.6088999999999984
 20
104.0240000000000009
 10
48.6229000000000013
 20
104.0559999999999974
 10
48.6229000000000013
 20
106.9830000000000041
 10
48.5910000000000011
 20
107.0370000000000061
 10
48.5379000000000005
 20
107.0669999999999931
 10
42.5060000000000002
 20
107.0669999999999931
 10
42.4489000000000019
 20
107.0370000000000061
 10
42.4209999999999994
 20
106.9830000000000041
 10
42.4209999999999994
 20
104.0559999999999974
 10
42.4350000000000023
 20
104.0240000000000009
 10
42.4600000000000009
 20
104.0280000000000058
 10
42.4628999999999976
 20
104.0520000000000067
 10
42.4318999999999988
 20
104.0669999999999931
 10
36.6109999999999971
 20
104.0669999999999931
 10
36.5788999999999973
 20
104.0520000000000067
 10
36.5859999999999985
 20
104.0280000000000058
 10
36.6069000000000031
 20
104.0240000000000009
 10
36.6210000000000022
 20
104.0559999999999974
 10
36.6210000000000022
 20
106.9830000000000041
 10
36.5929000000000002
 20
107.0370000000000061
 10
36.5399999999999991
 20
107.0669999999999931
 10
26.5418999999999983
 20
107.0669999999999931
 10
26.4898999999999987
 20
107.0370000000000061
 10
26.4609999999999985
 20
106.9830000000000041
 10
26.4609999999999985
 20
97.9481999999999999
 10
26.4898999999999987
 20
97.8957999999999942
 10
26.5418999999999983
 20
97.8669000000000011
 10
29.4710000000000001
 20
97.8669000000000011
 10
29.5018999999999991
 20
97.8807000000000045
 10
29.498899999999999
 20
97.904200000000003
 10
29.4739000000000004
 20
97.9081999999999937
 10
29.4599000000000011
 20
97.8766999999999996
 10
29.4599000000000011
 20
92.055800000000005
 10
29.4739000000000004
 20
92.0241999999999933
 10
29.498899999999999
 20
92.0283000000000015
 10
29.5018999999999991
 20
92.0516999999999967
 10
29.4710000000000001
 20
92.0668000000000006
 10
26.5418999999999983
 20
92.0668000000000006
 10
26.4898999999999987
 20
92.0365000000000038
 10
26.4609999999999985
 20
91.9829000000000008
 10
26.4609999999999985
 20
85.9481999999999999
 10
26.4898999999999987
 20
85.8961000000000041
 10
26.5418999999999983
 20
85.8670999999999935
 10
29.4710000000000001
 20
85.8670999999999935
 10
29.5018999999999991
 20
85.8807999999999936
 10
29.498899999999999
 20
85.904200000000003
 10
29.4739000000000004
 20
85.908299999999997
 10
29.4599000000000011
 20
85.8766999999999996
 10
29.4599000000000011
 20
80.0557000000000016
 10
29.4739000000000004
 20
80.0240000000000009
 10
29.498899999999999
 20
80.0281999999999982
 10
29.5018999999999991
 20
80.0515000000000043
 10
29.4710000000000001
 20
80.0666999999999973
 10
26.5418999999999983
 20
80.0666999999999973
 10
26.4898999999999987
 20
80.0364000000000004
 10
26.4609999999999985
 20
79.9827999999999975
 10
26.4609999999999985
 20
73.9484999999999957
 10
26.4898999999999987
 20
73.894599999999997
 10
26.5418999999999983
 20
73.8656000000000006
 10
29.4710000000000001
 20
73.8656000000000006
 10
29.5018999999999991
 20
73.8793000000000006
 10
29.498899999999999
 20
73.9029000000000025
 10
29.4739000000000004
 20
73.906800000000004
 10
29.4599000000000011
 20
73.8751000000000033
 10
29.4599000000000011
 20
68.0557000000000016
 10
29.4739000000000004
 20
68.0242999999999967
 10
29.498899999999999
 20
68.0280999999999949
 10
29.5018999999999991
 20
68.0518000000000001
 10
29.4710000000000001
 20
68.066900000000004
 10
26.5418999999999983
 20
68.066900000000004
 10
26.4898999999999987
 20
68.0366999999999962
 10
26.4609999999999985
 20
67.982600000000005
 10
26.4609999999999985
 20
61.9485000000000028
 10
26.4898999999999987
 20
61.8958000000000013
 10
26.5418999999999983
 20
61.8669000000000011
 10
29.4710000000000001
 20
61.8669000000000011
 10
29.5018999999999991
 20
61.8806000000000012
 10
29.498899999999999
 20
61.9042999999999992
 10
29.4739000000000004
 20
61.9084999999999965
 10
29.4599000000000011
 20
61.8768000000000029
 10
29.4599000000000011
 20
56.0557999999999979
 10
29.4739000000000004
 20
56.0242000000000004
 10
29.498899999999999
 20
56.0283000000000015
 10
29.5018999999999991
 20
56.0516999999999967
 10
29.4710000000000001
 20
56.0668999999999969
 10
26.5418999999999983
 20
56.0668999999999969
 10
26.4898999999999987
 20
56.0364999999999966
 10
26.4609999999999985
 20
55.9829000000000008
 10
26.4609999999999985
 20
49.9483000000000033
 10
26.4898999999999987
 20
49.896099999999997
 10
26.5418999999999983
 20
49.8671000000000006
 10
29.4710000000000001
 20
49.8671000000000006
 10
29.5018999999999991
 20
49.8808000000000007
 10
29.498899999999999
 20
49.904200000000003
 10
29.4739000000000004
 20
49.908299999999997
 10
29.4599000000000011
 20
49.8766999999999996
 10
29.4599000000000011
 20
44.0557999999999979
 10
29.4739000000000004
 20
44.0240000000000009
 10
29.498899999999999
 20
44.0283000000000015
 10
29.5018999999999991
 20
44.0514999999999972
 10
29.4710000000000001
 20
44.0668000000000006
 10
26.5418999999999983
 20
44.0668000000000006
 10
26.4898999999999987
 20
44.0364000000000004
 10
26.4609999999999985
 20
43.9827999999999975
 10
26.4609999999999985
 20
37.9485000000000028
 10
26.4898999999999987
 20
37.894599999999997
 10
26.5418999999999983
 20
37.8656000000000006
 10
29.4710000000000001
 20
37.8656000000000006
 10
29.5018999999999991
 20
37.8793999999999969
 10
29.498899999999999
 20
37.903100000000002
 10
29.4739000000000004
 20
37.9067999999999969
 10
29.4599000000000011
 20
37.8755999999999986
 10
29.4599000000000011
 20
32.0561000000000007
 10
29.4739000000000004
 20
32.0242999999999967
 10
29.498899999999999
 20
32.0281999999999982
 10
29.5018999999999991
 20
32.0518000000000001
 10
29.4710000000000001
 20
32.0668999999999969
 10
26.5418999999999983
 20
32.0668999999999969
 10
26.4898999999999987
 20
32.0367000000000033
 10
26.4609999999999985
 20
31.9826000000000015
 10
26.4609999999999985
 20
25.9482999999999997
 10
26.4898999999999987
 20
25.8943000000000012
 10
26.5418999999999983
 20
25.8653000000000013
 10
29.4710000000000001
 20
25.8653000000000013
 10
29.5018999999999991
 20
25.8793000000000006
 10
29.498899999999999
 20
25.9033000000000015
 10
29.4739000000000004
 20
25.9073999999999991
 10
29.4599000000000011
 20
25.8752999999999993
 10
29.4599000000000011
 20
20.0543000000000013
 10
29.4739000000000004
 20
20.0224000000000011
 10
29.498899999999999
 20
20.0283000000000015
 10
29.5018999999999991
 20
20.0503999999999998
 10
29.4710000000000001
 20
20.0653000000000006
 10
26.5418999999999983
 20
20.0653000000000006
 10
26.4898999999999987
 20
20.0364000000000004
 10
26.4609999999999985
 20
19.9832999999999998
 10
26.4609999999999985
 20
10.9482999999999997
 10
26.4898999999999987
 20
10.8942999999999994
 10
26.5418999999999983
 20
10.8652999999999995
 10
36.5399999999999991
 20
10.8652999999999995
 10
36.5929000000000002
 20
10.8942999999999994
 10
36.6210000000000022
 20
10.9482999999999997
 10
36.6210000000000022
 20
13.8764000000000003
 10
36.6069000000000031
 20
13.9083000000000006
 10
36.5859999999999985
 20
13.9042999999999992
 10
36.5788999999999973
 20
13.8812999999999995
 10
36.6109999999999971
 20
13.8673000000000002
 10
42.4318999999999988
 20
13.8673000000000002
 10
42.4628999999999976
 20
13.8812999999999995
 10
42.4600000000000009
 20
13.9042999999999992
 10
42.4350000000000023
 20
13.9083000000000006
 10
42.4209999999999994
 20
13.8764000000000003
 10
42.4209999999999994
 20
10.9482999999999997
 10
42.4489000000000019
 20
10.8942999999999994
 10
42.5060000000000002
 20
10.8652999999999995
 10
48.5379000000000005
 20
10.8652999999999995
 10
48.5910000000000011
 20
10.8942999999999994
 10
48.6229000000000013
 20
10.9482999999999997
 10
48.6229000000000013
 20
13.8764000000000003
 10
48.6088999999999984
 20
13.9083000000000006
 10
48.5838999999999999
 20
13.9042999999999992
 10
48.5810000000000031
 20
13.8812999999999995
 10
48.6118999999999986
 20
13.8673000000000002
 10
54.4328999999999965
 20
13.8673000000000002
 10
54.4650000000000034
 20
13.8812999999999995
 10
54.4579000000000022
 20
13.9042999999999992
 10
54.4369000000000014
 20
13.9083000000000006
 10
54.4219000000000008
 20
13.8764000000000003
 10
54.4219000000000008
 20
10.9482999999999997
 10
54.4510000000000005
 20
10.8942999999999994
 10
54.5039999999999978
 20
10.8652999999999995
 10
60.5399999999999991
 20
10.8652999999999995
 10
60.5930999999999997
 20
10.8942999999999994
 10
60.6210000000000022
 20
10.9482999999999997
 10
60.6210000000000022
 20
13.8764000000000003
 10
60.6069000000000031
 20
13.9083000000000006
 10
60.5859999999999985
 20
13.9042999999999992
 10
60.5778999999999996
 20
13.8812999999999995
 10
60.6099999999999994
 20
13.8673000000000002
 10
66.4309999999999974
 20
13.8673000000000002
 10
66.4630999999999972
 20
13.8812999999999995
 10
66.4590000000000032
 20
13.9042999999999992
 10
66.4381000000000057
 20
13.9083000000000006
 10
66.4200000000000017
 20
13.8764000000000003
 10
66.4200000000000017
 20
10.9482999999999997
 10
66.4518999999999949
 20
10.8942999999999994
 10
66.5049999999999955
 20
10.8652999999999995
 10
72.5378999999999934
 20
10.8652999999999995
 10
72.5939999999999941
 20
10.8942999999999994
 10
72.6218999999999966
 20
10.9482999999999997
 10
72.6218999999999966
 20
13.8764000000000003
 10
72.6079000000000008
 20
13.9083000000000006
 10
72.5831000000000017
 20
13.9042999999999992
 10
72.5799999999999983
 20
13.8812999999999995
 10
72.6119000000000057
 20
13.8673000000000002
 10
78.433099999999996
 20
13.8673000000000002
 10
78.4639999999999986
 20
13.8812999999999995
 10
78.4569000000000045
 20
13.9042999999999992
 10
78.436000000000007
 20
13.9083000000000006
 10
78.4218999999999937
 20
13.8764000000000003
 10
78.4218999999999937
 20
10.9482999999999997
 10
78.4500000000000028
 20
10.8942999999999994
 10
78.5028999999999968
 20
10.8652999999999995
 10
84.5390000000000015
 20
10.8652999999999995
 10
84.5921000000000021
 20
10.8942999999999994
 10
84.6200000000000045
 20
10.9482999999999997
 10
84.6200000000000045
 20
13.8764000000000003
 10
84.6059999999999945
 20
13.9083000000000006
 10
84.5849999999999937
 20
13.9042999999999992
 10
84.5810000000000031
 20
13.8812999999999995
 10
84.6131000000000029
 20
13.8673000000000002
 10
90.4339999999999975
 20
13.8673000000000002
 10
90.465999999999994
 20
13.8812999999999995
 10
90.4590000000000032
 20
13.9042999999999992
 10
90.4381000000000057
 20
13.9083000000000006
 10
90.4200000000000017
 20
13.8764000000000003
 10
90.4200000000000017
 20
10.9482999999999997
 10
90.4518999999999949
 20
10.8942999999999994
 10
90.5049999999999955
 20
10.8652999999999995
 10
96.5409999999999968
 20
10.8652999999999995
 10
96.5939999999999941
 20
10.8942999999999994
 10
96.6221000000000032
 20
10.9482999999999997
 10
96.6221000000000032
 20
13.8764000000000003
 10
96.6080999999999932
 20
13.9083000000000006
 10
96.5831000000000017
 20
13.9042999999999992
 10
96.5789999999999935
 20
13.8812999999999995
 10
96.6110000000000042
 20
13.8673000000000002
 10
102.4320000000000022
 20
13.8673000000000002
 10
102.4639999999999986
 20
13.8812999999999995
 10
102.4599999999999937
 20
13.9042999999999992
 10
102.436000000000007
 20
13.9083000000000006
 10
102.4210000000000065
 20
13.8764000000000003
 10
102.4210000000000065
 20
10.9482999999999997
 10
102.4500000000000028
 20
10.8942999999999994
 10
102.5030000000000001
 20
10.8652999999999995
 10
108.5390000000000015
 20
10.8652999999999995
 10
108.5919999999999987
 20
10.8942999999999994
 10
108.6200000000000045
 20
10.9482999999999997
 10
108.6200000000000045
 20
13.8764000000000003
 10
108.6089999999999947
 20
13.9083000000000006
 10
108.5840000000000032
 20
13.9042999999999992
 10
108.5810000000000031
 20
13.8812999999999995
 10
108.6129999999999995
 20
13.8673000000000002
 10
114.4339999999999975
 20
13.8673000000000002
 10
114.4650000000000034
 20
13.8812999999999995
 10
114.4579999999999984
 20
13.9042999999999992
 10
114.4369999999999976
 20
13.9083000000000006
 10
114.4230000000000018
 20
13.8764000000000003
 10
114.4230000000000018
 20
10.9482999999999997
 10
114.4509999999999934
 20
10.8942999999999994
 10
114.5040000000000049
 20
10.8652999999999995
 10
120.5400000000000063
 20
10.8652999999999995
 10
120.5919999999999987
 20
10.8942999999999994
 10
120.6209999999999951
 20
10.9482999999999997
 10
120.6209999999999951
 20
13.8764000000000003
 10
120.6069999999999993
 20
13.9083000000000006
 10
120.5840000000000032
 20
13.9042999999999992
 10
120.5799999999999983
 20
13.8812999999999995
 10
120.6119999999999948
 20
13.8673000000000002
 10
126.4330000000000069
 20
13.8673000000000002
 10
126.4639999999999986
 20
13.8812999999999995
 10
126.4599999999999937
 20
13.9042999999999992
 10
126.436000000000007
 20
13.9083000000000006
 10
126.4210000000000065
 20
13.8764000000000003
 10
126.4210000000000065
 20
10.9482999999999997
 10
126.4519999999999982
 20
10.8942999999999994
 10
126.5060000000000002
 20
10.8652999999999995
 10
135.2330000000000041
 20
10.8652999999999995
 10
135.2860000000000014
 20
10.8942999999999994
 10
135.3149999999999977
 20
10.9482999999999997
 10
135.3149999999999977
 20
19.9832999999999998
 10
135.2860000000000014
 20
20.0364000000000004
 10
135.2330000000000041
 20
20.0653000000000006
 10
132.7069999999999936
 20
20.0653000000000006
 10
132.6750000000000114
 20
20.0503999999999998
 10
132.679000000000002
 20
20.0283000000000015
 10
132.7019999999999982
 20
20.0224000000000011
 10
132.7160000000000082
 20
20.0543000000000013
 10
132.7160000000000082
 20
25.8752999999999993
 10
132.7019999999999982
 20
25.9073999999999991
 10
132.679000000000002
 20
25.9033000000000015
 10
132.6750000000000114
 20
25.8793000000000006
 10
132.7069999999999936
 20
25.8653000000000013
 10
135.2330000000000041
 20
25.8653000000000013
 10
135.2860000000000014
 20
25.8943000000000012
 10
135.3149999999999977
 20
25.9482999999999997
 10
135.3149999999999977
 20
31.9826000000000015
 10
135.2860000000000014
 20
32.0367000000000033
 10
135.2330000000000041
 20
32.0668999999999969
 10
132.7069999999999936
 20
32.0668999999999969
 10
132.6750000000000114
 20
32.0518000000000001
 10
132.679000000000002
 20
32.0281999999999982
 10
132.7019999999999982
 20
32.0242999999999967
 10
132.7160000000000082
 20
32.0561000000000007
 10
132.7160000000000082
 20
37.8755999999999986
 10
132.7019999999999982
 20
37.9067999999999969
 10
132.679000000000002
 20
37.903100000000002
 10
132.6750000000000114
 20
37.8793999999999969
 10
132.7069999999999936
 20
37.8656000000000006
 10
135.2330000000000041
 20
37.8656000000000006
 10
135.2860000000000014
 20
37.894599999999997
 10
135.3149999999999977
 20
37.9485000000000028
 10
135.3149999999999977
 20
43.9827999999999975
 10
135.2860000000000014
 20
44.0364000000000004
 10
135.2330000000000041
 20
44.0668000000000006
 10
132.7069999999999936
 20
44.0668000000000006
 10
132.6750000000000114
 20
44.0514999999999972
 10
132.679000000000002
 20
44.0283000000000015
 10
132.7019999999999982
 20
44.0240000000000009
 10
132.7160000000000082
 20
44.0557999999999979
 10
132.7160000000000082
 20
49.8766999999999996
 10
132.7019999999999982
 20
49.908299999999997
 10
132.679000000000002
 20
49.904200000000003
 10
132.6750000000000114
 20
49.8808000000000007
 10
132.7069999999999936
 20
49.8671000000000006
 10
135.2330000000000041
 20
49.8671000000000006
 10
135.2860000000000014
 20
49.896099999999997
 10
135.3149999999999977
 20
49.9483000000000033
 10
135.3149999999999977
 20
55.9829000000000008
 10
135.2860000000000014
 20
56.0364999999999966
 10
135.2330000000000041
 20
56.0668999999999969
 10
132.7069999999999936
 20
56.0668999999999969
 10
132.6750000000000114
 20
56.0516999999999967
 10
132.679000000000002
 20
56.0283000000000015
 10
132.7019999999999982
 20
56.0242000000000004
 10
132.7160000000000082
 20
56.0557999999999979
 10
132.7160000000000082
 20
61.8768000000000029
 10
132.7019999999999982
 20
61.9084999999999965
 10
132.679000000000002
 20
61.9042999999999992
 10
132.6750000000000114
 20
61.8806000000000012
 10
132.7069999999999936
 20
61.8669000000000011
 10
135.2330000000000041
 20
61.8669000000000011
 10
135.2860000000000014
 20
61.8958000000000013
 10
135.3149999999999977
 20
61.9485000000000028
 10
135.3149999999999977
 20
67.982600000000005
 10
135.2860000000000014
 20
68.0366999999999962
 10
135.2330000000000041
 20
68.066900000000004
 10
132.7069999999999936
 20
68.066900000000004
 10
132.6750000000000114
 20
68.0518000000000001
 10
132.679000000000002
 20
68.0280999999999949
 10
132.7019999999999982
 20
68.0242999999999967
 10
132.7160000000000082
 20
68.0557000000000016
 10
132.7160000000000082
 20
73.8751000000000033
 10
132.7019999999999982
 20
73.906800000000004
 10
132.679000000000002
 20
73.9029000000000025
 10
132.6750000000000114
 20
73.8793000000000006
 10
132.7069999999999936
 20
73.8656000000000006
 10
135.2330000000000041
 20
73.8656000000000006
 10
135.2860000000000014
 20
73.894599999999997
 10
135.3149999999999977
 20
73.9484999999999957
 10
135.3149999999999977
 20
79.9827999999999975
 10
135.2860000000000014
 20
80.0364000000000004
 10
135.2330000000000041
 20
80.0666999999999973
 10
132.7069999999999936
 20
80.0666999999999973
 10
132.6750000000000114
 20
80.0515000000000043
 10
132.679000000000002
 20
80.0281999999999982
 10
132.7019999999999982
 20
80.0240000000000009
 10
132.7160000000000082
 20
80.0557000000000016
 10
132.7160000000000082
 20
85.8766999999999996
 10
132.7019999999999982
 20
85.908299999999997
 10
132.679000000000002
 20
85.904200000000003
 10
132.6750000000000114
 20
85.8807999999999936
 10
132.7069999999999936
 20
85.8670999999999935
 10
135.2330000000000041
 20
85.8670999999999935
 10
135.2860000000000014
 20
85.8961000000000041
 10
135.3149999999999977
 20
85.9481999999999999
 10
135.3149999999999977
 20
91.9829000000000008
 10
135.2860000000000014
 20
92.0365000000000038
 10
135.2330000000000041
 20
92.0668000000000006
 10
132.7069999999999936
 20
92.0668000000000006
 10
132.6750000000000114
 20
92.0516999999999967
 10
132.679000000000002
 20
92.0283000000000015
 10
132.7019999999999982
 20
92.0241999999999933
 10
132.7160000000000082
 20
92.055800000000005
 10
132.7160000000000082
 20
97.8766999999999996
 10
132.7019999999999982
 20
97.9081999999999937
 10
132.679000000000002
 20
97.904200000000003
 10
132.6750000000000114
 20
97.8807000000000045
 10
132.7069999999999936
 20
97.8669000000000011
 10
135.2330000000000041
 20
97.8669000000000011
 10
135.2860000000000014
 20
97.8957999999999942
 10
135.3149999999999977
 20
97.9481999999999999
 10
135.3149999999999977
 20
106.9830000000000041
 10
135.2860000000000014
 20
107.0370000000000061
 10
135.2330000000000041
 20
107.0669999999999931
 10
133.4819999999999993
 20
107.0669999999999931
  0
LWPOLYLINE
  5
5B
100
AcDbEntity
  8
0
 62
256
370
-1
 48
1.0
  6
BYLAYER
100
AcDbPolyline
 90
145
 70
1
 10
59.3879000000000019
 20
58.9660000000000011
 10
59.3879000000000019
 20
59.2325999999999979
 10
59.4144000000000005
 20
60.0322000000000031
 10
59.4932000000000016
 20
61.0910999999999973
 10
59.6234999999999999
 20
62.1409999999999982
 10
59.8049000000000035
 20
63.180100000000003
 10
60.0364000000000004
 20
64.2066999999999979
 10
60.3171999999999997
 20
65.2189999999999941
 10
60.6469000000000023
 20
66.2152999999999992
 10
61.0245999999999995
 20
67.193799999999996
 10
61.4493999999999971
 20
68.1526000000000067
 10
61.9207999999999998
 20
69.0902999999999992
 10
62.4380999999999986
 20
70.0046999999999997
 10
63.0003000000000029
 20
70.8943000000000012
 10
63.6067999999999998
 20
71.7574000000000041
 10
64.2569000000000017
 20
72.5918999999999954
 10
64.9500000000000028
 20
73.3963999999999999
 10
65.4967000000000041
 20
73.980400000000003
 10
65.6851000000000056
 20
74.1688999999999936
 10
65.8735999999999962
 20
74.3573999999999984
 10
66.4575999999999993
 20
74.9039999999999964
 10
67.2622000000000071
 20
75.5970999999999975
 10
68.0966999999999985
 20
76.2472000000000065
 10
68.959699999999998
 20
76.8538999999999959
 10
69.8492999999999995
 20
77.4161000000000001
 10
70.7639000000000067
 20
77.9333000000000027
 10
71.7014000000000067
 20
78.4047000000000054
 10
72.6603000000000065
 20
78.8295999999999992
 10
73.6388000000000034
 20
79.207099999999997
 10
74.6350000000000051
 20
79.5367999999999995
 10
75.6474000000000046
 20
79.8178000000000054
 10
76.6739000000000033
 20
80.049199999999999
 10
77.7130999999999972
 20
80.2305999999999955
 10
78.7629000000000019
 20
80.3607999999999976
 10
79.8218999999999994
 20
80.439700000000002
 10
80.6214999999999975
 20
80.4660999999999973
 10
80.8880999999999943
 20
80.4660999999999973
 10
81.1546000000000021
 20
80.4660999999999973
 10
81.9542000000000002
 20
80.439700000000002
 10
83.0130999999999943
 20
80.3607999999999976
 10
84.0628999999999991
 20
80.2305999999999955
 10
85.102099999999993
 20
80.049199999999999
 10
86.1286000000000058
 20
79.8178000000000054
 10
87.1410000000000053
 20
79.5367999999999995
 10
88.1372000000000071
 20
79.207099999999997
 10
89.1157000000000039
 20
78.8295999999999992
 10
90.0746000000000038
 20
78.4047000000000054
 10
91.0122000000000071
 20
77.9333000000000027
 10
91.9265000000000043
 20
77.4161000000000001
 10
92.8162999999999982
 20
76.8538999999999959
 10
93.6791999999999945
 20
76.2472000000000065
 10
94.5138000000000034
 20
75.5970999999999975
 10
95.3182000000000045
 20
74.9039999999999964
 10
95.9024000000000001
 20
74.3573999999999984
 10
96.0908000000000015
 20
74.1688999999999936
 10
96.2793000000000063
 20
73.980400000000003
 10
96.8259999999999934
 20
73.3963999999999999
 10
97.5190000000000055
 20
72.5918999999999954
 10
98.1692000000000036
 20
71.7574000000000041
 10
98.7758000000000038
 20
70.8943000000000012
 10
99.3380999999999972
 20
70.0046999999999997
 10
99.8550999999999931
 20
69.0902999999999992
 10
100.3269999999999982
 20
68.1526000000000067
 10
100.7510000000000048
 20
67.193799999999996
 10
101.1290000000000049
 20
66.2152999999999992
 10
101.4590000000000032
 20
65.2189999999999941
 10
101.7399999999999949
 20
64.2066999999999979
 10
101.9710000000000036
 20
63.180100000000003
 10
102.152000000000001
 20
62.1409999999999982
 10
102.2830000000000013
 20
61.0910999999999973
 10
102.3619999999999948
 20
60.0322000000000031
 10
102.3880000000000052
 20
59.2325999999999979
 10
102.3880000000000052
 20
58.9660000000000011
 10
102.3880000000000052
 20
58.6995999999999967
 10
102.3619999999999948
 20
57.8999999999999986
 10
102.2830000000000013
 20
56.8410000000000011
 10
102.152000000000001
 20
55.7911000000000001
 10
101.9710000000000036
 20
54.7518999999999991
 10
101.7399999999999949
 20
53.7254000000000005
 10
101.4590000000000032
 20
52.7130999999999972
 10
101.1290000000000049
 20
51.7167999999999992
 10
100.7510000000000048
 20
50.7383000000000024
 10
100.3269999999999982
 20
49.7794000000000025
 10
99.8550999999999931
 20
48.8419000000000025
 10
99.3380999999999972
 20
47.927500000000002
 10
98.7758000000000038
 20
47.0377999999999972
 10
98.1692000000000036
 20
46.1749000000000009
 10
97.5190000000000055
 20
45.3402999999999992
 10
96.8259999999999934
 20
44.5358000000000018
 10
96.2793000000000063
 20
43.9517000000000024
 10
96.0908000000000015
 20
43.7631999999999977
 10
95.9024000000000001
 20
43.5748999999999995
 10
95.3182000000000045
 20
43.028100000000002
 10
94.5138000000000034
 20
42.3350000000000009
 10
93.6791999999999945
 20
41.684899999999999
 10
92.8162999999999982
 20
41.0782999999999987
 10
91.9265000000000043
 20
40.5161000000000016
 10
91.0122000000000071
 20
39.998899999999999
 10
90.0746000000000038
 20
39.5275000000000034
 10
89.1157000000000039
 20
39.1026000000000025
 10
88.1372000000000071
 20
38.7250000000000014
 10
87.1410000000000053
 20
38.3954000000000022
 10
86.1286000000000058
 20
38.1144000000000034
 10
85.102099999999993
 20
37.8828999999999994
 10
84.0628999999999991
 20
37.7017000000000024
 10
83.0130999999999943
 20
37.5711999999999975
 10
81.9542000000000002
 20
37.4924999999999997
 10
81.1546000000000021
 20
37.4660000000000011
 10
80.8880999999999943
 20
37.4660000000000011
 10
80.6214999999999975
 20
37.4660000000000011
 10
79.8218999999999994
 20
37.4924999999999997
 10
78.7629000000000019
 20
37.5711999999999975
 10
77.7130999999999972
 20
37.7017000000000024
 10
76.6739000000000033
 20
37.8828999999999994
 10
75.6474000000000046
 20
38.1144000000000034
 10
74.6350000000000051
 20
38.3954000000000022
 10
73.6388000000000034
 20
38.7250000000000014
 10
72.6603000000000065
 20
39.1026000000000025
 10
71.7014000000000067
 20
39.5275000000000034
 10
70.7639000000000067
 20
39.998899999999999
 10
69.8492999999999995
 20
40.5161000000000016
 10
68.959699999999998
 20
41.0782999999999987
 10
68.0966999999999985
 20
41.684899999999999
 10
67.2622000000000071
 20
42.3350000000000009
 10
66.4575999999999993
 20
43.028100000000002
 10
65.8735999999999962
 20
43.5748999999999995
 10
65.6851000000000056
 20
43.7631999999999977
 10
65.4967000000000041
 20
43.9517000000000024
 10
64.9500000000000028
 20
44.5358000000000018
 10
64.2569000000000017
 20
45.3402999999999992
 10
63.6067999999999998
 20
46.1749000000000009
 10
63.0003000000000029
 20
47.0377999999999972
 10
62.4380999999999986
 20
47.927500000000002
 10
61.9207999999999998
 20
48.8419000000000025
 10
61.4493999999999971
 20
49.7794000000000025
 10
61.0245999999999995
 20
50.7383000000000024
 10
60.6469000000000023
 20
51.7167999999999992
 10
60.3171999999999997
 20
52.7130999999999972
 10
60.0364000000000004
 20
53.7254000000000005
 10
59.8049000000000035
 20
54.7518999999999991
 10
59.6234999999999999
 20
55.7911000000000001
 10
59.4932000000000016
 20
56.8410000000000011
 10
59.4144000000000005
 20
57.8999999999999986
 10
59.3879000000000019
 20
58.6995999999999967
 10
59.3879000000000019
 20
58.9660000000000011
  0
LWPOLYLINE
  5
5C
100
AcDbEntity
  8
0
 62
256
370
-1
 48
1.0
  6
BYLAYER
100
AcDbPolyline
 90
73
 70
1
 10
91.8380999999999972
 20
80.9630999999999972
 10
91.8380999999999972
 20
81.0079000000000065
 10
91.8469000000000051
 20
81.1420999999999992
 10
91.873500000000007
 20
81.3157999999999959
 10
91.9167000000000058
 20
81.4835999999999956
 10
91.9753999999999934
 20
81.6443000000000012
 10
92.049199999999999
 20
81.7973999999999961
 10
92.1367999999999938
 20
81.9415000000000049
 10
92.2376000000000005
 20
82.0764000000000067
 10
92.3506
 20
82.2005999999999943
 10
92.4749000000000052
 20
82.3135000000000048
 10
92.6096000000000004
 20
82.4142999999999972
 10
92.7539000000000016
 20
82.5019000000000062
 10
92.906800000000004
 20
82.5756999999999977
 10
93.0675999999999988
 20
82.6343999999999994
 10
93.2352999999999952
 20
82.6775999999999982
 10
93.409000000000006
 20
82.7042000000000002
 10
93.5431999999999988
 20
82.7130999999999972
 10
93.5880999999999972
 20
82.7130999999999972
 10
93.6325999999999965
 20
82.7130999999999972
 10
93.7669000000000068
 20
82.7042000000000002
 10
93.9407000000000068
 20
82.6775999999999982
 10
94.1082999999999998
 20
82.6343999999999994
 10
94.2691999999999979
 20
82.5756999999999977
 10
94.4221000000000004
 20
82.5019000000000062
 10
94.5664000000000016
 20
82.4142999999999972
 10
94.7010999999999967
 20
82.3135000000000048
 10
94.8254000000000019
 20
82.2005999999999943
 10
94.9382999999999981
 20
82.0764000000000067
 10
95.0391999999999939
 20
81.9415000000000049
 10
95.1268000000000029
 20
81.7973999999999961
 10
95.2004000000000019
 20
81.6443000000000012
 10
95.2592999999999961
 20
81.4835999999999956
 10
95.3024000000000058
 20
81.3157999999999959
 10
95.3289000000000044
 20
81.1420999999999992
 10
95.3380999999999972
 20
81.0079000000000065
 10
95.3380999999999972
 20
80.9630999999999972
 10
95.3380999999999972
 20
80.9184999999999945
 10
95.3289000000000044
 20
80.7841999999999985
 10
95.3024000000000058
 20
80.6103999999999985
 10
95.2592999999999961
 20
80.4428000000000054
 10
95.2004000000000019
 20
80.2818999999999932
 10
95.1268000000000029
 20
80.1290000000000049
 10
95.0391999999999939
 20
79.9847000000000037
 10
94.9382999999999981
 20
79.8499999999999943
 10
94.8254000000000019
 20
79.7257000000000033
 10
94.7010999999999967
 20
79.6127999999999929
 10
94.5664000000000016
 20
79.5118999999999971
 10
94.4221000000000004
 20
79.4243000000000023
 10
94.2691999999999979
 20
79.3507000000000033
 10
94.1082999999999998
 20
79.291799999999995
 10
93.9407000000000068
 20
79.2488000000000028
 10
93.7669000000000068
 20
79.2222000000000008
 10
93.6325999999999965
 20
79.2130999999999972
 10
93.5880999999999972
 20
79.2130999999999972
 10
93.5431999999999988
 20
79.2130999999999972
 10
93.409000000000006
 20
79.2222000000000008
 10
93.2352999999999952
 20
79.2488000000000028
 10
93.0675999999999988
 20
79.291799999999995
 10
92.906800000000004
 20
79.3507000000000033
 10
92.7539000000000016
 20
79.4243000000000023
 10
92.6096000000000004
 20
79.5118999999999971
 10
92.4749000000000052
 20
79.6127999999999929
 10
92.3506
 20
79.7257000000000033
 10
92.2376000000000005
 20
79.8499999999999943
 10
92.1367999999999938
 20
79.9847000000000037
 10
92.049199999999999
 20
80.1290000000000049
 10
91.9753999999999934
 20
80.2818999999999932
 10
91.9167000000000058
 20
80.4428000000000054
 10
91.873500000000007
 20
80.6103999999999985
 10
91.8469000000000051
 20
80.7841999999999985
 10
91.8380999999999972
 20
80.9184999999999945
 10
91.8380999999999972
 20
80.9630999999999972
  0
LWPOLYLINE
  5
5D
100
AcDbEntity
  8
0
 62
256
370
-1
 48
1.0
  6
BYLAYER
100
AcDbPolyline
 90
73
 70
1
 10
53.7379000000000033
 20
58.9660000000000011
 10
53.7379000000000033
 20
59.0108000000000033
 10
53.7468999999999966
 20
59.1450000000000031
 10
53.7734999999999985
 20
59.3188000000000031
 10
53.8166999999999973
 20
59.4864999999999995
 10
53.8753999999999991
 20
59.647199999999998
 10
53.9491999999999976
 20
59.8003
 10
54.0367999999999995
 20
59.9444000000000017
 10
54.1375000000000028
 20
60.0793000000000035
 10
54.2505999999999986
 20
60.2034999999999982
 10
54.3746999999999971
 20
60.3164999999999978
 10
54.5093999999999994
 20
60.4172000000000011
 10
54.6537999999999968
 20
60.5048999999999992
 10
54.8068000000000026
 20
60.5786000000000016
 10
54.9675000000000011
 20
60.6373999999999995
 10
55.1353000000000009
 20
60.6805999999999983
 10
55.3089999999999975
 20
60.707099999999997
 10
55.4431999999999974
 20
60.7160000000000011
 10
55.4879000000000033
 20
60.7160000000000011
 10
55.5326000000000022
 20
60.7160000000000011
 10
55.6668999999999983
 20
60.707099999999997
 10
55.840600000000002
 20
60.6805999999999983
 10
56.0082999999999984
 20
60.6373999999999995
 10
56.1691999999999965
 20
60.5786000000000016
 10
56.3220999999999989
 20
60.5048999999999992
 10
56.4664000000000001
 20
60.4172000000000011
 10
56.6011000000000024
 20
60.3164999999999978
 10
56.7254000000000005
 20
60.2034999999999982
 10
56.8382999999999967
 20
60.0793000000000035
 10
56.9390000000000001
 20
59.9444000000000017
 10
57.0266999999999982
 20
59.8003
 10
57.1004000000000005
 20
59.647199999999998
 10
57.1591999999999985
 20
59.4864999999999995
 10
57.2023999999999972
 20
59.3188000000000031
 10
57.228900000000003
 20
59.1450000000000031
 10
57.2379000000000033
 20
59.0108000000000033
 10
57.2379000000000033
 20
58.9660000000000011
 10
57.2379000000000033
 20
58.9213999999999984
 10
57.228900000000003
 20
58.7871999999999986
 10
57.2023999999999972
 20
58.6133000000000024
 10
57.1591999999999985
 20
58.4457000000000022
 10
57.1004000000000005
 20
58.2849000000000004
 10
57.0266999999999982
 20
58.1319000000000017
 10
56.9390000000000001
 20
57.9876000000000005
 10
56.8382999999999967
 20
57.8528999999999982
 10
56.7254000000000005
 20
57.7286000000000001
 10
56.6011000000000024
 20
57.6156999999999968
 10
56.4664000000000001
 20
57.5148999999999972
 10
56.3220999999999989
 20
57.4273999999999987
 10
56.1691999999999965
 20
57.3536000000000001
 10
56.0082999999999984
 20
57.2946999999999989
 10
55.840600000000002
 20
57.2516999999999996
 10
55.6668999999999983
 20
57.2250999999999976
 10
55.5326000000000022
 20
57.2160000000000011
 10
55.4879000000000033
 20
57.2160000000000011
 10
55.4431999999999974
 20
57.2160000000000011
 10
55.3089999999999975
 20
57.2250999999999976
 10
55.1353000000000009
 20
57.2516999999999996
 10
54.9675000000000011
 20
57.2946999999999989
 10
54.8068000000000026
 20
57.3536000000000001
 10
54.6537999999999968
 20
57.4273999999999987
 10
54.5093999999999994
 20
57.5148999999999972
 10
54.3746999999999971
 20
57.6156999999999968
 10
54.2505999999999986
 20
57.7286000000000001
 10
54.1375000000000028
 20
57.8528999999999982
 10
54.0367999999999995
 20
57.9876000000000005
 10
53.9491999999999976
 20
58.1319000000000017
 10
53.8753999999999991
 20
58.2849000000000004
 10
53.8166999999999973
 20
58.4457000000000022
 10
53.7734999999999985
 20
58.6133000000000024
 10
53.7468999999999966
 20
58.7871999999999986
 10
53.7379000000000033
 20
58.9213999999999984
 10
53.7379000000000033
 20
58.9660000000000011
  0
LWPOLYLINE
  5
5E
100
AcDbEntity
  8
0
 62
256
370
-1
 48
1.0
  6
BYLAYER
100
AcDbPolyline
 90
73
 70
1
 10
91.8380999999999972
 20
36.9690000000000012
 10
91.8380999999999972
 20
37.0138000000000034
 10
91.8469000000000051
 20
37.1478999999999999
 10
91.873500000000007
 20
37.3216999999999999
 10
91.9167000000000058
 20
37.4894000000000034
 10
91.9753999999999934
 20
37.6501000000000019
 10
92.049199999999999
 20
37.8031999999999968
 10
92.1367999999999938
 20
37.9474000000000018
 10
92.2376000000000005
 20
38.0822000000000003
 10
92.3506
 20
38.2064000000000021
 10
92.4749000000000052
 20
38.3194000000000017
 10
92.6096000000000004
 20
38.4200999999999979
 10
92.7539000000000016
 20
38.5078000000000031
 10
92.906800000000004
 20
38.5814999999999984
 10
93.0675999999999988
 20
38.6403000000000034
 10
93.2352999999999952
 20
38.6835000000000022
 10
93.409000000000006
 20
38.7100000000000009
 10
93.5431999999999988
 20
38.7190000000000012
 10
93.5880999999999972
 20
38.7190000000000012
 10
93.6325999999999965
 20
38.7190000000000012
 10
93.7669000000000068
 20
38.7100000000000009
 10
93.9407000000000068
 20
38.6835000000000022
 10
94.1082999999999998
 20
38.6403000000000034
 10
94.2691999999999979
 20
38.5814999999999984
 10
94.4221000000000004
 20
38.5078000000000031
 10
94.5664000000000016
 20
38.4200999999999979
 10
94.7010999999999967
 20
38.3194000000000017
 10
94.8254000000000019
 20
38.2064000000000021
 10
94.9382999999999981
 20
38.0822000000000003
 10
95.0391999999999939
 20
37.9474000000000018
 10
95.1268000000000029
 20
37.8031999999999968
 10
95.2004000000000019
 20
37.6501000000000019
 10
95.2592999999999961
 20
37.4894000000000034
 10
95.3024000000000058
 20
37.3216999999999999
 10
95.3289000000000044
 20
37.1478999999999999
 10
95.3380999999999972
 20
37.0138000000000034
 10
95.3380999999999972
 20
36.9690000000000012
 10
95.3380999999999972
 20
36.9243000000000023
 10
95.3289000000000044
 20
36.7899999999999991
 10
95.3024000000000058
 20
36.6163999999999987
 10
95.2592999999999961
 20
36.448599999999999
 10
95.2004000000000019
 20
36.2877999999999972
 10
95.1268000000000029
 20
36.1349000000000018
 10
95.0391999999999939
 20
35.9906000000000006
 10
94.9382999999999981
 20
35.8558000000000021
 10
94.8254000000000019
 20
35.7314999999999969
 10
94.7010999999999967
 20
35.6186000000000007
 10
94.5664000000000016
 20
35.5178999999999974
 10
94.4221000000000004
 20
35.4303000000000026
 10
94.2691999999999979
 20
35.3564999999999969
 10
94.1082999999999998
 20
35.2976000000000028
 10
93.9407000000000068
 20
35.2546000000000035
 10
93.7669000000000068
 20
35.2280999999999977
 10
93.6325999999999965
 20
35.2190000000000012
 10
93.5880999999999972
 20
35.2190000000000012
 10
93.5431999999999988
 20
35.2190000000000012
 10
93.409000000000006
 20
35.2280999999999977
 10
93.2352999999999952
 20
35.2546000000000035
 10
93.0675999999999988
 20
35.2976000000000028
 10
92.906800000000004
 20
35.3564999999999969
 10
92.7539000000000016
 20
35.4303000000000026
 10
92.6096000000000004
 20
35.5178999999999974
 10
92.4749000000000052
 20
35.6186000000000007
 10
92.3506
 20
35.7314999999999969
 10
92.2376000000000005
 20
35.8558000000000021
 10
92.1367999999999938
 20
35.9906000000000006
 10
92.049199999999999
 20
36.1349000000000018
 10
91.9753999999999934
 20
36.2877999999999972
 10
91.9167000000000058
 20
36.448599999999999
 10
91.873500000000007
 20
36.6163999999999987
 10
91.8469000000000051
 20
36.7899999999999991
 10
91.8380999999999972
 20
36.9243000000000023
 10
91.8380999999999972
 20
36.9690000000000012
  0
LWPOLYLINE
  5
5F
100
AcDbEntity
  8
0
 62
256
370
-1
 48
1.0
  6
BYLAYER
100
AcDbPolyline
 90
462
 70
1
 10
139.9250000000000114
 20
10.8655000000000008
 10
145.9430000000000121
 20
10.8655000000000008
 10
145.9970000000000141
 20
10.8957999999999995
 10
146.0250000000000057
 20
10.9497
 10
146.0250000000000057
 20
13.8765000000000001
 10
146.0109999999999957
 20
13.9082000000000008
 10
145.9890000000000043
 20
13.9041999999999994
 10
145.9819999999999993
 20
13.8808000000000007
 10
146.01400000000001
 20
13.8656000000000006
 10
151.8360000000000127
 20
13.8656000000000006
 10
151.8669999999999902
 20
13.8808000000000007
 10
151.8619999999999948
 20
13.9041999999999994
 10
151.8389999999999986
 20
13.9082000000000008
 10
151.8249999999999886
 20
13.8765000000000001
 10
151.8249999999999886
 20
10.9497
 10
151.8540000000000134
 20
10.8957999999999995
 10
151.907999999999987
 20
10.8655000000000008
 10
157.9430000000000121
 20
10.8655000000000008
 10
157.9970000000000141
 20
10.8957999999999995
 10
158.0250000000000057
 20
10.9497
 10
158.0250000000000057
 20
13.8765000000000001
 10
158.0109999999999957
 20
13.9082000000000008
 10
157.9869999999999948
 20
13.9041999999999994
 10
157.9819999999999993
 20
13.8808000000000007
 10
158.0149999999999864
 20
13.8656000000000006
 10
163.8360000000000127
 20
13.8656000000000006
 10
163.8669999999999902
 20
13.8808000000000007
 10
163.8619999999999948
 20
13.9041999999999994
 10
163.8389999999999986
 20
13.9082000000000008
 10
163.8249999999999886
 20
13.8765000000000001
 10
163.8249999999999886
 20
10.9497
 10
163.8540000000000134
 20
10.8957999999999995
 10
163.907999999999987
 20
10.8655000000000008
 10
169.9430000000000121
 20
10.8655000000000008
 10
169.9970000000000141
 20
10.8957999999999995
 10
170.0250000000000057
 20
10.9497
 10
170.0250000000000057
 20
13.8765000000000001
 10
170.0109999999999957
 20
13.9082000000000008
 10
169.9890000000000043
 20
13.9041999999999994
 10
169.9819999999999993
 20
13.8808000000000007
 10
170.0149999999999864
 20
13.8656000000000006
 10
175.835000000000008
 20
13.8656000000000006
 10
175.8669999999999902
 20
13.8808000000000007
 10
175.8619999999999948
 20
13.9041999999999994
 10
175.8400000000000034
 20
13.9082000000000008
 10
175.8249999999999886
 20
13.8765000000000001
 10
175.8249999999999886
 20
10.9497
 10
175.8540000000000134
 20
10.8957999999999995
 10
175.9070000000000107
 20
10.8655000000000008
 10
181.9430000000000121
 20
10.8655000000000008
 10
181.9970000000000141
 20
10.8957999999999995
 10
182.0250000000000057
 20
10.9497
 10
182.0250000000000057
 20
13.8765000000000001
 10
182.0099999999999909
 20
13.9082000000000008
 10
181.9890000000000043
 20
13.9041999999999994
 10
181.9830000000000041
 20
13.8808000000000007
 10
182.0149999999999864
 20
13.8656000000000006
 10
187.8360000000000127
 20
13.8656000000000006
 10
187.8669999999999902
 20
13.8808000000000007
 10
187.8619999999999948
 20
13.9041999999999994
 10
187.8400000000000034
 20
13.9082000000000008
 10
187.8249999999999886
 20
13.8765000000000001
 10
187.8249999999999886
 20
10.9497
 10
187.8540000000000134
 20
10.8957999999999995
 10
187.907999999999987
 20
10.8655000000000008
 10
193.9430000000000121
 20
10.8655000000000008
 10
193.9970000000000141
 20
10.8957999999999995
 10
194.0250000000000057
 20
10.9497
 10
194.0250000000000057
 20
13.8765000000000001
 10
194.0109999999999957
 20
13.9082000000000008
 10
193.9869999999999948
 20
13.9041999999999994
 10
193.9830000000000041
 20
13.8808000000000007
 10
194.01400000000001
 20
13.8656000000000006
 10
199.835000000000008
 20
13.8656000000000006
 10
199.8669999999999902
 20
13.8808000000000007
 10
199.8619999999999948
 20
13.9041999999999994
 10
199.8389999999999986
 20
13.9082000000000008
 10
199.8249999999999886
 20
13.8765000000000001
 10
199.8249999999999886
 20
10.9497
 10
199.8540000000000134
 20
10.8957999999999995
 10
199.907999999999987
 20
10.8655000000000008
 10
205.9430000000000121
 20
10.8655000000000008
 10
205.9970000000000141
 20
10.8957999999999995
 10
206.0250000000000057
 20
10.9497
 10
206.0250000000000057
 20
13.8765000000000001
 10
206.0099999999999909
 20
13.9082000000000008
 10
205.9869999999999948
 20
13.9041999999999994
 10
205.9830000000000041
 20
13.8808000000000007
 10
206.0149999999999864
 20
13.8656000000000006
 10
211.835000000000008
 20
13.8656000000000006
 10
211.8669999999999902
 20
13.8808000000000007
 10
211.8619999999999948
 20
13.9041999999999994
 10
211.8400000000000034
 20
13.9082000000000008
 10
211.8249999999999886
 20
13.8765000000000001
 10
211.8249999999999886
 20
10.9497
 10
211.8540000000000134
 20
10.8957999999999995
 10
211.907999999999987
 20
10.8655000000000008
 10
217.9430000000000121
 20
10.8655000000000008
 10
217.9970000000000141
 20
10.8957999999999995
 10
218.0250000000000057
 20
10.9497
 10
218.0250000000000057
 20
13.8765000000000001
 10
218.0099999999999909
 20
13.9082000000000008
 10
217.9869999999999948
 20
13.9041999999999994
 10
217.9830000000000041
 20
13.8808000000000007
 10
218.0149999999999864
 20
13.8656000000000006
 10
223.835000000000008
 20
13.8656000000000006
 10
223.8669999999999902
 20
13.8808000000000007
 10
223.8619999999999948
 20
13.9041999999999994
 10
223.8389999999999986
 20
13.9082000000000008
 10
223.8249999999999886
 20
13.8765000000000001
 10
223.8249999999999886
 20
10.9497
 10
223.8540000000000134
 20
10.8957999999999995
 10
223.907999999999987
 20
10.8655000000000008
 10
232.9430000000000121
 20
10.8655000000000008
 10
232.9960000000000093
 20
10.8957999999999995
 10
233.0260000000000105
 20
10.9497
 10
233.0260000000000105
 20
19.9840000000000018
 10
232.9960000000000093
 20
20.0365000000000002
 10
232.9430000000000121
 20
20.0653000000000006
 10
230.01400000000001
 20
20.0653000000000006
 10
229.9830000000000041
 20
20.0515000000000008
 10
229.9869999999999948
 20
20.0281999999999982
 10
230.0099999999999909
 20
20.0240000000000009
 10
230.0260000000000105
 20
20.0557000000000016
 10
230.0260000000000105
 20
25.8765000000000001
 10
230.0099999999999909
 20
25.9082000000000008
 10
229.9869999999999948
 20
25.9039999999999999
 10
229.9830000000000041
 20
25.8807000000000009
 10
230.01400000000001
 20
25.8654000000000011
 10
232.9430000000000121
 20
25.8654000000000011
 10
232.9960000000000093
 20
25.8958000000000013
 10
233.0260000000000105
 20
25.9494000000000007
 10
233.0260000000000105
 20
31.9840000000000018
 10
232.9960000000000093
 20
32.0362999999999971
 10
232.9430000000000121
 20
32.065100000000001
 10
230.01400000000001
 20
32.065100000000001
 10
229.9830000000000041
 20
32.0514999999999972
 10
229.9869999999999948
 20
32.0281999999999982
 10
230.0099999999999909
 20
32.0240000000000009
 10
230.0260000000000105
 20
32.0557000000000016
 10
230.0260000000000105
 20
37.8765000000000001
 10
230.0099999999999909
 20
37.9082000000000008
 10
229.9869999999999948
 20
37.9040000000000035
 10
229.9830000000000041
 20
37.8806999999999974
 10
230.01400000000001
 20
37.8656000000000006
 10
232.9430000000000121
 20
37.8656000000000006
 10
232.9960000000000093
 20
37.8960000000000008
 10
233.0260000000000105
 20
37.9495999999999967
 10
233.0260000000000105
 20
43.9838000000000022
 10
232.9960000000000093
 20
44.0377999999999972
 10
232.9430000000000121
 20
44.0666999999999973
 10
230.01400000000001
 20
44.0666999999999973
 10
229.9830000000000041
 20
44.0531000000000006
 10
229.9869999999999948
 20
44.0294000000000025
 10
230.0099999999999909
 20
44.0255999999999972
 10
230.0260000000000105
 20
44.0572000000000017
 10
230.0260000000000105
 20
49.8765000000000001
 10
230.0099999999999909
 20
49.9080999999999975
 10
229.9869999999999948
 20
49.904200000000003
 10
229.9830000000000041
 20
49.8804000000000016
 10
230.01400000000001
 20
49.8654000000000011
 10
232.9430000000000121
 20
49.8654000000000011
 10
232.9960000000000093
 20
49.8956999999999979
 10
233.0260000000000105
 20
49.9497
 10
233.0260000000000105
 20
55.9838999999999984
 10
232.9960000000000093
 20
56.0364999999999966
 10
232.9430000000000121
 20
56.0653999999999968
 10
230.01400000000001
 20
56.0653999999999968
 10
229.9830000000000041
 20
56.0516999999999967
 10
229.9869999999999948
 20
56.028100000000002
 10
230.0099999999999909
 20
56.0236999999999981
 10
230.0260000000000105
 20
56.0555999999999983
 10
230.0260000000000105
 20
61.8763999999999967
 10
230.0099999999999909
 20
61.9080999999999975
 10
229.9869999999999948
 20
61.9039000000000001
 10
229.9830000000000041
 20
61.8806000000000012
 10
230.01400000000001
 20
61.8654000000000011
 10
232.9430000000000121
 20
61.8654000000000011
 10
232.9960000000000093
 20
61.8958000000000013
 10
233.0260000000000105
 20
61.9493999999999971
 10
233.0260000000000105
 20
67.9839999999999947
 10
232.9960000000000093
 20
68.0361999999999938
 10
232.9430000000000121
 20
68.0652999999999935
 10
230.01400000000001
 20
68.0652999999999935
 10
229.9830000000000041
 20
68.051400000000001
 10
229.9869999999999948
 20
68.0280999999999949
 10
230.0099999999999909
 20
68.0238999999999976
 10
230.0260000000000105
 20
68.0555999999999983
 10
230.0260000000000105
 20
73.876499999999993
 10
230.0099999999999909
 20
73.9081999999999937
 10
229.9869999999999948
 20
73.9039999999999964
 10
229.9830000000000041
 20
73.8807000000000045
 10
230.01400000000001
 20
73.8656000000000006
 10
232.9430000000000121
 20
73.8656000000000006
 10
232.9960000000000093
 20
73.8960000000000008
 10
233.0260000000000105
 20
73.9496000000000038
 10
233.0260000000000105
 20
79.9839000000000055
 10
232.9960000000000093
 20
80.0378000000000043
 10
232.9430000000000121
 20
80.0666999999999973
 10
230.01400000000001
 20
80.0666999999999973
 10
229.9830000000000041
 20
80.052899999999994
 10
229.9869999999999948
 20
80.0293000000000063
 10
230.0099999999999909
 20
80.0254000000000048
 10
230.0260000000000105
 20
80.0567999999999955
 10
230.0260000000000105
 20
85.8761999999999972
 10
230.0099999999999909
 20
85.9081000000000046
 10
229.9869999999999948
 20
85.904200000000003
 10
229.9830000000000041
 20
85.8803999999999945
 10
230.01400000000001
 20
85.8653000000000048
 10
232.9430000000000121
 20
85.8653000000000048
 10
232.9960000000000093
 20
85.895700000000005
 10
233.0260000000000105
 20
85.9497000000000071
 10
233.0260000000000105
 20
91.9839000000000055
 10
232.9960000000000093
 20
92.0378999999999934
 10
232.9430000000000121
 20
92.066900000000004
 10
230.01400000000001
 20
92.066900000000004
 10
229.9830000000000041
 20
92.052899999999994
 10
229.9869999999999948
 20
92.0289999999999964
 10
230.0099999999999909
 20
92.0250000000000057
 10
230.0260000000000105
 20
92.0568999999999988
 10
230.0260000000000105
 20
97.8778999999999968
 10
230.0099999999999909
 20
97.9099999999999966
 10
229.9869999999999948
 20
97.9039999999999964
 10
229.9830000000000041
 20
97.8819000000000017
 10
230.01400000000001
 20
97.8669000000000011
 10
232.9430000000000121
 20
97.8669000000000011
 10
232.9960000000000093
 20
97.8960000000000008
 10
233.0260000000000105
 20
97.9488999999999947
 10
233.0260000000000105
 20
106.9839999999999947
 10
232.9960000000000093
 20
107.0379999999999967
 10
232.9430000000000121
 20
107.0669999999999931
 10
223.907999999999987
 20
107.0669999999999931
 10
223.8540000000000134
 20
107.0379999999999967
 10
223.8249999999999886
 20
106.9839999999999947
 10
223.8249999999999886
 20
104.0559999999999974
 10
223.8389999999999986
 20
104.0240000000000009
 10
223.8619999999999948
 20
104.0280000000000058
 10
223.8669999999999902
 20
104.0510000000000019
 10
223.835000000000008
 20
104.0649999999999977
 10
218.0149999999999864
 20
104.0649999999999977
 10
217.9830000000000041
 20
104.0510000000000019
 10
217.9869999999999948
 20
104.0280000000000058
 10
218.0099999999999909
 20
104.0240000000000009
 10
218.0250000000000057
 20
104.0559999999999974
 10
218.0250000000000057
 20
106.9839999999999947
 10
217.9970000000000141
 20
107.0379999999999967
 10
217.9430000000000121
 20
107.0669999999999931
 10
211.907999999999987
 20
107.0669999999999931
 10
211.8540000000000134
 20
107.0379999999999967
 10
211.8249999999999886
 20
106.9839999999999947
 10
211.8249999999999886
 20
104.0559999999999974
 10
211.8400000000000034
 20
104.0240000000000009
 10
211.8619999999999948
 20
104.0280000000000058
 10
211.8669999999999902
 20
104.0510000000000019
 10
211.835000000000008
 20
104.0649999999999977
 10
206.0149999999999864
 20
104.0649999999999977
 10
205.9830000000000041
 20
104.0510000000000019
 10
205.9869999999999948
 20
104.0280000000000058
 10
206.0099999999999909
 20
104.0240000000000009
 10
206.0250000000000057
 20
104.0559999999999974
 10
206.0250000000000057
 20
106.9839999999999947
 10
205.9970000000000141
 20
107.0379999999999967
 10
205.9430000000000121
 20
107.0669999999999931
 10
199.907999999999987
 20
107.0669999999999931
 10
199.8540000000000134
 20
107.0379999999999967
 10
199.8249999999999886
 20
106.9839999999999947
 10
199.8249999999999886
 20
104.0559999999999974
 10
199.8389999999999986
 20
104.0240000000000009
 10
199.8619999999999948
 20
104.0280000000000058
 10
199.8669999999999902
 20
104.0510000000000019
 10
199.835000000000008
 20
104.0649999999999977
 10
194.01400000000001
 20
104.0649999999999977
 10
193.9830000000000041
 20
104.0510000000000019
 10
193.9869999999999948
 20
104.0280000000000058
 10
194.0109999999999957
 20
104.0240000000000009
 10
194.0250000000000057
 20
104.0559999999999974
 10
194.0250000000000057
 20
106.9839999999999947
 10
193.9970000000000141
 20
107.0379999999999967
 10
193.9430000000000121
 20
107.0669999999999931
 10
187.907999999999987
 20
107.0669999999999931
 10
187.8540000000000134
 20
107.0379999999999967
 10
187.8249999999999886
 20
106.9839999999999947
 10
187.8249999999999886
 20
104.0559999999999974
 10
187.8400000000000034
 20
104.0240000000000009
 10
187.8619999999999948
 20
104.0280000000000058
 10
187.8669999999999902
 20
104.0510000000000019
 10
187.8360000000000127
 20
104.0649999999999977
 10
182.0149999999999864
 20
104.0649999999999977
 10
181.9830000000000041
 20
104.0510000000000019
 10
181.9890000000000043
 20
104.0280000000000058
 10
182.0099999999999909
 20
104.0240000000000009
 10
182.0250000000000057
 20
104.0559999999999974
 10
182.0250000000000057
 20
106.9839999999999947
 10
181.9970000000000141
 20
107.0379999999999967
 10
181.9430000000000121
 20
107.0669999999999931
 10
175.9070000000000107
 20
107.0669999999999931
 10
175.8540000000000134
 20
107.0379999999999967
 10
175.8249999999999886
 20
106.9839999999999947
 10
175.8249999999999886
 20
104.0559999999999974
 10
175.8400000000000034
 20
104.0240000000000009
 10
175.8619999999999948
 20
104.0280000000000058
 10
175.8669999999999902
 20
104.0510000000000019
 10
175.835000000000008
 20
104.0649999999999977
 10
170.0149999999999864
 20
104.0649999999999977
 10
169.9819999999999993
 20
104.0510000000000019
 10
169.9890000000000043
 20
104.0280000000000058
 10
170.0109999999999957
 20
104.0240000000000009
 10
170.0250000000000057
 20
104.0559999999999974
 10
170.0250000000000057
 20
106.9839999999999947
 10
169.9970000000000141
 20
107.0379999999999967
 10
169.9430000000000121
 20
107.0669999999999931
 10
163.907999999999987
 20
107.0669999999999931
 10
163.8540000000000134
 20
107.0379999999999967
 10
163.8249999999999886
 20
106.9839999999999947
 10
163.8249999999999886
 20
104.0559999999999974
 10
163.8389999999999986
 20
104.0240000000000009
 10
163.8619999999999948
 20
104.0280000000000058
 10
163.8669999999999902
 20
104.0510000000000019
 10
163.8360000000000127
 20
104.0649999999999977
 10
158.0149999999999864
 20
104.0649999999999977
 10
157.9819999999999993
 20
104.0510000000000019
 10
157.9869999999999948
 20
104.0280000000000058
 10
158.0109999999999957
 20
104.0240000000000009
 10
158.0250000000000057
 20
104.0559999999999974
 10
158.0250000000000057
 20
106.9839999999999947
 10
157.9970000000000141
 20
107.0379999999999967
 10
157.9430000000000121
 20
107.0669999999999931
 10
151.907999999999987
 20
107.0669999999999931
 10
151.8540000000000134
 20
107.0379999999999967
 10
151.8249999999999886
 20
106.9839999999999947
 10
151.8249999999999886
 20
104.0559999999999974
 10
151.8389999999999986
 20
104.0240000000000009
 10
151.8619999999999948
 20
104.0280000000000058
 10
151.8669999999999902
 20
104.0510000000000019
 10
151.8360000000000127
 20
104.0649999999999977
 10
146.01400000000001
 20
104.0649999999999977
 10
145.9819999999999993
 20
104.0510000000000019
 10
145.9890000000000043
 20
104.0280000000000058
 10
146.0109999999999957
 20
104.0240000000000009
 10
146.0250000000000057
 20
104.0559999999999974
 10
146.0250000000000057
 20
106.9839999999999947
 10
145.9970000000000141
 20
107.0379999999999967
 10
145.9430000000000121
 20
107.0669999999999931
 10
136.907999999999987
 20
107.0669999999999931
 10
136.8549999999999898
 20
107.0379999999999967
 10
136.8259999999999934
 20
106.9839999999999947
 10
136.8259999999999934
 20
97.9488999999999947
 10
136.8549999999999898
 20
97.8960000000000008
 10
136.907999999999987
 20
97.8669000000000011
 10
139.8360000000000127
 20
97.8669000000000011
 10
139.8669999999999902
 20
97.8819000000000017
 10
139.8619999999999948
 20
97.9039999999999964
 10
139.8389999999999986
 20
97.9099999999999966
 10
139.8249999999999886
 20
97.8778999999999968
 10
139.8249999999999886
 20
92.0568999999999988
 10
139.8389999999999986
 20
92.0250000000000057
 10
139.8619999999999948
 20
92.0289999999999964
 10
139.8669999999999902
 20
92.052899999999994
 10
139.8360000000000127
 20
92.066900000000004
 10
136.907999999999987
 20
92.066900000000004
 10
136.8549999999999898
 20
92.0378999999999934
 10
136.8259999999999934
 20
91.9839000000000055
 10
136.8259999999999934
 20
85.9497000000000071
 10
136.8549999999999898
 20
85.895700000000005
 10
136.907999999999987
 20
85.8653000000000048
 10
139.8360000000000127
 20
85.8653000000000048
 10
139.8669999999999902
 20
85.8803999999999945
 10
139.8619999999999948
 20
85.904200000000003
 10
139.8389999999999986
 20
85.9081000000000046
 10
139.8249999999999886
 20
85.8761999999999972
 10
139.8249999999999886
 20
80.0567999999999955
 10
139.8389999999999986
 20
80.0254000000000048
 10
139.8619999999999948
 20
80.0293000000000063
 10
139.8669999999999902
 20
80.052899999999994
 10
139.8360000000000127
 20
80.0666999999999973
 10
136.907999999999987
 20
80.0666999999999973
 10
136.8549999999999898
 20
80.0378000000000043
 10
136.8259999999999934
 20
79.9839000000000055
 10
136.8259999999999934
 20
73.9496000000000038
 10
136.8549999999999898
 20
73.8960000000000008
 10
136.907999999999987
 20
73.8656000000000006
 10
139.8360000000000127
 20
73.8656000000000006
 10
139.8669999999999902
 20
73.8807000000000045
 10
139.8619999999999948
 20
73.9039999999999964
 10
139.8389999999999986
 20
73.9081999999999937
 10
139.8249999999999886
 20
73.876499999999993
 10
139.8249999999999886
 20
68.0555999999999983
 10
139.8389999999999986
 20
68.0238999999999976
 10
139.8619999999999948
 20
68.0280999999999949
 10
139.8669999999999902
 20
68.051400000000001
 10
139.8360000000000127
 20
68.0652999999999935
 10
136.907999999999987
 20
68.0652999999999935
 10
136.8549999999999898
 20
68.0361999999999938
 10
136.8259999999999934
 20
67.9839999999999947
 10
136.8259999999999934
 20
61.9493999999999971
 10
136.8549999999999898
 20
61.8958000000000013
 10
136.907999999999987
 20
61.8654000000000011
 10
139.8360000000000127
 20
61.8654000000000011
 10
139.8669999999999902
 20
61.8806000000000012
 10
139.8619999999999948
 20
61.9039000000000001
 10
139.8389999999999986
 20
61.9080999999999975
 10
139.8249999999999886
 20
61.8763999999999967
 10
139.8249999999999886
 20
56.0555999999999983
 10
139.8389999999999986
 20
56.0236999999999981
 10
139.8619999999999948
 20
56.028100000000002
 10
139.8669999999999902
 20
56.0516999999999967
 10
139.8360000000000127
 20
56.0653999999999968
 10
136.907999999999987
 20
56.0653999999999968
 10
136.8549999999999898
 20
56.0364999999999966
 10
136.8259999999999934
 20
55.9838999999999984
 10
136.8259999999999934
 20
49.9497
 10
136.8549999999999898
 20
49.8956999999999979
 10
136.907999999999987
 20
49.8654000000000011
 10
139.8360000000000127
 20
49.8654000000000011
 10
139.8669999999999902
 20
49.8804000000000016
 10
139.8619999999999948
 20
49.904200000000003
 10
139.8389999999999986
 20
49.9080999999999975
 10
139.8249999999999886
 20
49.8765000000000001
 10
139.8249999999999886
 20
44.0572000000000017
 10
139.8389999999999986
 20
44.0255999999999972
 10
139.8619999999999948
 20
44.0294000000000025
 10
139.8669999999999902
 20
44.0531000000000006
 10
139.8360000000000127
 20
44.0666999999999973
 10
136.907999999999987
 20
44.0666999999999973
 10
136.8549999999999898
 20
44.0377999999999972
 10
136.8259999999999934
 20
43.9838000000000022
 10
136.8259999999999934
 20
37.9495999999999967
 10
136.8549999999999898
 20
37.8960000000000008
 10
136.907999999999987
 20
37.8656000000000006
 10
139.8360000000000127
 20
37.8656000000000006
 10
139.8669999999999902
 20
37.8806999999999974
 10
139.8619999999999948
 20
37.9040000000000035
 10
139.8389999999999986
 20
37.9082000000000008
 10
139.8249999999999886
 20
37.8765000000000001
 10
139.8249999999999886
 20
32.0557000000000016
 10
139.8389999999999986
 20
32.0240000000000009
 10
139.8619999999999948
 20
32.0281999999999982
 10
139.8669999999999902
 20
32.0514999999999972
 10
139.8360000000000127
 20
32.065100000000001
 10
136.907999999999987
 20
32.065100000000001
 10
136.8549999999999898
 20
32.0362999999999971
 10
136.8259999999999934
 20
31.9840000000000018
 10
136.8259999999999934
 20
25.9494000000000007
 10
136.8549999999999898
 20
25.8958000000000013
 10
136.907999999999987
 20
25.8654000000000011
 10
139.8360000000000127
 20
25.8654000000000011
 10
139.8669999999999902
 20
25.8807000000000009
 10
139.8619999999999948
 20
25.9039999999999999
 10
139.8389999999999986
 20
25.9082000000000008
 10
139.8249999999999886
 20
25.8765000000000001
 10
139.8249999999999886
 20
20.0557000000000016
 10
139.8389999999999986
 20
20.0240000000000009
 10
139.8619999999999948
 20
20.0281999999999982
 10
139.8669999999999902
 20
20.0515000000000008
 10
139.8360000000000127
 20
20.0653000000000006
 10
136.907999999999987
 20
20.0653000000000006
 10
136.8549999999999898
 20
20.0365000000000002
 10
136.8259999999999934
 20
19.9840000000000018
 10
136.8259999999999934
 20
10.9497
 10
136.8549999999999898
 20
10.8957999999999995
 10
136.907999999999987
 20
10.8655000000000008
 10
139.9250000000000114
 20
10.8655000000000008
  0
LWPOLYLINE
  5
60
100
AcDbEntity
  8
0
 62
256
370
-1
 48
1.0
  6
BYLAYER
100
AcDbPolyline
 90
398
 70
1
 10
237.6380000000000052
 20
10.8655000000000008
 10
246.6330000000000098
 20
10.8655000000000008
 10
246.688999999999993
 20
10.8957999999999995
 10
246.717000000000013
 20
10.9497
 10
246.717000000000013
 20
13.8765000000000001
 10
246.703000000000003
 20
13.9082000000000008
 10
246.679000000000002
 20
13.9041999999999994
 10
246.6750000000000114
 20
13.8808000000000007
 10
246.7069999999999936
 20
13.8656000000000006
 10
252.5279999999999916
 20
13.8656000000000006
 10
252.5600000000000023
 20
13.8808000000000007
 10
252.5529999999999973
 20
13.9041999999999994
 10
252.5320000000000107
 20
13.9082000000000008
 10
252.5169999999999959
 20
13.8765000000000001
 10
252.5169999999999959
 20
10.9497
 10
252.5459999999999923
 20
10.8957999999999995
 10
252.5989999999999895
 20
10.8655000000000008
 10
258.6349999999999909
 20
10.8655000000000008
 10
258.6879999999999882
 20
10.8957999999999995
 10
258.714999999999975
 20
10.9497
 10
258.714999999999975
 20
13.8765000000000001
 10
258.7010000000000218
 20
13.9082000000000008
 10
258.6809999999999832
 20
13.9041999999999994
 10
258.6739999999999782
 20
13.8808000000000007
 10
258.7060000000000173
 20
13.8656000000000006
 10
264.5260000000000105
 20
13.8656000000000006
 10
264.5570000000000164
 20
13.8808000000000007
 10
264.5539999999999736
 20
13.9041999999999994
 10
264.5289999999999964
 20
13.9082000000000008
 10
264.5179999999999723
 20
13.8765000000000001
 10
264.5179999999999723
 20
10.9497
 10
264.5470000000000255
 20
10.8957999999999995
 10
264.6000000000000227
 20
10.8655000000000008
 10
270.632000000000005
 20
10.8655000000000008
 10
270.6890000000000214
 20
10.8957999999999995
 10
270.7169999999999845
 20
10.9497
 10
270.7169999999999845
 20
13.8765000000000001
 10
270.7029999999999745
 20
13.9082000000000008
 10
270.6779999999999973
 20
13.9041999999999994
 10
270.6750000000000114
 20
13.8808000000000007
 10
270.7069999999999936
 20
13.8656000000000006
 10
276.52800000000002
 20
13.8656000000000006
 10
276.5600000000000023
 20
13.8808000000000007
 10
276.5559999999999832
 20
13.9041999999999994
 10
276.5319999999999823
 20
13.9082000000000008
 10
276.5169999999999959
 20
13.8765000000000001
 10
276.5169999999999959
 20
10.9497
 10
276.5459999999999923
 20
10.8957999999999995
 10
276.6009999999999991
 20
10.8655000000000008
 10
282.6349999999999909
 20
10.8655000000000008
 10
282.6879999999999882
 20
10.8957999999999995
 10
282.714999999999975
 20
10.9497
 10
282.714999999999975
 20
13.8765000000000001
 10
282.7010000000000218
 20
13.9082000000000008
 10
282.6789999999999736
 20
13.9041999999999994
 10
282.6720000000000255
 20
13.8808000000000007
 10
282.7040000000000077
 20
13.8656000000000006
 10
288.5249999999999773
 20
13.8656000000000006
 10
288.5570000000000164
 20
13.8808000000000007
 10
288.5529999999999973
 20
13.9041999999999994
 10
288.5319999999999823
 20
13.9082000000000008
 10
288.5179999999999723
 20
13.8765000000000001
 10
288.5179999999999723
 20
10.9497
 10
288.5459999999999923
 20
10.8957999999999995
 10
288.6000000000000227
 20
10.8655000000000008
 10
294.6349999999999909
 20
10.8655000000000008
 10
294.6890000000000214
 20
10.8957999999999995
 10
294.7169999999999845
 20
10.9497
 10
294.7169999999999845
 20
13.8765000000000001
 10
294.7029999999999745
 20
13.9082000000000008
 10
294.6820000000000164
 20
13.9041999999999994
 10
294.6750000000000114
 20
13.8808000000000007
 10
294.7069999999999936
 20
13.8656000000000006
 10
300.5260000000000105
 20
13.8656000000000006
 10
300.5579999999999927
 20
13.8808000000000007
 10
300.5559999999999832
 20
13.9041999999999994
 10
300.5310000000000059
 20
13.9082000000000008
 10
300.5169999999999959
 20
13.8765000000000001
 10
300.5169999999999959
 20
10.9497
 10
300.5439999999999827
 20
10.8957999999999995
 10
300.6009999999999991
 20
10.8655000000000008
 10
309.6139999999999759
 20
10.8655000000000008
 10
309.6680000000000064
 20
10.8957999999999995
 10
309.6999999999999886
 20
10.9497
 10
309.6999999999999886
 20
19.8765000000000001
 10
309.6820000000000164
 20
19.9082000000000008
 10
309.660000000000025
 20
19.9041999999999994
 10
309.65300000000002
 20
19.8807000000000009
 10
309.6850000000000023
 20
19.8656000000000006
 10
312.6139999999999759
 20
19.8656000000000006
 10
312.6689999999999827
 20
19.8958000000000013
 10
312.6970000000000027
 20
19.9497
 10
312.6970000000000027
 20
25.9840000000000018
 10
312.6689999999999827
 20
26.0362000000000009
 10
312.6139999999999759
 20
26.0655999999999999
 10
309.6850000000000023
 20
26.0655999999999999
 10
309.65300000000002
 20
26.051400000000001
 10
309.660000000000025
 20
26.0281999999999982
 10
309.6820000000000164
 20
26.0239000000000011
 10
309.6999999999999886
 20
26.0557000000000016
 10
309.6999999999999886
 20
31.8765000000000001
 10
309.6820000000000164
 20
31.9082000000000008
 10
309.660000000000025
 20
31.9039999999999999
 10
309.65300000000002
 20
31.8807000000000009
 10
309.6850000000000023
 20
31.8656000000000006
 10
312.6139999999999759
 20
31.8656000000000006
 10
312.6689999999999827
 20
31.8958000000000013
 10
312.6970000000000027
 20
31.9494000000000007
 10
312.6970000000000027
 20
37.9842000000000013
 10
312.6689999999999827
 20
38.0364000000000004
 10
312.6139999999999759
 20
38.0653000000000006
 10
309.6850000000000023
 20
38.0653000000000006
 10
309.65300000000002
 20
38.0514999999999972
 10
309.660000000000025
 20
38.0283000000000015
 10
309.6820000000000164
 20
38.0240000000000009
 10
309.6999999999999886
 20
38.0557999999999979
 10
309.6999999999999886
 20
43.8765000000000001
 10
309.6820000000000164
 20
43.908299999999997
 10
309.660000000000025
 20
43.9040000000000035
 10
309.65300000000002
 20
43.8808000000000007
 10
309.6850000000000023
 20
43.8656999999999968
 10
312.6139999999999759
 20
43.8656999999999968
 10
312.6689999999999827
 20
43.8956000000000017
 10
312.6970000000000027
 20
43.9495999999999967
 10
312.6970000000000027
 20
49.9838999999999984
 10
312.6689999999999827
 20
50.0364999999999966
 10
312.6139999999999759
 20
50.0653999999999968
 10
309.6850000000000023
 20
50.0653999999999968
 10
309.65300000000002
 20
50.0514999999999972
 10
309.660000000000025
 20
50.028100000000002
 10
309.6820000000000164
 20
50.0240000000000009
 10
309.6999999999999886
 20
50.0555999999999983
 10
309.6999999999999886
 20
55.8763000000000005
 10
309.6820000000000164
 20
55.9080999999999975
 10
309.660000000000025
 20
55.904200000000003
 10
309.65300000000002
 20
55.8806000000000012
 10
309.6850000000000023
 20
55.8654000000000011
 10
312.6139999999999759
 20
55.8654000000000011
 10
312.6689999999999827
 20
55.8956999999999979
 10
312.6970000000000027
 20
55.9493999999999971
 10
312.6970000000000027
 20
61.9840000000000018
 10
312.6689999999999827
 20
62.0362000000000009
 10
312.6139999999999759
 20
62.065100000000001
 10
309.6850000000000023
 20
62.065100000000001
 10
309.65300000000002
 20
62.051400000000001
 10
309.660000000000025
 20
62.028100000000002
 10
309.6820000000000164
 20
62.0236999999999981
 10
309.6999999999999886
 20
62.0555999999999983
 10
309.6999999999999886
 20
67.8764000000000038
 10
309.6820000000000164
 20
67.9081999999999937
 10
309.660000000000025
 20
67.903899999999993
 10
309.65300000000002
 20
67.8807000000000045
 10
309.6850000000000023
 20
67.8656000000000006
 10
312.6139999999999759
 20
67.8656000000000006
 10
312.6689999999999827
 20
67.8957999999999942
 10
312.6970000000000027
 20
67.9493999999999971
 10
312.6970000000000027
 20
73.9842000000000013
 10
312.6689999999999827
 20
74.0375999999999976
 10
312.6139999999999759
 20
74.0666999999999973
 10
309.6850000000000023
 20
74.0666999999999973
 10
309.65300000000002
 20
74.052899999999994
 10
309.660000000000025
 20
74.0293000000000063
 10
309.6820000000000164
 20
74.0253000000000014
 10
309.6999999999999886
 20
74.0571000000000055
 10
309.6999999999999886
 20
79.876499999999993
 10
309.6820000000000164
 20
79.908299999999997
 10
309.660000000000025
 20
79.9039999999999964
 10
309.65300000000002
 20
79.8803999999999945
 10
309.6850000000000023
 20
79.8653000000000048
 10
312.6139999999999759
 20
79.8653000000000048
 10
312.6689999999999827
 20
79.8956000000000017
 10
312.6970000000000027
 20
79.9496000000000038
 10
312.6970000000000027
 20
85.9839000000000055
 10
312.6689999999999827
 20
86.0378999999999934
 10
312.6139999999999759
 20
86.0666999999999973
 10
309.6850000000000023
 20
86.0666999999999973
 10
309.65300000000002
 20
86.0525999999999982
 10
309.660000000000025
 20
86.0293000000000063
 10
309.6820000000000164
 20
86.0250999999999948
 10
309.6999999999999886
 20
86.0567999999999955
 10
309.6999999999999886
 20
91.8778999999999968
 10
309.6820000000000164
 20
91.9099999999999966
 10
309.660000000000025
 20
91.9039999999999964
 10
309.65300000000002
 20
91.8819000000000017
 10
309.6850000000000023
 20
91.8669000000000011
 10
312.6139999999999759
 20
91.8669000000000011
 10
312.6689999999999827
 20
91.8960000000000008
 10
312.6970000000000027
 20
91.9488999999999947
 10
312.6970000000000027
 20
97.9839000000000055
 10
312.6689999999999827
 20
98.0360000000000014
 10
312.6139999999999759
 20
98.0649999999999977
 10
309.6850000000000023
 20
98.0649999999999977
 10
309.65300000000002
 20
98.0510000000000019
 10
309.660000000000025
 20
98.0279000000000025
 10
309.6820000000000164
 20
98.0240000000000009
 10
309.6999999999999886
 20
98.0559999999999974
 10
309.6999999999999886
 20
106.9839999999999947
 10
309.6680000000000064
 20
107.0379999999999967
 10
309.6139999999999759
 20
107.0669999999999931
 10
300.6009999999999991
 20
107.0669999999999931
 10
300.5439999999999827
 20
107.0379999999999967
 10
300.5169999999999959
 20
106.9839999999999947
 10
300.5169999999999959
 20
104.0559999999999974
 10
300.5310000000000059
 20
104.0240000000000009
 10
300.5559999999999832
 20
104.0280000000000058
 10
300.5579999999999927
 20
104.0510000000000019
 10
300.5260000000000105
 20
104.0649999999999977
 10
294.7069999999999936
 20
104.0649999999999977
 10
294.6750000000000114
 20
104.0510000000000019
 10
294.6820000000000164
 20
104.0280000000000058
 10
294.7029999999999745
 20
104.0240000000000009
 10
294.7169999999999845
 20
104.0559999999999974
 10
294.7169999999999845
 20
106.9839999999999947
 10
294.6890000000000214
 20
107.0379999999999967
 10
294.6349999999999909
 20
107.0669999999999931
 10
288.6000000000000227
 20
107.0669999999999931
 10
288.5459999999999923
 20
107.0379999999999967
 10
288.5179999999999723
 20
106.9839999999999947
 10
288.5179999999999723
 20
104.0559999999999974
 10
288.5319999999999823
 20
104.0240000000000009
 10
288.5529999999999973
 20
104.0280000000000058
 10
288.5570000000000164
 20
104.0510000000000019
 10
288.5249999999999773
 20
104.0649999999999977
 10
282.7040000000000077
 20
104.0649999999999977
 10
282.6720000000000255
 20
104.0510000000000019
 10
282.6789999999999736
 20
104.0280000000000058
 10
282.7010000000000218
 20
104.0240000000000009
 10
282.714999999999975
 20
104.0559999999999974
 10
282.714999999999975
 20
106.9839999999999947
 10
282.6879999999999882
 20
107.0379999999999967
 10
282.6349999999999909
 20
107.0669999999999931
 10
276.6009999999999991
 20
107.0669999999999931
 10
276.5459999999999923
 20
107.0379999999999967
 10
276.5169999999999959
 20
106.9839999999999947
 10
276.5169999999999959
 20
104.0559999999999974
 10
276.5319999999999823
 20
104.0240000000000009
 10
276.5559999999999832
 20
104.0280000000000058
 10
276.5600000000000023
 20
104.0510000000000019
 10
276.52800000000002
 20
104.0649999999999977
 10
270.7069999999999936
 20
104.0649999999999977
 10
270.6750000000000114
 20
104.0510000000000019
 10
270.6779999999999973
 20
104.0280000000000058
 10
270.7029999999999745
 20
104.0240000000000009
 10
270.7169999999999845
 20
104.0559999999999974
 10
270.7169999999999845
 20
106.9839999999999947
 10
270.6890000000000214
 20
107.0379999999999967
 10
270.632000000000005
 20
107.0669999999999931
 10
264.6000000000000227
 20
107.0669999999999931
 10
264.5470000000000255
 20
107.0379999999999967
 10
264.5179999999999723
 20
106.9839999999999947
 10
264.5179999999999723
 20
104.0559999999999974
 10
264.5289999999999964
 20
104.0240000000000009
 10
264.5539999999999736
 20
104.0280000000000058
 10
264.5570000000000164
 20
104.0510000000000019
 10
264.5260000000000105
 20
104.0649999999999977
 10
258.7060000000000173
 20
104.0649999999999977
 10
258.6739999999999782
 20
104.0510000000000019
 10
258.6809999999999832
 20
104.0280000000000058
 10
258.7010000000000218
 20
104.0240000000000009
 10
258.714999999999975
 20
104.0559999999999974
 10
258.714999999999975
 20
106.9839999999999947
 10
258.6879999999999882
 20
107.0379999999999967
 10
258.6349999999999909
 20
107.0669999999999931
 10
252.5989999999999895
 20
107.0669999999999931
 10
252.5459999999999923
 20
107.0379999999999967
 10
252.5169999999999959
 20
106.9839999999999947
 10
252.5169999999999959
 20
104.0559999999999974
 10
252.5320000000000107
 20
104.0240000000000009
 10
252.5529999999999973
 20
104.0280000000000058
 10
252.5600000000000023
 20
104.0510000000000019
 10
252.5279999999999916
 20
104.0649999999999977
 10
246.7069999999999936
 20
104.0649999999999977
 10
246.6750000000000114
 20
104.0510000000000019
 10
246.679000000000002
 20
104.0280000000000058
 10
246.703000000000003
 20
104.0240000000000009
 10
246.717000000000013
 20
104.0559999999999974
 10
246.717000000000013
 20
106.9839999999999947
 10
246.688999999999993
 20
107.0379999999999967
 10
246.6330000000000098
 20
107.0669999999999931
 10
237.6189999999999998
 20
107.0669999999999931
 10
237.5670000000000073
 20
107.0379999999999967
 10
237.5349999999999966
 20
106.9839999999999947
 10
237.5349999999999966
 20
98.0559999999999974
 10
237.5490000000000066
 20
98.0240000000000009
 10
237.5740000000000123
 20
98.0279000000000025
 10
237.578000000000003
 20
98.0510000000000019
 10
237.5459999999999923
 20
98.0649999999999977
 10
234.6210000000000093
 20
98.0649999999999977
 10
234.563999999999993
 20
98.0360000000000014
 10
234.5360000000000014
 20
97.9839000000000055
 10
234.5360000000000014
 20
91.9488999999999947
 10
234.563999999999993
 20
91.8960000000000008
 10
234.6210000000000093
 20
91.8669000000000011
 10
237.5459999999999923
 20
91.8669000000000011
 10
237.578000000000003
 20
91.8819000000000017
 10
237.5740000000000123
 20
91.9039999999999964
 10
237.5490000000000066
 20
91.9099999999999966
 10
237.5349999999999966
 20
91.8778999999999968
 10
237.5349999999999966
 20
86.0567999999999955
 10
237.5490000000000066
 20
86.0250999999999948
 10
237.5740000000000123
 20
86.0293000000000063
 10
237.578000000000003
 20
86.0525999999999982
 10
237.5459999999999923
 20
86.0666999999999973
 10
234.6210000000000093
 20
86.0666999999999973
 10
234.563999999999993
 20
86.0378999999999934
 10
234.5360000000000014
 20
85.9839000000000055
 10
234.5360000000000014
 20
79.9496000000000038
 10
234.563999999999993
 20
79.8956000000000017
 10
234.6210000000000093
 20
79.8653000000000048
 10
237.5459999999999923
 20
79.8653000000000048
 10
237.578000000000003
 20
79.8803999999999945
 10
237.5740000000000123
 20
79.9039999999999964
 10
237.5490000000000066
 20
79.908299999999997
 10
237.5349999999999966
 20
79.876499999999993
 10
237.5349999999999966
 20
74.0571000000000055
 10
237.5490000000000066
 20
74.0253000000000014
 10
237.5740000000000123
 20
74.0293000000000063
 10
237.578000000000003
 20
74.052899999999994
 10
237.5459999999999923
 20
74.0666999999999973
 10
234.6210000000000093
 20
74.0666999999999973
 10
234.563999999999993
 20
74.0375999999999976
 10
234.5360000000000014
 20
73.9842000000000013
 10
234.5360000000000014
 20
67.9493999999999971
 10
234.563999999999993
 20
67.8957999999999942
 10
234.6210000000000093
 20
67.8656000000000006
 10
237.5459999999999923
 20
67.8656000000000006
 10
237.578000000000003
 20
67.8807000000000045
 10
237.5740000000000123
 20
67.903899999999993
 10
237.5490000000000066
 20
67.9081999999999937
 10
237.5349999999999966
 20
67.8764000000000038
 10
237.5349999999999966
 20
62.0555999999999983
 10
237.5490000000000066
 20
62.0236999999999981
 10
237.5740000000000123
 20
62.028100000000002
 10
237.578000000000003
 20
62.051400000000001
 10
237.5459999999999923
 20
62.065100000000001
 10
234.6210000000000093
 20
62.065100000000001
 10
234.563999999999993
 20
62.0362000000000009
 10
234.5360000000000014
 20
61.9840000000000018
 10
234.5360000000000014
 20
55.9493999999999971
 10
234.563999999999993
 20
55.8956999999999979
 10
234.6210000000000093
 20
55.8654000000000011
 10
237.5459999999999923
 20
55.8654000000000011
 10
237.578000000000003
 20
55.8806000000000012
 10
237.5740000000000123
 20
55.904200000000003
 10
237.5490000000000066
 20
55.9080999999999975
 10
237.5349999999999966
 20
55.8763000000000005
 10
237.5349999999999966
 20
50.0555999999999983
 10
237.5490000000000066
 20
50.0240000000000009
 10
237.5740000000000123
 20
50.028100000000002
 10
237.578000000000003
 20
50.0514999999999972
 10
237.5459999999999923
 20
50.0653999999999968
 10
234.6210000000000093
 20
50.0653999999999968
 10
234.563999999999993
 20
50.0364999999999966
 10
234.5360000000000014
 20
49.9838999999999984
 10
234.5360000000000014
 20
43.9495999999999967
 10
234.563999999999993
 20
43.8956000000000017
 10
234.6210000000000093
 20
43.8656999999999968
 10
237.5459999999999923
 20
43.8656999999999968
 10
237.578000000000003
 20
43.8808000000000007
 10
237.5740000000000123
 20
43.9040000000000035
 10
237.5490000000000066
 20
43.908299999999997
 10
237.5349999999999966
 20
43.8765000000000001
 10
237.5349999999999966
 20
38.0557999999999979
 10
237.5490000000000066
 20
38.0240000000000009
 10
237.5740000000000123
 20
38.0283000000000015
 10
237.578000000000003
 20
38.0514999999999972
 10
237.5459999999999923
 20
38.0653000000000006
 10
234.6210000000000093
 20
38.0653000000000006
 10
234.563999999999993
 20
38.0364000000000004
 10
234.5360000000000014
 20
37.9842000000000013
 10
234.5360000000000014
 20
31.9494000000000007
 10
234.563999999999993
 20
31.8958000000000013
 10
234.6210000000000093
 20
31.8656000000000006
 10
237.5459999999999923
 20
31.8656000000000006
 10
237.578000000000003
 20
31.8807000000000009
 10
237.5740000000000123
 20
31.9039999999999999
 10
237.5490000000000066
 20
31.9082000000000008
 10
237.5349999999999966
 20
31.8765000000000001
 10
237.5349999999999966
 20
26.0557000000000016
 10
237.5490000000000066
 20
26.0239000000000011
 10
237.5740000000000123
 20
26.0281999999999982
 10
237.578000000000003
 20
26.051400000000001
 10
237.5459999999999923
 20
26.0655999999999999
 10
234.6210000000000093
 20
26.0655999999999999
 10
234.563999999999993
 20
26.0362000000000009
 10
234.5360000000000014
 20
25.9840000000000018
 10
234.5360000000000014
 20
19.9497
 10
234.563999999999993
 20
19.8958000000000013
 10
234.6210000000000093
 20
19.8656000000000006
 10
237.5459999999999923
 20
19.8656000000000006
 10
237.578000000000003
 20
19.8807000000000009
 10
237.5740000000000123
 20
19.9041999999999994
 10
237.5490000000000066
 20
19.9082000000000008
 10
237.5349999999999966
 20
19.8765000000000001
 10
237.5349999999999966
 20
10.9497
 10
237.5670000000000073
 20
10.8957999999999995
 10
237.6189999999999998
 20
10.8655000000000008
 10
237.6380000000000052
 20
10.8655000000000008
  0
LWPOLYLINE
  5
61
100
AcDbEntity
  8
0
 62
256
370
-1
 48
1.0
  6
BYLAYER
100
AcDbPolyline
 90
422
 70
1
 10
407.3059999999999832
 20
104.0699999999999932
 10
401.3940000000000055
 20
104.0699999999999932
 10
401.3639999999999759
 20
104.054000000000002
 10
401.367999999999995
 20
104.0310000000000059
 10
401.3899999999999864
 20
104.027000000000001
 10
401.4039999999999964
 20
104.0580000000000069
 10
401.4039999999999964
 20
106.9849999999999994
 10
401.3759999999999764
 20
107.0390000000000015
 10
401.3240000000000123
 20
107.0690000000000026
 10
395.2889999999999873
 20
107.0690000000000026
 10
395.2350000000000136
 20
107.0390000000000015
 10
395.2069999999999936
 20
106.9849999999999994
 10
395.2069999999999936
 20
104.0580000000000069
 10
395.2210000000000036
 20
104.027000000000001
 10
395.242999999999995
 20
104.0310000000000059
 10
395.2490000000000236
 20
104.054000000000002
 10
395.2169999999999845
 20
104.0699999999999932
 10
389.396000000000015
 20
104.0699999999999932
 10
389.3650000000000091
 20
104.054000000000002
 10
389.3690000000000282
 20
104.0310000000000059
 10
389.3919999999999959
 20
104.027000000000001
 10
389.4060000000000059
 20
104.0580000000000069
 10
389.4060000000000059
 20
106.9849999999999994
 10
389.3779999999999859
 20
107.0390000000000015
 10
389.3240000000000123
 20
107.0690000000000026
 10
383.2889999999999873
 20
107.0690000000000026
 10
383.2350000000000136
 20
107.0390000000000015
 10
383.2060000000000173
 20
106.9849999999999994
 10
383.2060000000000173
 20
104.0580000000000069
 10
383.2189999999999941
 20
104.027000000000001
 10
383.242999999999995
 20
104.0310000000000059
 10
383.2470000000000141
 20
104.054000000000002
 10
383.214999999999975
 20
104.0699999999999932
 10
377.396000000000015
 20
104.0699999999999932
 10
377.3650000000000091
 20
104.054000000000002
 10
377.3690000000000282
 20
104.0310000000000059
 10
377.3929999999999723
 20
104.027000000000001
 10
377.4069999999999823
 20
104.0580000000000069
 10
377.4069999999999823
 20
106.9849999999999994
 10
377.3779999999999859
 20
107.0390000000000015
 10
377.3240000000000123
 20
107.0690000000000026
 10
371.2889999999999873
 20
107.0690000000000026
 10
371.23599999999999
 20
107.0390000000000015
 10
371.2060000000000173
 20
106.9849999999999994
 10
371.2060000000000173
 20
104.0580000000000069
 10
371.2210000000000036
 20
104.027000000000001
 10
371.242999999999995
 20
104.0310000000000059
 10
371.2470000000000141
 20
104.054000000000002
 10
371.2169999999999845
 20
104.0699999999999932
 10
365.3940000000000055
 20
104.0699999999999932
 10
365.3639999999999759
 20
104.054000000000002
 10
365.367999999999995
 20
104.0310000000000059
 10
365.3899999999999864
 20
104.027000000000001
 10
365.4039999999999964
 20
104.0580000000000069
 10
365.4039999999999964
 20
106.9849999999999994
 10
365.3759999999999764
 20
107.0390000000000015
 10
365.3240000000000123
 20
107.0690000000000026
 10
359.2889999999999873
 20
107.0690000000000026
 10
359.2350000000000136
 20
107.0390000000000015
 10
359.2060000000000173
 20
106.9849999999999994
 10
359.2060000000000173
 20
104.0580000000000069
 10
359.2210000000000036
 20
104.027000000000001
 10
359.242999999999995
 20
104.0310000000000059
 10
359.2470000000000141
 20
104.054000000000002
 10
359.214999999999975
 20
104.0699999999999932
 10
353.3940000000000055
 20
104.0699999999999932
 10
353.3639999999999759
 20
104.054000000000002
 10
353.367999999999995
 20
104.0310000000000059
 10
353.3899999999999864
 20
104.027000000000001
 10
353.4060000000000059
 20
104.0580000000000069
 10
353.4060000000000059
 20
106.9849999999999994
 10
353.3759999999999764
 20
107.0390000000000015
 10
353.3240000000000123
 20
107.0690000000000026
 10
347.2889999999999873
 20
107.0690000000000026
 10
347.2350000000000136
 20
107.0390000000000015
 10
347.2060000000000173
 20
106.9849999999999994
 10
347.2060000000000173
 20
104.0580000000000069
 10
347.2189999999999941
 20
104.027000000000001
 10
347.242999999999995
 20
104.0310000000000059
 10
347.2470000000000141
 20
104.054000000000002
 10
347.2169999999999845
 20
104.0699999999999932
 10
341.396000000000015
 20
104.0699999999999932
 10
341.3650000000000091
 20
104.054000000000002
 10
341.3690000000000282
 20
104.0310000000000059
 10
341.3929999999999723
 20
104.027000000000001
 10
341.4060000000000059
 20
104.0580000000000069
 10
341.4060000000000059
 20
106.9849999999999994
 10
341.3779999999999859
 20
107.0390000000000015
 10
341.3240000000000123
 20
107.0690000000000026
 10
335.2889999999999873
 20
107.0690000000000026
 10
335.23599999999999
 20
107.0390000000000015
 10
335.2060000000000173
 20
106.9849999999999994
 10
335.2060000000000173
 20
104.0580000000000069
 10
335.2210000000000036
 20
104.027000000000001
 10
335.242999999999995
 20
104.0310000000000059
 10
335.2470000000000141
 20
104.054000000000002
 10
335.2169999999999845
 20
104.0699999999999932
 10
329.396000000000015
 20
104.0699999999999932
 10
329.3639999999999759
 20
104.054000000000002
 10
329.367999999999995
 20
104.0310000000000059
 10
329.3919999999999959
 20
104.027000000000001
 10
329.4039999999999964
 20
104.0580000000000069
 10
329.4039999999999964
 20
106.9849999999999994
 10
329.3759999999999764
 20
107.0390000000000015
 10
329.3240000000000123
 20
107.0690000000000026
 10
323.2889999999999873
 20
107.0690000000000026
 10
323.2350000000000136
 20
107.0390000000000015
 10
323.2060000000000173
 20
106.9849999999999994
 10
323.2060000000000173
 20
104.0580000000000069
 10
323.2210000000000036
 20
104.027000000000001
 10
323.242999999999995
 20
104.0310000000000059
 10
323.2470000000000141
 20
104.054000000000002
 10
323.2169999999999845
 20
104.0699999999999932
 10
317.2889999999999873
 20
104.0699999999999932
 10
317.2350000000000136
 20
104.0390000000000015
 10
317.2060000000000173
 20
103.9849999999999994
 10
317.2060000000000173
 20
97.058099999999996
 10
317.2210000000000036
 20
97.0263000000000062
 10
317.242999999999995
 20
97.031800000000004
 10
317.2470000000000141
 20
97.0538999999999987
 10
317.2169999999999845
 20
97.0690000000000026
 10
314.2889999999999873
 20
97.0690000000000026
 10
314.2350000000000136
 20
97.0400999999999954
 10
314.2060000000000173
 20
96.9864000000000033
 10
314.2060000000000173
 20
90.9521000000000015
 10
314.2350000000000136
 20
90.8980999999999995
 10
314.2889999999999873
 20
90.8692000000000064
 10
317.2169999999999845
 20
90.8692000000000064
 10
317.2470000000000141
 20
90.8828000000000031
 10
317.242999999999995
 20
90.9064999999999941
 10
317.2210000000000036
 20
90.9107000000000056
 10
317.2060000000000173
 20
90.8790000000000049
 10
317.2060000000000173
 20
83.9471999999999952
 10
317.25
 20
83.8864999999999981
 10
317.257000000000005
 20
83.8825999999999965
 10
323.1990000000000123
 20
80.4513000000000034
 10
323.2080000000000268
 20
80.445999999999998
 10
323.242999999999995
 20
80.4416999999999973
 10
323.25
 20
80.4650000000000034
 10
323.2320000000000277
 20
80.4800999999999931
 10
323.2040000000000077
 20
80.459699999999998
 10
323.1990000000000123
 20
80.4513000000000034
 10
321.7470000000000141
 20
77.9403999999999968
 10
321.7400000000000091
 20
77.9281000000000006
 10
321.7370000000000232
 20
77.8632000000000062
 10
321.7740000000000009
 20
77.811000000000007
 10
321.785000000000025
 20
77.8038999999999987
 10
326.9809999999999945
 20
74.8038999999999987
 10
326.992999999999995
 20
74.7972000000000037
 10
327.0570000000000164
 20
74.792900000000003
 10
327.1100000000000136
 20
74.8289999999999935
 10
327.1170000000000186
 20
74.8412000000000006
 10
328.5670000000000073
 20
77.3519000000000005
 10
328.5720000000000027
 20
77.3601000000000028
 10
328.5760000000000218
 20
77.3947000000000003
 10
328.5529999999999973
 20
77.4031999999999982
 10
328.5369999999999777
 20
77.3850999999999942
 10
328.5579999999999927
 20
77.3562000000000012
 10
328.5670000000000073
 20
77.3519000000000005
 10
333.589999999999975
 20
74.4526000000000039
 10
333.6000000000000227
 20
74.4474000000000018
 10
333.6349999999999909
 20
74.4428999999999945
 10
333.6419999999999959
 20
74.4649000000000001
 10
333.6240000000000236
 20
74.4800999999999931
 10
333.5960000000000036
 20
74.4609999999999985
 10
333.589999999999975
 20
74.4526000000000039
 10
332.1399999999999864
 20
71.9403999999999968
 10
332.1329999999999814
 20
71.9281000000000006
 10
332.1309999999999718
 20
71.8632000000000062
 10
332.1650000000000205
 20
71.811000000000007
 10
332.1759999999999877
 20
71.8038999999999987
 10
337.3720000000000141
 20
68.8041999999999945
 10
337.3849999999999909
 20
68.7972000000000037
 10
337.4499999999999886
 20
68.792900000000003
 10
337.5029999999999859
 20
68.8275000000000006
 10
337.5099999999999909
 20
68.8399000000000001
 10
338.9580000000000268
 20
71.3519000000000005
 10
338.9639999999999986
 20
71.3606000000000051
 10
338.9680000000000177
 20
71.3947000000000003
 10
338.9460000000000264
 20
71.4030999999999949
 10
338.9289999999999736
 20
71.3850999999999942
 10
338.9499999999999886
 20
71.3560999999999979
 10
338.9580000000000268
 20
71.3519000000000005
 10
343.9820000000000277
 20
68.4525000000000006
 10
343.9920000000000186
 20
68.4471999999999952
 10
344.0260000000000105
 20
68.4428999999999945
 10
344.035000000000025
 20
68.4651000000000067
 10
344.0169999999999959
 20
68.480400000000003
 10
343.9870000000000232
 20
68.4609999999999985
 10
343.9820000000000277
 20
68.4525000000000006
 10
342.5319999999999823
 20
65.9403999999999968
 10
342.5249999999999773
 20
65.9281000000000006
 10
342.5219999999999914
 20
65.8635000000000019
 10
342.5579999999999927
 20
65.8108000000000004
 10
342.5690000000000168
 20
65.8041999999999945
 10
347.76400000000001
 20
62.8042000000000016
 10
347.7760000000000105
 20
62.7971000000000004
 10
347.8419999999999845
 20
62.792900000000003
 10
347.896000000000015
 20
62.8275000000000006
 10
347.90300000000002
 20
62.8397000000000006
 10
349.3509999999999991
 20
65.3519000000000005
 10
349.3570000000000277
 20
65.3603999999999985
 10
349.36099999999999
 20
65.394599999999997
 10
349.3380000000000223
 20
65.4030999999999949
 10
349.3240000000000123
 20
65.3850999999999942
 10
349.3439999999999941
 20
65.3560999999999979
 10
349.3509999999999991
 20
65.3519000000000005
 10
354.375
 20
62.4528000000000034
 10
354.3849999999999909
 20
62.4472000000000023
 10
354.4189999999999827
 20
62.4429000000000016
 10
354.4279999999999973
 20
62.4650999999999996
 10
354.410000000000025
 20
62.4802999999999997
 10
354.3809999999999718
 20
62.460799999999999
 10
354.375
 20
62.4528000000000034
 10
352.9239999999999782
 20
59.9406999999999996
 10
352.9169999999999732
 20
59.9279000000000011
 10
352.9150000000000205
 20
59.8633000000000024
 10
352.9499999999999886
 20
59.8108000000000004
 10
352.9610000000000127
 20
59.8042000000000016
 10
358.1569999999999823
 20
56.804000000000002
 10
358.1689999999999827
 20
56.7971000000000004
 10
358.2350000000000136
 20
56.7931999999999988
 10
358.2869999999999777
 20
56.8273999999999972
 10
358.2939999999999827
 20
56.8397000000000006
 10
359.742999999999995
 20
59.3522000000000034
 10
359.75
 20
59.3603999999999985
 10
359.7540000000000191
 20
59.3948999999999998
 10
359.7320000000000277
 20
59.403100000000002
 10
359.714999999999975
 20
59.3851000000000013
 10
359.73599999999999
 20
59.3560999999999979
 10
359.742999999999995
 20
59.3522000000000034
 10
364.7669999999999959
 20
56.4528000000000034
 10
364.7760000000000105
 20
56.4470999999999989
 10
364.8109999999999786
 20
56.4429000000000016
 10
364.8190000000000168
 20
56.4650000000000034
 10
364.8009999999999877
 20
56.4802999999999997
 10
364.7719999999999914
 20
56.460799999999999
 10
364.7669999999999959
 20
56.4528000000000034
 10
363.3170000000000073
 20
53.9406000000000034
 10
363.3100000000000023
 20
53.9283000000000001
 10
363.3070000000000164
 20
53.8633000000000024
 10
363.3430000000000177
 20
53.8111000000000033
 10
363.353999999999985
 20
53.804000000000002
 10
368.5500000000000114
 20
50.804000000000002
 10
368.5609999999999786
 20
50.7974000000000032
 10
368.6259999999999764
 20
50.7931999999999988
 10
368.6789999999999736
 20
50.8273999999999972
 10
368.6859999999999786
 20
50.8400000000000034
 10
370.1360000000000241
 20
53.3522000000000034
 10
370.1419999999999959
 20
53.3603000000000023
 10
370.146000000000015
 20
53.3948999999999998
 10
370.1240000000000236
 20
53.4029000000000025
 10
370.1080000000000041
 20
53.384999999999998
 10
370.1279999999999859
 20
53.3560999999999979
 10
370.1360000000000241
 20
53.3522000000000034
 10
375.160000000000025
 20
50.4513000000000034
 10
375.1689999999999827
 20
50.4457000000000022
 10
375.2040000000000077
 20
50.4416999999999973
 10
375.2110000000000127
 20
50.4650000000000034
 10
375.1929999999999836
 20
50.4802999999999997
 10
375.1650000000000205
 20
50.459699999999998
 10
375.160000000000025
 20
50.4513000000000034
 10
373.7080000000000268
 20
47.9406000000000034
 10
373.7010000000000218
 20
47.9283000000000001
 10
373.6990000000000123
 20
47.8631999999999991
 10
373.7350000000000136
 20
47.8109999999999999
 10
373.7459999999999809
 20
47.804000000000002
 10
378.9420000000000073
 20
44.804000000000002
 10
378.9529999999999745
 20
44.7974000000000032
 10
379.0179999999999723
 20
44.7931000000000026
 10
379.0720000000000027
 20
44.8275999999999968
 10
379.0790000000000077
 20
44.8400000000000034
 10
380.5289999999999964
 20
47.3522000000000034
 10
380.535000000000025
 20
47.3603000000000023
 10
380.5389999999999873
 20
47.3948999999999998
 10
380.5149999999999864
 20
47.4029000000000025
 10
380.5
 20
47.3853000000000009
 10
380.521000000000015
 20
47.3564000000000007
 10
380.5289999999999964
 20
47.3522000000000034
 10
385.5509999999999877
 20
44.4513000000000034
 10
385.5609999999999786
 20
44.445999999999998
 10
385.5960000000000036
 20
44.4416999999999973
 10
385.603999999999985
 20
44.4650000000000034
 10
385.5860000000000127
 20
44.4801000000000002
 10
385.5570000000000164
 20
44.4596000000000018
 10
385.5509999999999877
 20
44.4513000000000034
 10
384.1009999999999991
 20
41.9406000000000034
 10
384.0960000000000036
 20
41.9281999999999968
 10
384.0930000000000177
 20
41.8631999999999991
 10
384.1259999999999764
 20
41.8109999999999999
 10
384.1379999999999768
 20
41.8038999999999987
 10
389.3349999999999795
 20
38.8038999999999987
 10
389.34699999999998
 20
38.7971999999999966
 10
389.4110000000000014
 20
38.7931000000000026
 10
389.4639999999999986
 20
38.8290000000000006
 10
389.4710000000000036
 20
38.8414000000000001
 10
390.9209999999999923
 20
41.3521000000000001
 10
390.9259999999999877
 20
41.360599999999998
 10
390.9309999999999832
 20
41.3947000000000003
 10
390.9080000000000155
 20
41.4033000000000015
 10
390.8919999999999959
 20
41.3853000000000009
 10
390.9119999999999777
 20
41.3564000000000007
 10
390.9209999999999923
 20
41.3521000000000001
 10
395.9429999999999836
 20
38.4510999999999967
 10
395.9529999999999745
 20
38.4457999999999984
 10
395.9870000000000232
 20
38.4416999999999973
 10
395.9959999999999809
 20
38.4652999999999992
 10
395.9780000000000086
 20
38.4801000000000002
 10
395.9490000000000123
 20
38.4596000000000018
 10
395.9429999999999836
 20
38.4510999999999967
 10
394.4940000000000282
 20
35.9403999999999968
 10
394.4870000000000232
 20
35.9281000000000006
 10
394.4850000000000136
 20
35.8635999999999981
 10
394.5190000000000055
 20
35.8109999999999999
 10
394.5310000000000059
 20
35.8042999999999978
 10
399.7259999999999991
 20
32.8042999999999978
 10
399.7389999999999759
 20
32.7971999999999966
 10
399.8029999999999973
 20
32.792900000000003
 10
399.8570000000000277
 20
32.8275000000000006
 10
399.8639999999999759
 20
32.8400000000000034
 10
401.3140000000000214
 20
35.3521000000000001
 10
401.3190000000000168
 20
35.3603999999999985
 10
401.3240000000000123
 20
35.3947000000000003
 10
401.3000000000000114
 20
35.4031999999999982
 10
401.285000000000025
 20
35.3851000000000013
 10
401.3059999999999832
 20
35.3562000000000012
 10
401.3140000000000214
 20
35.3521000000000001
 10
407.2559999999999718
 20
31.9209999999999994
 10
407.2599999999999909
 20
31.918099999999999
 10
407.2939999999999827
 20
31.9085000000000001
 10
407.3179999999999836
 20
31.9085000000000001
 10
407.3530000000000086
 20
31.918099999999999
 10
407.3559999999999945
 20
31.9209999999999994
 10
407.3600000000000136
 20
31.9223999999999997
 10
407.3899999999999864
 20
31.9537000000000013
 10
407.3919999999999959
 20
31.9578999999999986
 10
407.3940000000000055
 20
31.9606999999999992
 10
407.4060000000000059
 20
31.9953000000000003
 10
407.4060000000000059
 20
40.8986999999999981
 10
407.3919999999999959
 20
40.9305999999999983
 10
407.3690000000000282
 20
40.9262000000000015
 10
407.3650000000000091
 20
40.9029000000000025
 10
407.396000000000015
 20
40.8892999999999986
 10
410.3240000000000123
 20
40.8892999999999986
 10
410.3779999999999859
 20
40.9181999999999988
 10
410.4060000000000059
 20
40.9703000000000017
 10
410.4060000000000059
 20
47.0050000000000026
 10
410.3779999999999859
 20
47.0585999999999984
 10
410.3240000000000123
 20
47.0889999999999986
 10
407.396000000000015
 20
47.0889999999999986
 10
407.3650000000000091
 20
47.0737999999999985
 10
407.3690000000000282
 20
47.0501000000000005
 10
407.3919999999999959
 20
47.0463000000000022
 10
407.4060000000000059
 20
47.0780999999999992
 10
407.4060000000000059
 20
52.8988999999999976
 10
407.3919999999999959
 20
52.9303000000000026
 10
407.3690000000000282
 20
52.926400000000001
 10
407.3650000000000091
 20
52.9027999999999992
 10
407.396000000000015
 20
52.8888999999999996
 10
410.3240000000000123
 20
52.8888999999999996
 10
410.3779999999999859
 20
52.917900000000003
 10
410.4060000000000059
 20
52.9705999999999975
 10
410.4060000000000059
 20
59.0046999999999997
 10
410.3779999999999859
 20
59.0585999999999984
 10
410.3240000000000123
 20
59.0885999999999996
 10
407.396000000000015
 20
59.0885999999999996
 10
407.3650000000000091
 20
59.073599999999999
 10
407.3690000000000282
 20
59.0503
 10
407.3919999999999959
 20
59.0459999999999994
 10
407.4060000000000059
 20
59.0778000000000034
 10
407.4060000000000059
 20
64.8986000000000018
 10
407.3919999999999959
 20
64.9304000000000059
 10
407.3690000000000282
 20
64.9261000000000053
 10
407.3650000000000091
 20
64.9029000000000025
 10
407.396000000000015
 20
64.8892000000000024
 10
410.3240000000000123
 20
64.8892000000000024
 10
410.3779999999999859
 20
64.917900000000003
 10
410.4060000000000059
 20
64.9701000000000022
 10
410.4060000000000059
 20
71.0049000000000063
 10
410.3779999999999859
 20
71.0584999999999951
 10
410.3240000000000123
 20
71.0888000000000062
 10
407.396000000000015
 20
71.0888000000000062
 10
407.3650000000000091
 20
71.073599999999999
 10
407.3690000000000282
 20
71.0503999999999962
 10
407.3919999999999959
 20
71.0460999999999956
 10
407.4060000000000059
 20
71.0778999999999996
 10
407.4060000000000059
 20
76.8987999999999943
 10
407.3919999999999959
 20
76.9305999999999983
 10
407.3690000000000282
 20
76.9261999999999944
 10
407.3650000000000091
 20
76.9030999999999949
 10
407.396000000000015
 20
76.8888000000000034
 10
410.3240000000000123
 20
76.8888000000000034
 10
410.3779999999999859
 20
76.9180999999999955
 10
410.4060000000000059
 20
76.9702999999999946
 10
410.4060000000000059
 20
83.0045999999999964
 10
410.3779999999999859
 20
83.0585999999999984
 10
410.3240000000000123
 20
83.0888999999999953
 10
407.396000000000015
 20
83.0888999999999953
 10
407.3650000000000091
 20
83.0738000000000056
 10
407.3690000000000282
 20
83.0501000000000005
 10
407.3919999999999959
 20
83.0463000000000022
 10
407.4060000000000059
 20
83.0776000000000039
 10
407.4060000000000059
 20
88.8984999999999985
 10
407.3919999999999959
 20
88.9303000000000026
 10
407.3690000000000282
 20
88.926400000000001
 10
407.3650000000000091
 20
88.9027999999999992
 10
407.396000000000015
 20
88.8889000000000067
 10
410.3240000000000123
 20
88.8889000000000067
 10
410.3779999999999859
 20
88.917900000000003
 10
410.4060000000000059
 20
88.9703999999999979
 10
410.4060000000000059
 20
95.0046999999999997
 10
410.3779999999999859
 20
95.0584999999999951
 10
410.3240000000000123
 20
95.0888000000000062
 10
407.396000000000015
 20
95.0888000000000062
 10
407.3650000000000091
 20
95.073599999999999
 10
407.3690000000000282
 20
95.0502999999999929
 10
407.3919999999999959
 20
95.0460000000000065
 10
407.4060000000000059
 20
95.0777999999999963
 10
407.4060000000000059
 20
103.9849999999999994
 10
407.3779999999999859
 20
104.0390000000000015
 10
407.3240000000000123
 20
104.0699999999999932
 10
407.3059999999999832
 20
104.0699999999999932
  0
LWPOLYLINE
  5
62
100
AcDbEntity
  8
0
 62
256
370
-1
 48
1.0
  6
BYLAYER
100
AcDbPolyline
 90
422
 70
1
 10
317.3059999999999832
 20
3.00353
 10
323.2139999999999986
 20
3.00353
 10
323.2459999999999809
 20
3.01878
 10
323.242999999999995
 20
3.0421499999999999
 10
323.2180000000000177
 20
3.0463300000000002
 10
323.2040000000000077
 20
3.0146500000000001
 10
323.2040000000000077
 20
0.0876736
 10
323.2330000000000041
 20
0.0339626
 10
323.2869999999999777
 20
0.00363499
 10
329.3220000000000027
 20
0.00363499
 10
329.3759999999999764
 20
0.0339626
 10
329.4060000000000059
 20
0.0876736
 10
329.4060000000000059
 20
3.0146500000000001
 10
329.38900000000001
 20
3.0463300000000002
 10
329.367999999999995
 20
3.0421499999999999
 10
329.36099999999999
 20
3.01878
 10
329.3929999999999723
 20
3.00353
 10
335.2139999999999986
 20
3.00353
 10
335.2459999999999809
 20
3.01878
 10
335.242999999999995
 20
3.0421499999999999
 10
335.2180000000000177
 20
3.0463300000000002
 10
335.2060000000000173
 20
3.0146500000000001
 10
335.2060000000000173
 20
0.0876736
 10
335.2330000000000041
 20
0.0339626
 10
335.2869999999999777
 20
0.00363499
 10
341.3220000000000027
 20
0.00363499
 10
341.375
 20
0.0339626
 10
341.4039999999999964
 20
0.0876736
 10
341.4039999999999964
 20
3.0146500000000001
 10
341.38900000000001
 20
3.0463300000000002
 10
341.367999999999995
 20
3.0421499999999999
 10
341.3620000000000232
 20
3.01878
 10
341.3929999999999723
 20
3.00353
 10
347.2139999999999986
 20
3.00353
 10
347.2459999999999809
 20
3.01878
 10
347.242999999999995
 20
3.0421499999999999
 10
347.2180000000000177
 20
3.0463300000000002
 10
347.2060000000000173
 20
3.0146500000000001
 10
347.2060000000000173
 20
0.0876736
 10
347.2350000000000136
 20
0.0339626
 10
347.2869999999999777
 20
0.00363499
 10
353.3210000000000264
 20
0.00363499
 10
353.375
 20
0.0339626
 10
353.4069999999999823
 20
0.0876736
 10
353.4069999999999823
 20
3.0146500000000001
 10
353.3919999999999959
 20
3.0463300000000002
 10
353.367999999999995
 20
3.0421499999999999
 10
353.3639999999999759
 20
3.01878
 10
353.3940000000000055
 20
3.00353
 10
359.2139999999999986
 20
3.00353
 10
359.2459999999999809
 20
3.01878
 10
359.242999999999995
 20
3.0421499999999999
 10
359.2180000000000177
 20
3.0463300000000002
 10
359.2040000000000077
 20
3.0146500000000001
 10
359.2040000000000077
 20
0.0876736
 10
359.2330000000000041
 20
0.0339626
 10
359.2869999999999777
 20
0.00363499
 10
365.3220000000000027
 20
0.00363499
 10
365.375
 20
0.0339626
 10
365.4069999999999823
 20
0.0876736
 10
365.4069999999999823
 20
3.0146500000000001
 10
365.3899999999999864
 20
3.0463300000000002
 10
365.367999999999995
 20
3.0421499999999999
 10
365.3639999999999759
 20
3.01878
 10
365.396000000000015
 20
3.00353
 10
371.214999999999975
 20
3.00353
 10
371.2470000000000141
 20
3.01878
 10
371.242999999999995
 20
3.0421499999999999
 10
371.2210000000000036
 20
3.0463300000000002
 10
371.2069999999999936
 20
3.0146500000000001
 10
371.2069999999999936
 20
0.0876736
 10
371.23599999999999
 20
0.0339626
 10
371.2869999999999777
 20
0.00363499
 10
377.3220000000000027
 20
0.00363499
 10
377.375
 20
0.0339626
 10
377.4039999999999964
 20
0.0876736
 10
377.4039999999999964
 20
3.0146500000000001
 10
377.38900000000001
 20
3.0463300000000002
 10
377.367999999999995
 20
3.0421499999999999
 10
377.36099999999999
 20
3.01878
 10
377.3929999999999723
 20
3.00353
 10
383.2139999999999986
 20
3.00353
 10
383.2459999999999809
 20
3.01878
 10
383.242999999999995
 20
3.0421499999999999
 10
383.2180000000000177
 20
3.0463300000000002
 10
383.2040000000000077
 20
3.0146500000000001
 10
383.2040000000000077
 20
0.0876736
 10
383.2330000000000041
 20
0.0339626
 10
383.2869999999999777
 20
0.00363499
 10
389.3210000000000264
 20
0.00363499
 10
389.375
 20
0.0339626
 10
389.4069999999999823
 20
0.0876736
 10
389.4069999999999823
 20
3.0146500000000001
 10
389.3919999999999959
 20
3.0463300000000002
 10
389.367999999999995
 20
3.0421499999999999
 10
389.3639999999999759
 20
3.01878
 10
389.3940000000000055
 20
3.00353
 10
395.2139999999999986
 20
3.00353
 10
395.2459999999999809
 20
3.01878
 10
395.242999999999995
 20
3.0421499999999999
 10
395.2180000000000177
 20
3.0463300000000002
 10
395.2040000000000077
 20
3.0146500000000001
 10
395.2040000000000077
 20
0.0876736
 10
395.2330000000000041
 20
0.0339626
 10
395.2869999999999777
 20
0.00363499
 10
401.3210000000000264
 20
0.00363499
 10
401.375
 20
0.0339626
 10
401.4060000000000059
 20
0.0876736
 10
401.4060000000000059
 20
3.0146500000000001
 10
401.3899999999999864
 20
3.0463300000000002
 10
401.367999999999995
 20
3.0421499999999999
 10
401.3639999999999759
 20
3.01878
 10
401.3940000000000055
 20
3.00353
 10
407.3210000000000264
 20
3.00353
 10
407.375
 20
3.03396
 10
407.4060000000000059
 20
3.0876800000000002
 10
407.4060000000000059
 20
10.0151000000000003
 10
407.3899999999999864
 20
10.0467999999999993
 10
407.367999999999995
 20
10.0412999999999997
 10
407.3639999999999759
 20
10.0191999999999997
 10
407.396000000000015
 20
10.0040999999999993
 10
410.3220000000000027
 20
10.0040999999999993
 10
410.375
 20
10.0329999999999995
 10
410.4060000000000059
 20
10.0867000000000004
 10
410.4060000000000059
 20
16.1210999999999984
 10
410.375
 20
16.1751000000000005
 10
410.3220000000000027
 20
16.2040000000000006
 10
407.396000000000015
 20
16.2040000000000006
 10
407.3639999999999759
 20
16.1903000000000006
 10
407.367999999999995
 20
16.1664999999999992
 10
407.3899999999999864
 20
16.1624000000000017
 10
407.4060000000000059
 20
16.1939999999999991
 10
407.4060000000000059
 20
23.1258000000000017
 10
407.36099999999999
 20
23.1864999999999988
 10
407.3559999999999945
 20
23.1904000000000003
 10
401.4119999999999777
 20
26.6219000000000001
 10
401.4039999999999964
 20
26.6271999999999984
 10
401.367999999999995
 20
26.6313999999999993
 10
401.36099999999999
 20
26.6081000000000003
 10
401.3790000000000191
 20
26.5930999999999997
 10
401.4069999999999823
 20
26.6132999999999988
 10
401.4119999999999777
 20
26.6219000000000001
 10
402.8620000000000232
 20
29.1326000000000001
 10
402.8690000000000282
 20
29.1449999999999996
 10
402.8720000000000141
 20
29.2099000000000011
 10
402.8380000000000223
 20
29.2621000000000002
 10
402.8260000000000218
 20
29.2692000000000014
 10
397.6309999999999718
 20
32.2691999999999979
 10
397.617999999999995
 20
32.2757999999999967
 10
397.5529999999999973
 20
32.2800999999999974
 10
397.5
 20
32.2439999999999998
 10
397.492999999999995
 20
32.2317999999999998
 10
396.0439999999999827
 20
29.7210999999999999
 10
396.0389999999999873
 20
29.7129000000000012
 10
396.035000000000025
 20
29.6783000000000001
 10
396.0570000000000164
 20
29.6698999999999984
 10
396.0720000000000027
 20
29.6878999999999991
 10
396.0529999999999973
 20
29.7167999999999992
 10
396.0439999999999827
 20
29.7210999999999999
 10
391.021000000000015
 20
32.6206000000000031
 10
391.0110000000000241
 20
32.6257999999999981
 10
390.9780000000000086
 20
32.6300999999999988
 10
390.9680000000000177
 20
32.6081999999999965
 10
390.98599999999999
 20
32.5930999999999997
 10
391.0149999999999864
 20
32.6120999999999981
 10
391.021000000000015
 20
32.6206000000000031
 10
392.4710000000000036
 20
35.1325999999999965
 10
392.4780000000000086
 20
35.1450000000000031
 10
392.4809999999999945
 20
35.2098999999999975
 10
392.4460000000000264
 20
35.2620999999999967
 10
392.4359999999999786
 20
35.2691999999999979
 10
387.2389999999999759
 20
38.2689000000000021
 10
387.2259999999999991
 20
38.2760000000000034
 10
387.1610000000000014
 20
38.2802999999999969
 10
387.1080000000000041
 20
38.2456000000000031
 10
387.1009999999999991
 20
38.2331999999999965
 10
385.6499999999999773
 20
35.7210999999999999
 10
385.646000000000015
 20
35.7126000000000019
 10
385.6419999999999959
 20
35.6783000000000001
 10
385.6639999999999873
 20
35.6700000000000017
 10
385.6789999999999736
 20
35.6878999999999991
 10
385.660000000000025
 20
35.7169000000000025
 10
385.6499999999999773
 20
35.7210999999999999
 10
380.6290000000000191
 20
38.6206000000000031
 10
380.6190000000000282
 20
38.6259999999999977
 10
380.5860000000000127
 20
38.6300999999999988
 10
380.5760000000000218
 20
38.6079000000000008
 10
380.5939999999999941
 20
38.5927999999999969
 10
380.6240000000000236
 20
38.6120999999999981
 10
380.6290000000000191
 20
38.6206000000000031
 10
382.0790000000000077
 20
41.1325999999999965
 10
382.0860000000000127
 20
41.1450999999999993
 10
382.0889999999999986
 20
41.2096000000000018
 10
382.0529999999999973
 20
41.2622
 10
382.0419999999999732
 20
41.2689000000000021
 10
376.8460000000000036
 20
44.2689000000000021
 10
376.8319999999999936
 20
44.2760999999999996
 10
376.7690000000000055
 20
44.2802999999999969
 10
376.714999999999975
 20
44.2456000000000031
 10
376.7080000000000268
 20
44.2332999999999998
 10
375.2599999999999909
 20
41.7212000000000032
 10
375.2540000000000191
 20
41.7128000000000014
 10
375.25
 20
41.6784999999999997
 10
375.2719999999999914
 20
41.6700000000000017
 10
375.2889999999999873
 20
41.6880999999999986
 10
375.2679999999999723
 20
41.7169000000000025
 10
375.2599999999999909
 20
41.7212000000000032
 10
370.23599999999999
 20
44.6203000000000003
 10
370.2259999999999991
 20
44.6259999999999977
 10
370.1929999999999836
 20
44.6302999999999983
 10
370.1829999999999927
 20
44.6079000000000008
 10
370.2010000000000218
 20
44.5927999999999969
 10
370.2309999999999945
 20
44.6122000000000014
 10
370.23599999999999
 20
44.6203000000000003
 10
371.6859999999999786
 20
47.1325000000000003
 10
371.6929999999999836
 20
47.1450999999999993
 10
371.6960000000000264
 20
47.209699999999998
 10
371.6610000000000014
 20
47.2622
 10
371.6499999999999773
 20
47.2689000000000021
 10
366.4529999999999745
 20
50.2689999999999984
 10
366.4420000000000073
 20
50.2760999999999996
 10
366.3759999999999764
 20
50.2800000000000011
 10
366.3240000000000123
 20
50.2456999999999994
 10
366.3170000000000073
 20
50.2332999999999998
 10
364.867999999999995
 20
47.720799999999997
 10
364.86099999999999
 20
47.7128000000000014
 10
364.8570000000000277
 20
47.6781999999999968
 10
364.8790000000000191
 20
47.6700000000000017
 10
364.896000000000015
 20
47.6880999999999986
 10
364.875
 20
47.7171000000000021
 10
364.867999999999995
 20
47.720799999999997
 10
359.8439999999999941
 20
50.6203000000000003
 10
359.8349999999999795
 20
50.6259999999999977
 10
359.8000000000000114
 20
50.6302999999999983
 10
359.7919999999999732
 20
50.6081000000000003
 10
359.8100000000000023
 20
50.5927999999999969
 10
359.8389999999999986
 20
50.6122000000000014
 10
359.8439999999999941
 20
50.6203000000000003
 10
361.2939999999999827
 20
53.1325000000000003
 10
361.3009999999999877
 20
53.1448999999999998
 10
361.3029999999999973
 20
53.209699999999998
 10
361.2679999999999723
 20
53.2618999999999971
 10
361.257000000000005
 20
53.2689999999999984
 10
356.0609999999999786
 20
56.2689999999999984
 10
356.0500000000000114
 20
56.2757000000000005
 10
355.9850000000000136
 20
56.2800000000000011
 10
355.9320000000000164
 20
56.2456999999999994
 10
355.9250000000000114
 20
56.2331000000000003
 10
354.4750000000000227
 20
53.7209999999999965
 10
354.4680000000000177
 20
53.7128000000000014
 10
354.4639999999999986
 20
53.6781999999999968
 10
354.4870000000000232
 20
53.6700999999999979
 10
354.5029999999999859
 20
53.6882000000000019
 10
354.4820000000000277
 20
53.7171000000000021
 10
354.4750000000000227
 20
53.7209999999999965
 10
349.4510000000000218
 20
56.6218000000000004
 10
349.4420000000000073
 20
56.6274999999999977
 10
349.4069999999999823
 20
56.6313999999999993
 10
349.3999999999999773
 20
56.6081000000000003
 10
349.4180000000000064
 20
56.5927999999999969
 10
349.4460000000000264
 20
56.6133000000000024
 10
349.4510000000000218
 20
56.6218000000000004
 10
350.90300000000002
 20
59.1325000000000003
 10
350.910000000000025
 20
59.1448999999999998
 10
350.9110000000000014
 20
59.2098999999999975
 10
350.8759999999999764
 20
59.2620999999999967
 10
350.8650000000000091
 20
59.2689999999999984
 10
345.6680000000000064
 20
62.2689999999999984
 10
345.6569999999999823
 20
62.2757999999999967
 10
345.5930000000000177
 20
62.2800000000000011
 10
345.5389999999999873
 20
62.2453999999999965
 10
345.5319999999999823
 20
62.2331999999999965
 10
344.0819999999999936
 20
59.7209999999999965
 10
344.0760000000000218
 20
59.7128000000000014
 10
344.0720000000000027
 20
59.6781999999999968
 10
344.0960000000000036
 20
59.6700999999999979
 10
344.11099999999999
 20
59.6878000000000029
 10
344.089999999999975
 20
59.7167999999999992
 10
344.0819999999999936
 20
59.7209999999999965
 10
339.0600000000000023
 20
62.6218000000000004
 10
339.0500000000000114
 20
62.627200000000002
 10
339.0149999999999864
 20
62.6313999999999993
 10
339.007000000000005
 20
62.6081999999999965
 10
339.0249999999999773
 20
62.5929000000000002
 10
339.0529999999999973
 20
62.6135000000000019
 10
339.0600000000000023
 20
62.6218000000000004
 10
340.5099999999999909
 20
65.1324999999999932
 10
340.5169999999999959
 20
65.144999999999996
 10
340.5179999999999723
 20
65.2099000000000046
 10
340.4850000000000136
 20
65.2621000000000038
 10
340.4739999999999895
 20
65.2691999999999979
 10
335.2760000000000105
 20
68.2691999999999979
 10
335.26400000000001
 20
68.2758000000000038
 10
335.1999999999999886
 20
68.2800000000000011
 10
335.1469999999999914
 20
68.2439999999999998
 10
335.1399999999999864
 20
68.2318000000000069
 10
333.6899999999999977
 20
65.7210000000000036
 10
333.6850000000000023
 20
65.7125000000000057
 10
333.6820000000000164
 20
65.678299999999993
 10
333.7029999999999745
 20
65.6698999999999984
 10
333.7180000000000177
 20
65.6877999999999957
 10
333.6990000000000123
 20
65.7168000000000063
 10
333.6899999999999977
 20
65.7210000000000036
 10
328.6680000000000064
 20
68.6218999999999966
 10
328.6569999999999823
 20
68.627200000000002
 10
328.6240000000000236
 20
68.6313999999999993
 10
328.6150000000000091
 20
68.6079000000000008
 10
328.6329999999999814
 20
68.5929000000000002
 10
328.6619999999999777
 20
68.6135000000000019
 10
328.6680000000000064
 20
68.6218999999999966
 10
330.117999999999995
 20
71.1325999999999965
 10
330.125
 20
71.144999999999996
 10
330.1259999999999764
 20
71.2095999999999947
 10
330.0919999999999845
 20
71.2622000000000071
 10
330.0810000000000173
 20
71.2689000000000021
 10
324.8849999999999909
 20
74.2689000000000021
 10
324.8720000000000141
 20
74.2758000000000038
 10
324.8070000000000164
 20
74.2801000000000045
 10
324.7540000000000191
 20
74.245599999999996
 10
324.7459999999999809
 20
74.2331999999999965
 10
323.2970000000000255
 20
71.721100000000007
 10
323.2919999999999732
 20
71.7125999999999948
 10
323.2869999999999777
 20
71.678299999999993
 10
323.3109999999999786
 20
71.6700000000000017
 10
323.3260000000000218
 20
71.6878999999999991
 10
323.3059999999999832
 20
71.7168000000000063
 10
323.2970000000000255
 20
71.721100000000007
 10
317.3559999999999945
 20
75.1521999999999935
 10
317.3509999999999991
 20
75.1550000000000011
 10
317.3170000000000073
 20
75.164599999999993
 10
317.2930000000000064
 20
75.164599999999993
 10
317.257000000000005
 20
75.1550000000000011
 10
317.2540000000000191
 20
75.1521999999999935
 10
317.25
 20
75.1508000000000038
 10
317.2210000000000036
 20
75.1192999999999955
 10
317.2189999999999941
 20
75.1150999999999982
 10
317.2169999999999845
 20
75.1123999999999938
 10
317.2060000000000173
 20
75.0777999999999963
 10
317.2060000000000173
 20
66.1743000000000023
 10
317.2189999999999941
 20
66.1424999999999983
 10
317.242999999999995
 20
66.1467999999999989
 10
317.2459999999999809
 20
66.170100000000005
 10
317.2139999999999986
 20
66.1838999999999942
 10
314.2869999999999777
 20
66.1838999999999942
 10
314.2350000000000136
 20
66.1550000000000011
 10
314.2060000000000173
 20
66.102800000000002
 10
314.2060000000000173
 20
60.0681999999999974
 10
314.2350000000000136
 20
60.014400000000002
 10
314.2869999999999777
 20
59.9842000000000013
 10
317.2139999999999986
 20
59.9842000000000013
 10
317.2459999999999809
 20
59.9992999999999981
 10
317.242999999999995
 20
60.0228999999999999
 10
317.2189999999999941
 20
60.0268000000000015
 10
317.2060000000000173
 20
59.9949999999999974
 10
317.2060000000000173
 20
54.174199999999999
 10
317.2189999999999941
 20
54.1428999999999974
 10
317.242999999999995
 20
54.1467999999999989
 10
317.2459999999999809
 20
54.1704000000000008
 10
317.2139999999999986
 20
54.184199999999997
 10
314.2869999999999777
 20
54.184199999999997
 10
314.2350000000000136
 20
54.1552999999999969
 10
314.2060000000000173
 20
54.1026000000000025
 10
314.2060000000000173
 20
48.0683000000000007
 10
314.2350000000000136
 20
48.014400000000002
 10
314.2869999999999777
 20
47.9844000000000008
 10
317.2139999999999986
 20
47.9844000000000008
 10
317.2459999999999809
 20
47.9994000000000014
 10
317.242999999999995
 20
48.0227999999999966
 10
317.2189999999999941
 20
48.0270999999999972
 10
317.2060000000000173
 20
47.9953000000000003
 10
317.2060000000000173
 20
42.1745999999999981
 10
317.2189999999999941
 20
42.1426000000000016
 10
317.242999999999995
 20
42.1471000000000018
 10
317.2459999999999809
 20
42.1700999999999979
 10
317.2139999999999986
 20
42.1839999999999975
 10
314.2869999999999777
 20
42.1839999999999975
 10
314.2350000000000136
 20
42.1550999999999974
 10
314.2060000000000173
 20
42.1028999999999982
 10
314.2060000000000173
 20
36.0681999999999974
 10
314.2350000000000136
 20
36.0146000000000015
 10
314.2869999999999777
 20
35.9842999999999975
 10
317.2139999999999986
 20
35.9842999999999975
 10
317.2459999999999809
 20
35.9994000000000014
 10
317.242999999999995
 20
36.0225999999999971
 10
317.2189999999999941
 20
36.0270999999999972
 10
317.2060000000000173
 20
35.9953000000000003
 10
317.2060000000000173
 20
30.1742999999999988
 10
317.2189999999999941
 20
30.1426000000000016
 10
317.242999999999995
 20
30.1468999999999987
 10
317.2459999999999809
 20
30.1701000000000015
 10
317.2139999999999986
 20
30.1843000000000004
 10
314.2869999999999777
 20
30.1843000000000004
 10
314.2350000000000136
 20
30.1550000000000011
 10
314.2060000000000173
 20
30.1027999999999984
 10
314.2060000000000173
 20
24.0685000000000002
 10
314.2350000000000136
 20
24.0143999999999984
 10
314.2869999999999777
 20
23.9842000000000013
 10
317.2139999999999986
 20
23.9842000000000013
 10
317.2459999999999809
 20
23.9994000000000014
 10
317.242999999999995
 20
24.0230999999999995
 10
317.2189999999999941
 20
24.0269000000000013
 10
317.2060000000000173
 20
23.9955999999999996
 10
317.2060000000000173
 20
18.1746000000000016
 10
317.2189999999999941
 20
18.1429000000000009
 10
317.242999999999995
 20
18.1467999999999989
 10
317.2459999999999809
 20
18.1704000000000008
 10
317.2139999999999986
 20
18.1842000000000006
 10
314.2869999999999777
 20
18.1842000000000006
 10
314.2350000000000136
 20
18.1551000000000009
 10
314.2060000000000173
 20
18.1025999999999989
 10
314.2060000000000173
 20
12.0684000000000005
 10
314.2350000000000136
 20
12.0146999999999995
 10
314.2869999999999777
 20
11.9842999999999993
 10
317.2139999999999986
 20
11.9842999999999993
 10
317.2459999999999809
 20
11.9994999999999994
 10
317.242999999999995
 20
12.0228000000000002
 10
317.2189999999999941
 20
12.0271000000000008
 10
317.2060000000000173
 20
11.9954000000000001
 10
317.2060000000000173
 20
3.0876800000000002
 10
317.2350000000000136
 20
3.03396
 10
317.2869999999999777
 20
3.00353
 10
317.3059999999999832
 20
3.00353
  0
LINE
  5
63
100
AcDbEntity
  8
0
 62
256
370
-1
 48
1.0
  6
BYLAYER
100
AcDbLine
 10
281.7170000000000414
 20
50.9653000000000063
 30
0.0
 11
281.7170000000000414
 21
66.9652999999999992
 31
0.0
  0
LINE
  5
64
100
AcDbEntity
  8
0
 62
256
370
-1
 48
1.0
  6
BYLAYER
100
AcDbLine
 10
281.7170000000000414
 20
66.9652999999999992
 30
0.0
 11
294.7169999999999845
 21
66.9652999999999992
 31
0.0
  0
LINE
  5
65
100
AcDbEntity
  8
0
 62
256
370
-1
 48
1.0
  6
BYLAYER
100
AcDbLine
 10
294.7169999999999845
 20
66.9652999999999992
 30
0.0
 11
294.7169999999999845
 21
50.9653000000000063
 31
0.0
  0
LINE
  5
66
100
AcDbEntity
  8
0
 62
256
370
-1
 48
1.0
  6
BYLAYER
100
AcDbLine
 10
294.7169999999999845
 20
50.9653000000000063
 30
0.0
 11
281.7170000000000414
 21
50.9653000000000063
 31
0.0
  0
ENDSEC
  0
SECTION
  2
OBJECTS
  0
DICTIONARY
  5
C
100
AcDbDictionary
280
0
281
1
  3
ACAD_GROUP
350
D
  3
ACAD_LAYOUT
350
1A
  3
ACAD_MLINESTYLE
350
17
  3
ACAD_PLOTSETTINGS
350
19
  3
ACAD_PLOTSTYLENAME
350
E
  3
AcDbVariableDictionary
350
67
  3
QCAD_OBJECTS
350
68
  0
DICTIONARY
  5
D
100
AcDbDictionary
280
0
281
1
  0
ACDBDICTIONARYWDFLT
  5
E
100
AcDbDictionary
281
1
  3
Normal
350
F
100
AcDbDictionaryWithDefault
340
F
  0
ACDBPLACEHOLDER
  5
F
  0
DICTIONARY
  5
17
100
AcDbDictionary
280
0
281
1
  3
Standard
350
18
  0
MLINESTYLE
  5
18
100
AcDbMlineStyle
  2
STANDARD
 70
0
  3

 62
256
 51
90.0
 52
90.0
 71
2
 49
0.5
 62
256
  6
BYLAYER
 49
-0.5
 62
256
  6
BYLAYER
  0
DICTIONARY
  5
19
100
AcDbDictionary
280
0
281
1
  0
DICTIONARY
  5
1A
100
AcDbDictionary
281
1
  3
Layout1
350
1E
  3
Layout2
350
26
  3
Model
350
22
  0
LAYOUT
  5
1E
100
AcDbPlotSettings
  1

  2
none_device
  4

  6

 40
0.0
 41
0.0
 42
0.0
 43
0.0
 44
0.0
 45
0.0
 46
0.0
 47
0.0
 48
0.0
 49
0.0
140
0.0
141
0.0
142
1.0
143
1.0
 70
688
 72
0
 73
0
 74
5
  7

 75
16
147
1.0
148
0.0
149
0.0
100
AcDbLayout
  1
Layout1
 70
1
 71
1
 10
0.0
 20
0.0
 11
420.0
 21
297.0
 12
0.0
 22
0.0
 32
0.0
 14
100000000000000000000.0
 24
100000000000000000000.0
 34
100000000000000000000.0
 15
-100000000000000000000.0
 25
-100000000000000000000.0
 35
-100000000000000000000.0
146
0.0
 13
0.0
 23
0.0
 33
0.0
 16
1.0
 26
0.0
 36
0.0
 17
0.0
 27
1.0
 37
0.0
 76
0
330
1B
  0
LAYOUT
  5
22
100
AcDbPlotSettings
  1

  2
none_device
  4

  6

 40
0.0
 41
0.0
 42
0.0
 43
0.0
 44
0.0
 45
0.0
 46
0.0
 47
0.0
 48
0.0
 49
0.0
140
0.0
141
0.0
142
1.0
143
1.0
 70
1712
 72
0
 73
0
 74
0
  7

 75
0
147
1.0
148
0.0
149
0.0
100
AcDbLayout
  1
Model
 70
1
 71
0
 10
0.0
 20
0.0
 11
12.0
 21
9.0
 12
0.0
 22
0.0
 32
0.0
 14
0.0
 24
0.0
 34
0.0
 15
0.0
 25
0.0
 35
0.0
146
0.0
 13
0.0
 23
0.0
 33
0.0
 16
1.0
 26
0.0
 36
0.0
 17
0.0
 27
1.0
 37
0.0
 76
0
330
1F
  0
LAYOUT
  5
26
100
AcDbPlotSettings
  1

  2
none_device
  4

  6

 40
0.0
 41
0.0
 42
0.0
 43
0.0
 44
0.0
 45
0.0
 46
0.0
 47
0.0
 48
0.0
 49
0.0
140
0.0
141
0.0
142
1.0
143
1.0
 70
688
 72
0
 73
0
 74
5
  7

 75
16
147
1.0
148
0.0
149
0.0
100
AcDbLayout
  1
Layout2
 70
1
 71
2
 10
0.0
 20
0.0
 11
12.0
 21
9.0
 12
0.0
 22
0.0
 32
0.0
 14
0.0
 24
0.0
 34
0.0
 15
0.0
 25
0.0
 35
0.0
146
0.0
 13
0.0
 23
0.0
 33
0.0
 16
1.0
 26
0.0
 36
0.0
 17
0.0
 27
1.0
 37
0.0
 76
0
330
23
  0
DICTIONARY
  5
67
100
AcDbDictionary
281
1
  3
DIMASSOC
350
6A
  3
HIDETEXT
350
69
  0
DICTIONARYVAR
  5
69
100
DictionaryVariables
280
0
  1
2
  0
DICTIONARYVAR
  5
6A
100
DictionaryVariables
280
0
  1
1
  0
DICTIONARY
  5
68
100
AcDbDictionary
281
1
  3
ColorSettings/BackgroundColor
350
6B
  3
ColorSettings/ColorMode
350
6C
  3
Grid/DisplayGrid00
350
6D
  3
Grid/DisplayGrid01
350
6E
  3
Grid/DisplayGrid02
350
6F
  3
Grid/DisplayGrid03
350
70
  3
Grid/GridSpacingX00
350
71
  3
Grid/GridSpacingX01
350
72
  3
Grid/GridSpacingX02
350
73
  3
Grid/GridSpacingX03
350
74
  3
Grid/GridSpacingY00
350
75
  3
Grid/GridSpacingY01
350
76
  3
Grid/GridSpacingY02
350
77
  3
Grid/GridSpacingY03
350
78
  3
Grid/IsometricGrid00
350
79
  3
Grid/IsometricGrid01
350
7A
  3
Grid/IsometricGrid02
350
7B
  3
Grid/IsometricGrid03
350
7C
  3
Grid/IsometricProjection00
350
7D
  3
Grid/IsometricProjection01
350
7E
  3
Grid/IsometricProjection02
350
7F
  3
Grid/IsometricProjection03
350
80
  3
Grid/MetaGridSpacingX00
350
81
  3
Grid/MetaGridSpacingX01
350
82
  3
Grid/MetaGridSpacingX02
350
83
  3
Grid/MetaGridSpacingX03
350
84
  3
Grid/MetaGridSpacingY00
350
85
  3
Grid/MetaGridSpacingY01
350
86
  3
Grid/MetaGridSpacingY02
350
87
  3
Grid/MetaGridSpacingY03
350
88
  3
MultiPageSettings/Columns
350
89
  3
MultiPageSettings/GlueMarginsBottom
350
8A
  3
MultiPageSettings/GlueMarginsLeft
350
8B
  3
MultiPageSettings/GlueMarginsRight
350
8C
  3
MultiPageSettings/GlueMarginsTop
350
8D
  3
MultiPageSettings/PrintCropMarks
350
8E
  3
MultiPageSettings/Rows
350
8F
  3
PageSettings/OffsetX
350
90
  3
PageSettings/OffsetY
350
91
  3
PageSettings/PageOrientation
350
92
  3
PageSettings/PaperHeight
350
93
  3
PageSettings/PaperWidth
350
94
  3
PageSettings/Scale
350
95
  3
PageSettings/ShowPaperBorders
350
96
  3
PageTagSettings/EnablePageTags
350
97
  3
PageTagSettings/TagAlignment
350
98
  3
PageTagSettings/TagFont
350
99
  3
PageTagSettings/TagPosition
350
9A
  3
QCADVersion
350
9B
  3
UnitSettings/PaperUnit
350
9C
  3
ViewportCenter
350
9D
  3
ViewportHeight
350
9E
  3
ViewportWidth
350
9F
  0
XRECORD
  5
6B
330
68
100
AcDbXrecord
280
1
1000
Blanc
  0
XRECORD
  5
6C
330
68
100
AcDbXrecord
280
1
1000
FullColor
  0
XRECORD
  5
6D
330
68
100
AcDbXrecord
280
1
290
1
  0
XRECORD
  5
6E
330
68
100
AcDbXrecord
280
1
290
1
  0
XRECORD
  5
6F
330
68
100
AcDbXrecord
280
1
290
1
  0
XRECORD
  5
70
330
68
100
AcDbXrecord
280
1
290
1
  0
XRECORD
  5
71
330
68
100
AcDbXrecord
280
1
1000
auto
  0
XRECORD
  5
72
330
68
100
AcDbXrecord
280
1
1000
auto
  0
XRECORD
  5
73
330
68
100
AcDbXrecord
280
1
1000
auto
  0
XRECORD
  5
74
330
68
100
AcDbXrecord
280
1
1000
auto
  0
XRECORD
  5
75
330
68
100
AcDbXrecord
280
1
1000
auto
  0
XRECORD
  5
76
330
68
100
AcDbXrecord
280
1
1000
auto
  0
XRECORD
  5
77
330
68
100
AcDbXrecord
280
1
1000
auto
  0
XRECORD
  5
78
330
68
100
AcDbXrecord
280
1
1000
auto
  0
XRECORD
  5
79
330
68
100
AcDbXrecord
280
1
290
0
  0
XRECORD
  5
7A
330
68
100
AcDbXrecord
280
1
290
0
  0
XRECORD
  5
7B
330
68
100
AcDbXrecord
280
1
290
0
  0
XRECORD
  5
7C
330
68
100
AcDbXrecord
280
1
290
0
  0
XRECORD
  5
7D
330
68
100
AcDbXrecord
280
1
 90
65537
  0
XRECORD
  5
7E
330
68
100
AcDbXrecord
280
1
 90
65537
  0
XRECORD
  5
7F
330
68
100
AcDbXrecord
280
1
 90
65537
  0
XRECORD
  5
80
330
68
100
AcDbXrecord
280
1
 90
65537
  0
XRECORD
  5
81
330
68
100
AcDbXrecord
280
1
1000
auto
  0
XRECORD
  5
82
330
68
100
AcDbXrecord
280
1
1000
auto
  0
XRECORD
  5
83
330
68
100
AcDbXrecord
280
1
1000
auto
  0
XRECORD
  5
84
330
68
100
AcDbXrecord
280
1
1000
auto
  0
XRECORD
  5
85
330
68
100
AcDbXrecord
280
1
1000
auto
  0
XRECORD
  5
86
330
68
100
AcDbXrecord
280
1
1000
auto
  0
XRECORD
  5
87
330
68
100
AcDbXrecord
280
1
1000
auto
  0
XRECORD
  5
88
330
68
100
AcDbXrecord
280
1
1000
auto
  0
XRECORD
  5
89
330
68
100
AcDbXrecord
280
1
 90
1
  0
XRECORD
  5
8A
330
68
100
AcDbXrecord
280
1
 40
10.0
  0
XRECORD
  5
8B
330
68
100
AcDbXrecord
280
1
 40
10.0
  0
XRECORD
  5
8C
330
68
100
AcDbXrecord
280
1
 40
10.0
  0
XRECORD
  5
8D
330
68
100
AcDbXrecord
280
1
 40
10.0
  0
XRECORD
  5
8E
330
68
100
AcDbXrecord
280
1
290
0
  0
XRECORD
  5
8F
330
68
100
AcDbXrecord
280
1
 90
1
  0
XRECORD
  5
90
330
68
100
AcDbXrecord
280
1
 40
0.0
  0
XRECORD
  5
91
330
68
100
AcDbXrecord
280
1
 40
0.0
  0
XRECORD
  5
92
330
68
100
AcDbXrecord
280
1
1000
Landscape
  0
XRECORD
  5
93
330
68
100
AcDbXrecord
280
1
 40
297.0
  0
XRECORD
  5
94
330
68
100
AcDbXrecord
280
1
 40
210.0
  0
XRECORD
  5
95
330
68
100
AcDbXrecord
280
1
1000
1:1
  0
XRECORD
  5
96
330
68
100
AcDbXrecord
280
1
290
1
  0
XRECORD
  5
97
330
68
100
AcDbXrecord
280
1
290
0
  0
XRECORD
  5
98
330
68
100
AcDbXrecord
280
1
1000
Inside
  0
XRECORD
  5
99
330
68
100
AcDbXrecord
280
1
1000
Arial,10,-1,5,50,0,0,0,0,0
  0
XRECORD
  5
9A
330
68
100
AcDbXrecord
280
1
1000
TopLeft
  0
XRECORD
  5
9B
330
68
100
AcDbXrecord
280
1
1000
3.24.3.8
  0
XRECORD
  5
9C
330
68
100
AcDbXrecord
280
1
 90
4
  0
XRECORD
  5
9E
330
68
100
AcDbXrecord
280
1
 40
321.516575302031697
  0
XRECORD
  5
9F
330
68
100
AcDbXrecord
280
1
 40
620.5917252138544882
  0
ENDSEC
  0
EOF
