  0
SECTION
  2
HEADER
  9
$ACADVER
  1
AC1014
  9
$HANDSEED
  5
FFFF
  9
$INSUNITS
 70
     0
  9
$MEASUREMENT
 70
     1
  0
ENDSEC
  0
SECTION
  2
TABLES
  0
TABLE
  2
VPORT
  5
8
330
0
100
AcDbSymbolTable
 70
     4
  0
VPORT
  5
2E
330
8
100
AcDbSymbolTableRecord
100
AcDbViewportTableRecord
  2
*ACTIVE
 70
     0
 10
0.0
 20
0.0
 11
1.0
 21
1.0
 12
210.0
 22
148.5
 13
0.0
 23
0.0
 14
10.0
 24
10.0
 15
10.0
 25
10.0
 16
0.0
 26
0.0
 36
1.0
 17
0.0
 27
0.0
 37
0.0
 40
341.0
 41
1.24
 42
50.0
 43
0.0
 44
0.0
 50
0.0
 51
0.0
 71
     0
 72
   100
 73
     1
 74
     3
 75
     0
 76
     0
 77
     0
 78
     0
  0
ENDTAB
  0
TABLE
  2
LTYPE
  5
5
330
0
100
AcDbSymbolTable
 70
     1
  0
LTYPE
  5
14
330
5
100
AcDbSymbolTableRecord
100
AcDbLinetypeTableRecord
  2
BYBLOCK
 70
     0
  3

 72
    65
 73
     0
 40
0.0
  0
LTYPE
  5
15
330
5
100
AcDbSymbolTableRecord
100
AcDbLinetypeTableRecord
  2
BYLAYER
 70
     0
  3

 72
    65
 73
     0
 40
0.0
  0
LTYPE
  5
16
330
5
100
AcDbSymbolTableRecord
100
AcDbLinetypeTableRecord
  2
CONTINUOUS
 70
     0
  3
Solid line
 72
    65
 73
     0
 40
0.0
  0
ENDTAB
  0
TABLE
  2
LAYER
  5
2
100
AcDbSymbolTable
 70
3
  0
LAYER
  5
50
100
AcDbSymbolTableRecord
100
AcDbLayerTableRecord
  2
0
 70
0
  6
CONTINUOUS
  0
LAYER
  5
51
100
AcDbSymbolTableRecord
100
AcDbLayerTableRecord
  2
Layer_1
 70
0
  6
CONTINUOUS
  0
LAYER
  5
52
100
AcDbSymbolTableRecord
100
AcDbLayerTableRecord
  2
Layer_2
 70
0
  6
CONTINUOUS
  0
ENDTAB
  0
TABLE
  2
STYLE
  5
3
330
0
100
AcDbSymbolTable
 70
     1
  0
STYLE
  5
11
330
3
100
AcDbSymbolTableRecord
100
AcDbTextStyleTableRecord
  2
STANDARD
 70
     0
 40
0.0
 41
1.0
 50
0.0
 71
     0
 42
2.5
  3
txt
  4

  0
ENDTAB
  0
TABLE
  2
VIEW
  5
6
330
0
100
AcDbSymbolTable
 70
     0
  0
ENDTAB
  0
TABLE
  2
UCS
  5
7
330
0
100
AcDbSymbolTable
 70
     0
  0
ENDTAB
  0
TABLE
  2
APPID
  5
9
330
0
100
AcDbSymbolTable
 70
     2
  0
APPID
  5
12
330
9
100
AcDbSymbolTableRecord
100
AcDbRegAppTableRecord
  2
ACAD
 70
     0
  0
ENDTAB
  0
TABLE
  2
DIMSTYLE
  5
A
330
0
100
AcDbSymbolTable
 70
     1
  0
DIMSTYLE
105
27
330
A
100
AcDbSymbolTableRecord
100
AcDbDimStyleTableRecord
  2
ISO-25
 70
     0
  3

  4

  5

  6

  7

 40
1.0
 41
2.5
 42
0.625
 43
3.75
 44
1.25
 45
0.0
 46
0.0
 47
0.0
 48
0.0
140
2.5
141
2.5
142
0.0
143
0.03937007874016
144
1.0
145
0.0
146
1.0
147
0.625
 71
     0
 72
     0
 73
     0
 74
     0
 75
     0
 76
     0
 77
     1
 78
     8
170
     0
171
     3
172
     1
173
     0
174
     0
175
     0
176
     0
177
     0
178
     0
270
     2
271
     2
272
     2
273
     2
274
     3
340
11
275
     0
280
     0
281
     0
282
     0
283
     0
284
     8
285
     0
286
     0
287
     3
288
     0
  0
ENDTAB
  0
TABLE
  2
BLOCK_RECORD
  5
1
330
0
100
AcDbSymbolTable
 70
     1
  0
BLOCK_RECORD
  5
1F
330
1
100
AcDbSymbolTableRecord
100
AcDbBlockTableRecord
  2
*MODEL_SPACE
  0
BLOCK_RECORD
  5
1B
330
1
100
AcDbSymbolTableRecord
100
AcDbBlockTableRecord
  2
*PAPER_SPACE
  0
ENDTAB
  0
ENDSEC
  0
SECTION
  2
BLOCKS
  0
BLOCK
  5
20
330
1F
100
AcDbEntity
  8
0
100
AcDbBlockBegin
  2
*MODEL_SPACE
 70
     0
 10
0.0
 20
0.0
 30
0.0
  3
*MODEL_SPACE
  1

  0
ENDBLK
  5
21
330
1F
100
AcDbEntity
  8
0
100
AcDbBlockEnd
  0
BLOCK
  5
1C
330
1B
100
AcDbEntity
 67
     1
  8
0
100
AcDbBlockBegin
  2
*PAPER_SPACE
  1

  0
ENDBLK
  5
1D
330
1B
100
AcDbEntity
 67
     1
  8
0
100
AcDbBlockEnd
  0
ENDSEC
  0
SECTION
  2
ENTITIES
  0
SPLINE
  5
100
100
AcDbEntity
  8
Layer_1
 62
7
100
AcDbSpline
 70
8
 71
3
 72
8
 73
4
 74
0
 40
0
 40
0
 40
0
 40
0
 40
1
 40
1
 40
1
 40
1
 10
687.843920
 20
32.861240
 30
0.0
 10
687.843920
 20
37.134940
 30
0.0
 10
684.854820
 20
42.134170
 30
0.0
 10
679.701120
 20
46.479840
 30
0.0
  0
SPLINE
  5
101
100
AcDbEntity
  8
Layer_1
 62
7
100
AcDbSpline
 70
8
 71
3
 72
8
 73
4
 74
0
 40
0
 40
0
 40
0
 40
0
 40
1
 40
1
 40
1
 40
1
 10
679.347120
 20
65.916990
 30
0.0
 10
691.580120
 20
64.240270
 30
0.0
 10
700.136020
 20
54.810510
 30
0.0
 10
703.401020
 20
39.406350
 30
0.0
  0
SPLINE
  5
102
100
AcDbEntity
  8
Layer_1
 62
7
100
AcDbSpline
 70
8
 71
3
 72
8
 73
4
 74
0
 40
0
 40
0
 40
0
 40
0
 40
1
 40
1
 40
1
 40
1
 10
703.401020
 20
39.406350
 30
0.0
 10
705.469320
 20
29.648290
 30
0.0
 10
705.943220
 20
30.262370
 30
0.0
 10
696.343920
 20
30.262370
 30
0.0
  0
SPLINE
  5
103
100
AcDbEntity
  8
Layer_1
 62
7
100
AcDbSpline
 70
8
 71
3
 72
8
 73
4
 74
0
 40
0
 40
0
 40
0
 40
0
 40
1
 40
1
 40
1
 40
1
 10
696.343920
 20
30.262370
 30
0.0
 10
687.857720
 20
30.262370
 30
0.0
 10
687.843920
 20
30.266370
 30
0.0
 10
687.843920
 20
32.861240
 30
0.0
  0
LWPOLYLINE
  5
104
100
AcDbEntity
  8
Layer_1
 62
7
100
AcDbPolyline
 90
5
 70
0
 10
679.701120
 20
46.479840
 30
0.0
 10
674.843920
 20
50.575440
 30
0.0
 10
674.843920
 20
58.554830
 30
0.0
 10
674.843920
 20
66.534220
 30
0.0
 10
679.347120
 20
65.916990
 30
0.0
  0
SPLINE
  5
105
100
AcDbEntity
  8
Layer_1
 62
7
100
AcDbSpline
 70
8
 71
3
 72
8
 73
4
 74
0
 40
0
 40
0
 40
0
 40
0
 40
1
 40
1
 40
1
 40
1
 10
674.843920
 20
-40.819780
 30
0.0
 10
674.843920
 20
-32.976410
 30
0.0
 10
675.093020
 20
-31.600350
 30
0.0
 10
676.593920
 20
-31.151380
 30
0.0
  0
SPLINE
  5
106
100
AcDbEntity
  8
Layer_1
 62
7
100
AcDbSpline
 70
8
 71
3
 72
8
 73
4
 74
0
 40
0
 40
0
 40
0
 40
0
 40
1
 40
1
 40
1
 40
1
 10
676.593920
 20
-31.151380
 30
0.0
 10
681.188120
 20
-29.777160
 30
0.0
 10
683.526020
 20
-27.858790
 30
0.0
 10
685.593920
 20
-23.766430
 30
0.0
  0
SPLINE
  5
107
100
AcDbEntity
  8
Layer_1
 62
7
100
AcDbSpline
 70
8
 71
3
 72
8
 73
4
 74
0
 40
0
 40
0
 40
0
 40
0
 40
1
 40
1
 40
1
 40
1
 10
685.593920
 20
-23.766430
 30
0.0
 10
687.440120
 20
-20.113070
 30
0.0
 10
687.843920
 20
-17.667580
 30
0.0
 10
687.843920
 20
-10.142370
 30
0.0
  0
SPLINE
  5
108
100
AcDbEntity
  8
Layer_1
 62
7
100
AcDbSpline
 70
8
 71
3
 72
8
 73
4
 74
0
 40
0
 40
0
 40
0
 40
0
 40
1
 40
1
 40
1
 40
1
 10
687.843920
 20
-10.142370
 30
0.0
 10
687.843920
 20
0.329380
 30
0.0
 10
687.943920
 20
0.223100
 30
0.0
 10
678.093920
 20
0.248720
 30
0.0
  0
LWPOLYLINE
  5
109
100
AcDbEntity
  8
Layer_1
 62
7
100
AcDbPolyline
 90
1
 70
1
 10
687.843920
 20
32.861240
 30
0.0
  0
SPLINE
  5
10a
100
AcDbEntity
  8
Layer_1
 62
7
100
AcDbSpline
 70
8
 71
3
 72
8
 73
4
 74
0
 40
0
 40
0
 40
0
 40
0
 40
1
 40
1
 40
1
 40
1
 10
704.826920
 20
-0.487680
 30
0.0
 10
704.801920
 20
-23.311000
 30
0.0
 10
702.003820
 20
-34.511500
 30
0.0
 10
694.437420
 20
-42.077930
 30
0.0
  0
SPLINE
  5
10b
100
AcDbEntity
  8
Layer_1
 62
7
100
AcDbSpline
 70
8
 71
3
 72
8
 73
4
 74
0
 40
0
 40
0
 40
0
 40
0
 40
1
 40
1
 40
1
 40
1
 10
694.437420
 20
-42.077930
 30
0.0
 10
690.286020
 20
-46.229350
 30
0.0
 10
685.966720
 20
-48.296860
 30
0.0
 10
679.382520
 20
-49.284200
 30
0.0
  0
LWPOLYLINE
  5
10c
100
AcDbEntity
  8
Layer_1
 62
7
100
AcDbPolyline
 90
7
 70
0
 10
678.093920
 20
0.248720
 30
0.0
 10
672.843920
 20
0.262320
 30
0.0
 10
672.843920
 20
7.762320
 30
0.0
 10
672.843920
 20
15.262320
 30
0.0
 10
688.843920
 20
15.262320
 30
0.0
 10
704.843920
 20
15.262320
 30
0.0
 10
704.826920
 20
-0.487680
 30
0.0
  0
SPLINE
  5
10d
100
AcDbEntity
  8
Layer_1
 62
7
100
AcDbSpline
 70
8
 71
3
 72
8
 73
4
 74
0
 40
0
 40
0
 40
0
 40
0
 40
1
 40
1
 40
1
 40
1
 10
659.992020
 20
-47.836560
 30
0.0
 10
657.048520
 20
-46.813230
 30
0.0
 10
653.448520
 20
-45.091170
 30
0.0
 10
651.992020
 20
-44.009770
 30
0.0
  0
SPLINE
  5
10e
100
AcDbEntity
  8
Layer_1
 62
7
100
AcDbSpline
 70
8
 71
3
 72
8
 73
4
 74
0
 40
0
 40
0
 40
0
 40
0
 40
1
 40
1
 40
1
 40
1
 10
651.992020
 20
-44.009770
 30
0.0
 10
647.965620
 20
-41.020200
 30
0.0
 10
644.134520
 20
-32.379970
 30
0.0
 10
641.673020
 20
-20.737620
 30
0.0
  0
SPLINE
  5
10f
100
AcDbEntity
  8
Layer_1
 62
7
100
AcDbSpline
 70
8
 71
3
 72
8
 73
4
 74
0
 40
0
 40
0
 40
0
 40
0
 40
1
 40
1
 40
1
 40
1
 10
641.673020
 20
-20.737620
 30
0.0
 10
639.770220
 20
-11.738300
 30
0.0
 10
639.445220
 20
-7.021910
 30
0.0
 10
639.398420
 20
12.262370
 30
0.0
  0
SPLINE
  5
110
100
AcDbEntity
  8
Layer_1
 62
7
100
AcDbSpline
 70
8
 71
3
 72
8
 73
4
 74
0
 40
0
 40
0
 40
0
 40
0
 40
1
 40
1
 40
1
 40
1
 10
639.398420
 20
12.262370
 30
0.0
 10
639.340420
 20
36.421560
 30
0.0
 10
640.185020
 20
43.015770
 30
0.0
 10
644.411720
 20
51.382110
 30
0.0
  0
SPLINE
  5
111
100
AcDbEntity
  8
Layer_1
 62
7
100
AcDbSpline
 70
8
 71
3
 72
8
 73
4
 74
0
 40
0
 40
0
 40
0
 40
0
 40
1
 40
1
 40
1
 40
1
 10
644.411720
 20
51.382110
 30
0.0
 10
645.695320
 20
53.922970
 30
0.0
 10
648.230220
 20
57.255290
 30
0.0
 10
650.044820
 20
58.787280
 30
0.0
  0
SPLINE
  5
112
100
AcDbEntity
  8
Layer_1
 62
7
100
AcDbSpline
 70
8
 71
3
 72
8
 73
4
 74
0
 40
0
 40
0
 40
0
 40
0
 40
1
 40
1
 40
1
 40
1
 10
650.044820
 20
58.787280
 30
0.0
 10
654.313520
 20
62.391280
 30
0.0
 10
662.587920
 20
66.240150
 30
0.0
 10
666.093920
 20
66.252600
 30
0.0
  0
LWPOLYLINE
  5
113
100
AcDbEntity
  8
Layer_1
 62
7
100
AcDbPolyline
 90
4
 70
0
 10
679.382520
 20
-49.284200
 30
0.0
 10
674.844320
 20
-49.964760
 30
0.0
 10
674.844320
 20
-40.819830
 30
0.0
 10
674.843920
 20
-40.819780
 30
0.0
  0
SPLINE
  5
114
100
AcDbEntity
  8
Layer_1
 62
7
100
AcDbSpline
 70
8
 71
3
 72
8
 73
4
 74
0
 40
0
 40
0
 40
0
 40
0
 40
1
 40
1
 40
1
 40
1
 10
665.312820
 20
47.243390
 30
0.0
 10
658.109620
 20
42.791550
 30
0.0
 10
655.830120
 20
32.826600
 30
0.0
 10
655.864820
 20
5.940240
 30
0.0
  0
SPLINE
  5
115
100
AcDbEntity
  8
Layer_1
 62
7
100
AcDbSpline
 70
8
 71
3
 72
8
 73
4
 74
0
 40
0
 40
0
 40
0
 40
0
 40
1
 40
1
 40
1
 40
1
 10
655.864820
 20
5.940240
 30
0.0
 10
655.895820
 20
-17.779400
 30
0.0
 10
657.963220
 20
-25.515140
 30
0.0
 10
665.454720
 20
-29.935250
 30
0.0
  0
LWPOLYLINE
  5
116
100
AcDbEntity
  8
Layer_1
 62
7
100
AcDbPolyline
 90
5
 70
0
 10
666.093920
 20
66.252600
 30
0.0
 10
668.843920
 20
66.262600
 30
0.0
 10
668.843920
 20
57.844160
 30
0.0
 10
668.843920
 20
49.425720
 30
0.0
 10
665.312820
 20
47.243390
 30
0.0
  0
SPLINE
  5
117
100
AcDbEntity
  8
Layer_1
 62
7
100
AcDbSpline
 70
8
 71
3
 72
8
 73
4
 74
0
 40
0
 40
0
 40
0
 40
0
 40
1
 40
1
 40
1
 40
1
 10
668.631120
 20
-40.596850
 30
0.0
 10
668.299720
 20
-50.543390
 30
0.0
 10
668.146920
 20
-50.671390
 30
0.0
 10
659.992020
 20
-47.836330
 30
0.0
  0
LWPOLYLINE
  5
118
100
AcDbEntity
  8
Layer_1
 62
7
100
AcDbPolyline
 90
3
 70
0
 10
665.454720
 20
-29.935250
 30
0.0
 10
668.918320
 20
-31.978810
 30
0.0
 10
668.631120
 20
-40.596850
 30
0.0
  0
SPLINE
  5
119
100
AcDbEntity
  8
Layer_1
 62
7
100
AcDbSpline
 70
8
 71
3
 72
8
 73
4
 74
0
 40
0
 40
0
 40
0
 40
0
 40
1
 40
1
 40
1
 40
1
 10
597.334520
 20
-25.465330
 30
0.0
 10
589.504590
 20
-4.409480
 30
0.0
 10
588.031760
 20
-1.195790
 30
0.0
 10
586.084520
 20
-0.918080
 30
0.0
  0
SPLINE
  5
11a
100
AcDbEntity
  8
Layer_1
 62
7
100
AcDbSpline
 70
8
 71
3
 72
8
 73
4
 74
0
 40
0
 40
0
 40
0
 40
0
 40
1
 40
1
 40
1
 40
1
 10
586.084520
 20
-0.918080
 30
0.0
 10
583.986170
 20
-0.618810
 30
0.0
 10
583.843830
 20
-0.111020
 30
0.0
 10
583.842130
 20
7.081920
 30
0.0
  0
LWPOLYLINE
  5
11b
100
AcDbEntity
  8
Layer_1
 62
7
100
AcDbPolyline
 90
2
 70
0
 10
659.992020
 20
-47.836330
 30
0.0
 10
659.992020
 20
-47.836560
 30
0.0
  0
SPLINE
  5
11c
100
AcDbEntity
  8
Layer_1
 62
7
100
AcDbSpline
 70
8
 71
3
 72
8
 73
4
 74
0
 40
0
 40
0
 40
0
 40
0
 40
1
 40
1
 40
1
 40
1
 10
589.591950
 20
14.472110
 30
0.0
 10
596.076630
 20
14.144860
 30
0.0
 10
600.412790
 20
16.149400
 30
0.0
 10
603.539440
 20
20.919820
 30
0.0
  0
SPLINE
  5
11d
100
AcDbEntity
  8
Layer_1
 62
7
100
AcDbSpline
 70
8
 71
3
 72
8
 73
4
 74
0
 40
0
 40
0
 40
0
 40
0
 40
1
 40
1
 40
1
 40
1
 10
603.539440
 20
20.919820
 30
0.0
 10
606.063840
 20
24.771380
 30
0.0
 10
606.050460
 20
37.341960
 30
0.0
 10
603.516540
 20
42.435020
 30
0.0
  0
SPLINE
  5
11e
100
AcDbEntity
  8
Layer_1
 62
7
100
AcDbSpline
 70
8
 71
3
 72
8
 73
4
 74
0
 40
0
 40
0
 40
0
 40
0
 40
1
 40
1
 40
1
 40
1
 10
603.516540
 20
42.435020
 30
0.0
 10
601.318140
 20
46.853690
 30
0.0
 10
600.396670
 20
47.265590
 30
0.0
 10
591.093780
 20
47.988030
 30
0.0
  0
LWPOLYLINE
  5
11f
100
AcDbEntity
  8
Layer_1
 62
7
100
AcDbPolyline
 90
3
 70
0
 10
583.842130
 20
7.081920
 30
0.0
 10
583.840130
 20
14.762370
 30
0.0
 10
589.591950
 20
14.472110
 30
0.0
  0
SPLINE
  5
120
100
AcDbEntity
  8
Layer_1
 62
7
100
AcDbSpline
 70
8
 71
3
 72
8
 73
4
 74
0
 40
0
 40
0
 40
0
 40
0
 40
1
 40
1
 40
1
 40
1
 10
583.843780
 20
56.371520
 30
0.0
 10
583.843950
 20
65.766180
 30
0.0
 10
584.386750
 20
66.262370
 30
0.0
 10
594.664020
 20
66.262370
 30
0.0
  0
SPLINE
  5
121
100
AcDbEntity
  8
Layer_1
 62
7
100
AcDbSpline
 70
8
 71
3
 72
8
 73
4
 74
0
 40
0
 40
0
 40
0
 40
0
 40
1
 40
1
 40
1
 40
1
 10
594.664020
 20
66.262370
 30
0.0
 10
607.074920
 20
66.262370
 30
0.0
 10
615.928120
 20
59.598910
 30
0.0
 10
620.861220
 20
46.544680
 30
0.0
  0
SPLINE
  5
122
100
AcDbEntity
  8
Layer_1
 62
7
100
AcDbSpline
 70
8
 71
3
 72
8
 73
4
 74
0
 40
0
 40
0
 40
0
 40
0
 40
1
 40
1
 40
1
 40
1
 10
620.861220
 20
46.544680
 30
0.0
 10
623.732620
 20
38.945980
 30
0.0
 10
623.985320
 20
26.087690
 30
0.0
 10
621.416820
 20
18.262370
 30
0.0
  0
SPLINE
  5
123
100
AcDbEntity
  8
Layer_1
 62
7
100
AcDbSpline
 70
8
 71
3
 72
8
 73
4
 74
0
 40
0
 40
0
 40
0
 40
0
 40
1
 40
1
 40
1
 40
1
 10
621.416820
 20
18.262370
 30
0.0
 10
619.653320
 20
12.889590
 30
0.0
 10
614.275120
 20
3.295330
 30
0.0
 10
612.989720
 20
3.229100
 30
0.0
  0
SPLINE
  5
124
100
AcDbEntity
  8
Layer_1
 62
7
100
AcDbSpline
 70
8
 71
3
 72
8
 73
4
 74
0
 40
0
 40
0
 40
0
 40
0
 40
1
 40
1
 40
1
 40
1
 10
612.989720
 20
3.229100
 30
0.0
 10
612.634520
 20
3.210800
 30
0.0
 10
611.341720
 20
2.359470
 30
0.0
 10
610.116720
 20
1.337260
 30
0.0
  0
LWPOLYLINE
  5
125
100
AcDbEntity
  8
Layer_1
 62
7
100
AcDbPolyline
 90
3
 70
0
 10
591.093780
 20
47.988030
 30
0.0
 10
583.843780
 20
48.551050
 30
0.0
 10
583.843780
 20
56.371520
 30
0.0
  0
SPLINE
  5
126
100
AcDbEntity
  8
Layer_1
 62
7
100
AcDbSpline
 70
8
 71
3
 72
8
 73
4
 74
0
 40
0
 40
0
 40
0
 40
0
 40
1
 40
1
 40
1
 40
1
 10
610.257220
 20
-7.379470
 30
0.0
 10
611.559420
 20
-11.151460
 30
0.0
 10
615.599120
 20
-21.719770
 30
0.0
 10
619.234420
 20
-30.864610
 30
0.0
  0
SPLINE
  5
127
100
AcDbEntity
  8
Layer_1
 62
7
100
AcDbSpline
 70
8
 71
3
 72
8
 73
4
 74
0
 40
0
 40
0
 40
0
 40
0
 40
1
 40
1
 40
1
 40
1
 10
619.234420
 20
-30.864610
 30
0.0
 10
622.869620
 20
-40.009460
 30
0.0
 10
625.843920
 20
-47.996960
 30
0.0
 10
625.843920
 20
-48.614610
 30
0.0
  0
SPLINE
  5
128
100
AcDbEntity
  8
Layer_1
 62
7
100
AcDbSpline
 70
8
 71
3
 72
8
 73
4
 74
0
 40
0
 40
0
 40
0
 40
0
 40
1
 40
1
 40
1
 40
1
 10
625.843920
 20
-48.614610
 30
0.0
 10
625.843920
 20
-49.370030
 30
0.0
 10
622.652520
 20
-49.730330
 30
0.0
 10
616.093920
 20
-49.715330
 30
0.0
  0
LWPOLYLINE
  5
129
100
AcDbEntity
  8
Layer_1
 62
7
100
AcDbPolyline
 90
3
 70
0
 10
610.116720
 20
1.337260
 30
0.0
 10
607.889520
 20
-0.521310
 30
0.0
 10
610.257220
 20
-7.379470
 30
0.0
  0
SPLINE
  5
12a
100
AcDbEntity
  8
Layer_1
 62
7
100
AcDbSpline
 70
8
 71
3
 72
8
 73
4
 74
0
 40
0
 40
0
 40
0
 40
0
 40
1
 40
1
 40
1
 40
1
 10
560.843950
 20
-1.391250
 30
0.0
 10
560.843950
 20
25.199250
 30
0.0
 10
561.136330
 20
51.074250
 30
0.0
 10
561.493690
 20
56.108750
 30
0.0
  0
LWPOLYLINE
  5
12b
100
AcDbEntity
  8
Layer_1
 62
7
100
AcDbPolyline
 90
4
 70
0
 10
616.093920
 20
-49.715330
 30
0.0
 10
606.343920
 20
-49.693030
 30
0.0
 10
597.334520
 20
-25.465310
 30
0.0
 10
597.334520
 20
-25.465330
 30
0.0
  0
LWPOLYLINE
  5
12c
100
AcDbEntity
  8
Layer_1
 62
7
100
AcDbPolyline
 90
9
 70
0
 10
561.493690
 20
56.108750
 30
0.0
 10
562.143440
 20
65.262370
 30
0.0
 10
569.993690
 20
65.262370
 30
0.0
 10
577.843950
 20
65.262370
 30
0.0
 10
577.843950
 20
7.762370
 30
0.0
 10
577.843950
 20
-49.737620
 30
0.0
 10
569.343950
 20
-49.737620
 30
0.0
 10
560.843950
 20
-49.737620
 30
0.0
 10
560.843950
 20
-1.391250
 30
0.0
  0
SPLINE
  5
12d
100
AcDbEntity
  8
Layer_1
 62
7
100
AcDbSpline
 70
8
 71
3
 72
8
 73
4
 74
0
 40
0
 40
0
 40
0
 40
0
 40
1
 40
1
 40
1
 40
1
 10
522.929030
 20
-29.549010
 30
0.0
 10
525.175820
 20
-27.743440
 30
0.0
 10
527.609250
 20
-24.841760
 30
0.0
 10
528.336650
 20
-23.100840
 30
0.0
  0
SPLINE
  5
12e
100
AcDbEntity
  8
Layer_1
 62
7
100
AcDbSpline
 70
8
 71
3
 72
8
 73
4
 74
0
 40
0
 40
0
 40
0
 40
0
 40
1
 40
1
 40
1
 40
1
 10
528.336650
 20
-23.100840
 30
0.0
 10
533.058750
 20
-11.799290
 30
0.0
 10
533.028360
 20
31.203720
 30
0.0
 10
528.291850
 20
40.363210
 30
0.0
  0
SPLINE
  5
12f
100
AcDbEntity
  8
Layer_1
 62
7
100
AcDbSpline
 70
8
 71
3
 72
8
 73
4
 74
0
 40
0
 40
0
 40
0
 40
0
 40
1
 40
1
 40
1
 40
1
 10
528.291850
 20
40.363210
 30
0.0
 10
527.528650
 20
41.839090
 30
0.0
 10
525.090660
 20
44.482980
 30
0.0
 10
522.874100
 20
46.238530
 30
0.0
  0
LWPOLYLINE
  5
130
100
AcDbEntity
  8
Layer_1
 62
7
100
AcDbPolyline
 90
3
 70
0
 10
518.843950
 20
-41.414800
 30
0.0
 10
518.843950
 20
-32.831870
 30
0.0
 10
522.929030
 20
-29.549010
 30
0.0
  0
SPLINE
  5
131
100
AcDbEntity
  8
Layer_1
 62
7
100
AcDbSpline
 70
8
 71
3
 72
8
 73
4
 74
0
 40
0
 40
0
 40
0
 40
0
 40
1
 40
1
 40
1
 40
1
 10
518.844000
 20
57.846400
 30
0.0
 10
518.843950
 20
65.763560
 30
0.0
 10
518.970030
 20
66.262370
 30
0.0
 10
520.971240
 20
66.262370
 30
0.0
  0
SPLINE
  5
132
100
AcDbEntity
  8
Layer_1
 62
7
100
AcDbSpline
 70
8
 71
3
 72
8
 73
4
 74
0
 40
0
 40
0
 40
0
 40
0
 40
1
 40
1
 40
1
 40
1
 10
520.971240
 20
66.262370
 30
0.0
 10
522.141240
 20
66.262370
 30
0.0
 10
526.029190
 20
64.819610
 30
0.0
 10
529.611110
 20
63.056230
 30
0.0
  0
SPLINE
  5
133
100
AcDbEntity
  8
Layer_1
 62
7
100
AcDbSpline
 70
8
 71
3
 72
8
 73
4
 74
0
 40
0
 40
0
 40
0
 40
0
 40
1
 40
1
 40
1
 40
1
 10
529.611110
 20
63.056230
 30
0.0
 10
543.574100
 20
56.182270
 30
0.0
 10
549.285100
 20
40.755390
 30
0.0
 10
549.155280
 20
10.262370
 30
0.0
  0
SPLINE
  5
134
100
AcDbEntity
  8
Layer_1
 62
7
100
AcDbSpline
 70
8
 71
3
 72
8
 73
4
 74
0
 40
0
 40
0
 40
0
 40
0
 40
1
 40
1
 40
1
 40
1
 10
549.155280
 20
10.262370
 30
0.0
 10
549.056580
 20
-12.917970
 30
0.0
 10
545.020520
 20
-29.796940
 30
0.0
 10
537.101070
 20
-40.148650
 30
0.0
  0
SPLINE
  5
135
100
AcDbEntity
  8
Layer_1
 62
7
100
AcDbSpline
 70
8
 71
3
 72
8
 73
4
 74
0
 40
0
 40
0
 40
0
 40
0
 40
1
 40
1
 40
1
 40
1
 10
537.101070
 20
-40.148650
 30
0.0
 10
532.062310
 20
-46.734940
 30
0.0
 10
528.957880
 20
-48.857740
 30
0.0
 10
523.458190
 20
-49.477630
 30
0.0
  0
LWPOLYLINE
  5
136
100
AcDbEntity
  8
Layer_1
 62
7
100
AcDbPolyline
 90
3
 70
0
 10
522.874100
 20
46.238530
 30
0.0
 10
518.844000
 20
49.430430
 30
0.0
 10
518.844000
 20
57.846400
 30
0.0
  0
SPLINE
  5
137
100
AcDbEntity
  8
Layer_1
 62
7
100
AcDbSpline
 70
8
 71
3
 72
8
 73
4
 74
0
 40
0
 40
0
 40
0
 40
0
 40
1
 40
1
 40
1
 40
1
 10
503.168180
 20
-48.100080
 30
0.0
 10
500.871500
 20
-47.286280
 30
0.0
 10
496.959270
 20
-44.830800
 30
0.0
 10
494.474330
 20
-42.643470
 30
0.0
  0
SPLINE
  5
138
100
AcDbEntity
  8
Layer_1
 62
7
100
AcDbSpline
 70
8
 71
3
 72
8
 73
4
 74
0
 40
0
 40
0
 40
0
 40
0
 40
1
 40
1
 40
1
 40
1
 10
494.474330
 20
-42.643470
 30
0.0
 10
485.061750
 20
-34.358180
 30
0.0
 10
481.466770
 20
-20.571720
 30
0.0
 10
481.460830
 20
7.262370
 30
0.0
  0
SPLINE
  5
139
100
AcDbEntity
  8
Layer_1
 62
7
100
AcDbSpline
 70
8
 71
3
 72
8
 73
4
 74
0
 40
0
 40
0
 40
0
 40
0
 40
1
 40
1
 40
1
 40
1
 10
481.460830
 20
7.262370
 30
0.0
 10
481.454830
 20
35.095470
 30
0.0
 10
484.627600
 20
49.153210
 30
0.0
 10
492.739890
 20
57.237870
 30
0.0
  0
SPLINE
  5
13a
100
AcDbEntity
  8
Layer_1
 62
7
100
AcDbSpline
 70
8
 71
3
 72
8
 73
4
 74
0
 40
0
 40
0
 40
0
 40
0
 40
1
 40
1
 40
1
 40
1
 10
492.739890
 20
57.237870
 30
0.0
 10
497.664610
 20
62.145810
 30
0.0
 10
505.233640
 20
66.262370
 30
0.0
 10
509.333050
 20
66.262370
 30
0.0
  0
SPLINE
  5
13b
100
AcDbEntity
  8
Layer_1
 62
7
100
AcDbSpline
 70
8
 71
3
 72
8
 73
4
 74
0
 40
0
 40
0
 40
0
 40
0
 40
1
 40
1
 40
1
 40
1
 10
509.333050
 20
66.262370
 30
0.0
 10
511.816990
 20
66.262370
 30
0.0
 10
511.843950
 20
66.171270
 30
0.0
 10
511.843950
 20
57.776560
 30
0.0
  0
LWPOLYLINE
  5
13c
100
AcDbEntity
  8
Layer_1
 62
7
100
AcDbPolyline
 90
3
 70
0
 10
523.458190
 20
-49.477630
 30
0.0
 10
518.843950
 20
-49.997720
 30
0.0
 10
518.843950
 20
-41.414800
 30
0.0
  0
SPLINE
  5
13d
100
AcDbEntity
  8
Layer_1
 62
7
100
AcDbSpline
 70
8
 71
3
 72
8
 73
4
 74
0
 40
0
 40
0
 40
0
 40
0
 40
1
 40
1
 40
1
 40
1
 10
508.021970
 20
46.761480
 30
0.0
 10
500.789680
 20
41.975380
 30
0.0
 10
498.779540
 20
33.410070
 30
0.0
 10
498.796030
 20
7.449340
 30
0.0
  0
SPLINE
  5
13e
100
AcDbEntity
  8
Layer_1
 62
7
100
AcDbSpline
 70
8
 71
3
 72
8
 73
4
 74
0
 40
0
 40
0
 40
0
 40
0
 40
1
 40
1
 40
1
 40
1
 10
498.796030
 20
7.449340
 30
0.0
 10
498.811230
 20
-16.472750
 30
0.0
 10
500.561810
 20
-24.264340
 30
0.0
 10
506.942000
 20
-28.807440
 30
0.0
  0
SPLINE
  5
13f
100
AcDbEntity
  8
Layer_1
 62
7
100
AcDbSpline
 70
8
 71
3
 72
8
 73
4
 74
0
 40
0
 40
0
 40
0
 40
0
 40
1
 40
1
 40
1
 40
1
 10
506.942000
 20
-28.807440
 30
0.0
 10
511.771620
 20
-32.246430
 30
0.0
 10
513.168510
 20
-36.599490
 30
0.0
 10
511.752350
 20
-43.797670
 30
0.0
  0
SPLINE
  5
140
100
AcDbEntity
  8
Layer_1
 62
7
100
AcDbSpline
 70
8
 71
3
 72
8
 73
4
 74
0
 40
0
 40
0
 40
0
 40
0
 40
1
 40
1
 40
1
 40
1
 10
511.752350
 20
-43.797670
 30
0.0
 10
510.455300
 20
-50.390470
 30
0.0
 10
510.114320
 20
-50.561380
 30
0.0
 10
503.168180
 20
-48.100080
 30
0.0
  0
LWPOLYLINE
  5
141
100
AcDbEntity
  8
Layer_1
 62
7
100
AcDbPolyline
 90
3
 70
0
 10
511.843950
 20
57.776560
 30
0.0
 10
511.843950
 20
49.290750
 30
0.0
 10
508.021970
 20
46.761480
 30
0.0
  0
LWPOLYLINE
  5
142
100
AcDbEntity
  8
Layer_1
 62
7
100
AcDbPolyline
 90
1
 70
1
 10
503.168180
 20
-48.100080
 30
0.0
  0
LWPOLYLINE
  5
143
100
AcDbEntity
  8
Layer_1
 62
7
100
AcDbPolyline
 90
8
 70
1
 10
449.843950
 20
-39.237620
 30
0.0
 10
449.843950
 20
-28.737620
 30
0.0
 10
458.343950
 20
-28.737620
 30
0.0
 10
466.843950
 20
-28.737620
 30
0.0
 10
466.843950
 20
-39.237620
 30
0.0
 10
466.843950
 20
-49.737620
 30
0.0
 10
458.343950
 20
-49.737620
 30
0.0
 10
449.843950
 20
-49.737620
 30
0.0
  0
SPLINE
  5
144
100
AcDbEntity
  8
Layer_2
 62
7
100
AcDbSpline
 70
8
 71
3
 72
8
 73
4
 74
0
 40
0
 40
0
 40
0
 40
0
 40
1
 40
1
 40
1
 40
1
 10
248.772130
 20
75.470460
 30
0.0
 10
241.793460
 20
74.843580
 30
0.0
 10
236.051140
 20
74.692410
 30
0.0
 10
236.011420
 20
75.134530
 30
0.0
  0
SPLINE
  5
145
100
AcDbEntity
  8
Layer_2
 62
7
100
AcDbSpline
 70
8
 71
3
 72
8
 73
4
 74
0
 40
0
 40
0
 40
0
 40
0
 40
1
 40
1
 40
1
 40
1
 10
236.011420
 20
75.134530
 30
0.0
 10
235.971720
 20
75.576650
 30
0.0
 10
237.816960
 20
81.387600
 30
0.0
 10
240.111970
 20
88.047780
 30
0.0
  0
LWPOLYLINE
  5
146
100
AcDbEntity
  8
Layer_2
 62
7
100
AcDbPolyline
 90
3
 70
0
 10
264.003210
 20
48.305110
 30
0.0
 10
261.460630
 20
76.610240
 30
0.0
 10
248.772130
 20
75.470460
 30
0.0
  0
SPLINE
  5
147
100
AcDbEntity
  8
Layer_2
 62
7
100
AcDbSpline
 70
8
 71
3
 72
8
 73
4
 74
0
 40
0
 40
0
 40
0
 40
0
 40
1
 40
1
 40
1
 40
1
 10
281.501040
 20
103.757900
 30
0.0
 10
301.970000
 20
105.738290
 30
0.0
 10
318.697910
 20
107.574960
 30
0.0
 10
318.674150
 20
107.839380
 30
0.0
  0
SPLINE
  5
148
100
AcDbEntity
  8
Layer_2
 62
7
100
AcDbSpline
 70
8
 71
3
 72
8
 73
4
 74
0
 40
0
 40
0
 40
0
 40
0
 40
1
 40
1
 40
1
 40
1
 10
318.674150
 20
107.839380
 30
0.0
 10
318.518680
 20
109.570230
 30
0.0
 10
267.835480
 20
190.180030
 30
0.0
 10
266.699820
 20
190.502690
 30
0.0
  0
SPLINE
  5
149
100
AcDbEntity
  8
Layer_2
 62
7
100
AcDbSpline
 70
8
 71
3
 72
8
 73
4
 74
0
 40
0
 40
0
 40
0
 40
0
 40
1
 40
1
 40
1
 40
1
 10
266.699820
 20
190.502690
 30
0.0
 10
263.571240
 20
191.391560
 30
0.0
 10
265.156490
 20
195.462390
 30
0.0
 10
232.146690
 20
101.772600
 30
0.0
  0
LWPOLYLINE
  5
14a
100
AcDbEntity
  8
Layer_2
 62
7
100
AcDbPolyline
 90
3
 70
0
 10
240.111970
 20
88.047780
 30
0.0
 10
244.284730
 20
100.157170
 30
0.0
 10
281.501040
 20
103.757900
 30
0.0
  0
SPLINE
  5
14b
100
AcDbEntity
  8
Layer_2
 62
7
100
AcDbSpline
 70
8
 71
3
 72
8
 73
4
 74
0
 40
0
 40
0
 40
0
 40
0
 40
1
 40
1
 40
1
 40
1
 10
207.097630
 20
71.726940
 30
0.0
 10
198.882970
 20
70.989040
 30
0.0
 10
192.149410
 20
70.524260
 30
0.0
 10
192.134160
 20
70.694120
 30
0.0
  0
SPLINE
  5
14c
100
AcDbEntity
  8
Layer_2
 62
7
100
AcDbSpline
 70
8
 71
3
 72
8
 73
4
 74
0
 40
0
 40
0
 40
0
 40
0
 40
1
 40
1
 40
1
 40
1
 10
192.134160
 20
70.694120
 30
0.0
 10
192.118860
 20
70.863950
 30
0.0
 10
203.530720
 20
101.111300
 30
0.0
 10
217.493770
 20
137.910440
 30
0.0
  0
LWPOLYLINE
  5
14d
100
AcDbEntity
  8
Layer_2
 62
7
100
AcDbPolyline
 90
3
 70
0
 10
232.146690
 20
101.772600
 30
0.0
 10
222.033360
 20
73.068580
 30
0.0
 10
207.097630
 20
71.726940
 30
0.0
  0
SPLINE
  5
14e
100
AcDbEntity
  8
Layer_2
 62
7
100
AcDbSpline
 70
8
 71
3
 72
8
 73
4
 74
0
 40
0
 40
0
 40
0
 40
0
 40
1
 40
1
 40
1
 40
1
 10
424.160590
 20
89.492410
 30
0.0
 10
396.979290
 20
90.991170
 30
0.0
 10
379.393520
 20
103.908810
 30
0.0
 10
371.282980
 20
128.333690
 30
0.0
  0
SPLINE
  5
14f
100
AcDbEntity
  8
Layer_2
 62
7
100
AcDbSpline
 70
8
 71
3
 72
8
 73
4
 74
0
 40
0
 40
0
 40
0
 40
0
 40
1
 40
1
 40
1
 40
1
 10
371.282980
 20
128.333690
 30
0.0
 10
368.172230
 20
137.701680
 30
0.0
 10
357.836500
 20
240.816036
 30
0.0
 10
359.853100
 20
242.363643
 30
0.0
  0
SPLINE
  5
150
100
AcDbEntity
  8
Layer_2
 62
7
100
AcDbSpline
 70
8
 71
3
 72
8
 73
4
 74
0
 40
0
 40
0
 40
0
 40
0
 40
1
 40
1
 40
1
 40
1
 10
359.853100
 20
242.363643
 30
0.0
 10
360.542090
 20
242.892395
 30
0.0
 10
369.708230
 20
244.104657
 30
0.0
 10
380.222290
 20
245.057563
 30
0.0
  0
LWPOLYLINE
  5
151
100
AcDbEntity
  8
Layer_2
 62
7
100
AcDbPolyline
 90
29
 70
0
 10
217.493770
 20
137.910440
 30
0.0
 10
242.881110
 20
204.817950
 30
0.0
 10
214.663060
 20
202.283190
 30
0.0
 10
186.445000
 20
199.748430
 30
0.0
 10
185.173710
 20
213.900994
 30
0.0
 10
183.902420
 20
228.053553
 30
0.0
 10
215.623680
 20
230.902997
 30
0.0
 10
247.344930
 20
233.752440
 30
0.0
 10
245.021540
 20
259.617460
 30
0.0
 10
242.698140
 20
285.482479
 30
0.0
 10
257.826740
 20
286.841444
 30
0.0
 10
272.955340
 20
288.200410
 30
0.0
 10
275.278730
 20
262.335390
 30
0.0
 10
277.602120
 20
236.470370
 30
0.0
 10
309.811390
 20
239.363651
 30
0.0
 10
342.020660
 20
242.256931
 30
0.0
 10
343.291950
 20
228.104374
 30
0.0
 10
344.563240
 20
213.951814
 30
0.0
 10
316.826420
 20
211.460284
 30
0.0
 10
289.089600
 20
208.968754
 30
0.0
 10
326.436860
 20
147.385220
 30
0.0
 10
363.784130
 20
85.801710
 30
0.0
 10
327.750980
 20
82.564940
 30
0.0
 10
291.717820
 20
79.328170
 30
0.0
 10
294.260410
 20
51.023040
 30
0.0
 10
296.802990
 20
22.717930
 30
0.0
 10
281.674390
 20
21.358970
 30
0.0
 10
266.545790
 20
20.000000
 30
0.0
 10
264.003210
 20
48.305110
 30
0.0
  0
SPLINE
  5
152
100
AcDbEntity
  8
Layer_2
 62
7
100
AcDbSpline
 70
8
 71
3
 72
8
 73
4
 74
0
 40
0
 40
0
 40
0
 40
0
 40
1
 40
1
 40
1
 40
1
 10
404.536350
 20
192.788570
 30
0.0
 10
410.221350
 20
133.722870
 30
0.0
 10
410.476930
 20
132.350070
 30
0.0
 10
416.992090
 20
125.882890
 30
0.0
  0
SPLINE
  5
153
100
AcDbEntity
  8
Layer_2
 62
7
100
AcDbSpline
 70
8
 71
3
 72
8
 73
4
 74
0
 40
0
 40
0
 40
0
 40
0
 40
1
 40
1
 40
1
 40
1
 10
416.992090
 20
125.882890
 30
0.0
 10
419.912770
 20
122.983710
 30
0.0
 10
428.687260
 20
118.902970
 30
0.0
 10
431.464120
 20
119.152410
 30
0.0
  0
SPLINE
  5
154
100
AcDbEntity
  8
Layer_2
 62
7
100
AcDbSpline
 70
8
 71
3
 72
8
 73
4
 74
0
 40
0
 40
0
 40
0
 40
0
 40
1
 40
1
 40
1
 40
1
 10
431.464120
 20
119.152410
 30
0.0
 10
432.768380
 20
119.269570
 30
0.0
 10
433.187040
 20
117.109570
 30
0.0
 10
434.333220
 20
104.349740
 30
0.0
  0
LWPOLYLINE
  5
155
100
AcDbEntity
  8
Layer_2
 62
7
100
AcDbPolyline
 90
3
 70
0
 10
380.222290
 20
245.057563
 30
0.0
 10
399.338770
 20
246.790111
 30
0.0
 10
404.536350
 20
192.788570
 30
0.0
  0
SPLINE
  5
156
100
AcDbEntity
  8
Layer_2
 62
7
100
AcDbSpline
 70
8
 71
3
 72
8
 73
4
 74
0
 40
0
 40
0
 40
0
 40
0
 40
1
 40
1
 40
1
 40
1
 10
432.925350
 20
89.285310
 30
0.0
 10
431.412910
 20
89.216810
 30
0.0
 10
427.468770
 20
89.310010
 30
0.0
 10
424.160600
 20
89.492390
 30
0.0
  0
LWPOLYLINE
  5
157
100
AcDbEntity
  8
Layer_2
 62
7
100
AcDbPolyline
 90
3
 70
0
 10
434.333220
 20
104.349740
 30
0.0
 10
435.675230
 20
89.409890
 30
0.0
 10
432.925350
 20
89.285310
 30
0.0
  0
LWPOLYLINE
  5
158
100
AcDbEntity
  8
Layer_2
 62
7
100
AcDbPolyline
 90
1
 70
1
 10
424.160600
 20
89.492390
 30
0.0
  0
SPLINE
  5
159
100
AcDbEntity
  8
Layer_2
 62
7
100
AcDbSpline
 70
8
 71
3
 72
8
 73
4
 74
0
 40
0
 40
0
 40
0
 40
0
 40
1
 40
1
 40
1
 40
1
 10
443.581750
 20
120.709680
 30
0.0
 10
453.571800
 20
123.528720
 30
0.0
 10
458.887990
 20
128.813480
 30
0.0
 10
461.090520
 20
138.114980
 30
0.0
  0
SPLINE
  5
15a
100
AcDbEntity
  8
Layer_2
 62
7
100
AcDbSpline
 70
8
 71
3
 72
8
 73
4
 74
0
 40
0
 40
0
 40
0
 40
0
 40
1
 40
1
 40
1
 40
1
 10
461.090520
 20
138.114980
 30
0.0
 10
462.225330
 20
142.907430
 30
0.0
 10
461.885660
 20
149.573010
 30
0.0
 10
458.072040
 20
197.346560
 30
0.0
  0
LWPOLYLINE
  5
15b
100
AcDbEntity
  8
Layer_2
 62
7
100
AcDbPolyline
 90
3
 70
0
 10
441.315110
 20
104.865190
 30
0.0
 10
439.983050
 20
119.694190
 30
0.0
 10
443.581750
 20
120.709680
 30
0.0
  0
SPLINE
  5
15c
100
AcDbEntity
  8
Layer_2
 62
7
100
AcDbSpline
 70
8
 71
3
 72
8
 73
4
 74
0
 40
0
 40
0
 40
0
 40
0
 40
1
 40
1
 40
1
 40
1
 10
498.724540
 20
200.768310
 30
0.0
 10
503.000790
 20
148.878970
 30
0.0
 10
503.152640
 20
145.792640
 30
0.0
 10
501.796740
 20
138.325240
 30
0.0
  0
SPLINE
  5
15d
100
AcDbEntity
  8
Layer_2
 62
7
100
AcDbSpline
 70
8
 71
3
 72
8
 73
4
 74
0
 40
0
 40
0
 40
0
 40
0
 40
1
 40
1
 40
1
 40
1
 10
501.796740
 20
138.325240
 30
0.0
 10
499.682160
 20
126.679480
 30
0.0
 10
496.694460
 20
119.568640
 30
0.0
 10
490.672450
 20
111.848840
 30
0.0
  0
SPLINE
  5
15e
100
AcDbEntity
  8
Layer_2
 62
7
100
AcDbSpline
 70
8
 71
3
 72
8
 73
4
 74
0
 40
0
 40
0
 40
0
 40
0
 40
1
 40
1
 40
1
 40
1
 10
490.672450
 20
111.848840
 30
0.0
 10
482.790200
 20
101.744340
 30
0.0
 10
473.256120
 20
96.489380
 30
0.0
 10
455.004090
 20
92.189220
 30
0.0
  0
SPLINE
  5
15f
100
AcDbEntity
  8
Layer_2
 62
7
100
AcDbSpline
 70
8
 71
3
 72
8
 73
4
 74
0
 40
0
 40
0
 40
0
 40
0
 40
1
 40
1
 40
1
 40
1
 10
455.004090
 20
92.189220
 30
0.0
 10
451.218700
 20
91.297400
 30
0.0
 10
446.889820
 20
90.448120
 30
0.0
 10
445.384360
 20
90.301950
 30
0.0
  0
LWPOLYLINE
  5
160
100
AcDbEntity
  8
Layer_2
 62
7
100
AcDbPolyline
 90
5
 70
0
 10
458.072040
 20
197.346560
 30
0.0
 10
453.774860
 20
251.177980
 30
0.0
 10
474.000400
 20
253.266843
 30
0.0
 10
494.225940
 20
255.355716
 30
0.0
 10
498.724540
 20
200.768310
 30
0.0
  0
SPLINE
  5
161
100
AcDbEntity
  8
Layer_2
 62
7
100
AcDbSpline
 70
8
 71
3
 72
8
 73
4
 74
0
 40
0
 40
0
 40
0
 40
0
 40
1
 40
1
 40
1
 40
1
 10
533.063070
 20
102.233630
 30
0.0
 10
532.652320
 20
102.781670
 30
0.0
 10
529.347270
 20
137.961400
 30
0.0
 10
525.718490
 20
180.410800
 30
0.0
  0
LWPOLYLINE
  5
162
100
AcDbEntity
  8
Layer_2
 62
7
100
AcDbPolyline
 90
4
 70
0
 10
445.384360
 20
90.301950
 30
0.0
 10
442.647160
 20
90.036200
 30
0.0
 10
441.315110
 20
104.865200
 30
0.0
 10
441.315110
 20
104.865190
 30
0.0
  0
SPLINE
  5
163
100
AcDbEntity
  8
Layer_2
 62
7
100
AcDbSpline
 70
8
 71
3
 72
8
 73
4
 74
0
 40
0
 40
0
 40
0
 40
0
 40
1
 40
1
 40
1
 40
1
 10
552.680960
 20
102.932330
 30
0.0
 10
540.470770
 20
101.835520
 30
0.0
 10
533.546270
 20
101.588910
 30
0.0
 10
533.063070
 20
102.233630
 30
0.0
  0
LWPOLYLINE
  5
164
100
AcDbEntity
  8
Layer_2
 62
7
100
AcDbPolyline
 90
7
 70
0
 10
525.718490
 20
180.410800
 30
0.0
 10
519.120720
 20
257.591531
 30
0.0
 10
538.080500
 20
259.022802
 30
0.0
 10
557.040280
 20
260.454063
 30
0.0
 10
564.296160
 20
182.540770
 30
0.0
 10
571.552060
 20
104.627480
 30
0.0
 10
552.680960
 20
102.932330
 30
0.0
  0
SPLINE
  5
165
100
AcDbEntity
  8
Layer_2
 62
7
100
AcDbSpline
 70
8
 71
3
 72
8
 73
4
 74
0
 40
0
 40
0
 40
0
 40
0
 40
1
 40
1
 40
1
 40
1
 10
668.506180
 20
114.591670
 30
0.0
 10
668.188200
 20
115.253370
 30
0.0
 10
665.990220
 20
136.107800
 30
0.0
 10
663.621790
 20
160.934840
 30
0.0
  0
LWPOLYLINE
  5
166
100
AcDbEntity
  8
Layer_2
 62
7
100
AcDbPolyline
 90
1
 70
1
 10
533.063070
 20
102.233630
 30
0.0
  0
SPLINE
  5
167
100
AcDbEntity
  8
Layer_2
 62
7
100
AcDbSpline
 70
8
 71
3
 72
8
 73
4
 74
0
 40
0
 40
0
 40
0
 40
0
 40
1
 40
1
 40
1
 40
1
 10
651.074520
 20
181.394320
 30
0.0
 10
646.541930
 20
167.819970
 30
0.0
 10
640.871910
 20
151.680540
 30
0.0
 10
638.474370
 20
145.528870
 30
0.0
  0
LWPOLYLINE
  5
168
100
AcDbEntity
  8
Layer_2
 62
7
100
AcDbPolyline
 90
3
 70
0
 10
663.621790
 20
160.934840
 30
0.0
 10
659.315560
 20
206.074910
 30
0.0
 10
651.074520
 20
181.394320
 30
0.0
  0
SPLINE
  5
169
100
AcDbEntity
  8
Layer_2
 62
7
100
AcDbSpline
 70
8
 71
3
 72
8
 73
4
 74
0
 40
0
 40
0
 40
0
 40
0
 40
1
 40
1
 40
1
 40
1
 10
596.771970
 20
138.323670
 30
0.0
 10
594.746680
 20
142.175500
 30
0.0
 10
587.919860
 20
154.114130
 30
0.0
 10
582.206010
 20
165.175920
 30
0.0
  0
LWPOLYLINE
  5
16a
100
AcDbEntity
  8
Layer_2
 62
7
100
AcDbPolyline
 90
5
 70
0
 10
638.474370
 20
145.528870
 30
0.0
 10
634.115370
 20
134.344020
 30
0.0
 10
617.284840
 20
132.832180
 30
0.0
 10
600.454300
 20
131.320330
 30
0.0
 10
596.771970
 20
138.323670
 30
0.0
  0
SPLINE
  5
16b
100
AcDbEntity
  8
Layer_2
 62
7
100
AcDbSpline
 70
8
 71
3
 72
8
 73
4
 74
0
 40
0
 40
0
 40
0
 40
0
 40
1
 40
1
 40
1
 40
1
 10
579.293370
 20
234.751427
 30
0.0
 10
594.586030
 20
206.630920
 30
0.0
 10
614.504530
 20
172.743490
 30
0.0
 10
615.678700
 20
172.848960
 30
0.0
  0
SPLINE
  5
16c
100
AcDbEntity
  8
Layer_2
 62
7
100
AcDbSpline
 70
8
 71
3
 72
8
 73
4
 74
0
 40
0
 40
0
 40
0
 40
0
 40
1
 40
1
 40
1
 40
1
 10
615.678700
 20
172.848960
 30
0.0
 10
616.072710
 20
172.884360
 30
0.0
 10
623.423950
 20
194.544490
 30
0.0
 10
632.014730
 20
220.982531
 30
0.0
  0
LWPOLYLINE
  5
16d
100
AcDbEntity
  8
Layer_2
 62
7
100
AcDbPolyline
 90
5
 70
0
 10
582.206010
 20
165.175920
 30
0.0
 10
571.322340
 20
185.024840
 30
0.0
 10
568.173360
 20
223.007202
 30
0.0
 10
565.024390
 20
260.989548
 30
0.0
 10
579.293370
 20
234.751427
 30
0.0
  0
SPLINE
  5
16e
100
AcDbEntity
  8
Layer_2
 62
7
100
AcDbSpline
 70
8
 71
3
 72
8
 73
4
 74
0
 40
0
 40
0
 40
0
 40
0
 40
1
 40
1
 40
1
 40
1
 10
661.174340
 20
270.289082
 30
0.0
 10
668.621320
 20
270.969623
 30
0.0
 10
678.843070
 20
271.603763
 30
0.0
 10
683.889360
 20
271.698256
 30
0.0
  0
LWPOLYLINE
  5
16f
100
AcDbEntity
  8
Layer_2
 62
7
100
AcDbPolyline
 90
3
 70
0
 10
632.014730
 20
220.982531
 30
0.0
 10
647.634340
 20
269.051732
 30
0.0
 10
661.174340
 20
270.289082
 30
0.0
  0
SPLINE
  5
170
100
AcDbEntity
  8
Layer_2
 62
7
100
AcDbSpline
 70
8
 71
3
 72
8
 73
4
 74
0
 40
0
 40
0
 40
0
 40
0
 40
1
 40
1
 40
1
 40
1
 10
688.039510
 20
115.091260
 30
0.0
 10
673.788090
 20
113.811090
 30
0.0
 10
668.940950
 20
113.687120
 30
0.0
 10
668.506180
 20
114.591670
 30
0.0
  0
LWPOLYLINE
  5
171
100
AcDbEntity
  8
Layer_2
 62
7
100
AcDbPolyline
 90
5
 70
0
 10
683.889360
 20
271.698256
 30
0.0
 10
693.064380
 20
271.870060
 30
0.0
 10
700.029440
 20
194.332000
 30
0.0
 10
706.994490
 20
116.793940
 30
0.0
 10
688.039510
 20
115.091260
 30
0.0
  0
LWPOLYLINE
  5
172
100
AcDbEntity
  8
Layer_2
 62
7
100
AcDbPolyline
 90
1
 70
1
 10
668.506180
 20
114.591670
 30
0.0
  0
SPLINE
  5
173
100
AcDbEntity
  8
Layer_2
 62
7
100
AcDbSpline
 70
8
 71
3
 72
8
 73
4
 74
0
 40
0
 40
0
 40
0
 40
0
 40
1
 40
1
 40
1
 40
1
 10
23.679506
 20
213.405164
 30
0.0
 10
25.703234
 20
213.929234
 30
0.0
 10
34.865842
 20
215.037304
 30
0.0
 10
44.040856
 20
215.867552
 30
0.0
  0
LWPOLYLINE
  5
174
100
AcDbEntity
  8
Layer_2
 62
7
100
AcDbPolyline
 90
3
 70
0
 10
26.966747
 20
134.895420
 30
0.0
 10
20.000000
 20
212.452304
 30
0.0
 10
23.679506
 20
213.405164
 30
0.0
  0
LWPOLYLINE
  5
175
100
AcDbEntity
  8
Layer_2
 62
7
100
AcDbPolyline
 90
8
 70
0
 10
44.040856
 20
215.867552
 30
0.0
 10
60.722701
 20
217.377086
 30
0.0
 10
67.745888
 20
139.191880
 30
0.0
 10
74.769075
 20
61.006680
 30
0.0
 10
54.351285
 20
59.172600
 30
0.0
 10
33.933495
 20
57.338520
 30
0.0
 10
26.966748
 20
134.895410
 30
0.0
 10
26.966747
 20
134.895420
 30
0.0
  0
SPLINE
  5
176
100
AcDbEntity
  8
Layer_2
 62
7
100
AcDbSpline
 70
8
 71
3
 72
8
 73
4
 74
0
 40
0
 40
0
 40
0
 40
0
 40
1
 40
1
 40
1
 40
1
 10
123.278480
 20
222.351896
 30
0.0
 10
125.302210
 20
222.875966
 30
0.0
 10
134.464810
 20
223.984044
 30
0.0
 10
143.639830
 20
224.814287
 30
0.0
  0
LWPOLYLINE
  5
177
100
AcDbEntity
  8
Layer_2
 62
7
100
AcDbPolyline
 90
11
 70
0
 10
130.580040
 20
99.152930
 30
0.0
 10
127.627620
 20
132.020590
 30
0.0
 10
101.731890
 20
129.694440
 30
0.0
 10
75.836157
 20
127.368290
 30
0.0
 10
74.449413
 20
142.806130
 30
0.0
 10
73.062669
 20
158.243980
 30
0.0
 10
98.958401
 20
160.570130
 30
0.0
 10
124.854130
 20
162.896280
 30
0.0
 10
122.226550
 20
192.147670
 30
0.0
 10
119.598970
 20
221.399040
 30
0.0
 10
123.278480
 20
222.351896
 30
0.0
  0
LWPOLYLINE
  5
178
100
AcDbEntity
  8
Layer_2
 62
7
100
AcDbPolyline
 90
7
 70
0
 10
143.639830
 20
224.814287
 30
0.0
 10
160.321670
 20
226.323821
 30
0.0
 10
167.344860
 20
148.138610
 30
0.0
 10
174.368050
 20
69.953420
 30
0.0
 10
153.950260
 20
68.119340
 30
0.0
 10
133.532470
 20
66.285260
 30
0.0
 10
130.580040
 20
99.152930
 30
0.0
  0
SPLINE
  5
179
100
AcDbEntity
  8
Layer_2
 62
7
100
AcDbSpline
 70
8
 71
3
 72
8
 73
4
 74
0
 40
0
 40
0
 40
0
 40
0
 40
1
 40
1
 40
1
 40
1
 10
348.566470
 20
48.612570
 30
0.0
 10
347.410083
 20
48.612570
 30
0.0
 10
346.537630
 20
48.416397
 30
0.0
 10
345.949110
 20
48.024050
 30
0.0
  0
SPLINE
  5
17a
100
AcDbEntity
  8
Layer_2
 62
7
100
AcDbSpline
 70
8
 71
3
 72
8
 73
4
 74
0
 40
0
 40
0
 40
0
 40
0
 40
1
 40
1
 40
1
 40
1
 10
345.949110
 20
48.024050
 30
0.0
 10
345.370917
 20
47.631703
 30
0.0
 10
345.081820
 20
47.053510
 30
0.0
 10
345.081820
 20
46.289470
 30
0.0
  0
SPLINE
  5
17b
100
AcDbEntity
  8
Layer_2
 62
7
100
AcDbSpline
 70
8
 71
3
 72
8
 73
4
 74
0
 40
0
 40
0
 40
0
 40
0
 40
1
 40
1
 40
1
 40
1
 10
345.081820
 20
46.289470
 30
0.0
 10
345.081820
 20
45.587377
 30
0.0
 10
345.314130
 20
45.034993
 30
0.0
 10
345.778750
 20
44.632320
 30
0.0
  0
SPLINE
  5
17c
100
AcDbEntity
  8
Layer_2
 62
7
100
AcDbSpline
 70
8
 71
3
 72
8
 73
4
 74
0
 40
0
 40
0
 40
0
 40
0
 40
1
 40
1
 40
1
 40
1
 10
345.778750
 20
44.632320
 30
0.0
 10
346.253697
 20
44.239973
 30
0.0
 10
346.909327
 20
44.043800
 30
0.0
 10
347.745640
 20
44.043800
 30
0.0
  0
SPLINE
  5
17d
100
AcDbEntity
  8
Layer_2
 62
7
100
AcDbSpline
 70
8
 71
3
 72
8
 73
4
 74
0
 40
0
 40
0
 40
0
 40
0
 40
1
 40
1
 40
1
 40
1
 10
347.745640
 20
44.043800
 30
0.0
 10
348.788460
 20
44.043800
 30
0.0
 10
349.666077
 20
44.415497
 30
0.0
 10
350.378490
 20
45.158890
 30
0.0
  0
SPLINE
  5
17e
100
AcDbEntity
  8
Layer_2
 62
7
100
AcDbSpline
 70
8
 71
3
 72
8
 73
4
 74
0
 40
0
 40
0
 40
0
 40
0
 40
1
 40
1
 40
1
 40
1
 10
350.378490
 20
45.158890
 30
0.0
 10
351.090910
 20
45.912610
 30
0.0
 10
351.447120
 20
46.852177
 30
0.0
 10
351.447120
 20
47.977590
 30
0.0
  0
LWPOLYLINE
  5
17f
100
AcDbEntity
  8
Layer_2
 62
7
100
AcDbPolyline
 90
12
 70
1
 10
314.494290
 20
63.929570
 30
0.0
 10
320.456930
 20
63.929570
 30
0.0
 10
320.456930
 20
55.117260
 30
0.0
 10
329.253740
 20
55.117260
 30
0.0
 10
329.253740
 20
63.929570
 30
0.0
 10
335.216370
 20
63.929570
 30
0.0
 10
335.216370
 20
40.806950
 30
0.0
 10
329.253740
 20
40.806950
 30
0.0
 10
329.253740
 20
50.610440
 30
0.0
 10
320.456930
 20
50.610440
 30
0.0
 10
320.456930
 20
40.806950
 30
0.0
 10
314.494290
 20
40.806950
 30
0.0
  0
LWPOLYLINE
  5
180
100
AcDbEntity
  8
Layer_2
 62
7
100
AcDbPolyline
 90
3
 70
0
 10
351.447120
 20
47.977590
 30
0.0
 10
351.447120
 20
48.612570
 30
0.0
 10
348.566470
 20
48.612570
 30
0.0
  0
SPLINE
  5
181
100
AcDbEntity
  8
Layer_2
 62
7
100
AcDbSpline
 70
8
 71
3
 72
8
 73
4
 74
0
 40
0
 40
0
 40
0
 40
0
 40
1
 40
1
 40
1
 40
1
 10
351.447120
 20
43.377850
 30
0.0
 10
350.703727
 20
42.324710
 30
0.0
 10
349.867410
 20
41.555503
 30
0.0
 10
348.938170
 20
41.070230
 30
0.0
  0
SPLINE
  5
182
100
AcDbEntity
  8
Layer_2
 62
7
100
AcDbSpline
 70
8
 71
3
 72
8
 73
4
 74
0
 40
0
 40
0
 40
0
 40
0
 40
1
 40
1
 40
1
 40
1
 10
348.938170
 20
41.070230
 30
0.0
 10
348.008930
 20
40.595283
 30
0.0
 10
346.878353
 20
40.357810
 30
0.0
 10
345.546440
 20
40.357810
 30
0.0
  0
SPLINE
  5
183
100
AcDbEntity
  8
Layer_2
 62
7
100
AcDbSpline
 70
8
 71
3
 72
8
 73
4
 74
0
 40
0
 40
0
 40
0
 40
0
 40
1
 40
1
 40
1
 40
1
 10
345.546440
 20
40.357810
 30
0.0
 10
343.749907
 20
40.357810
 30
0.0
 10
342.288933
 20
40.879220
 30
0.0
 10
341.163520
 20
41.922040
 30
0.0
  0
SPLINE
  5
184
100
AcDbEntity
  8
Layer_2
 62
7
100
AcDbSpline
 70
8
 71
3
 72
8
 73
4
 74
0
 40
0
 40
0
 40
0
 40
0
 40
1
 40
1
 40
1
 40
1
 10
341.163520
 20
41.922040
 30
0.0
 10
340.048427
 20
42.975180
 30
0.0
 10
339.490880
 20
44.338067
 30
0.0
 10
339.490880
 20
46.010700
 30
0.0
  0
SPLINE
  5
185
100
AcDbEntity
  8
Layer_2
 62
7
100
AcDbSpline
 70
8
 71
3
 72
8
 73
4
 74
0
 40
0
 40
0
 40
0
 40
0
 40
1
 40
1
 40
1
 40
1
 10
339.490880
 20
46.010700
 30
0.0
 10
339.490880
 20
48.044707
 30
0.0
 10
340.187813
 20
49.536653
 30
0.0
 10
341.581680
 20
50.486540
 30
0.0
  0
SPLINE
  5
186
100
AcDbEntity
  8
Layer_2
 62
7
100
AcDbSpline
 70
8
 71
3
 72
8
 73
4
 74
0
 40
0
 40
0
 40
0
 40
0
 40
1
 40
1
 40
1
 40
1
 10
341.581680
 20
50.486540
 30
0.0
 10
342.985867
 20
51.436433
 30
0.0
 10
345.185070
 20
51.911380
 30
0.0
 10
348.179290
 20
51.911380
 30
0.0
  0
LWPOLYLINE
  5
187
100
AcDbEntity
  8
Layer_2
 62
7
100
AcDbPolyline
 90
4
 70
0
 10
357.038050
 20
50.703370
 30
0.0
 10
357.038050
 20
40.806950
 30
0.0
 10
351.447120
 20
40.806950
 30
0.0
 10
351.447120
 20
43.377850
 30
0.0
  0
SPLINE
  5
188
100
AcDbEntity
  8
Layer_2
 62
7
100
AcDbSpline
 70
8
 71
3
 72
8
 73
4
 74
0
 40
0
 40
0
 40
0
 40
0
 40
1
 40
1
 40
1
 40
1
 10
351.447120
 20
52.345030
 30
0.0
 10
351.447120
 20
53.222643
 30
0.0
 10
351.101237
 20
53.862787
 30
0.0
 10
350.409470
 20
54.265460
 30
0.0
  0
SPLINE
  5
189
100
AcDbEntity
  8
Layer_2
 62
7
100
AcDbSpline
 70
8
 71
3
 72
8
 73
4
 74
0
 40
0
 40
0
 40
0
 40
0
 40
1
 40
1
 40
1
 40
1
 10
350.409470
 20
54.265460
 30
0.0
 10
349.717697
 20
54.678453
 30
0.0
 10
348.638743
 20
54.884950
 30
0.0
 10
347.172610
 20
54.884950
 30
0.0
  0
SPLINE
  5
18a
100
AcDbEntity
  8
Layer_2
 62
7
100
AcDbSpline
 70
8
 71
3
 72
8
 73
4
 74
0
 40
0
 40
0
 40
0
 40
0
 40
1
 40
1
 40
1
 40
1
 10
347.172610
 20
54.884950
 30
0.0
 10
345.985250
 20
54.884950
 30
0.0
 10
344.880487
 20
54.766213
 30
0.0
 10
343.858320
 20
54.528740
 30
0.0
  0
SPLINE
  5
18b
100
AcDbEntity
  8
Layer_2
 62
7
100
AcDbSpline
 70
8
 71
3
 72
8
 73
4
 74
0
 40
0
 40
0
 40
0
 40
0
 40
1
 40
1
 40
1
 40
1
 10
343.858320
 20
54.528740
 30
0.0
 10
342.836153
 20
54.291267
 30
0.0
 10
341.886260
 20
53.935057
 30
0.0
 10
341.008640
 20
53.460110
 30
0.0
  0
LWPOLYLINE
  5
18c
100
AcDbEntity
  8
Layer_2
 62
7
100
AcDbPolyline
 90
3
 70
0
 10
348.179290
 20
51.911380
 30
0.0
 10
351.447120
 20
51.911380
 30
0.0
 10
351.447120
 20
52.345030
 30
0.0
  0
SPLINE
  5
18d
100
AcDbEntity
  8
Layer_2
 62
7
100
AcDbSpline
 70
8
 71
3
 72
8
 73
4
 74
0
 40
0
 40
0
 40
0
 40
0
 40
1
 40
1
 40
1
 40
1
 10
341.008640
 20
57.688160
 30
0.0
 10
342.196007
 20
57.977260
 30
0.0
 10
343.388533
 20
58.194083
 30
0.0
 10
344.586220
 20
58.338630
 30
0.0
  0
SPLINE
  5
18e
100
AcDbEntity
  8
Layer_2
 62
7
100
AcDbSpline
 70
8
 71
3
 72
8
 73
4
 74
0
 40
0
 40
0
 40
0
 40
0
 40
1
 40
1
 40
1
 40
1
 10
344.586220
 20
58.338630
 30
0.0
 10
345.783913
 20
58.493503
 30
0.0
 10
346.981603
 20
58.570940
 30
0.0
 10
348.179290
 20
58.570940
 30
0.0
  0
SPLINE
  5
18f
100
AcDbEntity
  8
Layer_2
 62
7
100
AcDbSpline
 70
8
 71
3
 72
8
 73
4
 74
0
 40
0
 40
0
 40
0
 40
0
 40
1
 40
1
 40
1
 40
1
 10
348.179290
 20
58.570940
 30
0.0
 10
351.307737
 20
58.570940
 30
0.0
 10
353.563727
 20
57.951447
 30
0.0
 10
354.947260
 20
56.712460
 30
0.0
  0
SPLINE
  5
190
100
AcDbEntity
  8
Layer_2
 62
7
100
AcDbSpline
 70
8
 71
3
 72
8
 73
4
 74
0
 40
0
 40
0
 40
0
 40
0
 40
1
 40
1
 40
1
 40
1
 10
354.947260
 20
56.712460
 30
0.0
 10
356.341120
 20
55.483793
 30
0.0
 10
357.038050
 20
53.480763
 30
0.0
 10
357.038050
 20
50.703370
 30
0.0
  0
LWPOLYLINE
  5
191
100
AcDbEntity
  8
Layer_2
 62
7
100
AcDbPolyline
 90
2
 70
0
 10
341.008640
 20
53.460110
 30
0.0
 10
341.008640
 20
57.688160
 30
0.0
  0
LWPOLYLINE
  5
192
100
AcDbEntity
  8
Layer_2
 62
7
100
AcDbPolyline
 90
1
 70
1
 10
357.038050
 20
50.703370
 30
0.0
  0
SPLINE
  5
193
100
AcDbEntity
  8
Layer_2
 62
7
100
AcDbSpline
 70
8
 71
3
 72
8
 73
4
 74
0
 40
0
 40
0
 40
0
 40
0
 40
1
 40
1
 40
1
 40
1
 10
376.211400
 20
53.088420
 30
0.0
 10
375.457680
 20
53.604667
 30
0.0
 10
374.698800
 20
53.986687
 30
0.0
 10
373.934760
 20
54.234480
 30
0.0
  0
SPLINE
  5
194
100
AcDbEntity
  8
Layer_2
 62
7
100
AcDbSpline
 70
8
 71
3
 72
8
 73
4
 74
0
 40
0
 40
0
 40
0
 40
0
 40
1
 40
1
 40
1
 40
1
 10
373.934760
 20
54.234480
 30
0.0
 10
373.181040
 20
54.482280
 30
0.0
 10
372.396347
 20
54.606180
 30
0.0
 10
371.580680
 20
54.606180
 30
0.0
  0
SPLINE
  5
195
100
AcDbEntity
  8
Layer_2
 62
7
100
AcDbSpline
 70
8
 71
3
 72
8
 73
4
 74
0
 40
0
 40
0
 40
0
 40
0
 40
1
 40
1
 40
1
 40
1
 10
371.580680
 20
54.606180
 30
0.0
 10
370.031940
 20
54.606180
 30
0.0
 10
368.823927
 20
54.151883
 30
0.0
 10
367.956640
 20
53.243290
 30
0.0
  0
SPLINE
  5
196
100
AcDbEntity
  8
Layer_2
 62
7
100
AcDbSpline
 70
8
 71
3
 72
8
 73
4
 74
0
 40
0
 40
0
 40
0
 40
0
 40
1
 40
1
 40
1
 40
1
 10
367.956640
 20
53.243290
 30
0.0
 10
367.099673
 20
52.345023
 30
0.0
 10
366.671190
 20
51.085387
 30
0.0
 10
366.671190
 20
49.464380
 30
0.0
  0
SPLINE
  5
197
100
AcDbEntity
  8
Layer_2
 62
7
100
AcDbSpline
 70
8
 71
3
 72
8
 73
4
 74
0
 40
0
 40
0
 40
0
 40
0
 40
1
 40
1
 40
1
 40
1
 10
366.671190
 20
49.464380
 30
0.0
 10
366.671190
 20
47.843367
 30
0.0
 10
367.099673
 20
46.578567
 30
0.0
 10
367.956640
 20
45.669980
 30
0.0
  0
SPLINE
  5
198
100
AcDbEntity
  8
Layer_2
 62
7
100
AcDbSpline
 70
8
 71
3
 72
8
 73
4
 74
0
 40
0
 40
0
 40
0
 40
0
 40
1
 40
1
 40
1
 40
1
 10
367.956640
 20
45.669980
 30
0.0
 10
368.823927
 20
44.771713
 30
0.0
 10
370.031940
 20
44.322580
 30
0.0
 10
371.580680
 20
44.322580
 30
0.0
  0
SPLINE
  5
199
100
AcDbEntity
  8
Layer_2
 62
7
100
AcDbSpline
 70
8
 71
3
 72
8
 73
4
 74
0
 40
0
 40
0
 40
0
 40
0
 40
1
 40
1
 40
1
 40
1
 10
371.580680
 20
44.322580
 30
0.0
 10
372.447973
 20
44.322580
 30
0.0
 10
373.268803
 20
44.451640
 30
0.0
 10
374.043170
 20
44.709760
 30
0.0
  0
SPLINE
  5
19a
100
AcDbEntity
  8
Layer_2
 62
7
100
AcDbSpline
 70
8
 71
3
 72
8
 73
4
 74
0
 40
0
 40
0
 40
0
 40
0
 40
1
 40
1
 40
1
 40
1
 10
374.043170
 20
44.709760
 30
0.0
 10
374.827863
 20
44.967880
 30
0.0
 10
375.550607
 20
45.349900
 30
0.0
 10
376.211400
 20
45.855820
 30
0.0
  0
LWPOLYLINE
  5
19b
100
AcDbEntity
  8
Layer_2
 62
7
100
AcDbPolyline
 90
2
 70
0
 10
376.211400
 20
57.610730
 30
0.0
 10
376.211400
 20
53.088420
 30
0.0
  0
SPLINE
  5
19c
100
AcDbEntity
  8
Layer_2
 62
7
100
AcDbSpline
 70
8
 71
3
 72
8
 73
4
 74
0
 40
0
 40
0
 40
0
 40
0
 40
1
 40
1
 40
1
 40
1
 10
376.211400
 20
41.318030
 30
0.0
 10
375.344107
 20
40.997957
 30
0.0
 10
374.461327
 20
40.760483
 30
0.0
 10
373.563060
 20
40.605610
 30
0.0
  0
SPLINE
  5
19d
100
AcDbEntity
  8
Layer_2
 62
7
100
AcDbSpline
 70
8
 71
3
 72
8
 73
4
 74
0
 40
0
 40
0
 40
0
 40
0
 40
1
 40
1
 40
1
 40
1
 10
373.563060
 20
40.605610
 30
0.0
 10
372.675120
 20
40.440410
 30
0.0
 10
371.782017
 20
40.357810
 30
0.0
 10
370.883750
 20
40.357810
 30
0.0
  0
SPLINE
  5
19e
100
AcDbEntity
  8
Layer_2
 62
7
100
AcDbSpline
 70
8
 71
3
 72
8
 73
4
 74
0
 40
0
 40
0
 40
0
 40
0
 40
1
 40
1
 40
1
 40
1
 10
370.883750
 20
40.357810
 30
0.0
 10
367.755303
 20
40.357810
 30
0.0
 10
365.308300
 20
41.157990
 30
0.0
 10
363.542740
 20
42.758350
 30
0.0
  0
SPLINE
  5
19f
100
AcDbEntity
  8
Layer_2
 62
7
100
AcDbSpline
 70
8
 71
3
 72
8
 73
4
 74
0
 40
0
 40
0
 40
0
 40
0
 40
1
 40
1
 40
1
 40
1
 10
363.542740
 20
42.758350
 30
0.0
 10
361.777180
 20
44.369037
 30
0.0
 10
360.894400
 20
46.604380
 30
0.0
 10
360.894400
 20
49.464380
 30
0.0
  0
SPLINE
  5
1a0
100
AcDbEntity
  8
Layer_2
 62
7
100
AcDbSpline
 70
8
 71
3
 72
8
 73
4
 74
0
 40
0
 40
0
 40
0
 40
0
 40
1
 40
1
 40
1
 40
1
 10
360.894400
 20
49.464380
 30
0.0
 10
360.894400
 20
52.324373
 30
0.0
 10
361.777180
 20
54.554550
 30
0.0
 10
363.542740
 20
56.154910
 30
0.0
  0
SPLINE
  5
1a1
100
AcDbEntity
  8
Layer_2
 62
7
100
AcDbSpline
 70
8
 71
3
 72
8
 73
4
 74
0
 40
0
 40
0
 40
0
 40
0
 40
1
 40
1
 40
1
 40
1
 10
363.542740
 20
56.154910
 30
0.0
 10
365.308300
 20
57.765597
 30
0.0
 10
367.755303
 20
58.570940
 30
0.0
 10
370.883750
 20
58.570940
 30
0.0
  0
SPLINE
  5
1a2
100
AcDbEntity
  8
Layer_2
 62
7
100
AcDbSpline
 70
8
 71
3
 72
8
 73
4
 74
0
 40
0
 40
0
 40
0
 40
0
 40
1
 40
1
 40
1
 40
1
 10
370.883750
 20
58.570940
 30
0.0
 10
371.792337
 20
58.570940
 30
0.0
 10
372.685440
 20
58.488340
 30
0.0
 10
373.563060
 20
58.323140
 30
0.0
  0
SPLINE
  5
1a3
100
AcDbEntity
  8
Layer_2
 62
7
100
AcDbSpline
 70
8
 71
3
 72
8
 73
4
 74
0
 40
0
 40
0
 40
0
 40
0
 40
1
 40
1
 40
1
 40
1
 10
373.563060
 20
58.323140
 30
0.0
 10
374.451000
 20
58.168267
 30
0.0
 10
375.333780
 20
57.930797
 30
0.0
 10
376.211400
 20
57.610730
 30
0.0
  0
LWPOLYLINE
  5
1a4
100
AcDbEntity
  8
Layer_2
 62
7
100
AcDbPolyline
 90
2
 70
0
 10
376.211400
 20
45.855820
 30
0.0
 10
376.211400
 20
41.318030
 30
0.0
  0
LWPOLYLINE
  5
1a5
100
AcDbEntity
  8
Layer_2
 62
7
100
AcDbPolyline
 90
1
 70
1
 10
376.211400
 20
57.610730
 30
0.0
  0
LWPOLYLINE
  5
1a6
100
AcDbEntity
  8
Layer_2
 62
7
100
AcDbPolyline
 90
11
 70
1
 10
380.996990
 20
64.905270
 30
0.0
 10
386.541470
 20
64.905270
 30
0.0
 10
386.541470
 20
51.787480
 30
0.0
 10
392.922250
 20
58.152780
 30
0.0
 10
399.364990
 20
58.152780
 30
0.0
 10
390.893410
 20
50.192280
 30
0.0
 10
400.030950
 20
40.806950
 30
0.0
 10
393.309440
 20
40.806950
 30
0.0
 10
386.541470
 20
48.039540
 30
0.0
 10
386.541470
 20
40.806950
 30
0.0
 10
380.996990
 20
40.806950
 30
0.0
  0
SPLINE
  5
1a7
100
AcDbEntity
  8
Layer_2
 62
7
100
AcDbSpline
 70
8
 71
3
 72
8
 73
4
 74
0
 40
0
 40
0
 40
0
 40
0
 40
1
 40
1
 40
1
 40
1
 10
405.590910
 20
47.946620
 30
0.0
 10
405.725130
 20
46.645680
 30
0.0
 10
406.194910
 20
45.669977
 30
0.0
 10
407.000250
 20
45.019510
 30
0.0
  0
SPLINE
  5
1a8
100
AcDbEntity
  8
Layer_2
 62
7
100
AcDbSpline
 70
8
 71
3
 72
8
 73
4
 74
0
 40
0
 40
0
 40
0
 40
0
 40
1
 40
1
 40
1
 40
1
 10
407.000250
 20
45.019510
 30
0.0
 10
407.805597
 20
44.369037
 30
0.0
 10
408.931013
 20
44.043800
 30
0.0
 10
410.376500
 20
44.043800
 30
0.0
  0
SPLINE
  5
1a9
100
AcDbEntity
  8
Layer_2
 62
7
100
AcDbSpline
 70
8
 71
3
 72
8
 73
4
 74
0
 40
0
 40
0
 40
0
 40
0
 40
1
 40
1
 40
1
 40
1
 10
410.376500
 20
44.043800
 30
0.0
 10
411.543213
 20
44.043800
 30
0.0
 10
412.735740
 20
44.214163
 30
0.0
 10
413.954080
 20
44.554890
 30
0.0
  0
SPLINE
  5
1aa
100
AcDbEntity
  8
Layer_2
 62
7
100
AcDbSpline
 70
8
 71
3
 72
8
 73
4
 74
0
 40
0
 40
0
 40
0
 40
0
 40
1
 40
1
 40
1
 40
1
 10
413.954080
 20
44.554890
 30
0.0
 10
415.182740
 20
44.905937
 30
0.0
 10
416.442377
 20
45.432507
 30
0.0
 10
417.732990
 20
46.134600
 30
0.0
  0
LWPOLYLINE
  5
1ab
100
AcDbEntity
  8
Layer_2
 62
7
100
AcDbPolyline
 90
3
 70
0
 10
418.553820
 20
49.526330
 30
0.0
 10
418.553820
 20
47.946620
 30
0.0
 10
405.590910
 20
47.946620
 30
0.0
  0
SPLINE
  5
1ac
100
AcDbEntity
  8
Layer_2
 62
7
100
AcDbSpline
 70
8
 71
3
 72
8
 73
4
 74
0
 40
0
 40
0
 40
0
 40
0
 40
1
 40
1
 40
1
 40
1
 10
417.732990
 20
41.860090
 30
0.0
 10
416.421730
 20
41.364490
 30
0.0
 10
415.110467
 20
40.992793
 30
0.0
 10
413.799200
 20
40.745000
 30
0.0
  0
SPLINE
  5
1ad
100
AcDbEntity
  8
Layer_2
 62
7
100
AcDbSpline
 70
8
 71
3
 72
8
 73
4
 74
0
 40
0
 40
0
 40
0
 40
0
 40
1
 40
1
 40
1
 40
1
 10
413.799200
 20
40.745000
 30
0.0
 10
412.487940
 20
40.486873
 30
0.0
 10
411.176677
 20
40.357810
 30
0.0
 10
409.865410
 20
40.357810
 30
0.0
  0
SPLINE
  5
1ae
100
AcDbEntity
  8
Layer_2
 62
7
100
AcDbSpline
 70
8
 71
3
 72
8
 73
4
 74
0
 40
0
 40
0
 40
0
 40
0
 40
1
 40
1
 40
1
 40
1
 10
409.865410
 20
40.357810
 30
0.0
 10
406.726643
 20
40.357810
 30
0.0
 10
404.284807
 20
41.152830
 30
0.0
 10
402.539900
 20
42.742870
 30
0.0
  0
SPLINE
  5
1af
100
AcDbEntity
  8
Layer_2
 62
7
100
AcDbSpline
 70
8
 71
3
 72
8
 73
4
 74
0
 40
0
 40
0
 40
0
 40
0
 40
1
 40
1
 40
1
 40
1
 10
402.539900
 20
42.742870
 30
0.0
 10
400.805313
 20
44.343230
 30
0.0
 10
399.938020
 20
46.583733
 30
0.0
 10
399.938020
 20
49.464380
 30
0.0
  0
SPLINE
  5
1b0
100
AcDbEntity
  8
Layer_2
 62
7
100
AcDbSpline
 70
8
 71
3
 72
8
 73
4
 74
0
 40
0
 40
0
 40
0
 40
0
 40
1
 40
1
 40
1
 40
1
 10
399.938020
 20
49.464380
 30
0.0
 10
399.938020
 20
52.293400
 30
0.0
 10
400.789823
 20
54.518417
 30
0.0
 10
402.493430
 20
56.139430
 30
0.0
  0
SPLINE
  5
1b1
100
AcDbEntity
  8
Layer_2
 62
7
100
AcDbSpline
 70
8
 71
3
 72
8
 73
4
 74
0
 40
0
 40
0
 40
0
 40
0
 40
1
 40
1
 40
1
 40
1
 10
402.493430
 20
56.139430
 30
0.0
 10
404.207370
 20
57.760437
 30
0.0
 10
406.561450
 20
58.570940
 30
0.0
 10
409.555670
 20
58.570940
 30
0.0
  0
SPLINE
  5
1b2
100
AcDbEntity
  8
Layer_2
 62
7
100
AcDbSpline
 70
8
 71
3
 72
8
 73
4
 74
0
 40
0
 40
0
 40
0
 40
0
 40
1
 40
1
 40
1
 40
1
 10
409.555670
 20
58.570940
 30
0.0
 10
412.281443
 20
58.570940
 30
0.0
 10
414.459997
 20
57.750110
 30
0.0
 10
416.091330
 20
56.108450
 30
0.0
  0
SPLINE
  5
1b3
100
AcDbEntity
  8
Layer_2
 62
7
100
AcDbSpline
 70
8
 71
3
 72
8
 73
4
 74
0
 40
0
 40
0
 40
0
 40
0
 40
1
 40
1
 40
1
 40
1
 10
416.091330
 20
56.108450
 30
0.0
 10
417.732990
 20
54.466790
 30
0.0
 10
418.553820
 20
52.272750
 30
0.0
 10
418.553820
 20
49.526330
 30
0.0
  0
LWPOLYLINE
  5
1b4
100
AcDbEntity
  8
Layer_2
 62
7
100
AcDbPolyline
 90
2
 70
0
 10
417.732990
 20
46.134600
 30
0.0
 10
417.732990
 20
41.860090
 30
0.0
  0
SPLINE
  5
1b5
100
AcDbEntity
  8
Layer_2
 62
7
100
AcDbSpline
 70
8
 71
3
 72
8
 73
4
 74
0
 40
0
 40
0
 40
0
 40
0
 40
1
 40
1
 40
1
 40
1
 10
412.854470
 20
51.369320
 30
0.0
 10
412.854470
 20
52.422460
 30
0.0
 10
412.544723
 20
53.269103
 30
0.0
 10
411.925230
 20
53.909250
 30
0.0
  0
SPLINE
  5
1b6
100
AcDbEntity
  8
Layer_2
 62
7
100
AcDbSpline
 70
8
 71
3
 72
8
 73
4
 74
0
 40
0
 40
0
 40
0
 40
0
 40
1
 40
1
 40
1
 40
1
 10
411.925230
 20
53.909250
 30
0.0
 10
411.316063
 20
54.559717
 30
0.0
 10
410.515883
 20
54.884950
 30
0.0
 10
409.524690
 20
54.884950
 30
0.0
  0
SPLINE
  5
1b7
100
AcDbEntity
  8
Layer_2
 62
7
100
AcDbSpline
 70
8
 71
3
 72
8
 73
4
 74
0
 40
0
 40
0
 40
0
 40
0
 40
1
 40
1
 40
1
 40
1
 10
409.524690
 20
54.884950
 30
0.0
 10
408.450903
 20
54.884950
 30
0.0
 10
407.578450
 20
54.580367
 30
0.0
 10
406.907330
 20
53.971200
 30
0.0
  0
SPLINE
  5
1b8
100
AcDbEntity
  8
Layer_2
 62
7
100
AcDbSpline
 70
8
 71
3
 72
8
 73
4
 74
0
 40
0
 40
0
 40
0
 40
0
 40
1
 40
1
 40
1
 40
1
 10
406.907330
 20
53.971200
 30
0.0
 10
406.236210
 20
53.372353
 30
0.0
 10
405.818050
 20
52.505060
 30
0.0
 10
405.652850
 20
51.369320
 30
0.0
  0
LWPOLYLINE
  5
1b9
100
AcDbEntity
  8
Layer_2
 62
7
100
AcDbPolyline
 90
1
 70
1
 10
418.553820
 20
49.526330
 30
0.0
  0
SPLINE
  5
1ba
100
AcDbEntity
  8
Layer_2
 62
7
100
AcDbSpline
 70
8
 71
3
 72
8
 73
4
 74
0
 40
0
 40
0
 40
0
 40
0
 40
1
 40
1
 40
1
 40
1
 10
435.636370
 20
53.429140
 30
0.0
 10
435.151097
 20
53.656287
 30
0.0
 10
434.665827
 20
53.821487
 30
0.0
 10
434.180560
 20
53.924740
 30
0.0
  0
SPLINE
  5
1bb
100
AcDbEntity
  8
Layer_2
 62
7
100
AcDbSpline
 70
8
 71
3
 72
8
 73
4
 74
0
 40
0
 40
0
 40
0
 40
0
 40
1
 40
1
 40
1
 40
1
 10
434.180560
 20
53.924740
 30
0.0
 10
433.705613
 20
54.038313
 30
0.0
 10
433.225503
 20
54.095100
 30
0.0
 10
432.740230
 20
54.095100
 30
0.0
  0
SPLINE
  5
1bc
100
AcDbEntity
  8
Layer_2
 62
7
100
AcDbSpline
 70
8
 71
3
 72
8
 73
4
 74
0
 40
0
 40
0
 40
0
 40
0
 40
1
 40
1
 40
1
 40
1
 10
432.740230
 20
54.095100
 30
0.0
 10
431.315397
 20
54.095100
 30
0.0
 10
430.215797
 20
53.635640
 30
0.0
 10
429.441430
 20
52.716720
 30
0.0
  0
SPLINE
  5
1bd
100
AcDbEntity
  8
Layer_2
 62
7
100
AcDbSpline
 70
8
 71
3
 72
8
 73
4
 74
0
 40
0
 40
0
 40
0
 40
0
 40
1
 40
1
 40
1
 40
1
 10
429.441430
 20
52.716720
 30
0.0
 10
428.677383
 20
51.808127
 30
0.0
 10
428.295360
 20
50.502027
 30
0.0
 10
428.295360
 20
48.798420
 30
0.0
  0
LWPOLYLINE
  5
1be
100
AcDbEntity
  8
Layer_2
 62
7
100
AcDbPolyline
 90
2
 70
0
 10
405.652850
 20
51.369320
 30
0.0
 10
412.854470
 20
51.369320
 30
0.0
  0
SPLINE
  5
1bf
100
AcDbEntity
  8
Layer_2
 62
7
100
AcDbSpline
 70
8
 71
3
 72
8
 73
4
 74
0
 40
0
 40
0
 40
0
 40
0
 40
1
 40
1
 40
1
 40
1
 10
428.295360
 20
55.303110
 30
0.0
 10
429.007780
 20
56.438850
 30
0.0
 10
429.823450
 20
57.264843
 30
0.0
 10
430.742370
 20
57.781090
 30
0.0
  0
SPLINE
  5
1c0
100
AcDbEntity
  8
Layer_2
 62
7
100
AcDbSpline
 70
8
 71
3
 72
8
 73
4
 74
0
 40
0
 40
0
 40
0
 40
0
 40
1
 40
1
 40
1
 40
1
 10
430.742370
 20
57.781090
 30
0.0
 10
431.671610
 20
58.307657
 30
0.0
 10
432.781537
 20
58.570940
 30
0.0
 10
434.072150
 20
58.570940
 30
0.0
  0
SPLINE
  5
1c1
100
AcDbEntity
  8
Layer_2
 62
7
100
AcDbSpline
 70
8
 71
3
 72
8
 73
4
 74
0
 40
0
 40
0
 40
0
 40
0
 40
1
 40
1
 40
1
 40
1
 10
434.072150
 20
58.570940
 30
0.0
 10
434.257997
 20
58.570940
 30
0.0
 10
434.459330
 20
58.560607
 30
0.0
 10
434.676150
 20
58.539940
 30
0.0
  0
SPLINE
  5
1c2
100
AcDbEntity
  8
Layer_2
 62
7
100
AcDbSpline
 70
8
 71
3
 72
8
 73
4
 74
0
 40
0
 40
0
 40
0
 40
0
 40
1
 40
1
 40
1
 40
1
 10
434.676150
 20
58.539940
 30
0.0
 10
434.892977
 20
58.529607
 30
0.0
 10
435.207887
 20
58.498640
 30
0.0
 10
435.620880
 20
58.447040
 30
0.0
  0
LWPOLYLINE
  5
1c3
100
AcDbEntity
  8
Layer_2
 62
7
100
AcDbPolyline
 90
6
 70
0
 10
428.295360
 20
48.798420
 30
0.0
 10
428.295360
 20
40.806950
 30
0.0
 10
422.750890
 20
40.806950
 30
0.0
 10
422.750890
 20
58.152780
 30
0.0
 10
428.295360
 20
58.152780
 30
0.0
 10
428.295360
 20
55.303110
 30
0.0
  0
LWPOLYLINE
  5
1c4
100
AcDbEntity
  8
Layer_2
 62
7
100
AcDbPolyline
 90
2
 70
0
 10
435.620880
 20
58.447040
 30
0.0
 10
435.636370
 20
53.429140
 30
0.0
  0
SPLINE
  5
1c5
100
AcDbEntity
  8
Layer_2
 62
7
100
AcDbSpline
 70
8
 71
3
 72
8
 73
4
 74
0
 40
0
 40
0
 40
0
 40
0
 40
1
 40
1
 40
1
 40
1
 10
451.944550
 20
53.398170
 30
0.0
 10
450.757190
 20
53.893763
 30
0.0
 10
449.611127
 20
54.265457
 30
0.0
 10
448.506360
 20
54.513250
 30
0.0
  0
SPLINE
  5
1c6
100
AcDbEntity
  8
Layer_2
 62
7
100
AcDbSpline
 70
8
 71
3
 72
8
 73
4
 74
0
 40
0
 40
0
 40
0
 40
0
 40
1
 40
1
 40
1
 40
1
 10
448.506360
 20
54.513250
 30
0.0
 10
447.401593
 20
54.761050
 30
0.0
 10
446.358777
 20
54.884950
 30
0.0
 10
445.377910
 20
54.884950
 30
0.0
  0
SPLINE
  5
1c7
100
AcDbEntity
  8
Layer_2
 62
7
100
AcDbSpline
 70
8
 71
3
 72
8
 73
4
 74
0
 40
0
 40
0
 40
0
 40
0
 40
1
 40
1
 40
1
 40
1
 10
445.377910
 20
54.884950
 30
0.0
 10
444.324770
 20
54.884950
 30
0.0
 10
443.540080
 20
54.750727
 30
0.0
 10
443.023840
 20
54.482280
 30
0.0
  0
SPLINE
  5
1c8
100
AcDbEntity
  8
Layer_2
 62
7
100
AcDbSpline
 70
8
 71
3
 72
8
 73
4
 74
0
 40
0
 40
0
 40
0
 40
0
 40
1
 40
1
 40
1
 40
1
 10
443.023840
 20
54.482280
 30
0.0
 10
442.517920
 20
54.224160
 30
0.0
 10
442.264960
 20
53.821490
 30
0.0
 10
442.264960
 20
53.274270
 30
0.0
  0
SPLINE
  5
1c9
100
AcDbEntity
  8
Layer_2
 62
7
100
AcDbSpline
 70
8
 71
3
 72
8
 73
4
 74
0
 40
0
 40
0
 40
0
 40
0
 40
1
 40
1
 40
1
 40
1
 10
442.264960
 20
53.274270
 30
0.0
 10
442.264960
 20
52.830297
 30
0.0
 10
442.455970
 20
52.489573
 30
0.0
 10
442.837990
 20
52.252100
 30
0.0
  0
SPLINE
  5
1ca
100
AcDbEntity
  8
Layer_2
 62
7
100
AcDbSpline
 70
8
 71
3
 72
8
 73
4
 74
0
 40
0
 40
0
 40
0
 40
0
 40
1
 40
1
 40
1
 40
1
 10
442.837990
 20
52.252100
 30
0.0
 10
443.230337
 20
52.014627
 30
0.0
 10
443.927267
 20
51.839103
 30
0.0
 10
444.928780
 20
51.725530
 30
0.0
  0
LWPOLYLINE
  5
1cb
100
AcDbEntity
  8
Layer_2
 62
7
100
AcDbPolyline
 90
2
 70
0
 10
451.944550
 20
57.610730
 30
0.0
 10
451.944550
 20
53.398170
 30
0.0
  0
SPLINE
  5
1cc
100
AcDbEntity
  8
Layer_2
 62
7
100
AcDbSpline
 70
8
 71
3
 72
8
 73
4
 74
0
 40
0
 40
0
 40
0
 40
0
 40
1
 40
1
 40
1
 40
1
 10
445.904480
 20
51.586140
 30
0.0
 10
448.743833
 20
51.224773
 30
0.0
 10
450.653943
 20
50.631093
 30
0.0
 10
451.634810
 20
49.805100
 30
0.0
  0
SPLINE
  5
1cd
100
AcDbEntity
  8
Layer_2
 62
7
100
AcDbSpline
 70
8
 71
3
 72
8
 73
4
 74
0
 40
0
 40
0
 40
0
 40
0
 40
1
 40
1
 40
1
 40
1
 10
451.634810
 20
49.805100
 30
0.0
 10
452.615670
 20
48.979107
 30
0.0
 10
453.106100
 20
47.683330
 30
0.0
 10
453.106100
 20
45.917770
 30
0.0
  0
SPLINE
  5
1ce
100
AcDbEntity
  8
Layer_2
 62
7
100
AcDbSpline
 70
8
 71
3
 72
8
 73
4
 74
0
 40
0
 40
0
 40
0
 40
0
 40
1
 40
1
 40
1
 40
1
 10
453.106100
 20
45.917770
 30
0.0
 10
453.106100
 20
44.069617
 30
0.0
 10
452.424657
 20
42.680920
 30
0.0
 10
451.061770
 20
41.751680
 30
0.0
  0
SPLINE
  5
1cf
100
AcDbEntity
  8
Layer_2
 62
7
100
AcDbSpline
 70
8
 71
3
 72
8
 73
4
 74
0
 40
0
 40
0
 40
0
 40
0
 40
1
 40
1
 40
1
 40
1
 10
451.061770
 20
41.751680
 30
0.0
 10
449.698883
 20
40.822433
 30
0.0
 10
447.664880
 20
40.357810
 30
0.0
 10
444.959760
 20
40.357810
 30
0.0
  0
SPLINE
  5
1d0
100
AcDbEntity
  8
Layer_2
 62
7
100
AcDbSpline
 70
8
 71
3
 72
8
 73
4
 74
0
 40
0
 40
0
 40
0
 40
0
 40
1
 40
1
 40
1
 40
1
 10
444.959760
 20
40.357810
 30
0.0
 10
443.813693
 20
40.357810
 30
0.0
 10
442.626330
 20
40.450737
 30
0.0
 10
441.397670
 20
40.636590
 30
0.0
  0
SPLINE
  5
1d1
100
AcDbEntity
  8
Layer_2
 62
7
100
AcDbSpline
 70
8
 71
3
 72
8
 73
4
 74
0
 40
0
 40
0
 40
0
 40
0
 40
1
 40
1
 40
1
 40
1
 10
441.397670
 20
40.636590
 30
0.0
 10
440.179330
 20
40.812110
 30
0.0
 10
438.924853
 20
41.080557
 30
0.0
 10
437.634240
 20
41.441930
 30
0.0
  0
LWPOLYLINE
  5
1d2
100
AcDbEntity
  8
Layer_2
 62
7
100
AcDbPolyline
 90
2
 70
0
 10
444.928780
 20
51.725530
 30
0.0
 10
445.904480
 20
51.586140
 30
0.0
  0
SPLINE
  5
1d3
100
AcDbEntity
  8
Layer_2
 62
7
100
AcDbSpline
 70
8
 71
3
 72
8
 73
4
 74
0
 40
0
 40
0
 40
0
 40
0
 40
1
 40
1
 40
1
 40
1
 10
437.634240
 20
45.654490
 30
0.0
 10
438.739007
 20
45.117597
 30
0.0
 10
439.869583
 20
44.714923
 30
0.0
 10
441.025970
 20
44.446470
 30
0.0
  0
SPLINE
  5
1d4
100
AcDbEntity
  8
Layer_2
 62
7
100
AcDbSpline
 70
8
 71
3
 72
8
 73
4
 74
0
 40
0
 40
0
 40
0
 40
0
 40
1
 40
1
 40
1
 40
1
 10
441.025970
 20
44.446470
 30
0.0
 10
442.192683
 20
44.178023
 30
0.0
 10
443.374883
 20
44.043800
 30
0.0
 10
444.572570
 20
44.043800
 30
0.0
  0
SPLINE
  5
1d5
100
AcDbEntity
  8
Layer_2
 62
7
100
AcDbSpline
 70
8
 71
3
 72
8
 73
4
 74
0
 40
0
 40
0
 40
0
 40
0
 40
1
 40
1
 40
1
 40
1
 10
444.572570
 20
44.043800
 30
0.0
 10
445.656683
 20
44.043800
 30
0.0
 10
446.472350
 20
44.193513
 30
0.0
 10
447.019570
 20
44.492940
 30
0.0
  0
SPLINE
  5
1d6
100
AcDbEntity
  8
Layer_2
 62
7
100
AcDbSpline
 70
8
 71
3
 72
8
 73
4
 74
0
 40
0
 40
0
 40
0
 40
0
 40
1
 40
1
 40
1
 40
1
 10
447.019570
 20
44.492940
 30
0.0
 10
447.566790
 20
44.792360
 30
0.0
 10
447.840400
 20
45.236330
 30
0.0
 10
447.840400
 20
45.824850
 30
0.0
  0
SPLINE
  5
1d7
100
AcDbEntity
  8
Layer_2
 62
7
100
AcDbSpline
 70
8
 71
3
 72
8
 73
4
 74
0
 40
0
 40
0
 40
0
 40
0
 40
1
 40
1
 40
1
 40
1
 10
447.840400
 20
45.824850
 30
0.0
 10
447.840400
 20
46.320443
 30
0.0
 10
447.649390
 20
46.686977
 30
0.0
 10
447.267370
 20
46.924450
 30
0.0
  0
SPLINE
  5
1d8
100
AcDbEntity
  8
Layer_2
 62
7
100
AcDbSpline
 70
8
 71
3
 72
8
 73
4
 74
0
 40
0
 40
0
 40
0
 40
0
 40
1
 40
1
 40
1
 40
1
 10
447.267370
 20
46.924450
 30
0.0
 10
446.895677
 20
47.172250
 30
0.0
 10
446.147123
 20
47.363260
 30
0.0
 10
445.021710
 20
47.497480
 30
0.0
  0
LWPOLYLINE
  5
1d9
100
AcDbEntity
  8
Layer_2
 62
7
100
AcDbPolyline
 90
2
 70
0
 10
437.634240
 20
41.441930
 30
0.0
 10
437.634240
 20
45.654490
 30
0.0
  0
SPLINE
  5
1da
100
AcDbEntity
  8
Layer_2
 62
7
100
AcDbSpline
 70
8
 71
3
 72
8
 73
4
 74
0
 40
0
 40
0
 40
0
 40
0
 40
1
 40
1
 40
1
 40
1
 10
444.046000
 20
47.621380
 30
0.0
 10
441.578353
 20
47.931127
 30
0.0
 10
439.848933
 20
48.504160
 30
0.0
 10
438.857740
 20
49.340480
 30
0.0
  0
SPLINE
  5
1db
100
AcDbEntity
  8
Layer_2
 62
7
100
AcDbSpline
 70
8
 71
3
 72
8
 73
4
 74
0
 40
0
 40
0
 40
0
 40
0
 40
1
 40
1
 40
1
 40
1
 10
438.857740
 20
49.340480
 30
0.0
 10
437.866547
 20
50.176793
 30
0.0
 10
437.370950
 20
51.446757
 30
0.0
 10
437.370950
 20
53.150370
 30
0.0
  0
SPLINE
  5
1dc
100
AcDbEntity
  8
Layer_2
 62
7
100
AcDbSpline
 70
8
 71
3
 72
8
 73
4
 74
0
 40
0
 40
0
 40
0
 40
0
 40
1
 40
1
 40
1
 40
1
 10
437.370950
 20
53.150370
 30
0.0
 10
437.370950
 20
54.988203
 30
0.0
 10
438.000770
 20
56.351090
 30
0.0
 10
439.260410
 20
57.239030
 30
0.0
  0
SPLINE
  5
1dd
100
AcDbEntity
  8
Layer_2
 62
7
100
AcDbSpline
 70
8
 71
3
 72
8
 73
4
 74
0
 40
0
 40
0
 40
0
 40
0
 40
1
 40
1
 40
1
 40
1
 10
439.260410
 20
57.239030
 30
0.0
 10
440.520050
 20
58.126970
 30
0.0
 10
442.450807
 20
58.570940
 30
0.0
 10
445.052680
 20
58.570940
 30
0.0
  0
SPLINE
  5
1de
100
AcDbEntity
  8
Layer_2
 62
7
100
AcDbSpline
 70
8
 71
3
 72
8
 73
4
 74
0
 40
0
 40
0
 40
0
 40
0
 40
1
 40
1
 40
1
 40
1
 10
445.052680
 20
58.570940
 30
0.0
 10
446.074847
 20
58.570940
 30
0.0
 10
447.148637
 20
58.493503
 30
0.0
 10
448.274050
 20
58.338630
 30
0.0
  0
SPLINE
  5
1df
100
AcDbEntity
  8
Layer_2
 62
7
100
AcDbSpline
 70
8
 71
3
 72
8
 73
4
 74
0
 40
0
 40
0
 40
0
 40
0
 40
1
 40
1
 40
1
 40
1
 10
448.274050
 20
58.338630
 30
0.0
 10
449.399463
 20
58.183757
 30
0.0
 10
450.622963
 20
57.941123
 30
0.0
 10
451.944550
 20
57.610730
 30
0.0
  0
LWPOLYLINE
  5
1e0
100
AcDbEntity
  8
Layer_2
 62
7
100
AcDbPolyline
 90
2
 70
0
 10
445.021710
 20
47.497480
 30
0.0
 10
444.046000
 20
47.621380
 30
0.0
  0
LWPOLYLINE
  5
1e1
100
AcDbEntity
  8
Layer_2
 62
7
100
AcDbPolyline
 90
1
 70
1
 10
451.944550
 20
57.610730
 30
0.0
  0
SPLINE
  5
1e2
100
AcDbEntity
  8
Layer_2
 62
7
100
AcDbSpline
 70
8
 71
3
 72
8
 73
4
 74
0
 40
0
 40
0
 40
0
 40
0
 40
1
 40
1
 40
1
 40
1
 10
462.816680
 20
55.612860
 30
0.0
 10
463.580720
 20
56.624700
 30
0.0
 10
464.427363
 20
57.368093
 30
0.0
 10
465.356610
 20
57.843040
 30
0.0
  0
SPLINE
  5
1e3
100
AcDbEntity
  8
Layer_2
 62
7
100
AcDbSpline
 70
8
 71
3
 72
8
 73
4
 74
0
 40
0
 40
0
 40
0
 40
0
 40
1
 40
1
 40
1
 40
1
 10
465.356610
 20
57.843040
 30
0.0
 10
466.285850
 20
58.328307
 30
0.0
 10
467.354477
 20
58.570940
 30
0.0
 10
468.562490
 20
58.570940
 30
0.0
  0
SPLINE
  5
1e4
100
AcDbEntity
  8
Layer_2
 62
7
100
AcDbSpline
 70
8
 71
3
 72
8
 73
4
 74
0
 40
0
 40
0
 40
0
 40
0
 40
1
 40
1
 40
1
 40
1
 10
468.562490
 20
58.570940
 30
0.0
 10
470.699743
 20
58.570940
 30
0.0
 10
472.454977
 20
57.719137
 30
0.0
 10
473.828190
 20
56.015530
 30
0.0
  0
SPLINE
  5
1e5
100
AcDbEntity
  8
Layer_2
 62
7
100
AcDbSpline
 70
8
 71
3
 72
8
 73
4
 74
0
 40
0
 40
0
 40
0
 40
0
 40
1
 40
1
 40
1
 40
1
 10
473.828190
 20
56.015530
 30
0.0
 10
475.201403
 20
54.322243
 30
0.0
 10
475.888010
 20
52.138527
 30
0.0
 10
475.888010
 20
49.464380
 30
0.0
  0
SPLINE
  5
1e6
100
AcDbEntity
  8
Layer_2
 62
7
100
AcDbSpline
 70
8
 71
3
 72
8
 73
4
 74
0
 40
0
 40
0
 40
0
 40
0
 40
1
 40
1
 40
1
 40
1
 10
475.888010
 20
49.464380
 30
0.0
 10
475.888010
 20
46.790227
 30
0.0
 10
475.201403
 20
44.601347
 30
0.0
 10
473.828190
 20
42.897740
 30
0.0
  0
SPLINE
  5
1e7
100
AcDbEntity
  8
Layer_2
 62
7
100
AcDbSpline
 70
8
 71
3
 72
8
 73
4
 74
0
 40
0
 40
0
 40
0
 40
0
 40
1
 40
1
 40
1
 40
1
 10
473.828190
 20
42.897740
 30
0.0
 10
472.454977
 20
41.204453
 30
0.0
 10
470.699743
 20
40.357810
 30
0.0
 10
468.562490
 20
40.357810
 30
0.0
  0
SPLINE
  5
1e8
100
AcDbEntity
  8
Layer_2
 62
7
100
AcDbSpline
 70
8
 71
3
 72
8
 73
4
 74
0
 40
0
 40
0
 40
0
 40
0
 40
1
 40
1
 40
1
 40
1
 10
468.562490
 20
40.357810
 30
0.0
 10
467.354477
 20
40.357810
 30
0.0
 10
466.285850
 20
40.595283
 30
0.0
 10
465.356610
 20
41.070230
 30
0.0
  0
SPLINE
  5
1e9
100
AcDbEntity
  8
Layer_2
 62
7
100
AcDbSpline
 70
8
 71
3
 72
8
 73
4
 74
0
 40
0
 40
0
 40
0
 40
0
 40
1
 40
1
 40
1
 40
1
 10
465.356610
 20
41.070230
 30
0.0
 10
464.427363
 20
41.555503
 30
0.0
 10
463.580720
 20
42.304060
 30
0.0
 10
462.816680
 20
43.315900
 30
0.0
  0
LWPOLYLINE
  5
1ea
100
AcDbEntity
  8
Layer_2
 62
7
100
AcDbPolyline
 90
6
 70
0
 10
462.816680
 20
43.315900
 30
0.0
 10
462.816680
 20
34.209330
 30
0.0
 10
457.272210
 20
34.209330
 30
0.0
 10
457.272210
 20
58.152780
 30
0.0
 10
462.816680
 20
58.152780
 30
0.0
 10
462.816680
 20
55.612860
 30
0.0
  0
SPLINE
  5
1eb
100
AcDbEntity
  8
Layer_2
 62
7
100
AcDbSpline
 70
8
 71
3
 72
8
 73
4
 74
0
 40
0
 40
0
 40
0
 40
0
 40
1
 40
1
 40
1
 40
1
 10
466.502670
 20
54.544230
 30
0.0
 10
465.315303
 20
54.544230
 30
0.0
 10
464.401550
 20
54.105420
 30
0.0
 10
463.761410
 20
53.227800
 30
0.0
  0
SPLINE
  5
1ec
100
AcDbEntity
  8
Layer_2
 62
7
100
AcDbSpline
 70
8
 71
3
 72
8
 73
4
 74
0
 40
0
 40
0
 40
0
 40
0
 40
1
 40
1
 40
1
 40
1
 10
463.761410
 20
53.227800
 30
0.0
 10
463.131590
 20
52.360513
 30
0.0
 10
462.816680
 20
51.106040
 30
0.0
 10
462.816680
 20
49.464380
 30
0.0
  0
SPLINE
  5
1ed
100
AcDbEntity
  8
Layer_2
 62
7
100
AcDbSpline
 70
8
 71
3
 72
8
 73
4
 74
0
 40
0
 40
0
 40
0
 40
0
 40
1
 40
1
 40
1
 40
1
 10
462.816680
 20
49.464380
 30
0.0
 10
462.816680
 20
47.822720
 30
0.0
 10
463.131590
 20
46.563080
 30
0.0
 10
463.761410
 20
45.685460
 30
0.0
  0
SPLINE
  5
1ee
100
AcDbEntity
  8
Layer_2
 62
7
100
AcDbSpline
 70
8
 71
3
 72
8
 73
4
 74
0
 40
0
 40
0
 40
0
 40
0
 40
1
 40
1
 40
1
 40
1
 10
463.761410
 20
45.685460
 30
0.0
 10
464.401550
 20
44.818173
 30
0.0
 10
465.315303
 20
44.384530
 30
0.0
 10
466.502670
 20
44.384530
 30
0.0
  0
SPLINE
  5
1ef
100
AcDbEntity
  8
Layer_2
 62
7
100
AcDbSpline
 70
8
 71
3
 72
8
 73
4
 74
0
 40
0
 40
0
 40
0
 40
0
 40
1
 40
1
 40
1
 40
1
 10
466.502670
 20
44.384530
 30
0.0
 10
467.690037
 20
44.384530
 30
0.0
 10
468.593467
 20
44.818173
 30
0.0
 10
469.212960
 20
45.685460
 30
0.0
  0
SPLINE
  5
1f0
100
AcDbEntity
  8
Layer_2
 62
7
100
AcDbSpline
 70
8
 71
3
 72
8
 73
4
 74
0
 40
0
 40
0
 40
0
 40
0
 40
1
 40
1
 40
1
 40
1
 10
469.212960
 20
45.685460
 30
0.0
 10
469.842780
 20
46.552753
 30
0.0
 10
470.157690
 20
47.812393
 30
0.0
 10
470.157690
 20
49.464380
 30
0.0
  0
SPLINE
  5
1f1
100
AcDbEntity
  8
Layer_2
 62
7
100
AcDbSpline
 70
8
 71
3
 72
8
 73
4
 74
0
 40
0
 40
0
 40
0
 40
0
 40
1
 40
1
 40
1
 40
1
 10
470.157690
 20
49.464380
 30
0.0
 10
470.157690
 20
51.116360
 30
0.0
 10
469.842780
 20
52.375997
 30
0.0
 10
469.212960
 20
53.243290
 30
0.0
  0
SPLINE
  5
1f2
100
AcDbEntity
  8
Layer_2
 62
7
100
AcDbSpline
 70
8
 71
3
 72
8
 73
4
 74
0
 40
0
 40
0
 40
0
 40
0
 40
1
 40
1
 40
1
 40
1
 10
469.212960
 20
53.243290
 30
0.0
 10
468.593467
 20
54.110583
 30
0.0
 10
467.690037
 20
54.544230
 30
0.0
 10
466.502670
 20
54.544230
 30
0.0
  0
LWPOLYLINE
  5
1f3
100
AcDbEntity
  8
Layer_2
 62
7
100
AcDbPolyline
 90
1
 70
1
 10
462.816680
 20
43.315900
 30
0.0
  0
SPLINE
  5
1f4
100
AcDbEntity
  8
Layer_2
 62
7
100
AcDbSpline
 70
8
 71
3
 72
8
 73
4
 74
0
 40
0
 40
0
 40
0
 40
0
 40
1
 40
1
 40
1
 40
1
 10
487.751310
 20
48.612570
 30
0.0
 10
486.594923
 20
48.612570
 30
0.0
 10
485.722470
 20
48.416397
 30
0.0
 10
485.133950
 20
48.024050
 30
0.0
  0
SPLINE
  5
1f5
100
AcDbEntity
  8
Layer_2
 62
7
100
AcDbSpline
 70
8
 71
3
 72
8
 73
4
 74
0
 40
0
 40
0
 40
0
 40
0
 40
1
 40
1
 40
1
 40
1
 10
485.133950
 20
48.024050
 30
0.0
 10
484.555757
 20
47.631703
 30
0.0
 10
484.266660
 20
47.053510
 30
0.0
 10
484.266660
 20
46.289470
 30
0.0
  0
SPLINE
  5
1f6
100
AcDbEntity
  8
Layer_2
 62
7
100
AcDbSpline
 70
8
 71
3
 72
8
 73
4
 74
0
 40
0
 40
0
 40
0
 40
0
 40
1
 40
1
 40
1
 40
1
 10
484.266660
 20
46.289470
 30
0.0
 10
484.266660
 20
45.587377
 30
0.0
 10
484.498970
 20
45.034993
 30
0.0
 10
484.963590
 20
44.632320
 30
0.0
  0
SPLINE
  5
1f7
100
AcDbEntity
  8
Layer_2
 62
7
100
AcDbSpline
 70
8
 71
3
 72
8
 73
4
 74
0
 40
0
 40
0
 40
0
 40
0
 40
1
 40
1
 40
1
 40
1
 10
484.963590
 20
44.632320
 30
0.0
 10
485.438537
 20
44.239973
 30
0.0
 10
486.094167
 20
44.043800
 30
0.0
 10
486.930480
 20
44.043800
 30
0.0
  0
SPLINE
  5
1f8
100
AcDbEntity
  8
Layer_2
 62
7
100
AcDbSpline
 70
8
 71
3
 72
8
 73
4
 74
0
 40
0
 40
0
 40
0
 40
0
 40
1
 40
1
 40
1
 40
1
 10
486.930480
 20
44.043800
 30
0.0
 10
487.973293
 20
44.043800
 30
0.0
 10
488.850910
 20
44.415497
 30
0.0
 10
489.563330
 20
45.158890
 30
0.0
  0
SPLINE
  5
1f9
100
AcDbEntity
  8
Layer_2
 62
7
100
AcDbSpline
 70
8
 71
3
 72
8
 73
4
 74
0
 40
0
 40
0
 40
0
 40
0
 40
1
 40
1
 40
1
 40
1
 10
489.563330
 20
45.158890
 30
0.0
 10
490.275750
 20
45.912610
 30
0.0
 10
490.631960
 20
46.852177
 30
0.0
 10
490.631960
 20
47.977590
 30
0.0
  0
LWPOLYLINE
  5
1fa
100
AcDbEntity
  8
Layer_2
 62
7
100
AcDbPolyline
 90
1
 70
1
 10
466.502670
 20
54.544230
 30
0.0
  0
LWPOLYLINE
  5
1fb
100
AcDbEntity
  8
Layer_2
 62
7
100
AcDbPolyline
 90
3
 70
0
 10
490.631960
 20
47.977590
 30
0.0
 10
490.631960
 20
48.612570
 30
0.0
 10
487.751310
 20
48.612570
 30
0.0
  0
SPLINE
  5
1fc
100
AcDbEntity
  8
Layer_2
 62
7
100
AcDbSpline
 70
8
 71
3
 72
8
 73
4
 74
0
 40
0
 40
0
 40
0
 40
0
 40
1
 40
1
 40
1
 40
1
 10
490.631960
 20
43.377850
 30
0.0
 10
489.888567
 20
42.324710
 30
0.0
 10
489.052250
 20
41.555503
 30
0.0
 10
488.123010
 20
41.070230
 30
0.0
  0
SPLINE
  5
1fd
100
AcDbEntity
  8
Layer_2
 62
7
100
AcDbSpline
 70
8
 71
3
 72
8
 73
4
 74
0
 40
0
 40
0
 40
0
 40
0
 40
1
 40
1
 40
1
 40
1
 10
488.123010
 20
41.070230
 30
0.0
 10
487.193770
 20
40.595283
 30
0.0
 10
486.063193
 20
40.357810
 30
0.0
 10
484.731280
 20
40.357810
 30
0.0
  0
SPLINE
  5
1fe
100
AcDbEntity
  8
Layer_2
 62
7
100
AcDbSpline
 70
8
 71
3
 72
8
 73
4
 74
0
 40
0
 40
0
 40
0
 40
0
 40
1
 40
1
 40
1
 40
1
 10
484.731280
 20
40.357810
 30
0.0
 10
482.934747
 20
40.357810
 30
0.0
 10
481.473773
 20
40.879220
 30
0.0
 10
480.348360
 20
41.922040
 30
0.0
  0
SPLINE
  5
1ff
100
AcDbEntity
  8
Layer_2
 62
7
100
AcDbSpline
 70
8
 71
3
 72
8
 73
4
 74
0
 40
0
 40
0
 40
0
 40
0
 40
1
 40
1
 40
1
 40
1
 10
480.348360
 20
41.922040
 30
0.0
 10
479.233267
 20
42.975180
 30
0.0
 10
478.675720
 20
44.338067
 30
0.0
 10
478.675720
 20
46.010700
 30
0.0
  0
SPLINE
  5
200
100
AcDbEntity
  8
Layer_2
 62
7
100
AcDbSpline
 70
8
 71
3
 72
8
 73
4
 74
0
 40
0
 40
0
 40
0
 40
0
 40
1
 40
1
 40
1
 40
1
 10
478.675720
 20
46.010700
 30
0.0
 10
478.675720
 20
48.044707
 30
0.0
 10
479.372653
 20
49.536653
 30
0.0
 10
480.766520
 20
50.486540
 30
0.0
  0
SPLINE
  5
201
100
AcDbEntity
  8
Layer_2
 62
7
100
AcDbSpline
 70
8
 71
3
 72
8
 73
4
 74
0
 40
0
 40
0
 40
0
 40
0
 40
1
 40
1
 40
1
 40
1
 10
480.766520
 20
50.486540
 30
0.0
 10
482.170707
 20
51.436433
 30
0.0
 10
484.369910
 20
51.911380
 30
0.0
 10
487.364130
 20
51.911380
 30
0.0
  0
LWPOLYLINE
  5
202
100
AcDbEntity
  8
Layer_2
 62
7
100
AcDbPolyline
 90
4
 70
0
 10
496.222890
 20
50.703370
 30
0.0
 10
496.222890
 20
40.806950
 30
0.0
 10
490.631960
 20
40.806950
 30
0.0
 10
490.631960
 20
43.377850
 30
0.0
  0
SPLINE
  5
203
100
AcDbEntity
  8
Layer_2
 62
7
100
AcDbSpline
 70
8
 71
3
 72
8
 73
4
 74
0
 40
0
 40
0
 40
0
 40
0
 40
1
 40
1
 40
1
 40
1
 10
490.631960
 20
52.345030
 30
0.0
 10
490.631960
 20
53.222643
 30
0.0
 10
490.286077
 20
53.862787
 30
0.0
 10
489.594310
 20
54.265460
 30
0.0
  0
SPLINE
  5
204
100
AcDbEntity
  8
Layer_2
 62
7
100
AcDbSpline
 70
8
 71
3
 72
8
 73
4
 74
0
 40
0
 40
0
 40
0
 40
0
 40
1
 40
1
 40
1
 40
1
 10
489.594310
 20
54.265460
 30
0.0
 10
488.902537
 20
54.678453
 30
0.0
 10
487.823583
 20
54.884950
 30
0.0
 10
486.357450
 20
54.884950
 30
0.0
  0
SPLINE
  5
205
100
AcDbEntity
  8
Layer_2
 62
7
100
AcDbSpline
 70
8
 71
3
 72
8
 73
4
 74
0
 40
0
 40
0
 40
0
 40
0
 40
1
 40
1
 40
1
 40
1
 10
486.357450
 20
54.884950
 30
0.0
 10
485.170083
 20
54.884950
 30
0.0
 10
484.065320
 20
54.766213
 30
0.0
 10
483.043160
 20
54.528740
 30
0.0
  0
SPLINE
  5
206
100
AcDbEntity
  8
Layer_2
 62
7
100
AcDbSpline
 70
8
 71
3
 72
8
 73
4
 74
0
 40
0
 40
0
 40
0
 40
0
 40
1
 40
1
 40
1
 40
1
 10
483.043160
 20
54.528740
 30
0.0
 10
482.020993
 20
54.291267
 30
0.0
 10
481.071100
 20
53.935057
 30
0.0
 10
480.193480
 20
53.460110
 30
0.0
  0
LWPOLYLINE
  5
207
100
AcDbEntity
  8
Layer_2
 62
7
100
AcDbPolyline
 90
3
 70
0
 10
487.364130
 20
51.911380
 30
0.0
 10
490.631960
 20
51.911380
 30
0.0
 10
490.631960
 20
52.345030
 30
0.0
  0
SPLINE
  5
208
100
AcDbEntity
  8
Layer_2
 62
7
100
AcDbSpline
 70
8
 71
3
 72
8
 73
4
 74
0
 40
0
 40
0
 40
0
 40
0
 40
1
 40
1
 40
1
 40
1
 10
480.193480
 20
57.688160
 30
0.0
 10
481.380847
 20
57.977260
 30
0.0
 10
482.573373
 20
58.194083
 30
0.0
 10
483.771060
 20
58.338630
 30
0.0
  0
SPLINE
  5
209
100
AcDbEntity
  8
Layer_2
 62
7
100
AcDbSpline
 70
8
 71
3
 72
8
 73
4
 74
0
 40
0
 40
0
 40
0
 40
0
 40
1
 40
1
 40
1
 40
1
 10
483.771060
 20
58.338630
 30
0.0
 10
484.968753
 20
58.493503
 30
0.0
 10
486.166443
 20
58.570940
 30
0.0
 10
487.364130
 20
58.570940
 30
0.0
  0
SPLINE
  5
20a
100
AcDbEntity
  8
Layer_2
 62
7
100
AcDbSpline
 70
8
 71
3
 72
8
 73
4
 74
0
 40
0
 40
0
 40
0
 40
0
 40
1
 40
1
 40
1
 40
1
 10
487.364130
 20
58.570940
 30
0.0
 10
490.492577
 20
58.570940
 30
0.0
 10
492.748567
 20
57.951447
 30
0.0
 10
494.132100
 20
56.712460
 30
0.0
  0
SPLINE
  5
20b
100
AcDbEntity
  8
Layer_2
 62
7
100
AcDbSpline
 70
8
 71
3
 72
8
 73
4
 74
0
 40
0
 40
0
 40
0
 40
0
 40
1
 40
1
 40
1
 40
1
 10
494.132100
 20
56.712460
 30
0.0
 10
495.525960
 20
55.483793
 30
0.0
 10
496.222890
 20
53.480763
 30
0.0
 10
496.222890
 20
50.703370
 30
0.0
  0
LWPOLYLINE
  5
20c
100
AcDbEntity
  8
Layer_2
 62
7
100
AcDbPolyline
 90
2
 70
0
 10
480.193480
 20
53.460110
 30
0.0
 10
480.193480
 20
57.688160
 30
0.0
  0
LWPOLYLINE
  5
20d
100
AcDbEntity
  8
Layer_2
 62
7
100
AcDbPolyline
 90
1
 70
1
 10
496.222890
 20
50.703370
 30
0.0
  0
SPLINE
  5
20e
100
AcDbEntity
  8
Layer_2
 62
7
100
AcDbSpline
 70
8
 71
3
 72
8
 73
4
 74
0
 40
0
 40
0
 40
0
 40
0
 40
1
 40
1
 40
1
 40
1
 10
515.396250
 20
53.088420
 30
0.0
 10
514.642530
 20
53.604667
 30
0.0
 10
513.883650
 20
53.986687
 30
0.0
 10
513.119610
 20
54.234480
 30
0.0
  0
SPLINE
  5
20f
100
AcDbEntity
  8
Layer_2
 62
7
100
AcDbSpline
 70
8
 71
3
 72
8
 73
4
 74
0
 40
0
 40
0
 40
0
 40
0
 40
1
 40
1
 40
1
 40
1
 10
513.119610
 20
54.234480
 30
0.0
 10
512.365890
 20
54.482280
 30
0.0
 10
511.581197
 20
54.606180
 30
0.0
 10
510.765530
 20
54.606180
 30
0.0
  0
SPLINE
  5
210
100
AcDbEntity
  8
Layer_2
 62
7
100
AcDbSpline
 70
8
 71
3
 72
8
 73
4
 74
0
 40
0
 40
0
 40
0
 40
0
 40
1
 40
1
 40
1
 40
1
 10
510.765530
 20
54.606180
 30
0.0
 10
509.216797
 20
54.606180
 30
0.0
 10
508.008783
 20
54.151883
 30
0.0
 10
507.141490
 20
53.243290
 30
0.0
  0
SPLINE
  5
211
100
AcDbEntity
  8
Layer_2
 62
7
100
AcDbSpline
 70
8
 71
3
 72
8
 73
4
 74
0
 40
0
 40
0
 40
0
 40
0
 40
1
 40
1
 40
1
 40
1
 10
507.141490
 20
53.243290
 30
0.0
 10
506.284523
 20
52.345023
 30
0.0
 10
505.856040
 20
51.085387
 30
0.0
 10
505.856040
 20
49.464380
 30
0.0
  0
SPLINE
  5
212
100
AcDbEntity
  8
Layer_2
 62
7
100
AcDbSpline
 70
8
 71
3
 72
8
 73
4
 74
0
 40
0
 40
0
 40
0
 40
0
 40
1
 40
1
 40
1
 40
1
 10
505.856040
 20
49.464380
 30
0.0
 10
505.856040
 20
47.843367
 30
0.0
 10
506.284523
 20
46.578567
 30
0.0
 10
507.141490
 20
45.669980
 30
0.0
  0
SPLINE
  5
213
100
AcDbEntity
  8
Layer_2
 62
7
100
AcDbSpline
 70
8
 71
3
 72
8
 73
4
 74
0
 40
0
 40
0
 40
0
 40
0
 40
1
 40
1
 40
1
 40
1
 10
507.141490
 20
45.669980
 30
0.0
 10
508.008783
 20
44.771713
 30
0.0
 10
509.216797
 20
44.322580
 30
0.0
 10
510.765530
 20
44.322580
 30
0.0
  0
SPLINE
  5
214
100
AcDbEntity
  8
Layer_2
 62
7
100
AcDbSpline
 70
8
 71
3
 72
8
 73
4
 74
0
 40
0
 40
0
 40
0
 40
0
 40
1
 40
1
 40
1
 40
1
 10
510.765530
 20
44.322580
 30
0.0
 10
511.632823
 20
44.322580
 30
0.0
 10
512.453653
 20
44.451640
 30
0.0
 10
513.228020
 20
44.709760
 30
0.0
  0
SPLINE
  5
215
100
AcDbEntity
  8
Layer_2
 62
7
100
AcDbSpline
 70
8
 71
3
 72
8
 73
4
 74
0
 40
0
 40
0
 40
0
 40
0
 40
1
 40
1
 40
1
 40
1
 10
513.228020
 20
44.709760
 30
0.0
 10
514.012713
 20
44.967880
 30
0.0
 10
514.735457
 20
45.349900
 30
0.0
 10
515.396250
 20
45.855820
 30
0.0
  0
LWPOLYLINE
  5
216
100
AcDbEntity
  8
Layer_2
 62
7
100
AcDbPolyline
 90
2
 70
0
 10
515.396250
 20
57.610730
 30
0.0
 10
515.396250
 20
53.088420
 30
0.0
  0
SPLINE
  5
217
100
AcDbEntity
  8
Layer_2
 62
7
100
AcDbSpline
 70
8
 71
3
 72
8
 73
4
 74
0
 40
0
 40
0
 40
0
 40
0
 40
1
 40
1
 40
1
 40
1
 10
515.396250
 20
41.318030
 30
0.0
 10
514.528957
 20
40.997957
 30
0.0
 10
513.646177
 20
40.760483
 30
0.0
 10
512.747910
 20
40.605610
 30
0.0
  0
SPLINE
  5
218
100
AcDbEntity
  8
Layer_2
 62
7
100
AcDbSpline
 70
8
 71
3
 72
8
 73
4
 74
0
 40
0
 40
0
 40
0
 40
0
 40
1
 40
1
 40
1
 40
1
 10
512.747910
 20
40.605610
 30
0.0
 10
511.859970
 20
40.440410
 30
0.0
 10
510.966867
 20
40.357810
 30
0.0
 10
510.068600
 20
40.357810
 30
0.0
  0
SPLINE
  5
219
100
AcDbEntity
  8
Layer_2
 62
7
100
AcDbSpline
 70
8
 71
3
 72
8
 73
4
 74
0
 40
0
 40
0
 40
0
 40
0
 40
1
 40
1
 40
1
 40
1
 10
510.068600
 20
40.357810
 30
0.0
 10
506.940153
 20
40.357810
 30
0.0
 10
504.493150
 20
41.157990
 30
0.0
 10
502.727590
 20
42.758350
 30
0.0
  0
SPLINE
  5
21a
100
AcDbEntity
  8
Layer_2
 62
7
100
AcDbSpline
 70
8
 71
3
 72
8
 73
4
 74
0
 40
0
 40
0
 40
0
 40
0
 40
1
 40
1
 40
1
 40
1
 10
502.727590
 20
42.758350
 30
0.0
 10
500.962037
 20
44.369037
 30
0.0
 10
500.079260
 20
46.604380
 30
0.0
 10
500.079260
 20
49.464380
 30
0.0
  0
SPLINE
  5
21b
100
AcDbEntity
  8
Layer_2
 62
7
100
AcDbSpline
 70
8
 71
3
 72
8
 73
4
 74
0
 40
0
 40
0
 40
0
 40
0
 40
1
 40
1
 40
1
 40
1
 10
500.079260
 20
49.464380
 30
0.0
 10
500.079260
 20
52.324373
 30
0.0
 10
500.962037
 20
54.554550
 30
0.0
 10
502.727590
 20
56.154910
 30
0.0
  0
SPLINE
  5
21c
100
AcDbEntity
  8
Layer_2
 62
7
100
AcDbSpline
 70
8
 71
3
 72
8
 73
4
 74
0
 40
0
 40
0
 40
0
 40
0
 40
1
 40
1
 40
1
 40
1
 10
502.727590
 20
56.154910
 30
0.0
 10
504.493150
 20
57.765597
 30
0.0
 10
506.940153
 20
58.570940
 30
0.0
 10
510.068600
 20
58.570940
 30
0.0
  0
SPLINE
  5
21d
100
AcDbEntity
  8
Layer_2
 62
7
100
AcDbSpline
 70
8
 71
3
 72
8
 73
4
 74
0
 40
0
 40
0
 40
0
 40
0
 40
1
 40
1
 40
1
 40
1
 10
510.068600
 20
58.570940
 30
0.0
 10
510.977193
 20
58.570940
 30
0.0
 10
511.870297
 20
58.488340
 30
0.0
 10
512.747910
 20
58.323140
 30
0.0
  0
SPLINE
  5
21e
100
AcDbEntity
  8
Layer_2
 62
7
100
AcDbSpline
 70
8
 71
3
 72
8
 73
4
 74
0
 40
0
 40
0
 40
0
 40
0
 40
1
 40
1
 40
1
 40
1
 10
512.747910
 20
58.323140
 30
0.0
 10
513.635850
 20
58.168267
 30
0.0
 10
514.518630
 20
57.930797
 30
0.0
 10
515.396250
 20
57.610730
 30
0.0
  0
LWPOLYLINE
  5
21f
100
AcDbEntity
  8
Layer_2
 62
7
100
AcDbPolyline
 90
2
 70
0
 10
515.396250
 20
45.855820
 30
0.0
 10
515.396250
 20
41.318030
 30
0.0
  0
LWPOLYLINE
  5
220
100
AcDbEntity
  8
Layer_2
 62
7
100
AcDbPolyline
 90
1
 70
1
 10
515.396250
 20
57.610730
 30
0.0
  0
SPLINE
  5
221
100
AcDbEntity
  8
Layer_2
 62
7
100
AcDbSpline
 70
8
 71
3
 72
8
 73
4
 74
0
 40
0
 40
0
 40
0
 40
0
 40
1
 40
1
 40
1
 40
1
 10
524.533780
 20
47.946620
 30
0.0
 10
524.668000
 20
46.645680
 30
0.0
 10
525.137783
 20
45.669977
 30
0.0
 10
525.943130
 20
45.019510
 30
0.0
  0
SPLINE
  5
222
100
AcDbEntity
  8
Layer_2
 62
7
100
AcDbSpline
 70
8
 71
3
 72
8
 73
4
 74
0
 40
0
 40
0
 40
0
 40
0
 40
1
 40
1
 40
1
 40
1
 10
525.943130
 20
45.019510
 30
0.0
 10
526.748470
 20
44.369037
 30
0.0
 10
527.873883
 20
44.043800
 30
0.0
 10
529.319370
 20
44.043800
 30
0.0
  0
SPLINE
  5
223
100
AcDbEntity
  8
Layer_2
 62
7
100
AcDbSpline
 70
8
 71
3
 72
8
 73
4
 74
0
 40
0
 40
0
 40
0
 40
0
 40
1
 40
1
 40
1
 40
1
 10
529.319370
 20
44.043800
 30
0.0
 10
530.486083
 20
44.043800
 30
0.0
 10
531.678610
 20
44.214163
 30
0.0
 10
532.896950
 20
44.554890
 30
0.0
  0
SPLINE
  5
224
100
AcDbEntity
  8
Layer_2
 62
7
100
AcDbSpline
 70
8
 71
3
 72
8
 73
4
 74
0
 40
0
 40
0
 40
0
 40
0
 40
1
 40
1
 40
1
 40
1
 10
532.896950
 20
44.554890
 30
0.0
 10
534.125610
 20
44.905937
 30
0.0
 10
535.385247
 20
45.432507
 30
0.0
 10
536.675860
 20
46.134600
 30
0.0
  0
LWPOLYLINE
  5
225
100
AcDbEntity
  8
Layer_2
 62
7
100
AcDbPolyline
 90
3
 70
0
 10
537.496690
 20
49.526330
 30
0.0
 10
537.496690
 20
47.946620
 30
0.0
 10
524.533780
 20
47.946620
 30
0.0
  0
SPLINE
  5
226
100
AcDbEntity
  8
Layer_2
 62
7
100
AcDbSpline
 70
8
 71
3
 72
8
 73
4
 74
0
 40
0
 40
0
 40
0
 40
0
 40
1
 40
1
 40
1
 40
1
 10
536.675860
 20
41.860090
 30
0.0
 10
535.364600
 20
41.364490
 30
0.0
 10
534.053337
 20
40.992793
 30
0.0
 10
532.742070
 20
40.745000
 30
0.0
  0
SPLINE
  5
227
100
AcDbEntity
  8
Layer_2
 62
7
100
AcDbSpline
 70
8
 71
3
 72
8
 73
4
 74
0
 40
0
 40
0
 40
0
 40
0
 40
1
 40
1
 40
1
 40
1
 10
532.742070
 20
40.745000
 30
0.0
 10
531.430810
 20
40.486873
 30
0.0
 10
530.119550
 20
40.357810
 30
0.0
 10
528.808290
 20
40.357810
 30
0.0
  0
SPLINE
  5
228
100
AcDbEntity
  8
Layer_2
 62
7
100
AcDbSpline
 70
8
 71
3
 72
8
 73
4
 74
0
 40
0
 40
0
 40
0
 40
0
 40
1
 40
1
 40
1
 40
1
 10
528.808290
 20
40.357810
 30
0.0
 10
525.669517
 20
40.357810
 30
0.0
 10
523.227677
 20
41.152830
 30
0.0
 10
521.482770
 20
42.742870
 30
0.0
  0
SPLINE
  5
229
100
AcDbEntity
  8
Layer_2
 62
7
100
AcDbSpline
 70
8
 71
3
 72
8
 73
4
 74
0
 40
0
 40
0
 40
0
 40
0
 40
1
 40
1
 40
1
 40
1
 10
521.482770
 20
42.742870
 30
0.0
 10
519.748183
 20
44.343230
 30
0.0
 10
518.880890
 20
46.583733
 30
0.0
 10
518.880890
 20
49.464380
 30
0.0
  0
SPLINE
  5
22a
100
AcDbEntity
  8
Layer_2
 62
7
100
AcDbSpline
 70
8
 71
3
 72
8
 73
4
 74
0
 40
0
 40
0
 40
0
 40
0
 40
1
 40
1
 40
1
 40
1
 10
518.880890
 20
49.464380
 30
0.0
 10
518.880890
 20
52.293400
 30
0.0
 10
519.732697
 20
54.518417
 30
0.0
 10
521.436310
 20
56.139430
 30
0.0
  0
SPLINE
  5
22b
100
AcDbEntity
  8
Layer_2
 62
7
100
AcDbSpline
 70
8
 71
3
 72
8
 73
4
 74
0
 40
0
 40
0
 40
0
 40
0
 40
1
 40
1
 40
1
 40
1
 10
521.436310
 20
56.139430
 30
0.0
 10
523.150243
 20
57.760437
 30
0.0
 10
525.504320
 20
58.570940
 30
0.0
 10
528.498540
 20
58.570940
 30
0.0
  0
SPLINE
  5
22c
100
AcDbEntity
  8
Layer_2
 62
7
100
AcDbSpline
 70
8
 71
3
 72
8
 73
4
 74
0
 40
0
 40
0
 40
0
 40
0
 40
1
 40
1
 40
1
 40
1
 10
528.498540
 20
58.570940
 30
0.0
 10
531.224313
 20
58.570940
 30
0.0
 10
533.402867
 20
57.750110
 30
0.0
 10
535.034200
 20
56.108450
 30
0.0
  0
SPLINE
  5
22d
100
AcDbEntity
  8
Layer_2
 62
7
100
AcDbSpline
 70
8
 71
3
 72
8
 73
4
 74
0
 40
0
 40
0
 40
0
 40
0
 40
1
 40
1
 40
1
 40
1
 10
535.034200
 20
56.108450
 30
0.0
 10
536.675860
 20
54.466790
 30
0.0
 10
537.496690
 20
52.272750
 30
0.0
 10
537.496690
 20
49.526330
 30
0.0
  0
LWPOLYLINE
  5
22e
100
AcDbEntity
  8
Layer_2
 62
7
100
AcDbPolyline
 90
2
 70
0
 10
536.675860
 20
46.134600
 30
0.0
 10
536.675860
 20
41.860090
 30
0.0
  0
SPLINE
  5
22f
100
AcDbEntity
  8
Layer_2
 62
7
100
AcDbSpline
 70
8
 71
3
 72
8
 73
4
 74
0
 40
0
 40
0
 40
0
 40
0
 40
1
 40
1
 40
1
 40
1
 10
531.797350
 20
51.369320
 30
0.0
 10
531.797350
 20
52.422460
 30
0.0
 10
531.487600
 20
53.269103
 30
0.0
 10
530.868100
 20
53.909250
 30
0.0
  0
SPLINE
  5
230
100
AcDbEntity
  8
Layer_2
 62
7
100
AcDbSpline
 70
8
 71
3
 72
8
 73
4
 74
0
 40
0
 40
0
 40
0
 40
0
 40
1
 40
1
 40
1
 40
1
 10
530.868100
 20
53.909250
 30
0.0
 10
530.258933
 20
54.559717
 30
0.0
 10
529.458753
 20
54.884950
 30
0.0
 10
528.467560
 20
54.884950
 30
0.0
  0
SPLINE
  5
231
100
AcDbEntity
  8
Layer_2
 62
7
100
AcDbSpline
 70
8
 71
3
 72
8
 73
4
 74
0
 40
0
 40
0
 40
0
 40
0
 40
1
 40
1
 40
1
 40
1
 10
528.467560
 20
54.884950
 30
0.0
 10
527.393773
 20
54.884950
 30
0.0
 10
526.521320
 20
54.580367
 30
0.0
 10
525.850200
 20
53.971200
 30
0.0
  0
SPLINE
  5
232
100
AcDbEntity
  8
Layer_2
 62
7
100
AcDbSpline
 70
8
 71
3
 72
8
 73
4
 74
0
 40
0
 40
0
 40
0
 40
0
 40
1
 40
1
 40
1
 40
1
 10
525.850200
 20
53.971200
 30
0.0
 10
525.179080
 20
53.372353
 30
0.0
 10
524.760923
 20
52.505060
 30
0.0
 10
524.595730
 20
51.369320
 30
0.0
  0
LWPOLYLINE
  5
233
100
AcDbEntity
  8
Layer_2
 62
7
100
AcDbPolyline
 90
1
 70
1
 10
537.496690
 20
49.526330
 30
0.0
  0
LWPOLYLINE
  5
234
100
AcDbEntity
  8
Layer_2
 62
7
100
AcDbPolyline
 90
2
 70
0
 10
524.595730
 20
51.369320
 30
0.0
 10
531.797350
 20
51.369320
 30
0.0
  0
LWPOLYLINE
  5
235
100
AcDbEntity
  8
Layer_2
 62
7
100
AcDbPolyline
 90
8
 70
1
 10
567.015600
 20
45.019510
 30
0.0
 10
557.692210
 20
45.019510
 30
0.0
 10
556.220910
 20
40.806950
 30
0.0
 10
550.227310
 20
40.806950
 30
0.0
 10
558.791810
 20
63.929570
 30
0.0
 10
565.900510
 20
63.929570
 30
0.0
 10
574.465010
 20
40.806950
 30
0.0
 10
568.471410
 20
40.806950
 30
0.0
  0
LWPOLYLINE
  5
236
100
AcDbEntity
  8
Layer_2
 62
7
100
AcDbPolyline
 90
3
 70
1
 10
559.179000
 20
49.309500
 30
0.0
 10
565.513320
 20
49.309500
 30
0.0
 10
562.353900
 20
58.508990
 30
0.0
  0
SPLINE
  5
237
100
AcDbEntity
  8
Layer_2
 62
7
100
AcDbSpline
 70
8
 71
3
 72
8
 73
4
 74
0
 40
0
 40
0
 40
0
 40
0
 40
1
 40
1
 40
1
 40
1
 10
582.518450
 20
50.068380
 30
0.0
 10
582.518450
 20
48.158273
 30
0.0
 10
582.828197
 20
46.790227
 30
0.0
 10
583.447690
 20
45.964240
 30
0.0
  0
SPLINE
  5
238
100
AcDbEntity
  8
Layer_2
 62
7
100
AcDbSpline
 70
8
 71
3
 72
8
 73
4
 74
0
 40
0
 40
0
 40
0
 40
0
 40
1
 40
1
 40
1
 40
1
 10
583.447690
 20
45.964240
 30
0.0
 10
584.077510
 20
45.148567
 30
0.0
 10
585.099677
 20
44.740730
 30
0.0
 10
586.514190
 20
44.740730
 30
0.0
  0
SPLINE
  5
239
100
AcDbEntity
  8
Layer_2
 62
7
100
AcDbSpline
 70
8
 71
3
 72
8
 73
4
 74
0
 40
0
 40
0
 40
0
 40
0
 40
1
 40
1
 40
1
 40
1
 10
586.514190
 20
44.740730
 30
0.0
 10
587.939023
 20
44.740730
 30
0.0
 10
588.961187
 20
45.148567
 30
0.0
 10
589.580680
 20
45.964240
 30
0.0
  0
SPLINE
  5
23a
100
AcDbEntity
  8
Layer_2
 62
7
100
AcDbSpline
 70
8
 71
3
 72
8
 73
4
 74
0
 40
0
 40
0
 40
0
 40
0
 40
1
 40
1
 40
1
 40
1
 10
589.580680
 20
45.964240
 30
0.0
 10
590.210500
 20
46.790227
 30
0.0
 10
590.525410
 20
48.158273
 30
0.0
 10
590.525410
 20
50.068380
 30
0.0
  0
LWPOLYLINE
  5
23b
100
AcDbEntity
  8
Layer_2
 62
7
100
AcDbPolyline
 90
3
 70
0
 10
576.555820
 20
63.929570
 30
0.0
 10
582.518450
 20
63.929570
 30
0.0
 10
582.518450
 20
50.068380
 30
0.0
  0
SPLINE
  5
23c
100
AcDbEntity
  8
Layer_2
 62
7
100
AcDbSpline
 70
8
 71
3
 72
8
 73
4
 74
0
 40
0
 40
0
 40
0
 40
0
 40
1
 40
1
 40
1
 40
1
 10
596.488040
 20
50.068380
 30
0.0
 10
596.488040
 20
46.795387
 30
0.0
 10
595.667210
 20
44.358710
 30
0.0
 10
594.025550
 20
42.758350
 30
0.0
  0
SPLINE
  5
23d
100
AcDbEntity
  8
Layer_2
 62
7
100
AcDbSpline
 70
8
 71
3
 72
8
 73
4
 74
0
 40
0
 40
0
 40
0
 40
0
 40
1
 40
1
 40
1
 40
1
 10
594.025550
 20
42.758350
 30
0.0
 10
592.383890
 20
41.157990
 30
0.0
 10
589.880103
 20
40.357810
 30
0.0
 10
586.514190
 20
40.357810
 30
0.0
  0
SPLINE
  5
23e
100
AcDbEntity
  8
Layer_2
 62
7
100
AcDbSpline
 70
8
 71
3
 72
8
 73
4
 74
0
 40
0
 40
0
 40
0
 40
0
 40
1
 40
1
 40
1
 40
1
 10
586.514190
 20
40.357810
 30
0.0
 10
583.158597
 20
40.357810
 30
0.0
 10
580.659970
 20
41.157990
 30
0.0
 10
579.018310
 20
42.758350
 30
0.0
  0
SPLINE
  5
23f
100
AcDbEntity
  8
Layer_2
 62
7
100
AcDbSpline
 70
8
 71
3
 72
8
 73
4
 74
0
 40
0
 40
0
 40
0
 40
0
 40
1
 40
1
 40
1
 40
1
 10
579.018310
 20
42.758350
 30
0.0
 10
577.376650
 20
44.358710
 30
0.0
 10
576.555820
 20
46.795387
 30
0.0
 10
576.555820
 20
50.068380
 30
0.0
  0
LWPOLYLINE
  5
240
100
AcDbEntity
  8
Layer_2
 62
7
100
AcDbPolyline
 90
4
 70
0
 10
590.525410
 20
50.068380
 30
0.0
 10
590.525410
 20
63.929570
 30
0.0
 10
596.488040
 20
63.929570
 30
0.0
 10
596.488040
 20
50.068380
 30
0.0
  0
LWPOLYLINE
  5
241
100
AcDbEntity
  8
Layer_2
 62
7
100
AcDbPolyline
 90
2
 70
0
 10
576.555820
 20
50.068380
 30
0.0
 10
576.555820
 20
63.929570
 30
0.0
  0
SPLINE
  5
242
100
AcDbEntity
  8
Layer_2
 62
7
100
AcDbSpline
 70
8
 71
3
 72
8
 73
4
 74
0
 40
0
 40
0
 40
0
 40
0
 40
1
 40
1
 40
1
 40
1
 10
652.443850
 20
48.612570
 30
0.0
 10
651.287457
 20
48.612570
 30
0.0
 10
650.415000
 20
48.416397
 30
0.0
 10
649.826480
 20
48.024050
 30
0.0
  0
SPLINE
  5
243
100
AcDbEntity
  8
Layer_2
 62
7
100
AcDbSpline
 70
8
 71
3
 72
8
 73
4
 74
0
 40
0
 40
0
 40
0
 40
0
 40
1
 40
1
 40
1
 40
1
 10
649.826480
 20
48.024050
 30
0.0
 10
649.248287
 20
47.631703
 30
0.0
 10
648.959190
 20
47.053510
 30
0.0
 10
648.959190
 20
46.289470
 30
0.0
  0
SPLINE
  5
244
100
AcDbEntity
  8
Layer_2
 62
7
100
AcDbSpline
 70
8
 71
3
 72
8
 73
4
 74
0
 40
0
 40
0
 40
0
 40
0
 40
1
 40
1
 40
1
 40
1
 10
648.959190
 20
46.289470
 30
0.0
 10
648.959190
 20
45.587377
 30
0.0
 10
649.191500
 20
45.034993
 30
0.0
 10
649.656120
 20
44.632320
 30
0.0
  0
SPLINE
  5
245
100
AcDbEntity
  8
Layer_2
 62
7
100
AcDbSpline
 70
8
 71
3
 72
8
 73
4
 74
0
 40
0
 40
0
 40
0
 40
0
 40
1
 40
1
 40
1
 40
1
 10
649.656120
 20
44.632320
 30
0.0
 10
650.131067
 20
44.239973
 30
0.0
 10
650.786700
 20
44.043800
 30
0.0
 10
651.623020
 20
44.043800
 30
0.0
  0
SPLINE
  5
246
100
AcDbEntity
  8
Layer_2
 62
7
100
AcDbSpline
 70
8
 71
3
 72
8
 73
4
 74
0
 40
0
 40
0
 40
0
 40
0
 40
1
 40
1
 40
1
 40
1
 10
651.623020
 20
44.043800
 30
0.0
 10
652.665833
 20
44.043800
 30
0.0
 10
653.543450
 20
44.415497
 30
0.0
 10
654.255870
 20
45.158890
 30
0.0
  0
SPLINE
  5
247
100
AcDbEntity
  8
Layer_2
 62
7
100
AcDbSpline
 70
8
 71
3
 72
8
 73
4
 74
0
 40
0
 40
0
 40
0
 40
0
 40
1
 40
1
 40
1
 40
1
 10
654.255870
 20
45.158890
 30
0.0
 10
654.968283
 20
45.912610
 30
0.0
 10
655.324490
 20
46.852177
 30
0.0
 10
655.324490
 20
47.977590
 30
0.0
  0
LWPOLYLINE
  5
248
100
AcDbEntity
  8
Layer_2
 62
7
100
AcDbPolyline
 90
13
 70
1
 10
613.353760
 20
63.929570
 30
0.0
 10
620.942560
 20
63.929570
 30
0.0
 10
626.208260
 20
51.555170
 30
0.0
 10
631.504940
 20
63.929570
 30
0.0
 10
639.078250
 20
63.929570
 30
0.0
 10
639.078250
 20
40.806950
 30
0.0
 10
633.440860
 20
40.806950
 30
0.0
 10
633.440860
 20
57.719140
 30
0.0
 10
628.113210
 20
45.251820
 30
0.0
 10
624.334290
 20
45.251820
 30
0.0
 10
619.006650
 20
57.719140
 30
0.0
 10
619.006650
 20
40.806950
 30
0.0
 10
613.353760
 20
40.806950
 30
0.0
  0
LWPOLYLINE
  5
249
100
AcDbEntity
  8
Layer_2
 62
7
100
AcDbPolyline
 90
3
 70
0
 10
655.324490
 20
47.977590
 30
0.0
 10
655.324490
 20
48.612570
 30
0.0
 10
652.443850
 20
48.612570
 30
0.0
  0
SPLINE
  5
24a
100
AcDbEntity
  8
Layer_2
 62
7
100
AcDbSpline
 70
8
 71
3
 72
8
 73
4
 74
0
 40
0
 40
0
 40
0
 40
0
 40
1
 40
1
 40
1
 40
1
 10
655.324490
 20
43.377850
 30
0.0
 10
654.581103
 20
42.324710
 30
0.0
 10
653.744787
 20
41.555503
 30
0.0
 10
652.815540
 20
41.070230
 30
0.0
  0
SPLINE
  5
24b
100
AcDbEntity
  8
Layer_2
 62
7
100
AcDbSpline
 70
8
 71
3
 72
8
 73
4
 74
0
 40
0
 40
0
 40
0
 40
0
 40
1
 40
1
 40
1
 40
1
 10
652.815540
 20
41.070230
 30
0.0
 10
651.886300
 20
40.595283
 30
0.0
 10
650.755723
 20
40.357810
 30
0.0
 10
649.423810
 20
40.357810
 30
0.0
  0
SPLINE
  5
24c
100
AcDbEntity
  8
Layer_2
 62
7
100
AcDbSpline
 70
8
 71
3
 72
8
 73
4
 74
0
 40
0
 40
0
 40
0
 40
0
 40
1
 40
1
 40
1
 40
1
 10
649.423810
 20
40.357810
 30
0.0
 10
647.627277
 20
40.357810
 30
0.0
 10
646.166303
 20
40.879220
 30
0.0
 10
645.040890
 20
41.922040
 30
0.0
  0
SPLINE
  5
24d
100
AcDbEntity
  8
Layer_2
 62
7
100
AcDbSpline
 70
8
 71
3
 72
8
 73
4
 74
0
 40
0
 40
0
 40
0
 40
0
 40
1
 40
1
 40
1
 40
1
 10
645.040890
 20
41.922040
 30
0.0
 10
643.925803
 20
42.975180
 30
0.0
 10
643.368260
 20
44.338067
 30
0.0
 10
643.368260
 20
46.010700
 30
0.0
  0
SPLINE
  5
24e
100
AcDbEntity
  8
Layer_2
 62
7
100
AcDbSpline
 70
8
 71
3
 72
8
 73
4
 74
0
 40
0
 40
0
 40
0
 40
0
 40
1
 40
1
 40
1
 40
1
 10
643.368260
 20
46.010700
 30
0.0
 10
643.368260
 20
48.044707
 30
0.0
 10
644.065190
 20
49.536653
 30
0.0
 10
645.459050
 20
50.486540
 30
0.0
  0
SPLINE
  5
24f
100
AcDbEntity
  8
Layer_2
 62
7
100
AcDbSpline
 70
8
 71
3
 72
8
 73
4
 74
0
 40
0
 40
0
 40
0
 40
0
 40
1
 40
1
 40
1
 40
1
 10
645.459050
 20
50.486540
 30
0.0
 10
646.863237
 20
51.436433
 30
0.0
 10
649.062440
 20
51.911380
 30
0.0
 10
652.056660
 20
51.911380
 30
0.0
  0
LWPOLYLINE
  5
250
100
AcDbEntity
  8
Layer_2
 62
7
100
AcDbPolyline
 90
4
 70
0
 10
660.915430
 20
50.703370
 30
0.0
 10
660.915430
 20
40.806950
 30
0.0
 10
655.324490
 20
40.806950
 30
0.0
 10
655.324490
 20
43.377850
 30
0.0
  0
SPLINE
  5
251
100
AcDbEntity
  8
Layer_2
 62
7
100
AcDbSpline
 70
8
 71
3
 72
8
 73
4
 74
0
 40
0
 40
0
 40
0
 40
0
 40
1
 40
1
 40
1
 40
1
 10
655.324490
 20
52.345030
 30
0.0
 10
655.324490
 20
53.222643
 30
0.0
 10
654.978607
 20
53.862787
 30
0.0
 10
654.286840
 20
54.265460
 30
0.0
  0
SPLINE
  5
252
100
AcDbEntity
  8
Layer_2
 62
7
100
AcDbSpline
 70
8
 71
3
 72
8
 73
4
 74
0
 40
0
 40
0
 40
0
 40
0
 40
1
 40
1
 40
1
 40
1
 10
654.286840
 20
54.265460
 30
0.0
 10
653.595073
 20
54.678453
 30
0.0
 10
652.516123
 20
54.884950
 30
0.0
 10
651.049990
 20
54.884950
 30
0.0
  0
SPLINE
  5
253
100
AcDbEntity
  8
Layer_2
 62
7
100
AcDbSpline
 70
8
 71
3
 72
8
 73
4
 74
0
 40
0
 40
0
 40
0
 40
0
 40
1
 40
1
 40
1
 40
1
 10
651.049990
 20
54.884950
 30
0.0
 10
649.862623
 20
54.884950
 30
0.0
 10
648.757857
 20
54.766213
 30
0.0
 10
647.735690
 20
54.528740
 30
0.0
  0
SPLINE
  5
254
100
AcDbEntity
  8
Layer_2
 62
7
100
AcDbSpline
 70
8
 71
3
 72
8
 73
4
 74
0
 40
0
 40
0
 40
0
 40
0
 40
1
 40
1
 40
1
 40
1
 10
647.735690
 20
54.528740
 30
0.0
 10
646.713523
 20
54.291267
 30
0.0
 10
645.763633
 20
53.935057
 30
0.0
 10
644.886020
 20
53.460110
 30
0.0
  0
LWPOLYLINE
  5
255
100
AcDbEntity
  8
Layer_2
 62
7
100
AcDbPolyline
 90
3
 70
0
 10
652.056660
 20
51.911380
 30
0.0
 10
655.324490
 20
51.911380
 30
0.0
 10
655.324490
 20
52.345030
 30
0.0
  0
SPLINE
  5
256
100
AcDbEntity
  8
Layer_2
 62
7
100
AcDbSpline
 70
8
 71
3
 72
8
 73
4
 74
0
 40
0
 40
0
 40
0
 40
0
 40
1
 40
1
 40
1
 40
1
 10
644.886020
 20
57.688160
 30
0.0
 10
646.073380
 20
57.977260
 30
0.0
 10
647.265907
 20
58.194083
 30
0.0
 10
648.463600
 20
58.338630
 30
0.0
  0
SPLINE
  5
257
100
AcDbEntity
  8
Layer_2
 62
7
100
AcDbSpline
 70
8
 71
3
 72
8
 73
4
 74
0
 40
0
 40
0
 40
0
 40
0
 40
1
 40
1
 40
1
 40
1
 10
648.463600
 20
58.338630
 30
0.0
 10
649.661287
 20
58.493503
 30
0.0
 10
650.858973
 20
58.570940
 30
0.0
 10
652.056660
 20
58.570940
 30
0.0
  0
SPLINE
  5
258
100
AcDbEntity
  8
Layer_2
 62
7
100
AcDbSpline
 70
8
 71
3
 72
8
 73
4
 74
0
 40
0
 40
0
 40
0
 40
0
 40
1
 40
1
 40
1
 40
1
 10
652.056660
 20
58.570940
 30
0.0
 10
655.185107
 20
58.570940
 30
0.0
 10
657.441100
 20
57.951447
 30
0.0
 10
658.824640
 20
56.712460
 30
0.0
  0
SPLINE
  5
259
100
AcDbEntity
  8
Layer_2
 62
7
100
AcDbSpline
 70
8
 71
3
 72
8
 73
4
 74
0
 40
0
 40
0
 40
0
 40
0
 40
1
 40
1
 40
1
 40
1
 10
658.824640
 20
56.712460
 30
0.0
 10
660.218500
 20
55.483793
 30
0.0
 10
660.915430
 20
53.480763
 30
0.0
 10
660.915430
 20
50.703370
 30
0.0
  0
LWPOLYLINE
  5
25a
100
AcDbEntity
  8
Layer_2
 62
7
100
AcDbPolyline
 90
2
 70
0
 10
644.886020
 20
53.460110
 30
0.0
 10
644.886020
 20
57.688160
 30
0.0
  0
LWPOLYLINE
  5
25b
100
AcDbEntity
  8
Layer_2
 62
7
100
AcDbPolyline
 90
1
 70
1
 10
660.915430
 20
50.703370
 30
0.0
  0
SPLINE
  5
25c
100
AcDbEntity
  8
Layer_2
 62
7
100
AcDbSpline
 70
8
 71
3
 72
8
 73
4
 74
0
 40
0
 40
0
 40
0
 40
0
 40
1
 40
1
 40
1
 40
1
 10
677.936010
 20
48.891350
 30
0.0
 10
677.936010
 20
50.388457
 30
0.0
 10
677.899873
 20
51.420947
 30
0.0
 10
677.827600
 20
51.988820
 30
0.0
  0
SPLINE
  5
25d
100
AcDbEntity
  8
Layer_2
 62
7
100
AcDbSpline
 70
8
 71
3
 72
8
 73
4
 74
0
 40
0
 40
0
 40
0
 40
0
 40
1
 40
1
 40
1
 40
1
 10
677.827600
 20
51.988820
 30
0.0
 10
677.765667
 20
52.556687
 30
0.0
 10
677.652093
 20
52.974843
 30
0.0
 10
677.486880
 20
53.243290
 30
0.0
  0
SPLINE
  5
25e
100
AcDbEntity
  8
Layer_2
 62
7
100
AcDbSpline
 70
8
 71
3
 72
8
 73
4
 74
0
 40
0
 40
0
 40
0
 40
0
 40
1
 40
1
 40
1
 40
1
 10
677.486880
 20
53.243290
 30
0.0
 10
677.270053
 20
53.604663
 30
0.0
 10
676.975793
 20
53.883437
 30
0.0
 10
676.604100
 20
54.079610
 30
0.0
  0
SPLINE
  5
25f
100
AcDbEntity
  8
Layer_2
 62
7
100
AcDbSpline
 70
8
 71
3
 72
8
 73
4
 74
0
 40
0
 40
0
 40
0
 40
0
 40
1
 40
1
 40
1
 40
1
 10
676.604100
 20
54.079610
 30
0.0
 10
676.232400
 20
54.286110
 30
0.0
 10
675.809080
 20
54.389360
 30
0.0
 10
675.334140
 20
54.389360
 30
0.0
  0
SPLINE
  5
260
100
AcDbEntity
  8
Layer_2
 62
7
100
AcDbSpline
 70
8
 71
3
 72
8
 73
4
 74
0
 40
0
 40
0
 40
0
 40
0
 40
1
 40
1
 40
1
 40
1
 10
675.334140
 20
54.389360
 30
0.0
 10
674.177747
 20
54.389360
 30
0.0
 10
673.269153
 20
53.940227
 30
0.0
 10
672.608360
 20
53.041960
 30
0.0
  0
SPLINE
  5
261
100
AcDbEntity
  8
Layer_2
 62
7
100
AcDbSpline
 70
8
 71
3
 72
8
 73
4
 74
0
 40
0
 40
0
 40
0
 40
0
 40
1
 40
1
 40
1
 40
1
 10
672.608360
 20
53.041960
 30
0.0
 10
671.947567
 20
52.154013
 30
0.0
 10
671.617170
 20
50.920187
 30
0.0
 10
671.617170
 20
49.340480
 30
0.0
  0
LWPOLYLINE
  5
262
100
AcDbEntity
  8
Layer_2
 62
7
100
AcDbPolyline
 90
5
 70
0
 10
683.511460
 20
51.369320
 30
0.0
 10
683.511460
 20
40.806950
 30
0.0
 10
677.936010
 20
40.806950
 30
0.0
 10
677.936010
 20
42.526040
 30
0.0
 10
677.936010
 20
48.891350
 30
0.0
  0
SPLINE
  5
263
100
AcDbEntity
  8
Layer_2
 62
7
100
AcDbSpline
 70
8
 71
3
 72
8
 73
4
 74
0
 40
0
 40
0
 40
0
 40
0
 40
1
 40
1
 40
1
 40
1
 10
671.617170
 20
55.612860
 30
0.0
 10
672.453490
 20
56.624700
 30
0.0
 10
673.341433
 20
57.368093
 30
0.0
 10
674.281000
 20
57.843040
 30
0.0
  0
SPLINE
  5
264
100
AcDbEntity
  8
Layer_2
 62
7
100
AcDbSpline
 70
8
 71
3
 72
8
 73
4
 74
0
 40
0
 40
0
 40
0
 40
0
 40
1
 40
1
 40
1
 40
1
 10
674.281000
 20
57.843040
 30
0.0
 10
675.220567
 20
58.328307
 30
0.0
 10
676.258217
 20
58.570940
 30
0.0
 10
677.393950
 20
58.570940
 30
0.0
  0
SPLINE
  5
265
100
AcDbEntity
  8
Layer_2
 62
7
100
AcDbSpline
 70
8
 71
3
 72
8
 73
4
 74
0
 40
0
 40
0
 40
0
 40
0
 40
1
 40
1
 40
1
 40
1
 10
677.393950
 20
58.570940
 30
0.0
 10
679.396983
 20
58.570940
 30
0.0
 10
680.914747
 20
57.956610
 30
0.0
 10
681.947240
 20
56.727950
 30
0.0
  0
SPLINE
  5
266
100
AcDbEntity
  8
Layer_2
 62
7
100
AcDbSpline
 70
8
 71
3
 72
8
 73
4
 74
0
 40
0
 40
0
 40
0
 40
0
 40
1
 40
1
 40
1
 40
1
 10
681.947240
 20
56.727950
 30
0.0
 10
682.990053
 20
55.499283
 30
0.0
 10
683.511460
 20
53.713073
 30
0.0
 10
683.511460
 20
51.369320
 30
0.0
  0
LWPOLYLINE
  5
267
100
AcDbEntity
  8
Layer_2
 62
7
100
AcDbPolyline
 90
6
 70
0
 10
671.617170
 20
49.340480
 30
0.0
 10
671.617170
 20
40.806950
 30
0.0
 10
666.072700
 20
40.806950
 30
0.0
 10
666.072700
 20
58.152780
 30
0.0
 10
671.617170
 20
58.152780
 30
0.0
 10
671.617170
 20
55.612860
 30
0.0
  0
LWPOLYLINE
  5
268
100
AcDbEntity
  8
Layer_2
 62
7
100
AcDbPolyline
 90
1
 70
1
 10
683.511460
 20
51.369320
 30
0.0
  0
SPLINE
  5
269
100
AcDbEntity
  8
Layer_2
 62
7
100
AcDbSpline
 70
8
 71
3
 72
8
 73
4
 74
0
 40
0
 40
0
 40
0
 40
0
 40
1
 40
1
 40
1
 40
1
 10
702.204700
 20
53.398170
 30
0.0
 10
701.017333
 20
53.893763
 30
0.0
 10
699.871270
 20
54.265457
 30
0.0
 10
698.766510
 20
54.513250
 30
0.0
  0
SPLINE
  5
26a
100
AcDbEntity
  8
Layer_2
 62
7
100
AcDbSpline
 70
8
 71
3
 72
8
 73
4
 74
0
 40
0
 40
0
 40
0
 40
0
 40
1
 40
1
 40
1
 40
1
 10
698.766510
 20
54.513250
 30
0.0
 10
697.661743
 20
54.761050
 30
0.0
 10
696.618927
 20
54.884950
 30
0.0
 10
695.638060
 20
54.884950
 30
0.0
  0
SPLINE
  5
26b
100
AcDbEntity
  8
Layer_2
 62
7
100
AcDbSpline
 70
8
 71
3
 72
8
 73
4
 74
0
 40
0
 40
0
 40
0
 40
0
 40
1
 40
1
 40
1
 40
1
 10
695.638060
 20
54.884950
 30
0.0
 10
694.584920
 20
54.884950
 30
0.0
 10
693.800227
 20
54.750727
 30
0.0
 10
693.283980
 20
54.482280
 30
0.0
  0
SPLINE
  5
26c
100
AcDbEntity
  8
Layer_2
 62
7
100
AcDbSpline
 70
8
 71
3
 72
8
 73
4
 74
0
 40
0
 40
0
 40
0
 40
0
 40
1
 40
1
 40
1
 40
1
 10
693.283980
 20
54.482280
 30
0.0
 10
692.778060
 20
54.224160
 30
0.0
 10
692.525100
 20
53.821490
 30
0.0
 10
692.525100
 20
53.274270
 30
0.0
  0
SPLINE
  5
26d
100
AcDbEntity
  8
Layer_2
 62
7
100
AcDbSpline
 70
8
 71
3
 72
8
 73
4
 74
0
 40
0
 40
0
 40
0
 40
0
 40
1
 40
1
 40
1
 40
1
 10
692.525100
 20
53.274270
 30
0.0
 10
692.525100
 20
52.830297
 30
0.0
 10
692.716113
 20
52.489573
 30
0.0
 10
693.098140
 20
52.252100
 30
0.0
  0
SPLINE
  5
26e
100
AcDbEntity
  8
Layer_2
 62
7
100
AcDbSpline
 70
8
 71
3
 72
8
 73
4
 74
0
 40
0
 40
0
 40
0
 40
0
 40
1
 40
1
 40
1
 40
1
 10
693.098140
 20
52.252100
 30
0.0
 10
693.490487
 20
52.014627
 30
0.0
 10
694.187417
 20
51.839103
 30
0.0
 10
695.188930
 20
51.725530
 30
0.0
  0
LWPOLYLINE
  5
26f
100
AcDbEntity
  8
Layer_2
 62
7
100
AcDbPolyline
 90
2
 70
0
 10
702.204700
 20
57.610730
 30
0.0
 10
702.204700
 20
53.398170
 30
0.0
  0
SPLINE
  5
270
100
AcDbEntity
  8
Layer_2
 62
7
100
AcDbSpline
 70
8
 71
3
 72
8
 73
4
 74
0
 40
0
 40
0
 40
0
 40
0
 40
1
 40
1
 40
1
 40
1
 10
696.164630
 20
51.586140
 30
0.0
 10
699.003977
 20
51.224773
 30
0.0
 10
700.914083
 20
50.631093
 30
0.0
 10
701.894950
 20
49.805100
 30
0.0
  0
SPLINE
  5
271
100
AcDbEntity
  8
Layer_2
 62
7
100
AcDbSpline
 70
8
 71
3
 72
8
 73
4
 74
0
 40
0
 40
0
 40
0
 40
0
 40
1
 40
1
 40
1
 40
1
 10
701.894950
 20
49.805100
 30
0.0
 10
702.875817
 20
48.979107
 30
0.0
 10
703.366250
 20
47.683330
 30
0.0
 10
703.366250
 20
45.917770
 30
0.0
  0
SPLINE
  5
272
100
AcDbEntity
  8
Layer_2
 62
7
100
AcDbSpline
 70
8
 71
3
 72
8
 73
4
 74
0
 40
0
 40
0
 40
0
 40
0
 40
1
 40
1
 40
1
 40
1
 10
703.366250
 20
45.917770
 30
0.0
 10
703.366250
 20
44.069617
 30
0.0
 10
702.684807
 20
42.680920
 30
0.0
 10
701.321920
 20
41.751680
 30
0.0
  0
SPLINE
  5
273
100
AcDbEntity
  8
Layer_2
 62
7
100
AcDbSpline
 70
8
 71
3
 72
8
 73
4
 74
0
 40
0
 40
0
 40
0
 40
0
 40
1
 40
1
 40
1
 40
1
 10
701.321920
 20
41.751680
 30
0.0
 10
699.959033
 20
40.822433
 30
0.0
 10
697.925027
 20
40.357810
 30
0.0
 10
695.219900
 20
40.357810
 30
0.0
  0
SPLINE
  5
274
100
AcDbEntity
  8
Layer_2
 62
7
100
AcDbSpline
 70
8
 71
3
 72
8
 73
4
 74
0
 40
0
 40
0
 40
0
 40
0
 40
1
 40
1
 40
1
 40
1
 10
695.219900
 20
40.357810
 30
0.0
 10
694.073840
 20
40.357810
 30
0.0
 10
692.886477
 20
40.450737
 30
0.0
 10
691.657810
 20
40.636590
 30
0.0
  0
SPLINE
  5
275
100
AcDbEntity
  8
Layer_2
 62
7
100
AcDbSpline
 70
8
 71
3
 72
8
 73
4
 74
0
 40
0
 40
0
 40
0
 40
0
 40
1
 40
1
 40
1
 40
1
 10
691.657810
 20
40.636590
 30
0.0
 10
690.439470
 20
40.812110
 30
0.0
 10
689.184997
 20
41.080557
 30
0.0
 10
687.894390
 20
41.441930
 30
0.0
  0
LWPOLYLINE
  5
276
100
AcDbEntity
  8
Layer_2
 62
7
100
AcDbPolyline
 90
2
 70
0
 10
695.188930
 20
51.725530
 30
0.0
 10
696.164630
 20
51.586140
 30
0.0
  0
SPLINE
  5
277
100
AcDbEntity
  8
Layer_2
 62
7
100
AcDbSpline
 70
8
 71
3
 72
8
 73
4
 74
0
 40
0
 40
0
 40
0
 40
0
 40
1
 40
1
 40
1
 40
1
 10
687.894390
 20
45.654490
 30
0.0
 10
688.999150
 20
45.117597
 30
0.0
 10
690.129727
 20
44.714923
 30
0.0
 10
691.286120
 20
44.446470
 30
0.0
  0
SPLINE
  5
278
100
AcDbEntity
  8
Layer_2
 62
7
100
AcDbSpline
 70
8
 71
3
 72
8
 73
4
 74
0
 40
0
 40
0
 40
0
 40
0
 40
1
 40
1
 40
1
 40
1
 10
691.286120
 20
44.446470
 30
0.0
 10
692.452833
 20
44.178023
 30
0.0
 10
693.635033
 20
44.043800
 30
0.0
 10
694.832720
 20
44.043800
 30
0.0
  0
SPLINE
  5
279
100
AcDbEntity
  8
Layer_2
 62
7
100
AcDbSpline
 70
8
 71
3
 72
8
 73
4
 74
0
 40
0
 40
0
 40
0
 40
0
 40
1
 40
1
 40
1
 40
1
 10
694.832720
 20
44.043800
 30
0.0
 10
695.916833
 20
44.043800
 30
0.0
 10
696.732500
 20
44.193513
 30
0.0
 10
697.279720
 20
44.492940
 30
0.0
  0
SPLINE
  5
27a
100
AcDbEntity
  8
Layer_2
 62
7
100
AcDbSpline
 70
8
 71
3
 72
8
 73
4
 74
0
 40
0
 40
0
 40
0
 40
0
 40
1
 40
1
 40
1
 40
1
 10
697.279720
 20
44.492940
 30
0.0
 10
697.826940
 20
44.792360
 30
0.0
 10
698.100550
 20
45.236330
 30
0.0
 10
698.100550
 20
45.824850
 30
0.0
  0
SPLINE
  5
27b
100
AcDbEntity
  8
Layer_2
 62
7
100
AcDbSpline
 70
8
 71
3
 72
8
 73
4
 74
0
 40
0
 40
0
 40
0
 40
0
 40
1
 40
1
 40
1
 40
1
 10
698.100550
 20
45.824850
 30
0.0
 10
698.100550
 20
46.320443
 30
0.0
 10
697.909540
 20
46.686977
 30
0.0
 10
697.527520
 20
46.924450
 30
0.0
  0
SPLINE
  5
27c
100
AcDbEntity
  8
Layer_2
 62
7
100
AcDbSpline
 70
8
 71
3
 72
8
 73
4
 74
0
 40
0
 40
0
 40
0
 40
0
 40
1
 40
1
 40
1
 40
1
 10
697.527520
 20
46.924450
 30
0.0
 10
697.155820
 20
47.172250
 30
0.0
 10
696.407263
 20
47.363260
 30
0.0
 10
695.281850
 20
47.497480
 30
0.0
  0
LWPOLYLINE
  5
27d
100
AcDbEntity
  8
Layer_2
 62
7
100
AcDbPolyline
 90
2
 70
0
 10
687.894390
 20
41.441930
 30
0.0
 10
687.894390
 20
45.654490
 30
0.0
  0
SPLINE
  5
27e
100
AcDbEntity
  8
Layer_2
 62
7
100
AcDbSpline
 70
8
 71
3
 72
8
 73
4
 74
0
 40
0
 40
0
 40
0
 40
0
 40
1
 40
1
 40
1
 40
1
 10
694.306150
 20
47.621380
 30
0.0
 10
691.838497
 20
47.931127
 30
0.0
 10
690.109077
 20
48.504160
 30
0.0
 10
689.117890
 20
49.340480
 30
0.0
  0
SPLINE
  5
27f
100
AcDbEntity
  8
Layer_2
 62
7
100
AcDbSpline
 70
8
 71
3
 72
8
 73
4
 74
0
 40
0
 40
0
 40
0
 40
0
 40
1
 40
1
 40
1
 40
1
 10
689.117890
 20
49.340480
 30
0.0
 10
688.126697
 20
50.176793
 30
0.0
 10
687.631100
 20
51.446757
 30
0.0
 10
687.631100
 20
53.150370
 30
0.0
  0
SPLINE
  5
280
100
AcDbEntity
  8
Layer_2
 62
7
100
AcDbSpline
 70
8
 71
3
 72
8
 73
4
 74
0
 40
0
 40
0
 40
0
 40
0
 40
1
 40
1
 40
1
 40
1
 10
687.631100
 20
53.150370
 30
0.0
 10
687.631100
 20
54.988203
 30
0.0
 10
688.260920
 20
56.351090
 30
0.0
 10
689.520560
 20
57.239030
 30
0.0
  0
SPLINE
  5
281
100
AcDbEntity
  8
Layer_2
 62
7
100
AcDbSpline
 70
8
 71
3
 72
8
 73
4
 74
0
 40
0
 40
0
 40
0
 40
0
 40
1
 40
1
 40
1
 40
1
 10
689.520560
 20
57.239030
 30
0.0
 10
690.780193
 20
58.126970
 30
0.0
 10
692.710950
 20
58.570940
 30
0.0
 10
695.312830
 20
58.570940
 30
0.0
  0
SPLINE
  5
282
100
AcDbEntity
  8
Layer_2
 62
7
100
AcDbSpline
 70
8
 71
3
 72
8
 73
4
 74
0
 40
0
 40
0
 40
0
 40
0
 40
1
 40
1
 40
1
 40
1
 10
695.312830
 20
58.570940
 30
0.0
 10
696.334997
 20
58.570940
 30
0.0
 10
697.408787
 20
58.493503
 30
0.0
 10
698.534200
 20
58.338630
 30
0.0
  0
SPLINE
  5
283
100
AcDbEntity
  8
Layer_2
 62
7
100
AcDbSpline
 70
8
 71
3
 72
8
 73
4
 74
0
 40
0
 40
0
 40
0
 40
0
 40
1
 40
1
 40
1
 40
1
 10
698.534200
 20
58.338630
 30
0.0
 10
699.659613
 20
58.183757
 30
0.0
 10
700.883113
 20
57.941123
 30
0.0
 10
702.204700
 20
57.610730
 30
0.0
  0
LWPOLYLINE
  5
284
100
AcDbEntity
  8
Layer_2
 62
7
100
AcDbPolyline
 90
2
 70
0
 10
695.281850
 20
47.497480
 30
0.0
 10
694.306150
 20
47.621380
 30
0.0
  0
LWPOLYLINE
  5
285
100
AcDbEntity
  8
Layer_2
 62
7
100
AcDbPolyline
 90
1
 70
1
 10
702.204700
 20
57.610730
 30
0.0
  0
ENDSEC
  0
SECTION
  2
OBJECTS
  0
DICTIONARY
  5
C
330
0
100
AcDbDictionary
  3
ACAD_GROUP
350
D
  3
ACAD_MLINESTYLE
350
17
  0
DICTIONARY
  5
D
330
C
100
AcDbDictionary
  0
DICTIONARY
  5
1A
330
C
100
AcDbDictionary
  0
DICTIONARY
  5
17
330
C
100
AcDbDictionary
  3
STANDARD
350
18
  0
DICTIONARY
  5
19
330
C
100
AcDbDictionary
  0
ENDSEC
  0
EOF
